<svg xmlns="http://www.w3.org/2000/svg" width="700" height="310" viewBox="0 0 700 310">
  <g fill="none" fill-rule="evenodd">
    <rect width="700" height="310" fill="#FFF"/>
    <g transform="translate(40 35)">
      <text fill="#364141" font-family="ProximaNova-Semibold, Proxima Nova" font-size="16" font-weight="500">
        <tspan x="436.344" y="215">1,652,760</tspan>
      </text>
      <text fill="#08C4B2" font-family="ProximaNova-Semibold, Proxima Nova" font-size="16" font-weight="500">
        <tspan x="574" y="217">1.5%</tspan>
      </text>
      <polygon fill="#00C5B2" points="556.192 208.701 558.334 208.701 558.334 211.848 557.523 211.848 556 211.848 556 213.371 556 216.516 557.523 216.516 557.523 213.371 558.334 213.371 559.857 213.371 559.857 211.848 559.857 208.701 562 208.701 559.096 205" transform="rotate(40 559 210.758)"/>
      <text fill="#364141" font-family="ProximaNova-Semibold, Proxima Nova" font-size="16" font-weight="500">
        <tspan x="10" y="215">Total Impressions</tspan>
      </text>
      <rect width="620" height="2" y="183" fill="#B0B6B7"/>
      <text fill="#08C4B2" font-family="ProximaNova-Semibold, Proxima Nova" font-size="16" font-weight="500">
        <tspan x="571" y="167">4.5%</tspan>
      </text>
      <polygon fill="#00C5B2" points="556.192 158.701 558.334 158.701 558.334 161.848 557.523 161.848 556 161.848 556 163.371 556 166.516 557.523 166.516 557.523 163.371 558.334 163.371 559.857 163.371 559.857 161.848 559.857 158.701 562 158.701 559.096 155" transform="rotate(40 559 160.758)"/>
      <text fill="#364141" font-family="ProximaNova-Regular, Proxima Nova" font-size="16">
        <tspan x="438.256" y="165">1,546,597</tspan>
      </text>
      <text fill="#515E5F" font-family="ProximaNova-Regular, Proxima Nova" font-size="16">
        <tspan x="10" y="165">Paid Impressions</tspan>
      </text>
      <rect width="620" height="1" y="133" fill="#C8CCCC"/>
      <text fill="#364141" font-family="ProximaNova-Regular, Proxima Nova" font-size="16">
        <tspan x="469.216" y="115">8,491</tspan>
      </text>
      <text fill="#DB3E3E" font-family="ProximaNova-Semibold, Proxima Nova" font-size="16" font-weight="500">
        <tspan x="571" y="117">4.2%</tspan>
      </text>
      <polygon fill="#DB3E3E" points="559.096 105 556.192 108.701 558.334 108.701 558.334 111.848 557.523 111.848 556 111.848 556 113.371 556 116.516 557.523 116.516 557.523 113.371 558.334 113.371 559.857 113.371 559.857 111.848 559.857 108.701 562 108.701 559.096 105" transform="scale(1 -1) rotate(40 863.305 0)"/>
      <text fill="#515E5F" font-family="ProximaNova-Regular, Proxima Nova" font-size="16">
        <tspan x="10" y="115">Viral Impressions</tspan>
      </text>
      <rect width="620" height="1" y="83" fill="#C8CCCC"/>
      <text fill="#364141" font-family="ProximaNova-Regular, Proxima Nova" font-size="16">
        <tspan x="457.52" y="65">97,672</tspan>
      </text>
      <text fill="#08C4B2" font-family="ProximaNova-Semibold, Proxima Nova" font-size="16" font-weight="500">
        <tspan x="570" y="67">2.6%</tspan>
      </text>
      <polygon fill="#00C5B2" points="556.192 58.701 558.334 58.701 558.334 61.848 557.523 61.848 556 61.848 556 63.371 556 66.516 557.523 66.516 557.523 63.371 558.334 63.371 559.857 63.371 559.857 61.848 559.857 58.701 562 58.701 559.096 55" transform="rotate(40 559 60.758)"/>
      <text fill="#515E5F" font-family="ProximaNova-Regular, Proxima Nova" font-size="16">
        <tspan x="10" y="65">Organic Impressions</tspan>
      </text>
      <rect width="620" height="1" y="33" fill="#C8CCCC"/>
      <text fill="#B0B6B7" font-family="ProximaNova-Semibold, Proxima Nova" font-size="13" font-weight="500">
        <tspan x="571.81" y="13">Trend</tspan>
      </text>
      <text fill="#B0B6B7" font-family="ProximaNova-Semibold, Proxima Nova" font-size="13" font-weight="500">
        <tspan x="470.64" y="13">Totals</tspan>
      </text>
      <text fill="#B0B6B7" font-family="ProximaNova-Semibold, Proxima Nova" font-size="13" font-weight="500">
        <tspan x="10" y="13">Metrics</tspan>
      </text>
    </g>
  </g>
</svg>
