<svg xmlns="http://www.w3.org/2000/svg" width="700" height="380" viewBox="0 0 700 380">
  <g fill="none" fill-rule="evenodd">
    <rect width="700" height="380" fill="#FFF"/>
    <text fill="#B0B6B7" font-family="ProximaNova-Semibold, Proxima Nova" font-size="13" font-weight="500">
      <tspan x="620.028" y="333">Dec</tspan>
    </text>
    <text fill="#B0B6B7" font-family="ProximaNova-Semibold, Proxima Nova" font-size="13" font-weight="500">
      <tspan x="570.319" y="333">Nov</tspan>
    </text>
    <text fill="#B0B6B7" font-family="ProximaNova-Semibold, Proxima Nova" font-size="13" font-weight="500">
      <tspan x="522.217" y="333">Oct</tspan>
    </text>
    <text fill="#B0B6B7" font-family="ProximaNova-Semibold, Proxima Nova" font-size="13" font-weight="500">
      <tspan x="469.182" y="333">Sept</tspan>
    </text>
    <text fill="#B0B6B7" font-family="ProximaNova-Semibold, Proxima Nova" font-size="13" font-weight="500">
      <tspan x="418.163" y="333">Aug</tspan>
    </text>
    <text fill="#B0B6B7" font-family="ProximaNova-Semibold, Proxima Nova" font-size="13" font-weight="500">
      <tspan x="375.115" y="333">Jul</tspan>
    </text>
    <text fill="#B0B6B7" font-family="ProximaNova-Semibold, Proxima Nova" font-size="13" font-weight="500">
      <tspan x="326.49" y="333">Jun</tspan>
    </text>
    <text fill="#B0B6B7" font-family="ProximaNova-Semibold, Proxima Nova" font-size="13" font-weight="500">
      <tspan x="275.313" y="333">May</tspan>
    </text>
    <text fill="#B0B6B7" font-family="ProximaNova-Semibold, Proxima Nova" font-size="13" font-weight="500">
      <tspan x="227.107" y="333">Apr</tspan>
    </text>
    <text fill="#B0B6B7" font-family="ProximaNova-Semibold, Proxima Nova" font-size="13" font-weight="500">
      <tspan x="178.327" y="333">Mar</tspan>
    </text>
    <text fill="#B0B6B7" font-family="ProximaNova-Semibold, Proxima Nova" font-size="13" font-weight="500">
      <tspan x="128.444" y="333">Feb</tspan>
    </text>
    <text fill="#B0B6B7" font-family="ProximaNova-Semibold, Proxima Nova" font-size="13" font-weight="500">
      <tspan x="81.184" y="333">Jan</tspan>
    </text>
    <rect width="590" height="2" x="70" y="308" fill="#C8CCCC"/>
    <rect width="590" height="1" x="70" y="249" fill="#C8CCCC"/>
    <rect width="590" height="1" x="70" y="189" fill="#C8CCCC"/>
    <rect width="590" height="1" x="70" y="129" fill="#C8CCCC"/>
    <rect width="590" height="1" x="70" y="69" fill="#C8CCCC"/>
    <path stroke="#08C4B2" stroke-width="5" d="M87.7011719,152.277344 C92.9863281,147.466797 133.353516,106.621094 140.941406,106.621094 C148.529297,106.621094 187.416016,193.5625 190.591797,197.246094 C193.767578,200.929687 240.574219,205.65625 243.892578,203.048828 C247.210937,200.441406 275.933594,161.216797 282.208984,161.216797 C288.484375,161.216797 329.748047,178.308594 335.804688,178.308594 C341.861328,178.308594 381.261719,116.986328 387.519531,116.986328 C393.777344,116.986328 425.646484,226.248047 430.388672,229.427734 C435.130859,232.607422 481.191406,206.949219 485.011719,203.048828 C488.832031,199.148437 530.271484,138.402344 536.154297,138.402344 C542.037109,138.402344 576.568359,178.308594 581.583984,178.308594 C586.599609,178.308594 640.857422,102.871094 644.923828,97.1191406"/>
    <text fill="#B0B6B7" font-family="ProximaNova-Semibold, Proxima Nova" font-size="13" font-weight="500">
      <tspan x="35" y="313">0</tspan>
    </text>
    <text fill="#B0B6B7" font-family="ProximaNova-Semibold, Proxima Nova" font-size="13" font-weight="500">
      <tspan x="35" y="253">5k</tspan>
    </text>
    <text fill="#B0B6B7" font-family="ProximaNova-Semibold, Proxima Nova" font-size="13" font-weight="500">
      <tspan x="35" y="193">10k</tspan>
    </text>
    <text fill="#B0B6B7" font-family="ProximaNova-Semibold, Proxima Nova" font-size="13" font-weight="500">
      <tspan x="35" y="133">15k</tspan>
    </text>
    <text fill="#B0B6B7" font-family="ProximaNova-Semibold, Proxima Nova" font-size="13" font-weight="500">
      <tspan x="35" y="73">20k</tspan>
    </text>
  </g>
</svg>
