<svg xmlns="http://www.w3.org/2000/svg" width="700" height="310" viewBox="0 0 700 310">
  <g fill="none" fill-rule="evenodd">
    <rect width="700" height="310" fill="#FFF"/>
    <rect width="620" height="52" x="40" y="218" fill="#DEE1E1"/>
    <rect width="140" height="16" x="50" y="236" fill="#515E5F"/>
    <rect width="30" height="16" x="345" y="236" fill="#515E5F"/>
    <rect width="50" height="16" x="470" y="236" fill="#515E5F"/>
    <rect width="50" height="16" x="600" y="236" fill="#515E5F"/>
    <rect width="100" height="16" x="50" y="186" fill="#515E5F"/>
    <rect width="30" height="16" x="345" y="186" fill="#515E5F"/>
    <rect width="50" height="16" x="470" y="186" fill="#515E5F"/>
    <rect width="50" height="16" x="600" y="186" fill="#515E5F"/>
    <rect width="620" height="52" x="40" y="118" fill="#DEE1E1"/>
    <rect width="130" height="16" x="50" y="136" fill="#515E5F"/>
    <rect width="30" height="16" x="345" y="136" fill="#515E5F"/>
    <rect width="50" height="16" x="470" y="136" fill="#515E5F"/>
    <rect width="50" height="16" x="600" y="136" fill="#515E5F"/>
    <rect width="115" height="16" x="50" y="86" fill="#515E5F"/>
    <rect width="30" height="16" x="345" y="86" fill="#515E5F"/>
    <rect width="50" height="16" x="470" y="86" fill="#515E5F"/>
    <rect width="50" height="16" x="600" y="86" fill="#515E5F"/>
    <rect width="620" height="1" x="40" y="68" fill="#C8CCCC"/>
    <rect width="80" height="8" x="51" y="40" fill="#B0B6B7"/>
    <rect width="60" height="8" x="315" y="40" fill="#B0B6B7"/>
    <rect width="100" height="8" x="420" y="40" fill="#B0B6B7"/>
    <rect width="85" height="8" x="565" y="40" fill="#B0B6B7"/>
  </g>
</svg>
