<svg xmlns="http://www.w3.org/2000/svg" xmlns:xlink="http://www.w3.org/1999/xlink" width="900" height="780" style="background:#f3f4f4" viewBox="0 0 900 780">
  <defs>
    <rect id="chart-area-partial-data-a" width="760" height="220" rx="3"/>
    <rect id="chart-area-partial-data-b" width="100" height="30" rx="3"/>
    <rect id="chart-area-partial-data-d" width="240" height="130" rx="3"/>
    <filter id="chart-area-partial-data-c" height="136.9%" y="-18.5%" filterUnits="objectBoundingBox">
      <feOffset in="SourceAlpha" result="shadowOffsetOuter1"/>
      <feGaussianBlur in="shadowOffsetOuter1" result="shadowBlurOuter1" stdDeviation="8"/>
      <feComposite in="shadowBlurOuter1" in2="SourceAlpha" operator="out" result="shadowBlurOuter1"/>
      <feColorMatrix in="shadowBlurOuter1" values="0 0 0 0 0.317647059   0 0 0 0 0.368627451   0 0 0 0 0.37254902  0 0 0 0.4 0"/>
    </filter>
  </defs>
  <g fill="none" fill-rule="evenodd">
    <g transform="translate(30 30)">
      <rect width="840" height="720" fill="#FFF"/>
      <g transform="translate(40 40)">
        <g transform="translate(0 420)">
          <use fill="#FFF" xlink:href="#chart-area-partial-data-a"/>
          <rect width="759" height="219" x=".5" y=".5" stroke="#C8CCCC" rx="3"/>
          <g transform="translate(521 64)">
            <text fill="#08C4B2" font-family="ProximaNova-Regular, Proxima Nova" font-size="13">
              <tspan x="53.185" y="84">Since Last Month</tspan>
            </text>
            <text fill="#08C4B2" font-family="ProximaNova-Semibold, Proxima Nova" font-size="16" font-weight="500">
              <tspan x="58.812" y="52.5"> </tspan> <tspan x="81.516" y="47.356" font-size="28">1.2%</tspan>
            </text>
            <polygon fill="#00C5B2" points="73.385 40.58 69.513 45.515 72.37 45.515 72.37 49.71 71.288 49.71 69.257 49.71 69.257 51.741 69.257 55.935 71.288 55.935 71.288 51.741 72.37 51.741 74.4 51.741 74.4 49.71 74.4 45.515 77.257 45.515 73.386 40.58" transform="rotate(40 73.257 48.257)"/>
            <text fill="#515E5F" font-family="ProximaNova-Regular, Proxima Nova" font-size="13">
              <tspan x="22.115" y="12">Total followers increased by</tspan>
            </text>
          </g>
          <g transform="translate(20 27)">
            <text fill="#6E797A" font-family="ProximaNova-Semibold, Proxima Nova" font-size="16" font-weight="500">
              <tspan x="436.216" y="163">123</tspan>
            </text>
            <text fill="#515E5F" font-family="ProximaNova-Regular, Proxima Nova" font-size="16">
              <tspan x="1" y="163">People That You Followed</tspan>
            </text>
            <rect width="460" height="1" y="133" fill="#C8CCCC"/>
            <text fill="#6E797A" font-family="ProximaNova-Semibold, Proxima Nova" font-size="16" font-weight="500">
              <tspan x="423.016" y="113">1,234</tspan>
            </text>
            <text fill="#515E5F" font-family="ProximaNova-Regular, Proxima Nova" font-size="16">
              <tspan x="1" y="113">Followers Gained</tspan>
            </text>
            <rect width="460" height="2" y="83" fill="#B0B6B7"/>
            <text fill="#364141" font-family="ProximaNova-Semibold, Proxima Nova" font-size="16" font-weight="500">
              <tspan x="423.016" y="63">1,234</tspan>
            </text>
            <text fill="#364141" font-family="ProximaNova-Semibold, Proxima Nova" font-size="16" font-weight="500">
              <tspan x="1" y="63">Total Followers</tspan>
            </text>
            <rect width="460" height="1" y="33" fill="#C8CCCC"/>
            <text fill="#929A9B" font-family="ProximaNova-Semibold, Proxima Nova" font-size="13" font-weight="500">
              <tspan x="426.64" y="13">Totals</tspan>
            </text>
            <text fill="#929A9B" font-family="ProximaNova-Semibold, Proxima Nova" font-size="13" font-weight="500">
              <tspan x="0" y="13">Sent Metrics</tspan>
            </text>
          </g>
        </g>
        <g transform="translate(0 49)">
          <g transform="translate(319 318)">
            <text fill="#929A9B" font-family="ProximaNova-Semibold, Proxima Nova" font-size="13" font-weight="500">
              <tspan x="20" y="13">Followers Gained</tspan>
            </text>
            <rect width="12" height="12" y="3" fill="#08C4B2" rx="3"/>
          </g>
          <g font-family="ProximaNova-Semibold, Proxima Nova" font-size="11" font-weight="500" letter-spacing=".926" transform="translate(18 264)">
            <text fill="#929A9B">
              <tspan x=".601" y="32">APR</tspan>
            </text>
            <text fill="#ED4C42">
              <tspan x="10" y="11">1</tspan>
            </text>
            <text fill="#ED4C42">
              <tspan x="29" y="11">2</tspan>
            </text>
            <text fill="#ED4C42">
              <tspan x="50" y="11">3</tspan>
            </text>
            <text fill="#ED4C42">
              <tspan x="72" y="11">4</tspan>
            </text>
            <text fill="#ED4C42">
              <tspan x="93" y="11">5</tspan>
            </text>
            <text fill="#ED4C42">
              <tspan x="114" y="11">6</tspan>
            </text>
            <text fill="#ED4C42">
              <tspan x="136" y="11">7</tspan>
            </text>
            <text fill="#ED4C42">
              <tspan x="156" y="11">8</tspan>
            </text>
            <text fill="#ED4C42">
              <tspan x="177" y="11">9</tspan>
            </text>
            <text fill="#ED4C42">
              <tspan x="199" y="11">10</tspan>
            </text>
            <text fill="#ED4C42">
              <tspan x="224" y="11">11</tspan>
            </text>
            <text fill="#ED4C42">
              <tspan x="247" y="11">12</tspan>
            </text>
            <text fill="#ED4C42">
              <tspan x="272" y="11">13</tspan>
            </text>
            <text fill="#ED4C42">
              <tspan x="297" y="11">14</tspan>
            </text>
            <text fill="#ED4C42">
              <tspan x="323" y="11">15</tspan>
            </text>
            <text fill="#ED4C42">
              <tspan x="348" y="11">16</tspan>
            </text>
            <text fill="#ED4C42">
              <tspan x="373" y="11">17</tspan>
            </text>
            <text fill="#ED4C42">
              <tspan x="397" y="11">18</tspan>
            </text>
            <text fill="#ED4C42">
              <tspan x="422" y="11">19</tspan>
            </text>
            <text fill="#ED4C42">
              <tspan x="449" y="11">20</tspan>
            </text>
            <text fill="#ED4C42">
              <tspan x="477" y="11">21</tspan>
            </text>
            <text fill="#ED4C42">
              <tspan x="502" y="11">22</tspan>
            </text>
            <text fill="#929A9B">
              <tspan x="530" y="11">23</tspan>
            </text>
            <text fill="#929A9B">
              <tspan x="558" y="11">24</tspan>
            </text>
            <text fill="#929A9B">
              <tspan x="586" y="11">25</tspan>
            </text>
            <text fill="#929A9B">
              <tspan x="614" y="11">26</tspan>
            </text>
            <text fill="#929A9B">
              <tspan x="643" y="11">27</tspan>
            </text>
            <text fill="#929A9B">
              <tspan x="670" y="11">28</tspan>
            </text>
            <text fill="#929A9B">
              <tspan x="698" y="11">29</tspan>
            </text>
            <text fill="#929A9B">
              <tspan x="727" y="11">30</tspan>
            </text>
          </g>
          <rect width="730" height="2" x="30" y="250" fill="#B0B6B7"/>
          <rect width="730" height="1" x="30" y="200" fill="#C8CCCC"/>
          <rect width="730" height="1" x="30" y="150" fill="#C8CCCC"/>
          <rect width="730" height="1" x="30" y="100" fill="#C8CCCC"/>
          <rect width="730" height="1" x="30" y="50" fill="#C8CCCC"/>
          <g fill="#929A9B" font-family="ProximaNova-Semibold, Proxima Nova" font-size="11" font-weight="500" letter-spacing=".926" transform="translate(0 44)">
            <text>
              <tspan x="0" y="211">0</tspan>
            </text>
            <text>
              <tspan x="0" y="161">50</tspan>
            </text>
            <text>
              <tspan x="0" y="111">100</tspan>
            </text>
            <text>
              <tspan x="0" y="61">150</tspan>
            </text>
            <text>
              <tspan x="0" y="11">200</tspan>
            </text>
          </g>
          <g transform="translate(30 250)">
            <rect width="7.463" height="2" fill="#ED4C42"/>
            <rect width="7.463" height="2" x="13.06" fill="#ED4C42"/>
            <rect width="5.597" height="2" x="7.463" fill="#DEE1E1"/>
            <rect width="5.597" height="2" x="20.522" fill="#DEE1E1"/>
            <rect width="5.597" height="2" x="33.582" fill="#DEE1E1"/>
            <rect width="5.597" height="2" x="46.642" fill="#DEE1E1"/>
            <rect width="5.597" height="2" x="59.701" fill="#DEE1E1"/>
            <rect width="7.463" height="2" x="26.119" fill="#ED4C42"/>
            <rect width="7.463" height="2" x="39.179" fill="#ED4C42"/>
            <rect width="7.463" height="2" x="52.239" fill="#ED4C42"/>
            <rect width="7.463" height="2" x="65.299" fill="#ED4C42"/>
            <rect width="5.597" height="2" x="72.761" fill="#DEE1E1"/>
            <rect width="5.597" height="2" x="85.821" fill="#DEE1E1"/>
            <rect width="7.463" height="2" x="78.358" fill="#ED4C42"/>
            <rect width="7.463" height="2" x="91.418" fill="#ED4C42"/>
            <rect width="5.597" height="2" x="98.881" fill="#DEE1E1"/>
            <rect width="7.463" height="2" x="104.478" fill="#ED4C42"/>
            <rect width="5.597" height="2" x="111.94" fill="#DEE1E1"/>
            <rect width="7.463" height="2" x="117.537" fill="#ED4C42"/>
            <rect width="5.597" height="2" x="124.94" fill="#DEE1E1"/>
            <rect width="7.463" height="2" x="130" fill="#ED4C42"/>
            <rect width="7.463" height="2" x="143.06" fill="#ED4C42"/>
            <rect width="5.597" height="2" x="137.463" fill="#DEE1E1"/>
            <rect width="5.597" height="2" x="150.522" fill="#DEE1E1"/>
            <rect width="5.597" height="2" x="163.582" fill="#DEE1E1"/>
            <rect width="5.597" height="2" x="176.642" fill="#DEE1E1"/>
            <rect width="5.597" height="2" x="189.701" fill="#DEE1E1"/>
            <rect width="7.463" height="2" x="156.119" fill="#ED4C42"/>
            <rect width="7.463" height="2" x="169.179" fill="#ED4C42"/>
            <rect width="7.463" height="2" x="182.239" fill="#ED4C42"/>
            <rect width="7.463" height="2" x="195.299" fill="#ED4C42"/>
            <rect width="5.597" height="2" x="202.761" fill="#DEE1E1"/>
            <rect width="5.597" height="2" x="215.821" fill="#DEE1E1"/>
            <rect width="7.463" height="2" x="208.358" fill="#ED4C42"/>
            <rect width="7.463" height="2" x="221.418" fill="#ED4C42"/>
            <rect width="5.597" height="2" x="228.881" fill="#DEE1E1"/>
            <rect width="7.463" height="2" x="234.478" fill="#ED4C42"/>
            <rect width="5.597" height="2" x="241.94" fill="#DEE1E1"/>
            <rect width="7.463" height="2" x="247.537" fill="#ED4C42"/>
            <rect width="5.597" height="2" x="255.94" fill="#DEE1E1"/>
            <rect width="7.463" height="2" x="261" fill="#ED4C42"/>
            <rect width="7.463" height="2" x="274.06" fill="#ED4C42"/>
            <rect width="5.597" height="2" x="268.463" fill="#DEE1E1"/>
            <rect width="5.597" height="2" x="281.522" fill="#DEE1E1"/>
            <rect width="5.597" height="2" x="294.582" fill="#DEE1E1"/>
            <rect width="5.597" height="2" x="307.642" fill="#DEE1E1"/>
            <rect width="5.597" height="2" x="320.701" fill="#DEE1E1"/>
            <rect width="7.463" height="2" x="287.119" fill="#ED4C42"/>
            <rect width="7.463" height="2" x="300.179" fill="#ED4C42"/>
            <rect width="7.463" height="2" x="313.239" fill="#ED4C42"/>
            <rect width="7.463" height="2" x="326.299" fill="#ED4C42"/>
            <rect width="5.597" height="2" x="333.761" fill="#DEE1E1"/>
            <rect width="5.597" height="2" x="346.821" fill="#DEE1E1"/>
            <rect width="7.463" height="2" x="339.358" fill="#ED4C42"/>
            <rect width="7.463" height="2" x="352.418" fill="#ED4C42"/>
            <rect width="5.597" height="2" x="359.881" fill="#DEE1E1"/>
            <rect width="7.463" height="2" x="365.478" fill="#ED4C42"/>
            <rect width="5.597" height="2" x="372.94" fill="#DEE1E1"/>
            <rect width="7.463" height="2" x="378.537" fill="#ED4C42"/>
            <rect width="5.597" height="2" x="386.94" fill="#DEE1E1"/>
            <rect width="7.463" height="2" x="392" fill="#ED4C42"/>
            <rect width="7.463" height="2" x="405.06" fill="#ED4C42"/>
            <rect width="5.597" height="2" x="399.463" fill="#DEE1E1"/>
            <rect width="5.597" height="2" x="412.522" fill="#DEE1E1"/>
            <rect width="5.597" height="2" x="425.582" fill="#DEE1E1"/>
            <rect width="5.597" height="2" x="438.642" fill="#DEE1E1"/>
            <rect width="5.597" height="2" x="451.701" fill="#DEE1E1"/>
            <rect width="7.463" height="2" x="418.119" fill="#ED4C42"/>
            <rect width="7.463" height="2" x="431.179" fill="#ED4C42"/>
            <rect width="7.463" height="2" x="444.239" fill="#ED4C42"/>
            <rect width="7.463" height="2" x="457.299" fill="#ED4C42"/>
            <rect width="5.597" height="2" x="464.761" fill="#DEE1E1"/>
            <rect width="5.597" height="2" x="477.821" fill="#DEE1E1"/>
            <rect width="7.463" height="2" x="470.358" fill="#ED4C42"/>
            <rect width="7.463" height="2" x="483.418" fill="#ED4C42"/>
            <rect width="5.597" height="2" x="490.881" fill="#DEE1E1"/>
            <rect width="7.463" height="2" x="496.478" fill="#ED4C42"/>
          </g>
          <path fill="#08C4B2" d="M760,140.533952 C760,140.533952 738.859588,175.942964 734.837316,175.942964 C730.815043,175.942964 715.243937,151.543051 709.674632,151.543051 C704.105327,151.543051 689.349336,202.128651 684.511947,209.144454 C679.674559,216.160258 663.577305,213.214274 659.349263,209.144454 C655.121221,205.074635 640.660493,175.942964 634.186579,170.178706 C627.712665,164.414448 615.858572,158.522781 609.023895,154.42518 C602.189218,150.327578 591.492772,142.396251 583.861211,140.958354 C576.229649,139.520456 567.047159,145.702529 558.697553,153.791745 C550.347948,161.880961 540.646125,166.459275 533.534869,176.04748 C526.423613,185.635686 514.384764,217.109324 508.372185,222.582776 C502.359606,228.056228 490.448435,227.786167 483.209501,224.422904 C475.970567,221.059642 469.372336,206.758096 458.046817,194.591287 C446.721297,182.424478 440.46346,175.413019 432.884132,170.359235 C425.304805,165.305451 418.217666,164.14569 407.721448,161.035073 C397.22523,157.924456 391.91536,153.791745 382.558764,155.44501 C373.202168,157.098275 365.144716,161.035073 357.39608,175.942964 C349.647444,190.850854 339.140847,213.214274 332.233396,220.669803 C325.325944,228.125331 313.117975,224.422904 307.070712,213.214274 C301.023448,202.005643 287.929341,149.652439 281.908027,142.396251 C275.886714,135.140063 262.938338,177.805262 256.745343,177.805262 C250.552348,177.805262 239.634813,140.958354 231.581686,134.943889 C223.528559,128.929425 218.48054,134.943889 206.419002,136.806188 C194.357463,138.668486 190.015767,149.652439 181.256318,161.031906 C172.496868,172.411373 163.515956,218.89691 156.093633,224.3944 C148.671311,229.89189 139.195725,209.144454 130.930949,198.306383 C122.666173,187.468312 112.621763,187.324275 105.768265,170.349733 C98.9147671,153.375192 87.7343542,83.4923883 80.6055808,75.3091597 C73.4768074,67.1259312 65.8630063,99.4609604 55.4428966,112.58047 C45.0227869,125.699979 30.2802124,138.671654 30.2802124,138.671654 L30,250 L759.719788,250 L760,140.533952 Z"/>
          <g transform="translate(660)">
            <use fill="#FFF" xlink:href="#chart-area-partial-data-b"/>
            <rect width="99" height="29" x=".5" y=".5" stroke="#364141" rx="3"/>
            <text fill="#364141" font-family="ProximaNova-Semibold, Proxima Nova" font-size="13" font-weight="500">
              <tspan x="17.845" y="19">Contact Us</tspan>
            </text>
          </g>
          <text fill="#ED4C42" font-family="ProximaNova-Semibold, Proxima Nova" font-size="13" font-weight="500">
            <tspan x="404" y="19">[ Partial Data Error Messaging Goes Here ]</tspan>
          </text>
          <path fill="#ED4C42" fill-rule="nonzero" d="M387.981028,16.8081123 L385.976186,16.8081123 L385.976186,9.81903276 L387.981028,9.81903276 L387.981028,16.8081123 Z M387.981028,19.8034321 L385.976186,19.8034321 L385.976186,17.8065523 L387.981028,17.8065523 L387.981028,19.8034321 Z M395.900154,20.5023401 L387.880786,6.52418097 C387.479817,5.82527301 386.577639,5.82527301 386.17667,6.52418097 L378.157302,20.5023401 C377.756333,21.201248 378.157302,22 378.959239,22 L394.997975,22 C395.799912,22 396.20088,21.201248 395.900154,20.5023401 Z"/>
          <text fill="#929A9B" font-family="ProximaNova-Semibold, Proxima Nova" font-size="13" font-weight="500">
            <tspan x="0" y="19">Audience Growth Per Day</tspan>
          </text>
        </g>
        <text fill="#364141" font-family="ProximaNova-Semibold, Proxima Nova" font-size="18" font-weight="500">
          <tspan x="1" y="18">Audience Growth</tspan>
        </text>
      </g>
    </g>
    <g transform="translate(460 169)">
      <g transform="translate(17 1)">
        <use fill="#000" filter="url(#chart-area-partial-data-c)" xlink:href="#chart-area-partial-data-d"/>
        <use fill="#FFF" fill-opacity=".95" xlink:href="#chart-area-partial-data-d"/>
        <text fill="#ED4C42" font-family="ProximaNova-Regular, Proxima Nova" font-size="13">
          <tspan x="20" y="80">@profilename</tspan>
        </text>
        <path fill="#ED4C42" fill-rule="nonzero" d="M214.654019,77.2054082 L213.317457,77.2054082 L213.317457,72.5460218 L214.654019,72.5460218 L214.654019,77.2054082 Z M214.654019,79.2022881 L213.317457,79.2022881 L213.317457,77.8710348 L214.654019,77.8710348 L214.654019,79.2022881 Z M219.933436,79.6682267 L214.587191,70.349454 C214.319878,69.8835153 213.718426,69.8835153 213.451113,70.349454 L208.104868,79.6682267 C207.837556,80.1341654 208.104868,80.6666667 208.639492,80.6666667 L219.331983,80.6666667 C219.866608,80.6666667 220.13392,80.1341654 219.933436,79.6682267 Z"/>
        <text fill="#6E797A" font-family="ProximaNova-Semibold, Proxima Nova" font-size="13" font-weight="500">
          <tspan x="189.138" y="111">1,234</tspan>
        </text>
        <text fill="#515E5F" font-family="ProximaNova-Regular, Proxima Nova" font-size="13">
          <tspan x="19" y="110">@profilename</tspan>
        </text>
        <text fill="#6E797A" font-family="ProximaNova-Semibold, Proxima Nova" font-size="13" font-weight="500">
          <tspan x="189.138" y="51">1,234</tspan>
        </text>
        <text fill="#515E5F" font-family="ProximaNova-Regular, Proxima Nova" font-size="13">
          <tspan x="19" y="50">@profilename</tspan>
        </text>
        <text fill="#364141" font-family="ProximaNova-Semibold, Proxima Nova" font-size="13" font-weight="500">
          <tspan x="20" y="23">Sun, April 17, 2017</tspan>
        </text>
      </g>
      <rect width="1" height="200" x="6" fill="#364141"/>
    </g>
  </g>
</svg>
