<svg xmlns="http://www.w3.org/2000/svg" xmlns:xlink="http://www.w3.org/1999/xlink" width="900" height="530" style="background:#f3f4f4" viewBox="0 0 900 530">
  <defs>
    <path id="multi-select-chart-gathering-data-a" d="M5.34314575,13.6568542 C3.73921,12.0529185 2.91853099,9.89896246 3.00294866,7.70671386 L1.69142876,8.81806815 L0.775888658,7.73891442 L3.9872413,5.0166621 L6.70949362,8.22801474 L5.6294696,9.14268456 L4.47024963,7.77459612 L4.31272799,7.62055562 C4.20307205,9.50211237 4.88450541,11.3636526 6.26042642,12.7395736 C8.87389309,15.3530402 13.1261069,15.3530402 15.7395736,12.7395736 C18.3530402,10.1261069 18.3530402,5.87389309 15.7395736,3.26042642 C13.1261069,0.646959761 8.87389309,0.646959761 6.26042642,3.26042642 L5.34314575,2.34314575 C8.46224816,-0.775956654 13.5377518,-0.775956654 16.6568542,2.34314575 C19.7759567,5.46224816 19.7759567,10.5377518 16.6568542,13.6568542 C13.5377518,16.7759567 8.46224816,16.7759567 5.34314575,13.6568542 Z"/>
  </defs>
  <g fill="none" fill-rule="evenodd" transform="translate(30 30)">
    <rect width="840" height="470" fill="#FFF"/>
    <g transform="translate(40 35)">
      <g transform="translate(5 315)">
        <g transform="translate(190 45)">
          <rect width="180" height="35" fill="#C8CCCC" rx="4"/>
          <text fill="#FFF" font-family="ProximaNova-Semibold, Proxima Nova" font-size="12" font-weight="500">
            <tspan x="38" y="20.002">darkmattercoffee</tspan>
          </text>
          <path fill="#FFF" d="M20.0000139,10 C18.0989141,10 17.8605334,10.0080581 17.113909,10.0421244 C16.3688406,10.0761073 15.8599856,10.1944502 15.414734,10.3675048 C14.9544221,10.5463668 14.564049,10.7857201 14.1748706,11.1748706 C13.7857201,11.564049 13.5463668,11.9544221 13.3675048,12.414734 C13.1944502,12.8599856 13.0761073,13.3688406 13.0421244,14.113909 C13.0080581,14.8605334 13,15.0989141 13,17.0000139 C13,18.9010859 13.0080581,19.1394666 13.0421244,19.886091 C13.0761073,20.6311594 13.1944502,21.1400144 13.3675048,21.585266 C13.5463668,22.0455779 13.7857201,22.435951 14.1748706,22.8251294 C14.564049,23.2142799 14.9544221,23.4536332 15.414734,23.632523 C15.8599856,23.8055498 16.3688406,23.9238927 17.113909,23.9578756 C17.8605334,23.9919419 18.0989141,24 20.0000139,24 C21.9010859,24 22.1394666,23.9919419 22.886091,23.9578756 C23.6311594,23.9238927 24.1400144,23.8055498 24.585266,23.632523 C25.0455779,23.4536332 25.435951,23.2142799 25.8251294,22.8251294 C26.2142799,22.435951 26.4536332,22.0455779 26.632523,21.585266 C26.8055498,21.1400144 26.9238927,20.6311594 26.9578756,19.886091 C26.9919419,19.1394666 27,18.9010859 27,17.0000139 C27,15.0989141 26.9919419,14.8605334 26.9578756,14.113909 C26.9238927,13.3688406 26.8055498,12.8599856 26.632523,12.414734 C26.4536332,11.9544221 26.2142799,11.564049 25.8251294,11.1748706 C25.435951,10.7857201 25.0455779,10.5463668 24.585266,10.3675048 C24.1400144,10.1944502 23.6311594,10.0761073 22.886091,10.0421244 C22.1394666,10.0080581 21.9010859,10 20.0000139,10 L20.0000139,10 Z M20.0000139,11.261259 C21.8690758,11.261259 22.0904789,11.2684002 22.8286007,11.3020774 C23.5110938,11.3331984 23.8817385,11.4472343 24.1283996,11.5430979 C24.4551416,11.6700824 24.6883263,11.8217692 24.9332647,12.0667353 C25.1782308,12.3116737 25.3299176,12.5448584 25.4569021,12.8716004 C25.5527657,13.1182615 25.6668016,13.4889062 25.6979226,14.1713993 C25.7315998,14.9095211 25.738741,15.1309242 25.738741,17.0000139 C25.738741,18.8690758 25.7315998,19.0904789 25.6979226,19.8286007 C25.6668016,20.5110938 25.5527657,20.8817385 25.4569021,21.1283996 C25.3299176,21.4551416 25.1782308,21.6883263 24.9332647,21.9332647 C24.6883263,22.1782308 24.4551416,22.3299176 24.1283996,22.4569021 C23.8817385,22.5527657 23.5110938,22.6668016 22.8286007,22.6979226 C22.0905901,22.7315998 21.8692147,22.738741 20.0000139,22.738741 C18.1307853,22.738741 17.9094377,22.7315998 17.1713993,22.6979226 C16.4889062,22.6668016 16.1182615,22.5527657 15.8716004,22.4569021 C15.5448584,22.3299176 15.3116737,22.1782308 15.0667353,21.9332647 C14.821797,21.6883263 14.6700824,21.4551416 14.5430979,21.1283996 C14.4472343,20.8817385 14.3331984,20.5110938 14.3020774,19.8286007 C14.2684002,19.0904789 14.261259,18.8690758 14.261259,17.0000139 C14.261259,15.1309242 14.2684002,14.9095211 14.3020774,14.1713993 C14.3331984,13.4889062 14.4472343,13.1182615 14.5430979,12.8716004 C14.6700824,12.5448584 14.8217692,12.3116737 15.0667353,12.0667353 C15.3116737,11.8217692 15.5448584,11.6700824 15.8716004,11.5430979 C16.1182615,11.4472343 16.4889062,11.3331984 17.1713993,11.3020774 C17.9095211,11.2684002 18.1309242,11.261259 20.0000139,11.261259 Z M20.0000139,19.3333333 C18.7113296,19.3333333 17.6666667,18.2886704 17.6666667,17.0000139 C17.6666667,15.7113296 18.7113296,14.6666667 20.0000139,14.6666667 C21.2886704,14.6666667 22.3333333,15.7113296 22.3333333,17.0000139 C22.3333333,18.2886704 21.2886704,19.3333333 20.0000139,19.3333333 Z M20.0000139,13.4054077 C18.0147487,13.4054077 16.4054077,15.0147487 16.4054077,17.0000139 C16.4054077,18.9852513 18.0147487,20.5945923 20.0000139,20.5945923 C21.9852513,20.5945923 23.5945923,18.9852513 23.5945923,17.0000139 C23.5945923,15.0147487 21.9852513,13.4054077 20.0000139,13.4054077 Z M24.5766244,13.2633906 C24.5766244,12.7994665 24.2005335,12.4233756 23.7366094,12.4233756 C23.272713,12.4233756 22.8966221,12.7994665 22.8966221,13.2633906 C22.8966221,13.7273148 23.272713,14.1033779 23.7366094,14.1033779 C24.2005335,14.1033779 24.5766244,13.7273148 24.5766244,13.2633906 Z"/>
          <g transform="translate(153 10)">
            <use fill="#FFF" xlink:href="#multi-select-chart-gathering-data-a"/>
          </g>
        </g>
        <g transform="translate(0 45)">
          <rect width="180" height="35" fill="#9180F4" rx="4"/>
          <text fill="#FFF" font-family="ProximaNova-Semibold, Proxima Nova" font-size="12" font-weight="500">
            <tspan x="38" y="20.002">intelligentsia</tspan>
          </text>
          <path fill="#FFF" d="M20.0000139,10 C18.0989141,10 17.8605334,10.0080581 17.113909,10.0421244 C16.3688406,10.0761073 15.8599856,10.1944502 15.414734,10.3675048 C14.9544221,10.5463668 14.564049,10.7857201 14.1748706,11.1748706 C13.7857201,11.564049 13.5463668,11.9544221 13.3675048,12.414734 C13.1944502,12.8599856 13.0761073,13.3688406 13.0421244,14.113909 C13.0080581,14.8605334 13,15.0989141 13,17.0000139 C13,18.9010859 13.0080581,19.1394666 13.0421244,19.886091 C13.0761073,20.6311594 13.1944502,21.1400144 13.3675048,21.585266 C13.5463668,22.0455779 13.7857201,22.435951 14.1748706,22.8251294 C14.564049,23.2142799 14.9544221,23.4536332 15.414734,23.632523 C15.8599856,23.8055498 16.3688406,23.9238927 17.113909,23.9578756 C17.8605334,23.9919419 18.0989141,24 20.0000139,24 C21.9010859,24 22.1394666,23.9919419 22.886091,23.9578756 C23.6311594,23.9238927 24.1400144,23.8055498 24.585266,23.632523 C25.0455779,23.4536332 25.435951,23.2142799 25.8251294,22.8251294 C26.2142799,22.435951 26.4536332,22.0455779 26.632523,21.585266 C26.8055498,21.1400144 26.9238927,20.6311594 26.9578756,19.886091 C26.9919419,19.1394666 27,18.9010859 27,17.0000139 C27,15.0989141 26.9919419,14.8605334 26.9578756,14.113909 C26.9238927,13.3688406 26.8055498,12.8599856 26.632523,12.414734 C26.4536332,11.9544221 26.2142799,11.564049 25.8251294,11.1748706 C25.435951,10.7857201 25.0455779,10.5463668 24.585266,10.3675048 C24.1400144,10.1944502 23.6311594,10.0761073 22.886091,10.0421244 C22.1394666,10.0080581 21.9010859,10 20.0000139,10 L20.0000139,10 Z M20.0000139,11.261259 C21.8690758,11.261259 22.0904789,11.2684002 22.8286007,11.3020774 C23.5110938,11.3331984 23.8817385,11.4472343 24.1283996,11.5430979 C24.4551416,11.6700824 24.6883263,11.8217692 24.9332647,12.0667353 C25.1782308,12.3116737 25.3299176,12.5448584 25.4569021,12.8716004 C25.5527657,13.1182615 25.6668016,13.4889062 25.6979226,14.1713993 C25.7315998,14.9095211 25.738741,15.1309242 25.738741,17.0000139 C25.738741,18.8690758 25.7315998,19.0904789 25.6979226,19.8286007 C25.6668016,20.5110938 25.5527657,20.8817385 25.4569021,21.1283996 C25.3299176,21.4551416 25.1782308,21.6883263 24.9332647,21.9332647 C24.6883263,22.1782308 24.4551416,22.3299176 24.1283996,22.4569021 C23.8817385,22.5527657 23.5110938,22.6668016 22.8286007,22.6979226 C22.0905901,22.7315998 21.8692147,22.738741 20.0000139,22.738741 C18.1307853,22.738741 17.9094377,22.7315998 17.1713993,22.6979226 C16.4889062,22.6668016 16.1182615,22.5527657 15.8716004,22.4569021 C15.5448584,22.3299176 15.3116737,22.1782308 15.0667353,21.9332647 C14.821797,21.6883263 14.6700824,21.4551416 14.5430979,21.1283996 C14.4472343,20.8817385 14.3331984,20.5110938 14.3020774,19.8286007 C14.2684002,19.0904789 14.261259,18.8690758 14.261259,17.0000139 C14.261259,15.1309242 14.2684002,14.9095211 14.3020774,14.1713993 C14.3331984,13.4889062 14.4472343,13.1182615 14.5430979,12.8716004 C14.6700824,12.5448584 14.8217692,12.3116737 15.0667353,12.0667353 C15.3116737,11.8217692 15.5448584,11.6700824 15.8716004,11.5430979 C16.1182615,11.4472343 16.4889062,11.3331984 17.1713993,11.3020774 C17.9095211,11.2684002 18.1309242,11.261259 20.0000139,11.261259 Z M20.0000139,19.3333333 C18.7113296,19.3333333 17.6666667,18.2886704 17.6666667,17.0000139 C17.6666667,15.7113296 18.7113296,14.6666667 20.0000139,14.6666667 C21.2886704,14.6666667 22.3333333,15.7113296 22.3333333,17.0000139 C22.3333333,18.2886704 21.2886704,19.3333333 20.0000139,19.3333333 Z M20.0000139,13.4054077 C18.0147487,13.4054077 16.4054077,15.0147487 16.4054077,17.0000139 C16.4054077,18.9852513 18.0147487,20.5945923 20.0000139,20.5945923 C21.9852513,20.5945923 23.5945923,18.9852513 23.5945923,17.0000139 C23.5945923,15.0147487 21.9852513,13.4054077 20.0000139,13.4054077 Z M24.5766244,13.2633906 C24.5766244,12.7994665 24.2005335,12.4233756 23.7366094,12.4233756 C23.272713,12.4233756 22.8966221,12.7994665 22.8966221,13.2633906 C22.8966221,13.7273148 23.272713,14.1033779 23.7366094,14.1033779 C24.2005335,14.1033779 24.5766244,13.7273148 24.5766244,13.2633906 Z"/>
        </g>
        <g transform="translate(570)">
          <rect width="180" height="35" fill="#3896E3" rx="4"/>
          <text fill="#FFF" font-family="ProximaNova-Semibold, Proxima Nova" font-size="12" font-weight="500">
            <tspan x="38" y="20.002">ctxchicago</tspan>
          </text>
          <path fill="#FFF" d="M20.0000139,10 C18.0989141,10 17.8605334,10.0080581 17.113909,10.0421244 C16.3688406,10.0761073 15.8599856,10.1944502 15.414734,10.3675048 C14.9544221,10.5463668 14.564049,10.7857201 14.1748706,11.1748706 C13.7857201,11.564049 13.5463668,11.9544221 13.3675048,12.414734 C13.1944502,12.8599856 13.0761073,13.3688406 13.0421244,14.113909 C13.0080581,14.8605334 13,15.0989141 13,17.0000139 C13,18.9010859 13.0080581,19.1394666 13.0421244,19.886091 C13.0761073,20.6311594 13.1944502,21.1400144 13.3675048,21.585266 C13.5463668,22.0455779 13.7857201,22.435951 14.1748706,22.8251294 C14.564049,23.2142799 14.9544221,23.4536332 15.414734,23.632523 C15.8599856,23.8055498 16.3688406,23.9238927 17.113909,23.9578756 C17.8605334,23.9919419 18.0989141,24 20.0000139,24 C21.9010859,24 22.1394666,23.9919419 22.886091,23.9578756 C23.6311594,23.9238927 24.1400144,23.8055498 24.585266,23.632523 C25.0455779,23.4536332 25.435951,23.2142799 25.8251294,22.8251294 C26.2142799,22.435951 26.4536332,22.0455779 26.632523,21.585266 C26.8055498,21.1400144 26.9238927,20.6311594 26.9578756,19.886091 C26.9919419,19.1394666 27,18.9010859 27,17.0000139 C27,15.0989141 26.9919419,14.8605334 26.9578756,14.113909 C26.9238927,13.3688406 26.8055498,12.8599856 26.632523,12.414734 C26.4536332,11.9544221 26.2142799,11.564049 25.8251294,11.1748706 C25.435951,10.7857201 25.0455779,10.5463668 24.585266,10.3675048 C24.1400144,10.1944502 23.6311594,10.0761073 22.886091,10.0421244 C22.1394666,10.0080581 21.9010859,10 20.0000139,10 L20.0000139,10 Z M20.0000139,11.261259 C21.8690758,11.261259 22.0904789,11.2684002 22.8286007,11.3020774 C23.5110938,11.3331984 23.8817385,11.4472343 24.1283996,11.5430979 C24.4551416,11.6700824 24.6883263,11.8217692 24.9332647,12.0667353 C25.1782308,12.3116737 25.3299176,12.5448584 25.4569021,12.8716004 C25.5527657,13.1182615 25.6668016,13.4889062 25.6979226,14.1713993 C25.7315998,14.9095211 25.738741,15.1309242 25.738741,17.0000139 C25.738741,18.8690758 25.7315998,19.0904789 25.6979226,19.8286007 C25.6668016,20.5110938 25.5527657,20.8817385 25.4569021,21.1283996 C25.3299176,21.4551416 25.1782308,21.6883263 24.9332647,21.9332647 C24.6883263,22.1782308 24.4551416,22.3299176 24.1283996,22.4569021 C23.8817385,22.5527657 23.5110938,22.6668016 22.8286007,22.6979226 C22.0905901,22.7315998 21.8692147,22.738741 20.0000139,22.738741 C18.1307853,22.738741 17.9094377,22.7315998 17.1713993,22.6979226 C16.4889062,22.6668016 16.1182615,22.5527657 15.8716004,22.4569021 C15.5448584,22.3299176 15.3116737,22.1782308 15.0667353,21.9332647 C14.821797,21.6883263 14.6700824,21.4551416 14.5430979,21.1283996 C14.4472343,20.8817385 14.3331984,20.5110938 14.3020774,19.8286007 C14.2684002,19.0904789 14.261259,18.8690758 14.261259,17.0000139 C14.261259,15.1309242 14.2684002,14.9095211 14.3020774,14.1713993 C14.3331984,13.4889062 14.4472343,13.1182615 14.5430979,12.8716004 C14.6700824,12.5448584 14.8217692,12.3116737 15.0667353,12.0667353 C15.3116737,11.8217692 15.5448584,11.6700824 15.8716004,11.5430979 C16.1182615,11.4472343 16.4889062,11.3331984 17.1713993,11.3020774 C17.9095211,11.2684002 18.1309242,11.261259 20.0000139,11.261259 Z M20.0000139,19.3333333 C18.7113296,19.3333333 17.6666667,18.2886704 17.6666667,17.0000139 C17.6666667,15.7113296 18.7113296,14.6666667 20.0000139,14.6666667 C21.2886704,14.6666667 22.3333333,15.7113296 22.3333333,17.0000139 C22.3333333,18.2886704 21.2886704,19.3333333 20.0000139,19.3333333 Z M20.0000139,13.4054077 C18.0147487,13.4054077 16.4054077,15.0147487 16.4054077,17.0000139 C16.4054077,18.9852513 18.0147487,20.5945923 20.0000139,20.5945923 C21.9852513,20.5945923 23.5945923,18.9852513 23.5945923,17.0000139 C23.5945923,15.0147487 21.9852513,13.4054077 20.0000139,13.4054077 Z M24.5766244,13.2633906 C24.5766244,12.7994665 24.2005335,12.4233756 23.7366094,12.4233756 C23.272713,12.4233756 22.8966221,12.7994665 22.8966221,13.2633906 C22.8966221,13.7273148 23.272713,14.1033779 23.7366094,14.1033779 C24.2005335,14.1033779 24.5766244,13.7273148 24.5766244,13.2633906 Z"/>
        </g>
        <g transform="translate(380)">
          <rect width="180" height="35" fill="#08C4B2" rx="4"/>
          <text fill="#FFF" font-family="ProximaNova-Semibold, Proxima Nova" font-size="12" font-weight="500">
            <tspan x="38" y="20.002">starbucks</tspan>
          </text>
          <path fill="#FFF" d="M20.0000139,10 C18.0989141,10 17.8605334,10.0080581 17.113909,10.0421244 C16.3688406,10.0761073 15.8599856,10.1944502 15.414734,10.3675048 C14.9544221,10.5463668 14.564049,10.7857201 14.1748706,11.1748706 C13.7857201,11.564049 13.5463668,11.9544221 13.3675048,12.414734 C13.1944502,12.8599856 13.0761073,13.3688406 13.0421244,14.113909 C13.0080581,14.8605334 13,15.0989141 13,17.0000139 C13,18.9010859 13.0080581,19.1394666 13.0421244,19.886091 C13.0761073,20.6311594 13.1944502,21.1400144 13.3675048,21.585266 C13.5463668,22.0455779 13.7857201,22.435951 14.1748706,22.8251294 C14.564049,23.2142799 14.9544221,23.4536332 15.414734,23.632523 C15.8599856,23.8055498 16.3688406,23.9238927 17.113909,23.9578756 C17.8605334,23.9919419 18.0989141,24 20.0000139,24 C21.9010859,24 22.1394666,23.9919419 22.886091,23.9578756 C23.6311594,23.9238927 24.1400144,23.8055498 24.585266,23.632523 C25.0455779,23.4536332 25.435951,23.2142799 25.8251294,22.8251294 C26.2142799,22.435951 26.4536332,22.0455779 26.632523,21.585266 C26.8055498,21.1400144 26.9238927,20.6311594 26.9578756,19.886091 C26.9919419,19.1394666 27,18.9010859 27,17.0000139 C27,15.0989141 26.9919419,14.8605334 26.9578756,14.113909 C26.9238927,13.3688406 26.8055498,12.8599856 26.632523,12.414734 C26.4536332,11.9544221 26.2142799,11.564049 25.8251294,11.1748706 C25.435951,10.7857201 25.0455779,10.5463668 24.585266,10.3675048 C24.1400144,10.1944502 23.6311594,10.0761073 22.886091,10.0421244 C22.1394666,10.0080581 21.9010859,10 20.0000139,10 L20.0000139,10 Z M20.0000139,11.261259 C21.8690758,11.261259 22.0904789,11.2684002 22.8286007,11.3020774 C23.5110938,11.3331984 23.8817385,11.4472343 24.1283996,11.5430979 C24.4551416,11.6700824 24.6883263,11.8217692 24.9332647,12.0667353 C25.1782308,12.3116737 25.3299176,12.5448584 25.4569021,12.8716004 C25.5527657,13.1182615 25.6668016,13.4889062 25.6979226,14.1713993 C25.7315998,14.9095211 25.738741,15.1309242 25.738741,17.0000139 C25.738741,18.8690758 25.7315998,19.0904789 25.6979226,19.8286007 C25.6668016,20.5110938 25.5527657,20.8817385 25.4569021,21.1283996 C25.3299176,21.4551416 25.1782308,21.6883263 24.9332647,21.9332647 C24.6883263,22.1782308 24.4551416,22.3299176 24.1283996,22.4569021 C23.8817385,22.5527657 23.5110938,22.6668016 22.8286007,22.6979226 C22.0905901,22.7315998 21.8692147,22.738741 20.0000139,22.738741 C18.1307853,22.738741 17.9094377,22.7315998 17.1713993,22.6979226 C16.4889062,22.6668016 16.1182615,22.5527657 15.8716004,22.4569021 C15.5448584,22.3299176 15.3116737,22.1782308 15.0667353,21.9332647 C14.821797,21.6883263 14.6700824,21.4551416 14.5430979,21.1283996 C14.4472343,20.8817385 14.3331984,20.5110938 14.3020774,19.8286007 C14.2684002,19.0904789 14.261259,18.8690758 14.261259,17.0000139 C14.261259,15.1309242 14.2684002,14.9095211 14.3020774,14.1713993 C14.3331984,13.4889062 14.4472343,13.1182615 14.5430979,12.8716004 C14.6700824,12.5448584 14.8217692,12.3116737 15.0667353,12.0667353 C15.3116737,11.8217692 15.5448584,11.6700824 15.8716004,11.5430979 C16.1182615,11.4472343 16.4889062,11.3331984 17.1713993,11.3020774 C17.9095211,11.2684002 18.1309242,11.261259 20.0000139,11.261259 Z M20.0000139,19.3333333 C18.7113296,19.3333333 17.6666667,18.2886704 17.6666667,17.0000139 C17.6666667,15.7113296 18.7113296,14.6666667 20.0000139,14.6666667 C21.2886704,14.6666667 22.3333333,15.7113296 22.3333333,17.0000139 C22.3333333,18.2886704 21.2886704,19.3333333 20.0000139,19.3333333 Z M20.0000139,13.4054077 C18.0147487,13.4054077 16.4054077,15.0147487 16.4054077,17.0000139 C16.4054077,18.9852513 18.0147487,20.5945923 20.0000139,20.5945923 C21.9852513,20.5945923 23.5945923,18.9852513 23.5945923,17.0000139 C23.5945923,15.0147487 21.9852513,13.4054077 20.0000139,13.4054077 Z M24.5766244,13.2633906 C24.5766244,12.7994665 24.2005335,12.4233756 23.7366094,12.4233756 C23.272713,12.4233756 22.8966221,12.7994665 22.8966221,13.2633906 C22.8966221,13.7273148 23.272713,14.1033779 23.7366094,14.1033779 C24.2005335,14.1033779 24.5766244,13.7273148 24.5766244,13.2633906 Z"/>
        </g>
        <g transform="translate(190)">
          <rect width="180" height="35" fill="#59CB59" rx="4"/>
          <text fill="#FFF" font-family="ProximaNova-Semibold, Proxima Nova" font-size="12" font-weight="500">
            <tspan x="38" y="20.002">chisproutcoffee (You)</tspan>
          </text>
          <path fill="#FFF" d="M20.0000139,10 C18.0989141,10 17.8605334,10.0080581 17.113909,10.0421244 C16.3688406,10.0761073 15.8599856,10.1944502 15.414734,10.3675048 C14.9544221,10.5463668 14.564049,10.7857201 14.1748706,11.1748706 C13.7857201,11.564049 13.5463668,11.9544221 13.3675048,12.414734 C13.1944502,12.8599856 13.0761073,13.3688406 13.0421244,14.113909 C13.0080581,14.8605334 13,15.0989141 13,17.0000139 C13,18.9010859 13.0080581,19.1394666 13.0421244,19.886091 C13.0761073,20.6311594 13.1944502,21.1400144 13.3675048,21.585266 C13.5463668,22.0455779 13.7857201,22.435951 14.1748706,22.8251294 C14.564049,23.2142799 14.9544221,23.4536332 15.414734,23.632523 C15.8599856,23.8055498 16.3688406,23.9238927 17.113909,23.9578756 C17.8605334,23.9919419 18.0989141,24 20.0000139,24 C21.9010859,24 22.1394666,23.9919419 22.886091,23.9578756 C23.6311594,23.9238927 24.1400144,23.8055498 24.585266,23.632523 C25.0455779,23.4536332 25.435951,23.2142799 25.8251294,22.8251294 C26.2142799,22.435951 26.4536332,22.0455779 26.632523,21.585266 C26.8055498,21.1400144 26.9238927,20.6311594 26.9578756,19.886091 C26.9919419,19.1394666 27,18.9010859 27,17.0000139 C27,15.0989141 26.9919419,14.8605334 26.9578756,14.113909 C26.9238927,13.3688406 26.8055498,12.8599856 26.632523,12.414734 C26.4536332,11.9544221 26.2142799,11.564049 25.8251294,11.1748706 C25.435951,10.7857201 25.0455779,10.5463668 24.585266,10.3675048 C24.1400144,10.1944502 23.6311594,10.0761073 22.886091,10.0421244 C22.1394666,10.0080581 21.9010859,10 20.0000139,10 L20.0000139,10 Z M20.0000139,11.261259 C21.8690758,11.261259 22.0904789,11.2684002 22.8286007,11.3020774 C23.5110938,11.3331984 23.8817385,11.4472343 24.1283996,11.5430979 C24.4551416,11.6700824 24.6883263,11.8217692 24.9332647,12.0667353 C25.1782308,12.3116737 25.3299176,12.5448584 25.4569021,12.8716004 C25.5527657,13.1182615 25.6668016,13.4889062 25.6979226,14.1713993 C25.7315998,14.9095211 25.738741,15.1309242 25.738741,17.0000139 C25.738741,18.8690758 25.7315998,19.0904789 25.6979226,19.8286007 C25.6668016,20.5110938 25.5527657,20.8817385 25.4569021,21.1283996 C25.3299176,21.4551416 25.1782308,21.6883263 24.9332647,21.9332647 C24.6883263,22.1782308 24.4551416,22.3299176 24.1283996,22.4569021 C23.8817385,22.5527657 23.5110938,22.6668016 22.8286007,22.6979226 C22.0905901,22.7315998 21.8692147,22.738741 20.0000139,22.738741 C18.1307853,22.738741 17.9094377,22.7315998 17.1713993,22.6979226 C16.4889062,22.6668016 16.1182615,22.5527657 15.8716004,22.4569021 C15.5448584,22.3299176 15.3116737,22.1782308 15.0667353,21.9332647 C14.821797,21.6883263 14.6700824,21.4551416 14.5430979,21.1283996 C14.4472343,20.8817385 14.3331984,20.5110938 14.3020774,19.8286007 C14.2684002,19.0904789 14.261259,18.8690758 14.261259,17.0000139 C14.261259,15.1309242 14.2684002,14.9095211 14.3020774,14.1713993 C14.3331984,13.4889062 14.4472343,13.1182615 14.5430979,12.8716004 C14.6700824,12.5448584 14.8217692,12.3116737 15.0667353,12.0667353 C15.3116737,11.8217692 15.5448584,11.6700824 15.8716004,11.5430979 C16.1182615,11.4472343 16.4889062,11.3331984 17.1713993,11.3020774 C17.9095211,11.2684002 18.1309242,11.261259 20.0000139,11.261259 Z M20.0000139,19.3333333 C18.7113296,19.3333333 17.6666667,18.2886704 17.6666667,17.0000139 C17.6666667,15.7113296 18.7113296,14.6666667 20.0000139,14.6666667 C21.2886704,14.6666667 22.3333333,15.7113296 22.3333333,17.0000139 C22.3333333,18.2886704 21.2886704,19.3333333 20.0000139,19.3333333 Z M20.0000139,13.4054077 C18.0147487,13.4054077 16.4054077,15.0147487 16.4054077,17.0000139 C16.4054077,18.9852513 18.0147487,20.5945923 20.0000139,20.5945923 C21.9852513,20.5945923 23.5945923,18.9852513 23.5945923,17.0000139 C23.5945923,15.0147487 21.9852513,13.4054077 20.0000139,13.4054077 Z M24.5766244,13.2633906 C24.5766244,12.7994665 24.2005335,12.4233756 23.7366094,12.4233756 C23.272713,12.4233756 22.8966221,12.7994665 22.8966221,13.2633906 C22.8966221,13.7273148 23.272713,14.1033779 23.7366094,14.1033779 C24.2005335,14.1033779 24.5766244,13.7273148 24.5766244,13.2633906 Z"/>
        </g>
        <rect width="180" height="35" fill="#162020" rx="4"/>
        <text fill="#FFF" font-family="ProximaNova-Semibold, Proxima Nova" font-size="12" font-weight="500">
          <tspan x="38" y="20.002">Competitor Average</tspan>
        </text>
        <path fill="#FFF" d="M20.0000139,10 C18.0989141,10 17.8605334,10.0080581 17.113909,10.0421244 C16.3688406,10.0761073 15.8599856,10.1944502 15.414734,10.3675048 C14.9544221,10.5463668 14.564049,10.7857201 14.1748706,11.1748706 C13.7857201,11.564049 13.5463668,11.9544221 13.3675048,12.414734 C13.1944502,12.8599856 13.0761073,13.3688406 13.0421244,14.113909 C13.0080581,14.8605334 13,15.0989141 13,17.0000139 C13,18.9010859 13.0080581,19.1394666 13.0421244,19.886091 C13.0761073,20.6311594 13.1944502,21.1400144 13.3675048,21.585266 C13.5463668,22.0455779 13.7857201,22.435951 14.1748706,22.8251294 C14.564049,23.2142799 14.9544221,23.4536332 15.414734,23.632523 C15.8599856,23.8055498 16.3688406,23.9238927 17.113909,23.9578756 C17.8605334,23.9919419 18.0989141,24 20.0000139,24 C21.9010859,24 22.1394666,23.9919419 22.886091,23.9578756 C23.6311594,23.9238927 24.1400144,23.8055498 24.585266,23.632523 C25.0455779,23.4536332 25.435951,23.2142799 25.8251294,22.8251294 C26.2142799,22.435951 26.4536332,22.0455779 26.632523,21.585266 C26.8055498,21.1400144 26.9238927,20.6311594 26.9578756,19.886091 C26.9919419,19.1394666 27,18.9010859 27,17.0000139 C27,15.0989141 26.9919419,14.8605334 26.9578756,14.113909 C26.9238927,13.3688406 26.8055498,12.8599856 26.632523,12.414734 C26.4536332,11.9544221 26.2142799,11.564049 25.8251294,11.1748706 C25.435951,10.7857201 25.0455779,10.5463668 24.585266,10.3675048 C24.1400144,10.1944502 23.6311594,10.0761073 22.886091,10.0421244 C22.1394666,10.0080581 21.9010859,10 20.0000139,10 L20.0000139,10 Z M20.0000139,11.261259 C21.8690758,11.261259 22.0904789,11.2684002 22.8286007,11.3020774 C23.5110938,11.3331984 23.8817385,11.4472343 24.1283996,11.5430979 C24.4551416,11.6700824 24.6883263,11.8217692 24.9332647,12.0667353 C25.1782308,12.3116737 25.3299176,12.5448584 25.4569021,12.8716004 C25.5527657,13.1182615 25.6668016,13.4889062 25.6979226,14.1713993 C25.7315998,14.9095211 25.738741,15.1309242 25.738741,17.0000139 C25.738741,18.8690758 25.7315998,19.0904789 25.6979226,19.8286007 C25.6668016,20.5110938 25.5527657,20.8817385 25.4569021,21.1283996 C25.3299176,21.4551416 25.1782308,21.6883263 24.9332647,21.9332647 C24.6883263,22.1782308 24.4551416,22.3299176 24.1283996,22.4569021 C23.8817385,22.5527657 23.5110938,22.6668016 22.8286007,22.6979226 C22.0905901,22.7315998 21.8692147,22.738741 20.0000139,22.738741 C18.1307853,22.738741 17.9094377,22.7315998 17.1713993,22.6979226 C16.4889062,22.6668016 16.1182615,22.5527657 15.8716004,22.4569021 C15.5448584,22.3299176 15.3116737,22.1782308 15.0667353,21.9332647 C14.821797,21.6883263 14.6700824,21.4551416 14.5430979,21.1283996 C14.4472343,20.8817385 14.3331984,20.5110938 14.3020774,19.8286007 C14.2684002,19.0904789 14.261259,18.8690758 14.261259,17.0000139 C14.261259,15.1309242 14.2684002,14.9095211 14.3020774,14.1713993 C14.3331984,13.4889062 14.4472343,13.1182615 14.5430979,12.8716004 C14.6700824,12.5448584 14.8217692,12.3116737 15.0667353,12.0667353 C15.3116737,11.8217692 15.5448584,11.6700824 15.8716004,11.5430979 C16.1182615,11.4472343 16.4889062,11.3331984 17.1713993,11.3020774 C17.9095211,11.2684002 18.1309242,11.261259 20.0000139,11.261259 Z M20.0000139,19.3333333 C18.7113296,19.3333333 17.6666667,18.2886704 17.6666667,17.0000139 C17.6666667,15.7113296 18.7113296,14.6666667 20.0000139,14.6666667 C21.2886704,14.6666667 22.3333333,15.7113296 22.3333333,17.0000139 C22.3333333,18.2886704 21.2886704,19.3333333 20.0000139,19.3333333 Z M20.0000139,13.4054077 C18.0147487,13.4054077 16.4054077,15.0147487 16.4054077,17.0000139 C16.4054077,18.9852513 18.0147487,20.5945923 20.0000139,20.5945923 C21.9852513,20.5945923 23.5945923,18.9852513 23.5945923,17.0000139 C23.5945923,15.0147487 21.9852513,13.4054077 20.0000139,13.4054077 Z M24.5766244,13.2633906 C24.5766244,12.7994665 24.2005335,12.4233756 23.7366094,12.4233756 C23.272713,12.4233756 22.8966221,12.7994665 22.8966221,13.2633906 C22.8966221,13.7273148 23.272713,14.1033779 23.7366094,14.1033779 C24.2005335,14.1033779 24.5766244,13.7273148 24.5766244,13.2633906 Z"/>
      </g>
      <g fill="#929A9B" font-family="ProximaNova-Semibold, Proxima Nova" font-size="11" font-weight="500" letter-spacing=".926" transform="translate(19 258)">
        <text>
          <tspan x=".601" y="32">APR</tspan>
        </text>
        <text>
          <tspan x="10" y="11">1</tspan>
        </text>
        <text>
          <tspan x="29" y="11">2</tspan>
        </text>
        <text>
          <tspan x="50" y="11">3</tspan>
        </text>
        <text>
          <tspan x="72" y="11">4</tspan>
        </text>
        <text>
          <tspan x="93" y="11">5</tspan>
        </text>
        <text>
          <tspan x="114" y="11">6</tspan>
        </text>
        <text>
          <tspan x="135" y="11">7</tspan>
        </text>
        <text>
          <tspan x="156" y="11">8</tspan>
        </text>
        <text>
          <tspan x="177" y="11">9</tspan>
        </text>
        <text>
          <tspan x="198" y="11">10</tspan>
        </text>
        <text>
          <tspan x="223" y="11">11</tspan>
        </text>
        <text>
          <tspan x="247" y="11">12</tspan>
        </text>
        <text>
          <tspan x="272" y="11">13</tspan>
        </text>
        <text>
          <tspan x="297" y="11">14</tspan>
        </text>
        <text>
          <tspan x="322" y="11">15</tspan>
        </text>
        <text>
          <tspan x="347" y="11">16</tspan>
        </text>
        <text>
          <tspan x="372" y="11">17</tspan>
        </text>
        <text>
          <tspan x="396" y="11">18</tspan>
        </text>
        <text>
          <tspan x="422" y="11">19</tspan>
        </text>
        <text>
          <tspan x="448" y="11">20</tspan>
        </text>
        <text>
          <tspan x="476" y="11">21</tspan>
        </text>
        <text>
          <tspan x="501" y="11">22</tspan>
        </text>
        <text>
          <tspan x="529" y="11">23</tspan>
        </text>
        <text>
          <tspan x="557" y="11">24</tspan>
        </text>
        <text>
          <tspan x="585" y="11">25</tspan>
        </text>
        <text>
          <tspan x="613" y="11">26</tspan>
        </text>
        <text>
          <tspan x="642" y="11">27</tspan>
        </text>
        <text>
          <tspan x="669" y="11">28</tspan>
        </text>
        <text>
          <tspan x="697" y="11">29</tspan>
        </text>
        <text>
          <tspan x="726" y="11">30</tspan>
        </text>
      </g>
      <rect width="730" height="2" x="30" y="244" fill="#B0B6B7"/>
      <rect width="730" height="1" x="30" y="194" fill="#C8CCCC"/>
      <rect width="730" height="1" x="30" y="144" fill="#C8CCCC"/>
      <rect width="730" height="1" x="30" y="94" fill="#C8CCCC"/>
      <rect width="730" height="1" x="30" y="44" fill="#C8CCCC"/>
      <g stroke-width="3" transform="translate(30 51)">
        <path stroke="#00C5B2" d="M729,131.511464 C729,131.511464 711.666145,161.593827 703.867271,163.644243 C696.068397,165.694659 686.689709,169.795607 678.586934,170.694631 C670.48416,171.593654 659.439409,176.842189 653.601813,178.219723 C647.764217,179.597257 634.89383,176.419707 628.36359,176.419707 C621.83335,176.419707 610.400448,182.07134 603.336355,180.818809 C596.272262,179.566278 584.965633,176.242837 578.203626,176.140235 C571.441619,176.037633 559.910464,175.843069 553.070897,176.177872 C546.231329,176.512676 535.270895,163.644243 527.937196,161.491225 C520.603496,159.338207 509.039848,163.089513 502.804467,164.464479 C496.569085,165.839445 482.326697,169.795607 477.671738,170.000695 C473.016778,170.205783 458.512816,168.667913 452.539008,168.667913 C446.565201,168.667913 435.350916,180.258643 427.064031,179.948781 C418.777146,179.638919 410.681015,177.388538 402.27355,174.715162 C393.866086,172.041785 383.311722,161.858145 377.140821,161.593827 C370.96992,161.329509 358.196144,163.644243 352.008092,160.101305 C345.82004,156.558367 336.051598,128 326.875363,128 C317.699128,128 308.106612,174.916545 301.742634,176.7128 C295.378656,178.509055 284.046934,179.686249 276.609905,179.686249 C269.172875,179.686249 257.54067,180.818809 251.477176,180.716323 C245.413681,180.613837 232.991295,180.716323 226.344447,177.388538 C219.697598,174.060754 208.614643,161.696313 201.210746,158.005425 C193.806849,154.314537 183.402849,147.997352 176.015639,147.997352 C168.62843,147.997352 156.705793,159.740321 151.667458,160.101305 C146.629123,160.462289 130.170147,169.490361 125.812559,169.795607 C121.454971,170.100854 109.638943,169.352009 100.67983,167.847677 C91.7207162,166.343345 78.7823035,161.989367 75.5471006,160.773591 C72.3118977,159.557816 57.1559708,139.841659 50.4143715,139.841659 C43.6727723,139.841659 32.6331686,154.189101 26.6675984,157.091978 C20.7020281,159.994855 0,169.745874 0,169.745874"/>
        <path stroke="#9180F4" d="M729,115.511464 C729,115.511464 711.666145,145.593827 703.867271,147.644243 C696.068397,149.694659 686.689709,153.795607 678.586934,154.694631 C670.48416,155.593654 659.439409,160.842189 653.601813,162.219723 C647.764217,163.597257 634.89383,160.419707 628.36359,160.419707 C621.83335,160.419707 610.400448,166.07134 603.336355,164.818809 C596.272262,163.566278 584.965633,160.242837 578.203626,160.140235 C571.441619,160.037633 559.910464,159.843069 553.070897,160.177872 C546.231329,160.512676 535.270895,147.644243 527.937196,145.491225 C520.603496,143.338207 509.039848,147.089513 502.804467,148.464479 C496.569085,149.839445 482.326697,153.795607 477.671738,154.000695 C473.016778,154.205783 458.512816,152.667913 452.539008,152.667913 C446.565201,152.667913 435.350916,164.258643 427.064031,163.948781 C418.777146,163.638919 410.681015,161.388538 402.27355,158.715162 C393.866086,156.041785 383.311722,145.858145 377.140821,145.593827 C370.96992,145.329509 358.196144,147.644243 352.008092,144.101305 C345.82004,140.558367 336.051598,112 326.875363,112 C317.699128,112 308.106612,158.916545 301.742634,160.7128 C295.378656,162.509055 284.046934,163.686249 276.609905,163.686249 C269.172875,163.686249 257.54067,164.818809 251.477176,164.716323 C245.413681,164.613837 232.991295,164.716323 226.344447,161.388538 C219.697598,158.060754 208.614643,145.696313 201.210746,142.005425 C193.806849,138.314537 183.402849,131.997352 176.015639,131.997352 C168.62843,131.997352 156.705793,143.740321 151.667458,144.101305 C146.629123,144.462289 130.170147,153.490361 125.812559,153.795607 C121.454971,154.100854 109.638943,153.352009 100.67983,151.847677 C91.7207162,150.343345 78.7823035,145.989367 75.5471006,144.773591 C72.3118977,143.557816 57.1559708,123.841659 50.4143715,123.841659 C43.6727723,123.841659 32.6331686,138.189101 26.6675984,141.091978 C20.7020281,143.994855 0,153.745874 0,153.745874" transform="rotate(180 364.5 138.5)"/>
        <path stroke="#54CD52" d="M729,161 C729,161 711.561752,73.3333143 703.867271,73.3333143 C696.17279,73.3333143 685.833688,76.5085348 678.586934,78.6011554 C671.340181,80.6937759 659.439409,83.0189816 653.601813,86.2473264 C647.764217,89.4756712 634.89383,107.421733 628.36359,107.421733 C621.83335,107.421733 609.488435,77.7737514 603.336355,77.7737514 C597.184274,77.7737514 585.958313,88.1885519 578.203626,91.3632983 C570.448939,94.5380447 560.513058,94.2887832 553.070897,91.4515048 C545.628735,88.6142265 533.784722,65.6681438 527.937196,55.034469 C522.089669,44.4007942 509.459317,8.39526926 502.804467,8.39526926 C496.149616,8.39526926 484.676482,47.1831627 477.671738,51.3379506 C470.666993,55.4927385 459.056607,59.2058453 452.539008,61.8641321 C446.021409,64.5224189 435.350916,79.0384029 427.064031,78.3122197 C418.777146,77.5860365 410.681015,67.0352702 402.27355,60.7700303 C393.866086,54.5047904 383.210541,50.0908193 377.140821,45.2855297 C371.071101,40.4802401 358.847175,1.41957827e-14 352.008092,0 C345.169009,-1.43138634e-14 333.407615,79.8668554 326.875363,86.1772091 C320.343111,92.4875628 309.040453,98.9656707 301.742634,98.9656707 C294.444815,98.9656707 285.470472,98.9656707 276.609905,95.6778669 C267.749338,92.3900632 257.54067,72.8934512 251.477176,72.6532682 C245.413681,72.4130853 233.748617,111.993469 226.344447,109.272874 C218.940276,106.55228 208.614643,94.3059909 201.210746,85.6561435 C193.806849,77.0062962 183.402849,42.2227558 176.015639,42.2227558 C168.62843,42.2227558 158.942682,68.3386173 151.667458,77.482632 C144.392233,86.6266467 133.159575,124.367078 125.812559,124.367078 C118.465542,124.367078 109.644637,118.724861 100.67983,111.993469 C91.715022,105.262076 80.5608217,92.0731815 75.5471006,84.3197662 C70.5333795,76.5663509 57.1559708,55.2431476 50.4143715,55.2431476 C43.6727723,55.2431476 32.6331686,70.3297772 26.6675984,77.1328668 C20.7020281,83.9359563 0,105.346922 0,105.346922"/>
        <path stroke="#3194E6" d="M729,114.046659 C729,114.046659 710.28149,137.245524 703.862136,138.512732 C697.442782,139.77994 685.658755,134.102533 678.724272,134.102533 C671.789789,134.102533 658.74081,140.789352 653.586408,142.724045 C648.432006,144.658738 634.232931,145.983443 628.448544,142.724045 C622.664157,139.464646 610.130369,123.713959 603.31068,123.713959 C596.490991,123.713959 584.701748,127.97036 578.172816,127.97036 C571.643884,127.97036 558.714986,119.755513 553.034952,114.472052 C547.354918,109.188591 533.606251,87.2419347 527.896116,87.2419347 C522.185981,87.2419347 511.109767,94.5146323 502.758252,94.5146323 C494.406737,94.5146323 483.643173,93.5909742 477.620388,96.0535169 C471.597603,98.5160597 459.392533,114.182826 452.482524,117.944702 C445.572515,121.706578 436.004732,128.136856 427.34466,128.136856 C418.684588,128.136856 409.065904,123.569991 402.206796,123.89491 C395.347688,124.21983 386.880763,124.977654 377.068932,123.569991 C367.257101,122.162327 359.415119,115.352666 351.931068,108.94582 C344.447017,102.538973 335.46538,94.5021959 326.793204,96.4145467 C318.121028,98.3268974 308.555978,106.709868 301.65534,114.182826 C294.754702,121.655784 284.487595,136.186703 276.517476,140.789352 C268.547357,145.392001 257.893326,145.983443 251.379612,145.983443 C244.865898,145.983443 232.428634,146.393411 226.241748,146.393411 C220.054862,146.393411 208.090666,138.51366 201.102912,138.51366 C194.115158,138.51366 184.421896,151.406027 175.965048,151.406027 C167.5082,151.406027 157.458388,144.615909 150.827184,144.615909 C144.19598,144.615909 133.104321,152.499299 125.68932,158.009641 C118.274319,163.519982 105.705084,171.954147 100.551456,171.954147 C95.3978285,171.954147 83.2835874,173.00946 75.413592,172.999936 C67.5435966,172.990412 59.4857242,170.99526 50.275728,168.949916 C41.0657318,166.904572 33.5692046,166.214847 25.137864,166.214847 C16.7065234,166.214847 0,35 0,35"/>
        <path stroke="#162020" stroke-dasharray="1 6" stroke-linecap="round" d="M729,100.396329 C729,100.396329 711.561752,91.4041792 703.867271,91.4041792 C696.17279,91.4041792 686.418287,110.30901 678.586934,114.689835 C670.755581,119.07066 659.439409,127.978008 653.601813,130.955599 C647.764217,133.933189 634.89383,76.7774036 628.36359,76.7774036 C621.83335,76.7774036 610.949933,80.3796825 603.336355,86.2862246 C595.722776,92.1927667 585.958313,123.532553 578.203626,126.460708 C570.448939,129.388864 560.513058,129.158963 553.070897,126.542064 C545.628735,123.925164 533.784722,104.604063 527.937196,94.7963345 C522.089669,84.9886056 509.459317,60.993217 502.804467,60.993217 C496.149616,60.993217 484.676482,69.127878 477.671738,72.9599524 C470.666993,76.7920268 458.669405,101.592713 452.539008,110.30901 C446.408612,119.025308 435.350916,135.362801 427.064031,134.693022 C418.777146,134.023244 410.681015,115.078492 402.27355,109.29989 C393.866086,103.521288 383.210541,99.4501623 377.140821,95.0181124 C371.071101,90.5860624 358.196144,79.3352045 352.008092,71.6770129 C345.82004,64.0188213 336.051598,52.5762535 326.875363,52.5762535 C317.699128,52.5762535 307.857968,112.639063 301.742634,119.652348 C295.6273,126.665632 284.046934,134.125549 276.609905,134.125549 C269.172875,134.125549 257.54067,120.481653 251.477176,120.260126 C245.413681,120.038598 233.748617,131.668242 226.344447,129.158963 C218.940276,126.649684 208.614643,115.354598 201.210746,107.376607 C193.806849,99.3986163 183.402849,85.7437886 176.015639,85.7437886 C168.62843,85.7437886 159.172346,94.3322077 151.667458,99.8379539 C144.162569,105.3437 132.75529,131.668242 125.812559,133.867268 C118.869827,136.066295 109.638943,134.919911 100.67983,131.668242 C91.7207162,128.416573 80.1717215,102.57096 75.5471006,93.2451421 C70.9224797,83.9193244 57.1559708,48 50.4143715,48 C43.6727723,48 32.6331686,61.9148108 26.6675984,68.1894862 C20.7020281,74.4641615 0,112.639063 0,112.639063" transform="matrix(-1 0 0 1 729 0)"/>
      </g>
      <g fill="#929A9B" font-family="ProximaNova-Semibold, Proxima Nova" font-size="11" font-weight="500" letter-spacing=".926" transform="translate(0 38)">
        <text>
          <tspan x="0" y="211">0</tspan>
        </text>
        <text>
          <tspan x="0" y="161">20</tspan>
        </text>
        <text>
          <tspan x="0" y="111">40</tspan>
        </text>
        <text>
          <tspan x="0" y="61">60</tspan>
        </text>
        <text>
          <tspan x="0" y="11">80</tspan>
        </text>
      </g>
      <text fill="#929A9B" font-family="ProximaNova-Semibold, Proxima Nova" font-size="13" font-weight="500">
        <tspan x="0" y="13">Audience Growth, by Day</tspan>
      </text>
    </g>
  </g>
</svg>
