<svg xmlns="http://www.w3.org/2000/svg" xmlns:xlink="http://www.w3.org/1999/xlink" width="900" height="1020" style="background:#f3f4f4" viewBox="0 0 900 1020">
  <defs>
    <rect id="chart-gathering-data-a" width="760" height="220" rx="3"/>
    <rect id="chart-gathering-data-b" width="760" height="220" rx="3"/>
    <rect id="chart-gathering-data-c" width="110" height="30" rx="3"/>
  </defs>
  <g fill="none" fill-rule="evenodd" transform="translate(30 30)">
    <rect width="840" height="960" fill="#FFF"/>
    <g transform="translate(40 690)">
      <use fill="#FFF" xlink:href="#chart-gathering-data-a"/>
      <rect width="759" height="219" x=".5" y=".5" stroke="#C8CCCC" rx="3"/>
      <g font-family="ProximaNova-Regular, Proxima Nova" font-size="13" transform="translate(521 52)">
        <text fill="#08C4B2">
          <tspan x="53.185" y="104">Since Last Month</tspan>
        </text>
        <text fill="#929A9B">
          <tspan x="69.876" y="73">Gathering…</tspan>
        </text>
        <text fill="#515E5F">
          <tspan x="29.707" y="12">The number of messages </tspan> <tspan x="39.477" y="33">you sent increased by</tspan>
        </text>
      </g>
      <g transform="translate(20 27)">
        <text fill="#929A9B" font-family="ProximaNova-Regular, Proxima Nova" font-size="13">
          <tspan x="395.377" y="162">Gathering…</tspan>
        </text>
        <text fill="#364141" font-family="ProximaNova-Semibold, Proxima Nova" font-size="16" font-weight="500">
          <tspan x="1" y="163">Total Received</tspan>
        </text>
        <rect width="460" height="2" y="133" fill="#B0B6B7"/>
        <text fill="#929A9B" font-family="ProximaNova-Regular, Proxima Nova" font-size="13">
          <tspan x="395.377" y="112">Gathering…</tspan>
        </text>
        <text fill="#515E5F" font-family="ProximaNova-Regular, Proxima Nova" font-size="16">
          <tspan x="1" y="113">Direct Messages Received</tspan>
        </text>
        <rect width="460" height="1" y="83" fill="#C8CCCC"/>
        <text fill="#929A9B" font-family="ProximaNova-Regular, Proxima Nova" font-size="13">
          <tspan x="395.377" y="62">Gathering…</tspan>
        </text>
        <text fill="#515E5F" font-family="ProximaNova-Regular, Proxima Nova" font-size="16">
          <tspan x="1" y="63">Mentions Received</tspan>
        </text>
        <rect width="460" height="1" y="33" fill="#C8CCCC"/>
        <text fill="#929A9B" font-family="ProximaNova-Semibold, Proxima Nova" font-size="13" font-weight="500">
          <tspan x="426.64" y="13">Totals</tspan>
        </text>
        <text fill="#929A9B" font-family="ProximaNova-Semibold, Proxima Nova" font-size="13" font-weight="500">
          <tspan x="0" y="13">Received Metrics</tspan>
        </text>
      </g>
    </g>
    <g transform="translate(40 450)">
      <use fill="#FFF" xlink:href="#chart-gathering-data-b"/>
      <rect width="759" height="219" x=".5" y=".5" stroke="#C8CCCC" rx="3"/>
      <g font-family="ProximaNova-Regular, Proxima Nova" font-size="13" transform="translate(521 50)">
        <text fill="#08C4B2">
          <tspan x="53.185" y="104">Since Last Month</tspan>
        </text>
        <text fill="#929A9B">
          <tspan x="69.876" y="73">Gathering…</tspan>
        </text>
        <text fill="#515E5F">
          <tspan x="29.707" y="12">The number of messages </tspan> <tspan x="39.477" y="33">you sent increased by</tspan>
        </text>
      </g>
      <g transform="translate(20 27)">
        <text fill="#929A9B" font-family="ProximaNova-Regular, Proxima Nova" font-size="13">
          <tspan x="395.377" y="162">Gathering…</tspan>
        </text>
        <text fill="#364141" font-family="ProximaNova-Semibold, Proxima Nova" font-size="16" font-weight="500">
          <tspan x="1" y="163">Total Sent</tspan>
        </text>
        <rect width="460" height="2" y="133" fill="#B0B6B7"/>
        <text fill="#929A9B" font-family="ProximaNova-Regular, Proxima Nova" font-size="13">
          <tspan x="395.377" y="112">Gathering…</tspan>
        </text>
        <text fill="#515E5F" font-family="ProximaNova-Regular, Proxima Nova" font-size="16">
          <tspan x="1" y="113">Direct Messages Sent</tspan>
        </text>
        <rect width="460" height="1" y="83" fill="#C8CCCC"/>
        <text fill="#929A9B" font-family="ProximaNova-Regular, Proxima Nova" font-size="13">
          <tspan x="395.377" y="62">Gathering…</tspan>
        </text>
        <text fill="#515E5F" font-family="ProximaNova-Regular, Proxima Nova" font-size="16">
          <tspan x="1" y="63">Tweets Sent</tspan>
        </text>
        <rect width="460" height="1" y="33" fill="#C8CCCC"/>
        <text fill="#929A9B" font-family="ProximaNova-Semibold, Proxima Nova" font-size="13" font-weight="500">
          <tspan x="426.64" y="13">Totals</tspan>
        </text>
        <text fill="#929A9B" font-family="ProximaNova-Semibold, Proxima Nova" font-size="13" font-weight="500">
          <tspan x="0" y="13">Sent Metrics</tspan>
        </text>
      </g>
    </g>
    <g transform="translate(40 130)">
      <g transform="translate(302 274)">
        <text fill="#929A9B" font-family="ProximaNova-Semibold, Proxima Nova" font-size="13" font-weight="500">
          <tspan x="130" y="13">Sent</tspan>
        </text>
        <rect width="12" height="12" x="110" y="3" fill="#5E4EBA" rx="3"/>
        <text fill="#929A9B" font-family="ProximaNova-Semibold, Proxima Nova" font-size="13" font-weight="500">
          <tspan x="20" y="13">Received</tspan>
        </text>
        <rect width="12" height="12" y="3" fill="#08C4B2" rx="3"/>
      </g>
      <g fill="#929A9B" font-family="ProximaNova-Semibold, Proxima Nova" font-size="11" font-weight="500" letter-spacing=".926" transform="translate(18 220)">
        <text>
          <tspan x=".601" y="32">APR</tspan>
        </text>
        <text>
          <tspan x="10" y="11">1</tspan>
        </text>
        <text>
          <tspan x="29" y="11">2</tspan>
        </text>
        <text>
          <tspan x="50" y="11">3</tspan>
        </text>
        <text>
          <tspan x="72" y="11">4</tspan>
        </text>
        <text>
          <tspan x="93" y="11">5</tspan>
        </text>
        <text>
          <tspan x="114" y="11">6</tspan>
        </text>
        <text>
          <tspan x="136" y="11">7</tspan>
        </text>
        <text>
          <tspan x="156" y="11">8</tspan>
        </text>
        <text>
          <tspan x="177" y="11">9</tspan>
        </text>
        <text>
          <tspan x="199" y="11">10</tspan>
        </text>
        <text>
          <tspan x="224" y="11">11</tspan>
        </text>
        <text>
          <tspan x="247" y="11">12</tspan>
        </text>
        <text>
          <tspan x="272" y="11">13</tspan>
        </text>
        <text>
          <tspan x="297" y="11">14</tspan>
        </text>
        <text>
          <tspan x="323" y="11">15</tspan>
        </text>
        <text>
          <tspan x="348" y="11">16</tspan>
        </text>
        <text>
          <tspan x="373" y="11">17</tspan>
        </text>
        <text>
          <tspan x="397" y="11">18</tspan>
        </text>
        <text>
          <tspan x="422" y="11">19</tspan>
        </text>
        <text>
          <tspan x="449" y="11">20</tspan>
        </text>
        <text>
          <tspan x="477" y="11">21</tspan>
        </text>
        <text>
          <tspan x="502" y="11">22</tspan>
        </text>
        <text>
          <tspan x="530" y="11">23</tspan>
        </text>
        <text>
          <tspan x="558" y="11">24</tspan>
        </text>
        <text>
          <tspan x="586" y="11">25</tspan>
        </text>
        <text>
          <tspan x="614" y="11">26</tspan>
        </text>
        <text>
          <tspan x="643" y="11">27</tspan>
        </text>
        <text>
          <tspan x="670" y="11">28</tspan>
        </text>
        <text>
          <tspan x="698" y="11">29</tspan>
        </text>
        <text>
          <tspan x="727" y="11">30</tspan>
        </text>
      </g>
      <rect width="730" height="2" x="30" y="206" fill="#B0B6B7"/>
      <rect width="730" height="1" x="30" y="156" fill="#C8CCCC"/>
      <rect width="730" height="1" x="30" y="106" fill="#C8CCCC"/>
      <rect width="730" height="1" x="30" y="56" fill="#C8CCCC"/>
      <rect width="730" height="1" x="30" y="6" fill="#C8CCCC"/>
      <g fill="#929A9B" font-family="ProximaNova-Semibold, Proxima Nova" font-size="11" font-weight="500" letter-spacing=".926">
        <text>
          <tspan x="0" y="211">0</tspan>
        </text>
        <text>
          <tspan x="0" y="161">50</tspan>
        </text>
        <text>
          <tspan x="0" y="111">100</tspan>
        </text>
        <text>
          <tspan x="0" y="61">150</tspan>
        </text>
        <text>
          <tspan x="0" y="11">200</tspan>
        </text>
      </g>
    </g>
    <rect width="760" height="300" x="40" y="130" fill="#FFF" fill-opacity=".8" rx="3"/>
    <g transform="translate(366 280)">
      <use fill="#FFF" xlink:href="#chart-gathering-data-c"/>
      <rect width="109" height="29" x=".5" y=".5" stroke="#364141" rx="3"/>
      <text fill="#364141" font-family="ProximaNova-Semibold, Proxima Nova" font-size="13" font-weight="500">
        <tspan x="10.592" y="19">Preview Report</tspan>
      </text>
    </g>
    <text font-family="ProximaNova-Bold, Proxima Nova" font-size="18" font-weight="bold">
      <tspan x="357.819" y="225" fill="#364141">Gathering Data</tspan> <tspan x="305.384" y="249" fill="#515E5F" font-family="ProximaNova-Regular, Proxima Nova" font-size="16" font-weight="normal">This could take 15 to 30 minutes.</tspan>
    </text>
    <g transform="translate(396 155)">
      <circle cx="25.5" cy="24.5" r="14.5" fill="#08C4B2" fill-rule="nonzero"/>
      <path fill="#172121" d="M19.9851553,5 C14.8845502,5 10.0429205,7.4643808 7.03493344,11.5920129 L8.59943526,12.7319887 C11.2443727,9.1034288 15.5007664,6.93626462 19.9851553,6.93626462 C27.7481242,6.93626462 34.0637354,13.2518758 34.0637354,21.0143606 C34.0637354,28.7768455 27.7481242,35.0924566 19.9851553,35.0924566 C12.9473175,35.0924566 7.09979831,29.9018152 6.06825333,23.1486083 L9.62275111,25.9189189 L10.8130698,24.3921743 L4.73658733,19.656071 L0,25.7325534 L1.52674466,26.9228721 L4.16974587,23.5319887 C5.38136345,31.1700686 12.0111335,37.0287213 19.9851553,37.0287213 C28.8154901,37.0287213 36,29.8446954 36,21.0143606 C36,12.1840258 28.8154901,5 19.9851553,5"/>
      <path stroke="#08C4B2" stroke-linecap="round" stroke-linejoin="round" stroke-width="2" d="M56.0430108,14 L56.0430108,22 M52,17.9569892 L60,17.9569892"/>
      <circle cx="45.5" cy="2.5" r="2.5" fill="#08C4B2" fill-rule="nonzero"/>
    </g>
    <text fill="#929A9B" font-family="ProximaNova-Semibold, Proxima Nova" font-size="13" font-weight="500">
      <tspan x="40" y="105">Messages Per Day</tspan>
    </text>
    <text fill="#323232" font-family="ProximaNova-Semibold, Proxima Nova" font-size="18" font-weight="500">
      <tspan x="40" y="58">Posts &amp; Conversations</tspan>
    </text>
  </g>
</svg>
