<svg xmlns="http://www.w3.org/2000/svg" xmlns:xlink="http://www.w3.org/1999/xlink" width="900" height="430" style="background:#f3f4f4" viewBox="0 0 900 430">
  <defs>
    <rect id="influencers-data-error-a" width="100" height="30" rx="3"/>
  </defs>
  <g fill="none" fill-rule="evenodd" transform="translate(30 30)">
    <rect width="840" height="370" fill="#FFF"/>
    <g transform="translate(40 30)">
      <g opacity=".2" transform="translate(0 60)">
        <g transform="translate(512.424)">
          <g transform="translate(171 170)">
            <rect width="75.915" height="75.915" fill="#C8CCCC" transform="matrix(-1 0 0 1 75.915 0)"/>
            <path fill="#B0B6B7" d="M58,55.5 L58,57.1666667 C58,57.6296296 57.6296296,58 57.1666667,58 L18.8333333,58 C18.3703704,58 18,57.6296296 18,57.1666667 L18,55.5 C18,47.1666667 33,48.8333333 33,42.1666667 C33,42.1666667 28,37.1666667 28,28 C28,22.4907407 32.4907407,18 38,18 C43.5092593,18 48,22.4907407 48,28 C48,37.1666667 43,42.1666667 43,42.1666667 C43,48.8333333 58,47.1666667 58,55.5 Z"/>
          </g>
          <g transform="translate(86 170)">
            <rect width="75.915" height="75.915" fill="#C8CCCC" transform="matrix(-1 0 0 1 75.915 0)"/>
            <path fill="#B0B6B7" d="M58,55.5 L58,57.1666667 C58,57.6296296 57.6296296,58 57.1666667,58 L18.8333333,58 C18.3703704,58 18,57.6296296 18,57.1666667 L18,55.5 C18,47.1666667 33,48.8333333 33,42.1666667 C33,42.1666667 28,37.1666667 28,28 C28,22.4907407 32.4907407,18 38,18 C43.5092593,18 48,22.4907407 48,28 C48,37.1666667 43,42.1666667 43,42.1666667 C43,48.8333333 58,47.1666667 58,55.5 Z"/>
          </g>
          <g transform="translate(0 170)">
            <rect width="75.915" height="75.915" fill="#C8CCCC" transform="matrix(-1 0 0 1 75.915 0)"/>
            <path fill="#B0B6B7" d="M58,55.5 L58,57.1666667 C58,57.6296296 57.6296296,58 57.1666667,58 L18.8333333,58 C18.3703704,58 18,57.6296296 18,57.1666667 L18,55.5 C18,47.1666667 33,48.8333333 33,42.1666667 C33,42.1666667 28,37.1666667 28,28 C28,22.4907407 32.4907407,18 38,18 C43.5092593,18 48,22.4907407 48,28 C48,37.1666667 43,42.1666667 43,42.1666667 C43,48.8333333 58,47.1666667 58,55.5 Z"/>
          </g>
          <g transform="translate(171 86)">
            <rect width="75.915" height="75.915" fill="#C8CCCC" transform="matrix(-1 0 0 1 75.915 0)"/>
            <path fill="#B0B6B7" d="M58,55.5 L58,57.1666667 C58,57.6296296 57.6296296,58 57.1666667,58 L18.8333333,58 C18.3703704,58 18,57.6296296 18,57.1666667 L18,55.5 C18,47.1666667 33,48.8333333 33,42.1666667 C33,42.1666667 28,37.1666667 28,28 C28,22.4907407 32.4907407,18 38,18 C43.5092593,18 48,22.4907407 48,28 C48,37.1666667 43,42.1666667 43,42.1666667 C43,48.8333333 58,47.1666667 58,55.5 Z"/>
          </g>
          <g transform="translate(86 86)">
            <rect width="75.915" height="75.915" fill="#C8CCCC" transform="matrix(-1 0 0 1 75.915 0)"/>
            <path fill="#B0B6B7" d="M58,55.5 L58,57.1666667 C58,57.6296296 57.6296296,58 57.1666667,58 L18.8333333,58 C18.3703704,58 18,57.6296296 18,57.1666667 L18,55.5 C18,47.1666667 33,48.8333333 33,42.1666667 C33,42.1666667 28,37.1666667 28,28 C28,22.4907407 32.4907407,18 38,18 C43.5092593,18 48,22.4907407 48,28 C48,37.1666667 43,42.1666667 43,42.1666667 C43,48.8333333 58,47.1666667 58,55.5 Z"/>
          </g>
          <g transform="translate(0 86)">
            <rect width="75.915" height="75.915" fill="#C8CCCC" transform="matrix(-1 0 0 1 75.915 0)"/>
            <path fill="#B0B6B7" d="M58,55.5 L58,57.1666667 C58,57.6296296 57.6296296,58 57.1666667,58 L18.8333333,58 C18.3703704,58 18,57.6296296 18,57.1666667 L18,55.5 C18,47.1666667 33,48.8333333 33,42.1666667 C33,42.1666667 28,37.1666667 28,28 C28,22.4907407 32.4907407,18 38,18 C43.5092593,18 48,22.4907407 48,28 C48,37.1666667 43,42.1666667 43,42.1666667 C43,48.8333333 58,47.1666667 58,55.5 Z"/>
          </g>
          <g transform="translate(171)">
            <rect width="75.915" height="75.915" fill="#C8CCCC" transform="matrix(-1 0 0 1 75.915 0)"/>
            <path fill="#B0B6B7" d="M58,55.5 L58,57.1666667 C58,57.6296296 57.6296296,58 57.1666667,58 L18.8333333,58 C18.3703704,58 18,57.6296296 18,57.1666667 L18,55.5 C18,47.1666667 33,48.8333333 33,42.1666667 C33,42.1666667 28,37.1666667 28,28 C28,22.4907407 32.4907407,18 38,18 C43.5092593,18 48,22.4907407 48,28 C48,37.1666667 43,42.1666667 43,42.1666667 C43,48.8333333 58,47.1666667 58,55.5 Z"/>
          </g>
          <g transform="translate(86)">
            <rect width="75.915" height="75.915" fill="#C8CCCC" transform="matrix(-1 0 0 1 75.915 0)"/>
            <path fill="#B0B6B7" d="M58,55.5 L58,57.1666667 C58,57.6296296 57.6296296,58 57.1666667,58 L18.8333333,58 C18.3703704,58 18,57.6296296 18,57.1666667 L18,55.5 C18,47.1666667 33,48.8333333 33,42.1666667 C33,42.1666667 28,37.1666667 28,28 C28,22.4907407 32.4907407,18 38,18 C43.5092593,18 48,22.4907407 48,28 C48,37.1666667 43,42.1666667 43,42.1666667 C43,48.8333333 58,47.1666667 58,55.5 Z"/>
          </g>
          <rect width="75.915" height="75.915" fill="#C8CCCC" transform="matrix(-1 0 0 1 75.915 0)"/>
          <path fill="#B0B6B7" d="M58,55.5 L58,57.1666667 C58,57.6296296 57.6296296,58 57.1666667,58 L18.8333333,58 C18.3703704,58 18,57.6296296 18,57.1666667 L18,55.5 C18,47.1666667 33,48.8333333 33,42.1666667 C33,42.1666667 28,37.1666667 28,28 C28,22.4907407 32.4907407,18 38,18 C43.5092593,18 48,22.4907407 48,28 C48,37.1666667 43,42.1666667 43,42.1666667 C43,48.8333333 58,47.1666667 58,55.5 Z"/>
        </g>
        <g transform="translate(256.212)">
          <g transform="translate(129 .106)">
            <rect width="118.617" height="118.617" fill="#C8CCCC"/>
            <path fill="#B0B6B7" d="M95.5000367,91.0000367 L95.5000367,94.0000367 C95.5000367,94.83337 94.83337,95.5000367 94.0000367,95.5000367 L25.0000367,95.5000367 C24.1667034,95.5000367 23.5000367,94.83337 23.5000367,94.0000367 L23.5000367,91.0000367 C23.5000367,76.0000367 50.5000367,79.0000367 50.5000367,67.0000367 C50.5000367,67.0000367 41.5000367,58.0000367 41.5000367,41.5000367 C41.5000367,31.58337 49.58337,23.5000367 59.5000367,23.5000367 C69.4167034,23.5000367 77.5000367,31.58337 77.5000367,41.5000367 C77.5000367,58.0000367 68.5000367,67.0000367 68.5000367,67.0000367 C68.5000367,79.0000367 95.5000367,76.0000367 95.5000367,91.0000367 Z"/>
          </g>
          <g transform="translate(129 128.106)">
            <rect width="118.617" height="118.617" fill="#C8CCCC"/>
            <path fill="#B0B6B7" d="M95.5000367,91.0000367 L95.5000367,94.0000367 C95.5000367,94.83337 94.83337,95.5000367 94.0000367,95.5000367 L25.0000367,95.5000367 C24.1667034,95.5000367 23.5000367,94.83337 23.5000367,94.0000367 L23.5000367,91.0000367 C23.5000367,76.0000367 50.5000367,79.0000367 50.5000367,67.0000367 C50.5000367,67.0000367 41.5000367,58.0000367 41.5000367,41.5000367 C41.5000367,31.58337 49.58337,23.5000367 59.5000367,23.5000367 C69.4167034,23.5000367 77.5000367,31.58337 77.5000367,41.5000367 C77.5000367,58.0000367 68.5000367,67.0000367 68.5000367,67.0000367 C68.5000367,79.0000367 95.5000367,76.0000367 95.5000367,91.0000367 Z"/>
          </g>
          <g transform="translate(0 .106)">
            <rect width="118.617" height="118.617" fill="#C8CCCC"/>
            <path fill="#B0B6B7" d="M95.5000367,91.0000367 L95.5000367,94.0000367 C95.5000367,94.83337 94.83337,95.5000367 94.0000367,95.5000367 L25.0000367,95.5000367 C24.1667034,95.5000367 23.5000367,94.83337 23.5000367,94.0000367 L23.5000367,91.0000367 C23.5000367,76.0000367 50.5000367,79.0000367 50.5000367,67.0000367 C50.5000367,67.0000367 41.5000367,58.0000367 41.5000367,41.5000367 C41.5000367,31.58337 49.58337,23.5000367 59.5000367,23.5000367 C69.4167034,23.5000367 77.5000367,31.58337 77.5000367,41.5000367 C77.5000367,58.0000367 68.5000367,67.0000367 68.5000367,67.0000367 C68.5000367,79.0000367 95.5000367,76.0000367 95.5000367,91.0000367 Z"/>
          </g>
          <g transform="translate(0 128.106)">
            <rect width="118.617" height="118.617" fill="#C8CCCC"/>
            <path fill="#B0B6B7" d="M95.5000367,91.0000367 L95.5000367,94.0000367 C95.5000367,94.83337 94.83337,95.5000367 94.0000367,95.5000367 L25.0000367,95.5000367 C24.1667034,95.5000367 23.5000367,94.83337 23.5000367,94.0000367 L23.5000367,91.0000367 C23.5000367,76.0000367 50.5000367,79.0000367 50.5000367,67.0000367 C50.5000367,67.0000367 41.5000367,58.0000367 41.5000367,41.5000367 C41.5000367,31.58337 49.58337,23.5000367 59.5000367,23.5000367 C69.4167034,23.5000367 77.5000367,31.58337 77.5000367,41.5000367 C77.5000367,58.0000367 68.5000367,67.0000367 68.5000367,67.0000367 C68.5000367,79.0000367 95.5000367,76.0000367 95.5000367,91.0000367 Z"/>
          </g>
        </g>
        <rect width="246.723" height="246.723" fill="#C8CCCC"/>
        <path fill="#B0B6B7" d="M201.000073,191.312569 L201.000073,197.770905 C201.000073,199.564888 199.564888,201.000073 197.770905,201.000073 L49.2291682,201.000073 C47.4351859,201.000073 46,199.564888 46,197.770905 L46,191.312569 C46,159.020887 104.125028,165.479223 104.125028,139.645878 C104.125028,139.645878 84.7500184,120.270869 84.7500184,84.7500184 C84.7500184,63.4016286 102.151647,46 123.500037,46 C144.848426,46 162.250055,63.4016286 162.250055,84.7500184 C162.250055,120.270869 142.875046,139.645878 142.875046,139.645878 C142.875046,165.479223 201.000073,159.020887 201.000073,191.312569 Z"/>
      </g>
      <g transform="translate(331 232)">
        <use fill="#FFF" xlink:href="#influencers-data-error-a"/>
        <rect width="99" height="29" x=".5" y=".5" stroke="#364141" rx="3"/>
        <text fill="#364141" font-family="ProximaNova-Semibold, Proxima Nova" font-size="13" font-weight="500">
          <tspan x="17.845" y="19">Contact Us</tspan>
        </text>
      </g>
      <text font-family="ProximaNova-Bold, Proxima Nova" font-size="18" font-weight="bold">
        <tspan x="311.25" y="176" fill="#364141">Data Unavailable</tspan> <tspan x="196.24" y="200" fill="#515E5F" font-family="ProximaNova-Regular, Proxima Nova" font-size="16" font-weight="normal">We are unable to retrieve all of your data at this time.</tspan>
      </text>
      <g transform="translate(361 107)">
        <path fill="#ED4C42" d="M38.5065435,33.4001901 L24.4822999,8.47352696 C23.9695037,7.56174456 23.0218563,7 21.9956779,7 C20.9694994,7 20.021852,7.56174456 19.5084698,8.47352696 L5.38459715,33.5800206 C4.87180095,34.491803 4.87180095,35.6146906 5.38459715,36.5270745 C5.89739336,37.4388569 6.8456268,38 7.87180526,38 L36.1201365,38 L36.1283413,38 C37.7147862,38 39,36.681043 39,35.0529461 C39,34.4406806 38.8177376,33.8711173 38.5065435,33.4001901"/>
        <path fill="#172121" fill-rule="nonzero" d="M34,31.2363651 C34,33.3154158 32.3465129,35 30.3058412,35 L3.69428975,35 C2.37413862,35 1.15439825,34.2830529 0.49458636,33.1183819 C-0.16489503,31.9535266 -0.16489503,30.5195603 0.494783839,29.3551242 L13.7966086,5.88149917 C14.4569933,4.71714789 15.6761462,4 16.995926,4 C18.3158914,4 19.5351729,4.71734597 20.1948565,5.8817903 L33.3861597,29.1578293 C33.7837768,29.7687772 34,30.4878685 34,31.2363651 Z M18.480637,6.88999343 C18.1744069,6.34944952 17.6086233,6.01657923 16.995926,6.01657923 C16.3831953,6.01657923 15.8172071,6.34951307 15.5106066,6.89009279 L2.20902673,30.363286 C1.90276286,30.9038894 1.90276286,31.5696087 2.20902673,32.1105689 C2.51501189,32.6506804 3.08110227,32.9834208 3.69428975,32.9834208 L30.3058412,32.9834208 C31.2533462,32.9834208 32.0206465,32.2016898 32.0206465,31.2363651 C32.0206465,30.8812774 31.9171992,30.5435268 31.7265041,30.257044 L18.480637,6.88999343 Z"/>
        <path fill="#FFF" d="M20,28.7053719 C20,28.8682592 19.8545398,29 19.6752625,29 L17.3242742,29 C17.1449969,29 17,28.8682592 17,28.7053719 L17,26.7902896 C17,26.6274024 17.1449969,26.4956615 17.3242742,26.4956615 L19.6752625,26.4956615 C19.8545398,26.4956615 20,26.6274024 20,26.7902896 L20,28.7053719 Z M20,24.3968996 C20,24.5597868 19.8545398,24.6911068 19.6752625,24.6911068 L17.3242742,24.6911068 C17.1449969,24.6911068 17,24.5593659 17,24.3968996 L17,16.2946281 C17,16.1321617 17.1449969,16 17.3242742,16 L19.6752625,16 C19.8545398,16 20,16.1317408 20,16.2946281 L20,24.3968996 Z"/>
        <path stroke="#ED4C42" stroke-linecap="round" stroke-linejoin="round" stroke-width="2" d="M53.0430108,14 L53.0430108,22 M49,17.9569892 L57,17.9569892"/>
        <circle cx="42.5" cy="2.5" r="2.5" fill="#ED4C42" fill-rule="nonzero"/>
      </g>
      <text fill="#323232" font-family="ProximaNova-Semibold, Proxima Nova" font-size="18" font-weight="500">
        <tspan x="0" y="18">Influencers</tspan>
      </text>
    </g>
  </g>
</svg>
