<svg xmlns="http://www.w3.org/2000/svg" xmlns:xlink="http://www.w3.org/1999/xlink" width="900" height="1020" style="background:#f3f4f4" viewBox="0 0 900 1020">
  <defs>
    <rect id="chart-partial-data-a" width="760" height="220" rx="3"/>
    <rect id="chart-partial-data-b" width="760" height="220" rx="3"/>
    <rect id="chart-partial-data-c" width="100" height="30" rx="3"/>
  </defs>
  <g fill="none" fill-rule="evenodd" transform="translate(30 30)">
    <rect width="840" height="960" fill="#FFF"/>
    <g transform="translate(40 40)">
      <g transform="translate(0 660)">
        <use fill="#FFF" xlink:href="#chart-partial-data-a"/>
        <rect width="759" height="219" x=".5" y=".5" stroke="#C8CCCC" rx="3"/>
        <g transform="translate(521 52)">
          <text fill="#08C4B2" font-family="ProximaNova-Regular, Proxima Nova" font-size="13">
            <tspan x="53.185" y="104">Since Last Month</tspan>
          </text>
          <text fill="#08C4B2" font-family="ProximaNova-Semibold, Proxima Nova" font-size="16" font-weight="500">
            <tspan x="58.812" y="72.5"> </tspan> <tspan x="81.516" y="67.356" font-size="28">1.2%</tspan>
          </text>
          <polygon fill="#00C5B2" points="73.385 60.58 69.513 65.515 72.37 65.515 72.37 69.71 71.288 69.71 69.257 69.71 69.257 71.741 69.257 75.935 71.288 75.935 71.288 71.741 72.37 71.741 74.4 71.741 74.4 69.71 74.4 65.515 77.257 65.515 73.386 60.58" transform="rotate(40 73.257 68.257)"/>
          <text fill="#515E5F" font-family="ProximaNova-Regular, Proxima Nova" font-size="13">
            <tspan x="29.707" y="12">The number of messages </tspan> <tspan x="39.477" y="33">you sent increased by</tspan>
          </text>
        </g>
        <g transform="translate(20 27)">
          <text fill="#364141" font-family="ProximaNova-Semibold, Proxima Nova" font-size="16" font-weight="500">
            <tspan x="423.016" y="163">1,234</tspan>
          </text>
          <text fill="#364141" font-family="ProximaNova-Semibold, Proxima Nova" font-size="16" font-weight="500">
            <tspan x="1" y="163">Total Received</tspan>
          </text>
          <rect width="460" height="2" y="133" fill="#B0B6B7"/>
          <text fill="#6E797A" font-family="ProximaNova-Semibold, Proxima Nova" font-size="16" font-weight="500">
            <tspan x="436.216" y="113">123</tspan>
          </text>
          <text fill="#515E5F" font-family="ProximaNova-Regular, Proxima Nova" font-size="16">
            <tspan x="1" y="113">Direct Messages Received</tspan>
          </text>
          <rect width="460" height="1" y="83" fill="#C8CCCC"/>
          <text fill="#6E797A" font-family="ProximaNova-Semibold, Proxima Nova" font-size="16" font-weight="500">
            <tspan x="423.016" y="63">1,234</tspan>
          </text>
          <text fill="#515E5F" font-family="ProximaNova-Regular, Proxima Nova" font-size="16">
            <tspan x="1" y="63">Mentions Received</tspan>
          </text>
          <rect width="460" height="1" y="33" fill="#C8CCCC"/>
          <text fill="#929A9B" font-family="ProximaNova-Semibold, Proxima Nova" font-size="13" font-weight="500">
            <tspan x="426.64" y="13">Totals</tspan>
          </text>
          <text fill="#929A9B" font-family="ProximaNova-Semibold, Proxima Nova" font-size="13" font-weight="500">
            <tspan x="0" y="13">Received Metrics</tspan>
          </text>
        </g>
      </g>
      <g transform="translate(0 420)">
        <use fill="#FFF" xlink:href="#chart-partial-data-b"/>
        <rect width="759" height="219" x=".5" y=".5" stroke="#C8CCCC" rx="3"/>
        <g transform="translate(521 50)">
          <text fill="#08C4B2" font-family="ProximaNova-Regular, Proxima Nova" font-size="13">
            <tspan x="53.185" y="104">Since Last Month</tspan>
          </text>
          <text fill="#08C4B2" font-family="ProximaNova-Semibold, Proxima Nova" font-size="16" font-weight="500">
            <tspan x="58.812" y="72.5"> </tspan> <tspan x="81.516" y="67.356" font-size="28">1.2%</tspan>
          </text>
          <polygon fill="#00C5B2" points="73.385 60.58 69.513 65.515 72.37 65.515 72.37 69.71 71.288 69.71 69.257 69.71 69.257 71.741 69.257 75.935 71.288 75.935 71.288 71.741 72.37 71.741 74.4 71.741 74.4 69.71 74.4 65.515 77.257 65.515 73.386 60.58" transform="rotate(40 73.257 68.257)"/>
          <text fill="#515E5F" font-family="ProximaNova-Regular, Proxima Nova" font-size="13">
            <tspan x="29.707" y="12">The number of messages </tspan> <tspan x="39.477" y="33">you sent increased by</tspan>
          </text>
        </g>
        <g transform="translate(20 27)">
          <text fill="#364141" font-family="ProximaNova-Semibold, Proxima Nova" font-size="16" font-weight="500">
            <tspan x="423.016" y="163">1,234</tspan>
          </text>
          <text fill="#364141" font-family="ProximaNova-Semibold, Proxima Nova" font-size="16" font-weight="500">
            <tspan x="1" y="163">Total Sent</tspan>
          </text>
          <rect width="460" height="2" y="133" fill="#B0B6B7"/>
          <text fill="#6E797A" font-family="ProximaNova-Semibold, Proxima Nova" font-size="16" font-weight="500">
            <tspan x="436.216" y="113">123</tspan>
          </text>
          <text fill="#515E5F" font-family="ProximaNova-Regular, Proxima Nova" font-size="16">
            <tspan x="1" y="113">Direct Messages Sent</tspan>
          </text>
          <rect width="460" height="1" y="83" fill="#C8CCCC"/>
          <text fill="#6E797A" font-family="ProximaNova-Semibold, Proxima Nova" font-size="16" font-weight="500">
            <tspan x="423.016" y="63">1,234</tspan>
          </text>
          <text fill="#515E5F" font-family="ProximaNova-Regular, Proxima Nova" font-size="16">
            <tspan x="1" y="63">Tweets Sent</tspan>
          </text>
          <rect width="460" height="1" y="33" fill="#C8CCCC"/>
          <text fill="#929A9B" font-family="ProximaNova-Semibold, Proxima Nova" font-size="13" font-weight="500">
            <tspan x="426.64" y="13">Totals</tspan>
          </text>
          <text fill="#929A9B" font-family="ProximaNova-Semibold, Proxima Nova" font-size="13" font-weight="500">
            <tspan x="0" y="13">Sent Metrics</tspan>
          </text>
        </g>
      </g>
      <g transform="translate(0 49)">
        <g transform="translate(302 318)">
          <text fill="#929A9B" font-family="ProximaNova-Semibold, Proxima Nova" font-size="13" font-weight="500">
            <tspan x="130" y="13">Sent</tspan>
          </text>
          <rect width="12" height="12" x="110" y="3" fill="#5E4EBA" rx="3"/>
          <text fill="#929A9B" font-family="ProximaNova-Semibold, Proxima Nova" font-size="13" font-weight="500">
            <tspan x="20" y="13">Received</tspan>
          </text>
          <rect width="12" height="12" y="3" fill="#08C4B2" rx="3"/>
        </g>
        <g font-family="ProximaNova-Semibold, Proxima Nova" font-size="11" font-weight="500" letter-spacing=".926" transform="translate(18 264)">
          <text fill="#929A9B">
            <tspan x=".601" y="32">APR</tspan>
          </text>
          <text fill="#929A9B">
            <tspan x="10" y="11">1</tspan>
          </text>
          <text fill="#929A9B">
            <tspan x="29" y="11">2</tspan>
          </text>
          <text fill="#929A9B">
            <tspan x="50" y="11">3</tspan>
          </text>
          <text fill="#929A9B">
            <tspan x="72" y="11">4</tspan>
          </text>
          <text fill="#929A9B">
            <tspan x="93" y="11">5</tspan>
          </text>
          <text fill="#929A9B">
            <tspan x="114" y="11">6</tspan>
          </text>
          <text fill="#929A9B">
            <tspan x="136" y="11">7</tspan>
          </text>
          <text fill="#929A9B">
            <tspan x="156" y="11">8</tspan>
          </text>
          <text fill="#929A9B">
            <tspan x="177" y="11">9</tspan>
          </text>
          <text fill="#929A9B">
            <tspan x="199" y="11">10</tspan>
          </text>
          <text fill="#929A9B">
            <tspan x="224" y="11">11</tspan>
          </text>
          <text fill="#ED4C42">
            <tspan x="247" y="11">12</tspan>
          </text>
          <text fill="#ED4C42">
            <tspan x="272" y="11">13</tspan>
          </text>
          <text fill="#929A9B">
            <tspan x="297" y="11">14</tspan>
          </text>
          <text fill="#929A9B">
            <tspan x="323" y="11">15</tspan>
          </text>
          <text fill="#929A9B">
            <tspan x="348" y="11">16</tspan>
          </text>
          <text fill="#ED4C42">
            <tspan x="373" y="11">17</tspan>
          </text>
          <text fill="#929A9B">
            <tspan x="397" y="11">18</tspan>
          </text>
          <text fill="#ED4C42">
            <tspan x="422" y="11">19</tspan>
          </text>
          <text fill="#ED4C42">
            <tspan x="449" y="11">20</tspan>
          </text>
          <text fill="#929A9B">
            <tspan x="477" y="11">21</tspan>
          </text>
          <text fill="#929A9B">
            <tspan x="502" y="11">22</tspan>
          </text>
          <text fill="#929A9B">
            <tspan x="530" y="11">23</tspan>
          </text>
          <text fill="#929A9B">
            <tspan x="558" y="11">24</tspan>
          </text>
          <text fill="#929A9B">
            <tspan x="586" y="11">25</tspan>
          </text>
          <text fill="#929A9B">
            <tspan x="614" y="11">26</tspan>
          </text>
          <text fill="#929A9B">
            <tspan x="643" y="11">27</tspan>
          </text>
          <text fill="#929A9B">
            <tspan x="670" y="11">28</tspan>
          </text>
          <text fill="#929A9B">
            <tspan x="698" y="11">29</tspan>
          </text>
          <text fill="#929A9B">
            <tspan x="727" y="11">30</tspan>
          </text>
        </g>
        <rect width="730" height="2" x="30" y="250" fill="#B0B6B7"/>
        <rect width="730" height="1" x="30" y="200" fill="#C8CCCC"/>
        <rect width="730" height="1" x="30" y="150" fill="#C8CCCC"/>
        <rect width="730" height="1" x="30" y="100" fill="#C8CCCC"/>
        <rect width="730" height="1" x="30" y="50" fill="#C8CCCC"/>
        <g fill="#929A9B" font-family="ProximaNova-Semibold, Proxima Nova" font-size="11" font-weight="500" letter-spacing=".926" transform="translate(0 44)">
          <text>
            <tspan x="0" y="211">0</tspan>
          </text>
          <text>
            <tspan x="0" y="161">50</tspan>
          </text>
          <text>
            <tspan x="0" y="111">100</tspan>
          </text>
          <text>
            <tspan x="0" y="61">150</tspan>
          </text>
          <text>
            <tspan x="0" y="11">200</tspan>
          </text>
        </g>
        <g transform="translate(30 51)">
          <path stroke="#08C4B2" stroke-width="3" d="M218.064103 122.9718C218.064103 122.9718 207.340567 89.9199219 201.573446 88.4828 195.806325 87.0456781 184.156481 94.9746094 176.410457 98.2108 168.664434 101.446991 156.29187 101.287109 151.247469 104.4008 146.203068 107.514491 130.447315 187.546875 126.084481 190.1798 121.721646 192.812725 109.891392 186.353516 100.921492 173.3778 91.9515921 160.402084 78.9976018 122.846553 75.7585037 112.3598 72.5194057 101.873047 54.3560045 21.2748 50.5955153 18.6218 46.8350262 15.9688 30.0849268 18.6218 25.4325269 21.2748 20.7801269 23.9278.269538462 64.6058.269538462 64.6058M729.72861 77.4639086C729.72861 77.4639086 710.456161 137.597909 705.395432 137.597909 700.334704 137.597909 685.643984 97.8029086 681.062254 98.6879086 676.480524 99.5729086 661.972998 172.970909 656.729076 176.507909 651.485154 180.044909 638.423298 176.507909 632.395897 172.970909 626.368497 169.433909 615.643935 132.505534 608.062719 120.795909 600.481504 109.086283 590.276427 98.6879086 583.729541 97.8029086 577.182655 96.9179086 566.018343 112.602037 559.396363 115.489909 552.774383 118.37778 540.817463 115.489909 535.062244 119.026909 529.307024 122.563909 516.76608 132.813046 510.729065 144.672909 504.692051 156.532771 490.902758 190.656909 486.395887 192.425909 481.889017 194.194909 476.943841 186.873593 468.613991 180.929909"/>
          <ellipse cx="390.737" cy="120.5" fill="#08C4B2" rx="2.34" ry="2.5"/>
          <ellipse cx="390.737" cy="140.5" fill="#5E4EBA" rx="2.34" ry="2.5"/>
          <path stroke="#08C4B2" stroke-width="3" d="M340.396818,142.903909 C330.896889,154.856099 319.549517,180.929909 316.06364,181.813909 C312.577762,182.697909 298.646057,178.797421 291.730462,170.317909"/>
          <path stroke="#5E4EBA" stroke-width="3" d="M218.064103 161.2269C218.064103 161.2269 209.62667 149.5929 201.573446 147.6939 193.520222 145.7949 188.472142 147.6939 176.410457 148.2819 164.348773 148.8699 160.007025 152.33796 151.247469 155.9309 142.487913 159.52384 133.506893 174.201129 126.084481 175.9369 118.662068 177.672671 109.186368 171.1219 100.921492 167.6999 92.6566163 164.2779 82.6120844 164.232422 75.7585037 158.8729 68.904923 153.513378 57.7243749 131.448663 50.5955153 128.8649 43.4666557 126.281137 35.8527626 136.490561 25.4325269 140.6329 15.0122912 144.775239.269538462 148.8709.269538462 148.8709M729.998149 149.4589C729.998149 149.4589 709.554646 160.6389 705.664971 160.6389 701.775295 160.6389 686.717501 152.9349 681.331792 152.9349 675.946083 152.9349 661.676535 168.906738 656.998614 171.1219 652.320694 173.337062 636.754098 172.4069 632.665436 171.1219 628.576774 169.8369 614.592755 160.6389 608.332258 158.8189 602.071761 156.9989 590.608447 155.138672 583.999079 153.8449 577.389712 152.551128 567.045883 150.0469 559.665901 149.5929 552.28592 149.1389 543.406137 151.09082 535.331782 153.6449 527.257427 156.19898 517.875432 157.644531 510.998604 160.6719 504.121775 163.699269 492.479796 173.636719 486.665426 175.3649 480.851055 177.093081 475.883827 177.007813 468.88353 175.9459M340.666356 160.6389C333.17316 165.3459 323.012921 172.4069 316.333178 174.7609 309.653436 177.1149 292 172.4069 292 172.4069"/>
        </g>
        <g transform="translate(248 250)">
          <rect width="7.487" height="2" fill="#ED4C42"/>
          <rect width="7.487" height="2" x="13.103" fill="#ED4C42"/>
          <rect width="5.615" height="2" x="7.487" fill="#DEE1E1"/>
          <rect width="5.615" height="2" x="20.59" fill="#DEE1E1"/>
          <rect width="5.615" height="2" x="33.692" fill="#DEE1E1"/>
          <rect width="5.615" height="2" x="46.795" fill="#DEE1E1"/>
          <rect width="5.615" height="2" x="59.897" fill="#DEE1E1"/>
          <rect width="7.487" height="2" x="26.205" fill="#ED4C42"/>
          <rect width="7.487" height="2" x="39.308" fill="#ED4C42"/>
          <rect width="7.487" height="2" x="52.41" fill="#ED4C42"/>
          <rect width="7.487" height="2" x="65.513" fill="#ED4C42"/>
        </g>
        <g transform="translate(373 250)">
          <rect width="7.463" height="2" fill="#ED4C42"/>
          <rect width="7.463" height="2" x="13.06" fill="#ED4C42"/>
          <rect width="5.597" height="2" x="7.463" fill="#DEE1E1"/>
          <rect width="5.597" height="2" x="20.522" fill="#DEE1E1"/>
          <rect width="5.597" height="2" x="33.582" fill="#DEE1E1"/>
          <rect width="5.597" height="2" x="46.642" fill="#DEE1E1"/>
          <rect width="5.597" height="2" x="59.701" fill="#DEE1E1"/>
          <rect width="7.463" height="2" x="26.119" fill="#ED4C42"/>
          <rect width="7.463" height="2" x="39.179" fill="#ED4C42"/>
          <rect width="7.463" height="2" x="52.239" fill="#ED4C42"/>
          <rect width="7.463" height="2" x="65.299" fill="#ED4C42"/>
          <rect width="5.597" height="2" x="72.761" fill="#DEE1E1"/>
          <rect width="5.597" height="2" x="85.821" fill="#DEE1E1"/>
          <rect width="7.463" height="2" x="78.358" fill="#ED4C42"/>
          <rect width="7.463" height="2" x="91.418" fill="#ED4C42"/>
          <rect width="5.597" height="2" x="98.881" fill="#DEE1E1"/>
          <rect width="7.463" height="2" x="104.478" fill="#ED4C42"/>
          <rect width="5.597" height="2" x="111.94" fill="#DEE1E1"/>
          <rect width="7.463" height="2" x="117.537" fill="#ED4C42"/>
        </g>
        <g transform="translate(660)">
          <use fill="#FFF" xlink:href="#chart-partial-data-c"/>
          <rect width="99" height="29" x=".5" y=".5" stroke="#364141" rx="3"/>
          <text fill="#364141" font-family="ProximaNova-Semibold, Proxima Nova" font-size="13" font-weight="500">
            <tspan x="17.845" y="19">Contact Us</tspan>
          </text>
        </g>
        <text fill="#ED4C42" font-family="ProximaNova-Semibold, Proxima Nova" font-size="13" font-weight="500">
          <tspan x="404" y="19">[ Partial Data Error Messaging Goes Here ]</tspan>
        </text>
        <path fill="#ED4C42" fill-rule="nonzero" d="M387.981028,16.8081123 L385.976186,16.8081123 L385.976186,9.81903276 L387.981028,9.81903276 L387.981028,16.8081123 Z M387.981028,19.8034321 L385.976186,19.8034321 L385.976186,17.8065523 L387.981028,17.8065523 L387.981028,19.8034321 Z M395.900154,20.5023401 L387.880786,6.52418097 C387.479817,5.82527301 386.577639,5.82527301 386.17667,6.52418097 L378.157302,20.5023401 C377.756333,21.201248 378.157302,22 378.959239,22 L394.997975,22 C395.799912,22 396.20088,21.201248 395.900154,20.5023401 Z"/>
        <text fill="#929A9B" font-family="ProximaNova-Semibold, Proxima Nova" font-size="13" font-weight="500">
          <tspan x="0" y="19">Messages Per Day</tspan>
        </text>
      </g>
      <text fill="#364141" font-family="ProximaNova-Semibold, Proxima Nova" font-size="18" font-weight="500">
        <tspan x="1" y="18">Posts &amp; Conversations</tspan>
      </text>
    </g>
  </g>
</svg>
