<svg xmlns="http://www.w3.org/2000/svg" xmlns:xlink="http://www.w3.org/1999/xlink" width="900" height="1020" style="background:#f3f4f4" viewBox="0 0 900 1020">
  <defs>
    <rect id="chart-backfill-data-a" width="760" height="220" rx="3"/>
    <rect id="chart-backfill-data-b" width="760" height="220" rx="3"/>
  </defs>
  <g fill="none" fill-rule="evenodd" transform="translate(30 30)">
    <rect width="840" height="960" fill="#FFF"/>
    <g transform="translate(40 40)">
      <g transform="translate(0 660)">
        <use fill="#FFF" xlink:href="#chart-backfill-data-a"/>
        <rect width="759" height="219" x=".5" y=".5" stroke="#C8CCCC" rx="3"/>
        <g transform="translate(521 52)">
          <text fill="#08C4B2" font-family="ProximaNova-Regular, Proxima Nova" font-size="13">
            <tspan x="53.185" y="104">Since Last Month</tspan>
          </text>
          <text fill="#08C4B2" font-family="ProximaNova-Semibold, Proxima Nova" font-size="16" font-weight="500">
            <tspan x="58.812" y="72.5"> </tspan> <tspan x="81.516" y="67.356" font-size="28">1.2%</tspan>
          </text>
          <polygon fill="#00C5B2" points="73.385 60.58 69.513 65.515 72.37 65.515 72.37 69.71 71.288 69.71 69.257 69.71 69.257 71.741 69.257 75.935 71.288 75.935 71.288 71.741 72.37 71.741 74.4 71.741 74.4 69.71 74.4 65.515 77.257 65.515 73.386 60.58" transform="rotate(40 73.257 68.257)"/>
          <text fill="#515E5F" font-family="ProximaNova-Regular, Proxima Nova" font-size="13">
            <tspan x="29.707" y="12">The number of messages </tspan> <tspan x="39.477" y="33">you sent increased by</tspan>
          </text>
        </g>
        <g transform="translate(20 27)">
          <text fill="#364141" font-family="ProximaNova-Semibold, Proxima Nova" font-size="16" font-weight="500">
            <tspan x="423.016" y="163">1,234</tspan>
          </text>
          <text fill="#364141" font-family="ProximaNova-Semibold, Proxima Nova" font-size="16" font-weight="500">
            <tspan x="1" y="163">Total Received</tspan>
          </text>
          <rect width="460" height="2" y="133" fill="#B0B6B7"/>
          <text fill="#6E797A" font-family="ProximaNova-Semibold, Proxima Nova" font-size="16" font-weight="500">
            <tspan x="436.216" y="113">123</tspan>
          </text>
          <text fill="#515E5F" font-family="ProximaNova-Regular, Proxima Nova" font-size="16">
            <tspan x="1" y="113">Direct Messages Received</tspan>
          </text>
          <rect width="460" height="1" y="83" fill="#C8CCCC"/>
          <text fill="#6E797A" font-family="ProximaNova-Semibold, Proxima Nova" font-size="16" font-weight="500">
            <tspan x="423.016" y="63">1,234</tspan>
          </text>
          <text fill="#515E5F" font-family="ProximaNova-Regular, Proxima Nova" font-size="16">
            <tspan x="1" y="63">Mentions Received</tspan>
          </text>
          <rect width="460" height="1" y="33" fill="#C8CCCC"/>
          <text fill="#929A9B" font-family="ProximaNova-Semibold, Proxima Nova" font-size="13" font-weight="500">
            <tspan x="426.64" y="13">Totals</tspan>
          </text>
          <text fill="#929A9B" font-family="ProximaNova-Semibold, Proxima Nova" font-size="13" font-weight="500">
            <tspan x="0" y="13">Received Metrics</tspan>
          </text>
        </g>
      </g>
      <g transform="translate(0 420)">
        <use fill="#FFF" xlink:href="#chart-backfill-data-b"/>
        <rect width="759" height="219" x=".5" y=".5" stroke="#C8CCCC" rx="3"/>
        <g transform="translate(521 50)">
          <text fill="#08C4B2" font-family="ProximaNova-Regular, Proxima Nova" font-size="13">
            <tspan x="53.185" y="104">Since Last Month</tspan>
          </text>
          <text fill="#08C4B2" font-family="ProximaNova-Semibold, Proxima Nova" font-size="16" font-weight="500">
            <tspan x="58.812" y="72.5"> </tspan> <tspan x="81.516" y="67.356" font-size="28">1.2%</tspan>
          </text>
          <polygon fill="#00C5B2" points="73.385 60.58 69.513 65.515 72.37 65.515 72.37 69.71 71.288 69.71 69.257 69.71 69.257 71.741 69.257 75.935 71.288 75.935 71.288 71.741 72.37 71.741 74.4 71.741 74.4 69.71 74.4 65.515 77.257 65.515 73.386 60.58" transform="rotate(40 73.257 68.257)"/>
          <text fill="#515E5F" font-family="ProximaNova-Regular, Proxima Nova" font-size="13">
            <tspan x="29.707" y="12">The number of messages </tspan> <tspan x="39.477" y="33">you sent increased by</tspan>
          </text>
        </g>
        <g transform="translate(20 27)">
          <text fill="#364141" font-family="ProximaNova-Semibold, Proxima Nova" font-size="16" font-weight="500">
            <tspan x="423.016" y="163">1,234</tspan>
          </text>
          <text fill="#364141" font-family="ProximaNova-Semibold, Proxima Nova" font-size="16" font-weight="500">
            <tspan x="1" y="163">Total Sent</tspan>
          </text>
          <rect width="460" height="2" y="133" fill="#B0B6B7"/>
          <text fill="#6E797A" font-family="ProximaNova-Semibold, Proxima Nova" font-size="16" font-weight="500">
            <tspan x="436.216" y="113">123</tspan>
          </text>
          <text fill="#515E5F" font-family="ProximaNova-Regular, Proxima Nova" font-size="16">
            <tspan x="1" y="113">Direct Messages Sent</tspan>
          </text>
          <rect width="460" height="1" y="83" fill="#C8CCCC"/>
          <text fill="#6E797A" font-family="ProximaNova-Semibold, Proxima Nova" font-size="16" font-weight="500">
            <tspan x="423.016" y="63">1,234</tspan>
          </text>
          <text fill="#515E5F" font-family="ProximaNova-Regular, Proxima Nova" font-size="16">
            <tspan x="1" y="63">Tweets Sent</tspan>
          </text>
          <rect width="460" height="1" y="33" fill="#C8CCCC"/>
          <text fill="#929A9B" font-family="ProximaNova-Semibold, Proxima Nova" font-size="13" font-weight="500">
            <tspan x="426.64" y="13">Totals</tspan>
          </text>
          <text fill="#929A9B" font-family="ProximaNova-Semibold, Proxima Nova" font-size="13" font-weight="500">
            <tspan x="0" y="13">Sent Metrics</tspan>
          </text>
        </g>
      </g>
      <g transform="translate(0 55)">
        <g transform="translate(302 312)">
          <text fill="#929A9B" font-family="ProximaNova-Semibold, Proxima Nova" font-size="13" font-weight="500">
            <tspan x="130" y="13">Sent</tspan>
          </text>
          <rect width="12" height="12" x="110" y="3" fill="#5E4EBA" rx="3"/>
          <text fill="#929A9B" font-family="ProximaNova-Semibold, Proxima Nova" font-size="13" font-weight="500">
            <tspan x="20" y="13">Received</tspan>
          </text>
          <rect width="12" height="12" y="3" fill="#08C4B2" rx="3"/>
        </g>
        <g fill="#929A9B" font-family="ProximaNova-Semibold, Proxima Nova" font-size="11" font-weight="500" letter-spacing=".926" transform="translate(18 258)">
          <text>
            <tspan x=".601" y="32">APR</tspan>
          </text>
          <text opacity=".4">
            <tspan x="10" y="11">1</tspan>
          </text>
          <text opacity=".4">
            <tspan x="29" y="11">2</tspan>
          </text>
          <text opacity=".4">
            <tspan x="50" y="11">3</tspan>
          </text>
          <text opacity=".4">
            <tspan x="72" y="11">4</tspan>
          </text>
          <text opacity=".4">
            <tspan x="93" y="11">5</tspan>
          </text>
          <text opacity=".4">
            <tspan x="114" y="11">6</tspan>
          </text>
          <text opacity=".4">
            <tspan x="136" y="11">7</tspan>
          </text>
          <text opacity=".4">
            <tspan x="156" y="11">8</tspan>
          </text>
          <text opacity=".4">
            <tspan x="177" y="11">9</tspan>
          </text>
          <text>
            <tspan x="199" y="11">10</tspan>
          </text>
          <text>
            <tspan x="224" y="11">11</tspan>
          </text>
          <text>
            <tspan x="247" y="11">12</tspan>
          </text>
          <text>
            <tspan x="272" y="11">13</tspan>
          </text>
          <text>
            <tspan x="297" y="11">14</tspan>
          </text>
          <text>
            <tspan x="323" y="11">15</tspan>
          </text>
          <text>
            <tspan x="348" y="11">16</tspan>
          </text>
          <text>
            <tspan x="373" y="11">17</tspan>
          </text>
          <text>
            <tspan x="397" y="11">18</tspan>
          </text>
          <text>
            <tspan x="422" y="11">19</tspan>
          </text>
          <text>
            <tspan x="449" y="11">20</tspan>
          </text>
          <text>
            <tspan x="477" y="11">21</tspan>
          </text>
          <text>
            <tspan x="502" y="11">22</tspan>
          </text>
          <text>
            <tspan x="530" y="11">23</tspan>
          </text>
          <text>
            <tspan x="558" y="11">24</tspan>
          </text>
          <text>
            <tspan x="586" y="11">25</tspan>
          </text>
          <text>
            <tspan x="614" y="11">26</tspan>
          </text>
          <text>
            <tspan x="643" y="11">27</tspan>
          </text>
          <text>
            <tspan x="670" y="11">28</tspan>
          </text>
          <text>
            <tspan x="698" y="11">29</tspan>
          </text>
          <text>
            <tspan x="727" y="11">30</tspan>
          </text>
        </g>
        <rect width="730" height="2" x="30" y="244" fill="#B0B6B7"/>
        <rect width="730" height="1" x="30" y="194" fill="#C8CCCC"/>
        <rect width="730" height="1" x="30" y="144" fill="#C8CCCC"/>
        <rect width="730" height="1" x="30" y="94" fill="#C8CCCC"/>
        <rect width="730" height="1" x="30" y="44" fill="#C8CCCC"/>
        <g fill="#929A9B" font-family="ProximaNova-Semibold, Proxima Nova" font-size="11" font-weight="500" letter-spacing=".926" transform="translate(0 38)">
          <text>
            <tspan x="0" y="211">0</tspan>
          </text>
          <text>
            <tspan x="0" y="161">50</tspan>
          </text>
          <text>
            <tspan x="0" y="111">100</tspan>
          </text>
          <text>
            <tspan x="0" y="61">150</tspan>
          </text>
          <text>
            <tspan x="0" y="11">200</tspan>
          </text>
        </g>
        <text fill="#929A9B" font-family="ProximaNova-Semibold, Proxima Nova" font-size="13" font-weight="500">
          <tspan x="0" y="13">Messages Per Day</tspan>
        </text>
        <g stroke-width="3" transform="translate(222 122)">
          <path stroke="#08C4B2" d="M537,0 C537,0 516.746901,60.0135828 511.428666,60.0135828 C506.11043,60.0135828 490.672195,20.2982715 485.857331,21.1814994 C481.042467,22.0647272 465.796748,95.3157491 460.285997,98.8456663 C454.775246,102.375584 441.048757,98.8456663 434.714662,95.3157491 C428.380567,91.7858319 417.110302,54.931406 409.143328,43.2452285 C401.176354,31.559051 390.452008,21.1814994 383.571994,20.2982715 C376.691979,19.4150437 364.959588,35.0677651 358.000659,37.9498537 C351.04173,40.8319422 338.476401,37.9498537 332.428336,41.4797709 C326.380271,45.0096881 313.201201,55.2383019 306.857002,67.0744153 C300.512803,78.9105286 286.021863,112.966333 281.285667,114.731791 C276.549472,116.497248 264.468034,109.190594 255.714333,103.258811 C246.960632,97.3270291 244.13923,95.6777057 230.142998,83.8427696 C216.146767,72.0078335 215.602878,68.9605589 204.571664,60.0135828 C193.54045,51.0666068 185.278922,44.638325 179.00033,42.3629987 C172.721737,40.0876724 158.747865,37.9498537 153.428995,41.4797709 C148.110126,45.0096881 137.840979,53.3807011 127.857661,65.3089577 C117.874343,77.2372143 105.949577,103.258811 102.286326,104.141041 C98.6230754,105.023271 83.9824773,101.130594 76.714992,92.6680617 C69.4475067,84.2055292 55.484148,45.8929159 51.1436576,42.3629987 C46.8031672,38.8330815 30.3093685,48.3653737 25.5723232,45.8929159 C20.8352778,43.4204582 5.86071029,12.9072236 0,11.4729795"/>
          <path stroke="#5E4EBA" d="M537,72.7640196 C537,72.7640196 515.516261,83.9378095 511.428666,83.9378095 C507.34107,83.9378095 491.517084,76.2380888 485.857331,76.2380888 C480.197579,76.2380888 465.201946,92.2010553 460.285997,94.4149866 C455.370048,96.6289178 439.011369,95.6992728 434.714662,94.4149866 C430.417956,93.1307003 415.722381,83.9378095 409.143328,82.1188205 C402.564275,80.2998314 390.517668,78.4406366 383.571994,77.1475833 C376.626319,75.8545301 365.75616,73.351693 358.000659,72.8979452 C350.245159,72.4441974 340.913542,74.3950334 332.428336,76.9476944 C323.94313,79.5003554 314.083747,80.945104 306.857002,83.9707912 C299.630256,86.9964783 287.395893,96.9284084 281.285667,98.6556297 C275.175442,100.382851 263.07083,100.29763 255.714333,99.236307 C248.357836,98.1749844 241.652448,93.6619392 230.142998,89.8225389 C218.633549,85.9831387 212.274082,83.7705783 204.571664,82.1757888 C196.869246,80.5809993 189.667009,80.2150212 179.00033,79.2334241 C168.33365,78.251827 162.937546,76.9476944 153.428995,77.4694045 C143.920445,77.9911145 135.732137,79.2334241 127.857661,83.9378095 C119.983184,88.6421949 109.305957,95.6992728 102.286326,98.0519652 C95.2666956,100.404658 82.8604654,99.236307 76.714992,95.6992728 C70.5695185,92.1622386 57.2627589,75.6414807 51.1436576,73.351693 C45.0245562,71.0619053 31.8658944,84.5254829 25.5723232,84.5254829 C19.2787519,84.5254829 8.18391217,72.8979452 0,71"/>
        </g>
        <rect width="192" height="202" x="30" y="44" fill="#C8CCCC" opacity=".4"/>
        <text font-family="ProximaNova-Bold, Proxima Nova" font-size="16" font-weight="bold">
          <tspan x="53" y="103" fill="#364141">Backfill Unavailable</tspan>  <tspan x="55.752" y="125" fill="#515E5F" font-family="ProximaNova-Regular, Proxima Nova" font-size="13" font-weight="normal">Twitter allows up to two </tspan> <tspan x="55.752" y="143" fill="#515E5F" font-family="ProximaNova-Regular, Proxima Nova" font-size="13" font-weight="normal">years of data to be </tspan> <tspan x="55.752" y="161" fill="#515E5F" font-family="ProximaNova-Regular, Proxima Nova" font-size="13" font-weight="normal">backfilled. Please select </tspan> <tspan x="55.752" y="179" fill="#515E5F" font-family="ProximaNova-Regular, Proxima Nova" font-size="13" font-weight="normal">a more recent date </tspan> <tspan x="55.752" y="197" fill="#515E5F" font-family="ProximaNova-Regular, Proxima Nova" font-size="13" font-weight="normal">range.</tspan>
        </text>
      </g>
      <text fill="#364141" font-family="ProximaNova-Semibold, Proxima Nova" font-size="18" font-weight="500">
        <tspan x="1" y="18">Posts &amp; Conversations</tspan>
      </text>
    </g>
  </g>
</svg>
