<svg id="Layer_1" data-name="Layer 1" xmlns="http://www.w3.org/2000/svg" viewBox="0 0 317 65"><defs><style>.cls-1{fill:#1da1f2;}.cls-2{fill:#fff;fill-rule:evenodd;}.cls-3{fill:none;stroke:#fff;stroke-linecap:round;stroke-linejoin:round;stroke-width:2px;}</style></defs><title>Artboard 1 copy 4</title><rect class="cls-1" x="8.96" y="9" width="298.08" height="46" rx="4" ry="4"/><path class="cls-2" d="M67.28,24.66a10.39,10.39,0,0,1-3,.82,5.21,5.21,0,0,0,2.28-2.87,10.39,10.39,0,0,1-3.3,1.26,5.2,5.2,0,0,0-8.84,4.73,14.73,14.73,0,0,1-10.7-5.42,5.19,5.19,0,0,0,1.61,6.93A5.18,5.18,0,0,1,43,29.45s0,0,0,.07a5.19,5.19,0,0,0,4.16,5.09,5.22,5.22,0,0,1-1.37.18,5.16,5.16,0,0,1-1-.09,5.19,5.19,0,0,0,4.85,3.6A10.47,10.47,0,0,1,42,40.45,14.76,14.76,0,0,0,64.71,28c0-.22,0-.45,0-.67A10.56,10.56,0,0,0,67.28,24.66Z"/><line class="cls-3" x1="83" y1="34" x2="274" y2="34"/></svg>