<svg id="Layer_1" data-name="Layer 1" xmlns="http://www.w3.org/2000/svg" viewBox="0 0 490 154"><defs><style>.cls-1{fill:#dee1e1;}.cls-2{fill:#fff;}.cls-3{fill:#1a1a1a;opacity:0.75;}.cls-4{fill:#0898af;}</style></defs><title>Artboard 1 copy 2</title><path class="cls-1" d="M31.5,68.77V24.87c0-2.45,2-4.87,4.13-4.87H458.1c2.12,0,3.9,2.42,3.9,4.87V130.3c0,2.44-1.78,4.7-3.9,4.7H35.63c-2.12,0-4.13-2.27-4.13-4.7V68.4"/><rect class="cls-2" x="50.47" y="37.9" width="390.53" height="9.7"/><rect class="cls-2" x="50.47" y="60.9" width="390.53" height="9.7"/><rect class="cls-2" x="50.47" y="83.9" width="390.53" height="9.7"/><rect class="cls-2" x="50.47" y="106.2" width="298.06" height="9.7"/><path class="cls-3" d="M444.84,29.52H310.12A8.16,8.16,0,0,0,302,37.68V79.31a8.16,8.16,0,0,0,8.16,8.16h58L377,96.3l8.82-8.82h59A8.16,8.16,0,0,0,453,79.31V37.68A8.16,8.16,0,0,0,444.84,29.52Z"/><circle class="cls-4" cx="378" cy="111" r="6"/></svg>