<svg id="Layer_1" data-name="Layer 1" xmlns="http://www.w3.org/2000/svg" viewBox="0 0 490 200"><defs><style>.cls-1{fill:#fff;}.cls-2,.cls-8{font-size:11px;font-family:ProximaNova-Regular, Proxima Nova;}.cls-2{fill:#b0b6b7;}.cls-3{letter-spacing:0.87em;}.cls-4{letter-spacing:0.87em;}.cls-5{fill:none;stroke:#dee1e1;stroke-miterlimit:10;stroke-width:0.98px;}.cls-6{fill:#00a99c;}.cls-7{fill:#24e0c5;}.cls-8{fill:#929a9b;}</style></defs><title>Artboard 1</title><rect class="cls-1" width="490" height="200" rx="7.5" ry="7.5"/><text class="cls-2" transform="translate(32 37.34)">15</text><text class="cls-2" transform="translate(32 68.34)">10</text><text class="cls-2" transform="translate(32 99.34)">5</text><text class="cls-2" transform="translate(32 130.34)">0</text><text class="cls-2" transform="translate(55 147.33)">1<tspan class="cls-3" x="3.73" y="0"> </tspan><tspan x="16.08" y="0">2</tspan><tspan class="cls-3" x="22.55" y="0"> </tspan><tspan x="34.91" y="0">3</tspan><tspan class="cls-3" x="41.03" y="0"> </tspan><tspan x="53.39" y="0">4</tspan><tspan class="cls-3" x="59.53" y="0"> </tspan><tspan x="71.88" y="0">5</tspan><tspan class="cls-3" x="78.37" y="0"> </tspan><tspan x="90.73" y="0">6</tspan><tspan class="cls-3" x="97.23" y="0"> </tspan><tspan x="109.58" y="0">7</tspan><tspan class="cls-4" x="115.25" y="0"> </tspan><tspan x="127.61" y="0">8</tspan><tspan class="cls-3" x="134" y="0"> </tspan><tspan x="146.35" y="0">9</tspan><tspan class="cls-3" x="152.85" y="0"> </tspan><tspan x="165.21" y="0">10</tspan><tspan class="cls-3" x="175.67" y="0"> </tspan><tspan x="188.03" y="0">11</tspan><tspan class="cls-3" x="195.48" y="0"> </tspan><tspan x="207.84" y="0">12</tspan><tspan class="cls-3" x="218.03" y="0"> </tspan><tspan x="230.39" y="0">13</tspan><tspan class="cls-3" x="240.25" y="0"> </tspan><tspan x="252.6" y="0">14</tspan><tspan class="cls-3" x="262.47" y="0"> </tspan><tspan x="274.82" y="0">15</tspan><tspan class="cls-3" x="285.04" y="0"> </tspan><tspan x="297.4" y="0">16</tspan><tspan class="cls-3" x="307.63" y="0"> </tspan><tspan x="319.98" y="0">17</tspan><tspan class="cls-3" x="329.38" y="0"> </tspan><tspan x="341.73" y="0">18</tspan><tspan class="cls-3" x="351.85" y="0"> </tspan><tspan x="364.21" y="0">19</tspan><tspan class="cls-4" x="374.43" y="0"> </tspan><tspan x="386.79" y="0">20</tspan></text><line class="cls-5" x1="55" y1="35" x2="455" y2="35"/><line class="cls-5" x1="55" y1="66.17" x2="455" y2="66.17"/><line class="cls-5" x1="55" y1="97.33" x2="455" y2="97.33"/><line class="cls-5" x1="55" y1="128.5" x2="455" y2="128.5"/><polygon class="cls-6" points="454.77 38 433.72 51.95 412.67 50.71 391.61 74.9 370.56 84.71 349.51 109.54 328.45 111.61 307.4 90.92 286.35 80.99 265.3 76.96 244.24 82.64 223.19 82.64 202.14 90.92 181.09 107.47 160.03 72.66 138.98 82.89 117.93 72.66 96.88 76.36 75.82 47.26 54.77 99.2 54.77 128.5 454.77 128.5 454.77 38"/><polygon class="cls-7" points="454.77 108.67 433.72 112.9 412.67 102.31 391.61 121.38 370.56 112.9 349.51 119.26 328.45 125.62 307.4 121.38 286.35 123.5 265.3 112.9 244.24 106.55 223.19 110.78 202.14 117.14 181.09 121.38 160.03 106.55 138.98 110.78 117.93 104.43 96.88 108.67 75.82 104.43 54.77 125.62 54.77 128.5 454.77 128.5 454.77 108.67"/><text class="cls-8" transform="translate(140 174.84)">New Follower Alerts</text><rect class="cls-6" x="124" y="166.5" width="10" height="10"/><text class="cls-8" transform="translate(276 175.34)">Actual Followers</text><rect class="cls-7" x="260" y="167" width="10" height="10"/></svg>