<svg id="Layer_1" data-name="Layer 1" xmlns="http://www.w3.org/2000/svg" viewBox="0 0 490 200"><defs><style>.cls-1{fill:#fff;}.cls-2,.cls-9{font-size:11px;font-family:ProximaNova-Regular, Proxima Nova;}.cls-2{fill:#929a9b;}.cls-3{letter-spacing:-0.06em;}.cls-4{fill:#08c4b2;}.cls-5{letter-spacing:-0.03em;}.cls-6{fill:#5e4eba;}.cls-7{letter-spacing:0em;}.cls-8{fill:#dd9902;}.cls-9{fill:#b0b6b7;}.cls-10{letter-spacing:0.87em;}.cls-11{letter-spacing:0.87em;}.cls-12,.cls-13,.cls-14,.cls-15{fill:none;stroke-miterlimit:10;}.cls-12{stroke:#dee1e1;stroke-width:0.98px;}.cls-13{stroke:#5e4eba;}.cls-13,.cls-14,.cls-15{stroke-width:3px;}.cls-14{stroke:#08c4b2;}.cls-15{stroke:#dd9902;}</style></defs><title>Artboard 1 copy</title><rect class="cls-1" width="490" height="200" rx="7.5" ry="7.5"/><text class="cls-2" transform="translate(152.5 179.84)"><tspan class="cls-3">T</tspan><tspan x="5.65" y="0">weets</tspan></text><rect class="cls-4" x="136.5" y="171.5" width="10" height="10"/><text class="cls-2" transform="translate(235.5 180.34)"><tspan class="cls-5">R</tspan><tspan x="6.36" y="0">etweets</tspan></text><rect class="cls-6" x="219.5" y="172" width="10" height="10"/><text class="cls-2" transform="translate(326.5 180.34)">Li<tspan class="cls-7" x="8.08" y="0">k</tspan><tspan x="13.71" y="0">es</tspan></text><rect class="cls-8" x="310.5" y="172" width="10" height="10"/><text class="cls-9" transform="translate(32 37.34)">15</text><text class="cls-9" transform="translate(32 68.34)">10</text><text class="cls-9" transform="translate(32 99.34)">5</text><text class="cls-9" transform="translate(32 130.34)">0</text><text class="cls-9" transform="translate(55 147.33)">1<tspan class="cls-10" x="3.73" y="0"> </tspan><tspan x="16.08" y="0">2</tspan><tspan class="cls-10" x="22.55" y="0"> </tspan><tspan x="34.91" y="0">3</tspan><tspan class="cls-10" x="41.03" y="0"> </tspan><tspan x="53.39" y="0">4</tspan><tspan class="cls-10" x="59.53" y="0"> </tspan><tspan x="71.88" y="0">5</tspan><tspan class="cls-10" x="78.37" y="0"> </tspan><tspan x="90.73" y="0">6</tspan><tspan class="cls-10" x="97.23" y="0"> </tspan><tspan x="109.58" y="0">7</tspan><tspan class="cls-11" x="115.25" y="0"> </tspan><tspan x="127.61" y="0">8</tspan><tspan class="cls-10" x="134" y="0"> </tspan><tspan x="146.35" y="0">9</tspan><tspan class="cls-10" x="152.85" y="0"> </tspan><tspan x="165.21" y="0">10</tspan><tspan class="cls-10" x="175.67" y="0"> </tspan><tspan x="188.03" y="0">11</tspan><tspan class="cls-10" x="195.48" y="0"> </tspan><tspan x="207.84" y="0">12</tspan><tspan class="cls-10" x="218.03" y="0"> </tspan><tspan x="230.39" y="0">13</tspan><tspan class="cls-10" x="240.25" y="0"> </tspan><tspan x="252.6" y="0">14</tspan><tspan class="cls-10" x="262.47" y="0"> </tspan><tspan x="274.82" y="0">15</tspan><tspan class="cls-10" x="285.04" y="0"> </tspan><tspan x="297.4" y="0">16</tspan><tspan class="cls-10" x="307.63" y="0"> </tspan><tspan x="319.98" y="0">17</tspan><tspan class="cls-10" x="329.38" y="0"> </tspan><tspan x="341.73" y="0">18</tspan><tspan class="cls-10" x="351.85" y="0"> </tspan><tspan x="364.21" y="0">19</tspan><tspan class="cls-11" x="374.43" y="0"> </tspan><tspan x="386.79" y="0">20</tspan></text><line class="cls-12" x1="55" y1="35" x2="455" y2="35"/><line class="cls-12" x1="55" y1="66.17" x2="455" y2="66.17"/><line class="cls-12" x1="55" y1="97.33" x2="455" y2="97.33"/><line class="cls-12" x1="55" y1="128.5" x2="455" y2="128.5"/><polyline class="cls-13" points="54.77 99.2 75.82 47.26 96.88 76.36 117.93 72.66 138.98 82.89 160.03 72.66 181.09 107.47 202.14 90.92 223.19 82.64 244.24 82.64 265.3 76.96 286.35 80.99 307.4 90.92 328.45 111.61 349.51 109.54 370.56 84.71 391.61 74.9 412.67 50.71 433.72 51.95 454.77 38"/><polyline class="cls-14" points="54.77 125.62 75.82 104.43 96.88 108.67 117.93 104.43 138.98 110.78 160.03 106.55 181.09 121.38 202.14 117.14 223.19 110.78 244.24 106.55 265.3 112.9 286.35 123.5 307.4 121.38 328.45 125.62 349.51 119.26 370.56 112.9 391.61 121.38 412.67 102.31 433.72 112.9 454.77 108.67"/><polyline class="cls-15" points="54.77 88 75.82 69.31 96.88 79.79 117.93 78.45 138.98 82.14 160.03 78.45 181.09 90.98 202.14 85.03 223.19 72.05 244.24 62.05 265.3 50 286.35 61.45 307.4 85.03 328.45 92.47 349.51 91.73 370.56 82.79 391.61 79.26 412.67 70.55 433.72 71 454.77 65.97"/></svg>