<?xml version="1.0" encoding="UTF-8"?>
<svg width="490px" height="300px" viewBox="0 0 490 300" version="1.1" xmlns="http://www.w3.org/2000/svg" xmlns:xlink="http://www.w3.org/1999/xlink" style="background: #FFFFFF;">
    <!-- Generator: Sketch 47.1 (45422) - http://www.bohemiancoding.com/sketch -->
    <title>Large &amp; Default Icon Grids</title>
    <desc>Created with Sketch.</desc>
    <defs></defs>
    <g id="Icon-Grid" stroke="none" stroke-width="1" fill="none" fill-rule="evenodd">
        <g id="Large-&amp;-Default-Icon-Grids">
            <g id="Large-Icon-Grid-Layout-@16x" transform="translate(36.000000, 54.000000)">
                <g id="Group">
                    <rect id="Rectangle" stroke="#B0B6B7" x="24.5" y="24.5" width="143" height="143"></rect>
                    <path d="M24,0 L24.5,0 L24.5,12 L24,12 L24,0 Z M167.5,0 L168,0 L168,12 L167.5,12 L167.5,0 Z M24,180 L24.5,180 L24.5,192 L24,192 L24,180 Z M167.5,180 L168,180 L168,192 L167.5,192 L167.5,180 Z M192,24 L192,24.5 L180,24.5 L180,24 L192,24 Z M192,167.5 L192,168 L180,168 L180,167.5 L192,167.5 Z M12,24 L12,24.5 L-2.48689958e-14,24.5 L-2.48689958e-14,24 L12,24 Z M12,167.5 L12,168 L-5.68434189e-14,168 L-5.68434189e-14,167.5 L12,167.5 Z" id="Combined-Shape" fill="#C8CCCC"></path>
                    <path d="M24,24 L168,24 L168,168 L24,168 L24,24 Z M37,37 L37,155 L155,155 L155,37 L37,37 Z" id="Combined-Shape" fill="#F3F4F4"></path>
                    <rect id="square" fill="#98E58E" style="mix-blend-mode: multiply;" x="43.5" y="43.5" width="105" height="105" rx="8"></rect>
                    <circle id="oval" fill="#98E58E" style="mix-blend-mode: multiply;" cx="96" cy="96" r="59"></circle>
                    <rect id="horizontal-rectangle" fill="#98E58E" style="mix-blend-mode: multiply;" transform="translate(96.000000, 96.000000) rotate(-270.000000) translate(-96.000000, -96.000000) " x="50.5" y="37" width="91" height="118" rx="8"></rect>
                    <rect id="vertical-rectangle" fill="#98E58E" style="mix-blend-mode: multiply;" x="50.5" y="37" width="91" height="118" rx="8"></rect>
                </g>
            </g>
            <g id="Default-Icon-Grid-Layout-@16x" transform="translate(262.000000, 54.000000)">
                <g id="Group">
                    <path d="M24,0 L24.5,0 L24.5,12 L24,12 L24,0 Z M167.5,0 L168,0 L168,12 L167.5,12 L167.5,0 Z M24,180 L24.5,180 L24.5,192 L24,192 L24,180 Z M167.5,180 L168,180 L168,192 L167.5,192 L167.5,180 Z M192,24 L192,24.5 L180,24.5 L180,24 L192,24 Z M192,167.5 L192,168 L180,168 L180,167.5 L192,167.5 Z M12,24 L12,24.5 L-2.48689958e-14,24.5 L-2.48689958e-14,24 L12,24 Z M12,167.5 L12,168 L-5.68434189e-14,168 L-5.68434189e-14,167.5 L12,167.5 Z" id="Combined-Shape" fill="#C8CCCC"></path>
                    <path d="M24,24 L168,24 L168,168 L24,168 L24,24 Z M50,50 L50,142 L142,142 L142,50 L50,50 Z" id="Combined-Shape" stroke="#F3F4F4" fill="#F3F4F4"></path>
                    <rect id="square" fill="#98E58E" style="mix-blend-mode: multiply;" x="57" y="57" width="78" height="78" rx="8"></rect>
                    <circle id="oval" fill="#98E58E" style="mix-blend-mode: multiply;" cx="96" cy="96" r="46"></circle>
                    <rect id="vertical-rectangle" fill="#98E58E" style="mix-blend-mode: multiply;" x="63.5" y="50" width="65" height="92" rx="8"></rect>
                    <rect id="horizontal-rectangle" fill="#98E58E" style="mix-blend-mode: multiply;" transform="translate(96.000000, 96.000000) rotate(-270.000000) translate(-96.000000, -96.000000) " x="63.5" y="50" width="65" height="92" rx="8"></rect>
                </g>
            </g>
        </g>
    </g>
</svg>