<svg xmlns="http://www.w3.org/2000/svg" width="700" height="380" viewBox="0 0 700 380">
  <g fill="none" fill-rule="evenodd">
    <rect width="700" height="380" fill="#FFF"/>
    <g transform="translate(230 336)">
      <text fill="#B0B6B7" font-family="ProximaNova-Semibold, Proxima Nova" font-size="13" font-weight="500">
        <tspan x="170.5" y="14">Impressions</tspan>
      </text>
      <rect width="18" height="18" x="145" fill="#5E4EBA" rx="3"/>
      <text fill="#B0B6B7" font-family="ProximaNova-Semibold, Proxima Nova" font-size="13" font-weight="500">
        <tspan x="25.5" y="14">Engagements</tspan>
      </text>
      <rect width="18" height="18" fill="#08C4B2" rx="3"/>
    </g>
    <g fill="#B0B6B7" font-family="ProximaNova-Semibold, Proxima Nova" font-size="13" font-weight="500" transform="translate(81 300)">
      <text>
        <tspan x="539.028" y="13">Dec</tspan>
      </text>
      <text>
        <tspan x="489.32" y="13">Nov</tspan>
      </text>
      <text>
        <tspan x="441.217" y="13">Oct</tspan>
      </text>
      <text>
        <tspan x="388.182" y="13">Sept</tspan>
      </text>
      <text>
        <tspan x="337.163" y="13">Aug</tspan>
      </text>
      <text>
        <tspan x="294.115" y="13">Jul</tspan>
      </text>
      <text>
        <tspan x="245.489" y="13">Jun</tspan>
      </text>
      <text>
        <tspan x="194.313" y="13">May</tspan>
      </text>
      <text>
        <tspan x="146.107" y="13">Apr</tspan>
      </text>
      <text>
        <tspan x="97.326" y="13">Mar</tspan>
      </text>
      <text>
        <tspan x="47.444" y="13">Feb</tspan>
      </text>
      <text>
        <tspan x=".184" y="13">Jan</tspan>
      </text>
    </g>
    <rect width="590" height="2" x="70" y="288" fill="#C8CCCC"/>
    <rect width="590" height="1" x="70" y="229" fill="#C8CCCC"/>
    <rect width="590" height="1" x="70" y="169" fill="#C8CCCC"/>
    <rect width="590" height="1" x="70" y="109" fill="#C8CCCC"/>
    <rect width="590" height="1" x="70" y="49" fill="#C8CCCC"/>
    <path stroke="#5E4EBA" stroke-width="5" d="M87.7011719,172.277344 C89.8515625,165.634766 135.037109,96.6210937 140.941406,96.6210937 C146.845703,96.6210937 187.382812,143.773438 190.591797,147.246094 C193.800781,150.71875 238.931641,136.617188 243.892578,133.048828 C248.853516,129.480469 275.939453,111.216797 282.208984,111.216797 C288.478516,111.216797 330.800781,189.427734 335.804688,188.308594 C340.808594,187.189453 382.134766,57.1191406 387.519531,56.9863281 C392.904297,56.8535156 426.755859,184.636719 430.388672,189.427734 C434.021484,194.21875 478.71875,203.048828 485.011719,203.048828 C491.304687,203.048828 530.964844,163.353516 536.154297,159.402344 C541.34375,155.451172 576.722656,150.9375 581.583984,147.308594 C586.445312,143.679688 642.376953,62.6347656 644.923828,57.1191406"/>
    <path stroke="#08C4B2" stroke-width="5" d="M87.7011719,152.277344 C92.9863281,147.466797 133.353516,106.621094 140.941406,106.621094 C148.529297,106.621094 187.416016,193.5625 190.591797,197.246094 C193.767578,200.929687 240.574219,205.65625 243.892578,203.048828 C247.210937,200.441406 275.933594,161.216797 282.208984,161.216797 C288.484375,161.216797 329.748047,178.308594 335.804688,178.308594 C341.861328,178.308594 381.261719,116.986328 387.519531,116.986328 C393.777344,116.986328 425.646484,226.248047 430.388672,229.427734 C435.130859,232.607422 481.191406,206.949219 485.011719,203.048828 C488.832031,199.148437 530.271484,138.402344 536.154297,138.402344 C542.037109,138.402344 576.568359,178.308594 581.583984,178.308594 C586.599609,178.308594 640.857422,102.871094 644.923828,97.1191406"/>
    <g fill="#B0B6B7" font-family="ProximaNova-Semibold, Proxima Nova" font-size="13" font-weight="500" transform="translate(35 40)">
      <text>
        <tspan x="0" y="253">0</tspan>
      </text>
      <text>
        <tspan x="0" y="193">5k</tspan>
      </text>
      <text>
        <tspan x="0" y="133">10k</tspan>
      </text>
      <text>
        <tspan x="0" y="73">15k</tspan>
      </text>
      <text>
        <tspan x="0" y="13">20k</tspan>
      </text>
    </g>
  </g>
</svg>
