<svg xmlns="http://www.w3.org/2000/svg" width="900" height="430" style="background:#f3f4f4" viewBox="0 0 900 430">
  <g fill="none" fill-rule="evenodd" transform="translate(30 30)">
    <rect width="840" height="370" fill="#FFF"/>
    <g transform="translate(40 30)">
      <g opacity=".2" transform="translate(0 60)">
        <g transform="translate(512.424)">
          <g transform="translate(171 170)">
            <rect width="75.915" height="75.915" fill="#C8CCCC" transform="matrix(-1 0 0 1 75.915 0)"/>
            <path fill="#B0B6B7" d="M58,55.5 L58,57.1666667 C58,57.6296296 57.6296296,58 57.1666667,58 L18.8333333,58 C18.3703704,58 18,57.6296296 18,57.1666667 L18,55.5 C18,47.1666667 33,48.8333333 33,42.1666667 C33,42.1666667 28,37.1666667 28,28 C28,22.4907407 32.4907407,18 38,18 C43.5092593,18 48,22.4907407 48,28 C48,37.1666667 43,42.1666667 43,42.1666667 C43,48.8333333 58,47.1666667 58,55.5 Z"/>
          </g>
          <g transform="translate(86 170)">
            <rect width="75.915" height="75.915" fill="#C8CCCC" transform="matrix(-1 0 0 1 75.915 0)"/>
            <path fill="#B0B6B7" d="M58,55.5 L58,57.1666667 C58,57.6296296 57.6296296,58 57.1666667,58 L18.8333333,58 C18.3703704,58 18,57.6296296 18,57.1666667 L18,55.5 C18,47.1666667 33,48.8333333 33,42.1666667 C33,42.1666667 28,37.1666667 28,28 C28,22.4907407 32.4907407,18 38,18 C43.5092593,18 48,22.4907407 48,28 C48,37.1666667 43,42.1666667 43,42.1666667 C43,48.8333333 58,47.1666667 58,55.5 Z"/>
          </g>
          <g transform="translate(0 170)">
            <rect width="75.915" height="75.915" fill="#C8CCCC" transform="matrix(-1 0 0 1 75.915 0)"/>
            <path fill="#B0B6B7" d="M58,55.5 L58,57.1666667 C58,57.6296296 57.6296296,58 57.1666667,58 L18.8333333,58 C18.3703704,58 18,57.6296296 18,57.1666667 L18,55.5 C18,47.1666667 33,48.8333333 33,42.1666667 C33,42.1666667 28,37.1666667 28,28 C28,22.4907407 32.4907407,18 38,18 C43.5092593,18 48,22.4907407 48,28 C48,37.1666667 43,42.1666667 43,42.1666667 C43,48.8333333 58,47.1666667 58,55.5 Z"/>
          </g>
          <g transform="translate(171 86)">
            <rect width="75.915" height="75.915" fill="#C8CCCC" transform="matrix(-1 0 0 1 75.915 0)"/>
            <path fill="#B0B6B7" d="M58,55.5 L58,57.1666667 C58,57.6296296 57.6296296,58 57.1666667,58 L18.8333333,58 C18.3703704,58 18,57.6296296 18,57.1666667 L18,55.5 C18,47.1666667 33,48.8333333 33,42.1666667 C33,42.1666667 28,37.1666667 28,28 C28,22.4907407 32.4907407,18 38,18 C43.5092593,18 48,22.4907407 48,28 C48,37.1666667 43,42.1666667 43,42.1666667 C43,48.8333333 58,47.1666667 58,55.5 Z"/>
          </g>
          <g transform="translate(86 86)">
            <rect width="75.915" height="75.915" fill="#C8CCCC" transform="matrix(-1 0 0 1 75.915 0)"/>
            <path fill="#B0B6B7" d="M58,55.5 L58,57.1666667 C58,57.6296296 57.6296296,58 57.1666667,58 L18.8333333,58 C18.3703704,58 18,57.6296296 18,57.1666667 L18,55.5 C18,47.1666667 33,48.8333333 33,42.1666667 C33,42.1666667 28,37.1666667 28,28 C28,22.4907407 32.4907407,18 38,18 C43.5092593,18 48,22.4907407 48,28 C48,37.1666667 43,42.1666667 43,42.1666667 C43,48.8333333 58,47.1666667 58,55.5 Z"/>
          </g>
          <g transform="translate(0 86)">
            <rect width="75.915" height="75.915" fill="#C8CCCC" transform="matrix(-1 0 0 1 75.915 0)"/>
            <path fill="#B0B6B7" d="M58,55.5 L58,57.1666667 C58,57.6296296 57.6296296,58 57.1666667,58 L18.8333333,58 C18.3703704,58 18,57.6296296 18,57.1666667 L18,55.5 C18,47.1666667 33,48.8333333 33,42.1666667 C33,42.1666667 28,37.1666667 28,28 C28,22.4907407 32.4907407,18 38,18 C43.5092593,18 48,22.4907407 48,28 C48,37.1666667 43,42.1666667 43,42.1666667 C43,48.8333333 58,47.1666667 58,55.5 Z"/>
          </g>
          <g transform="translate(171)">
            <rect width="75.915" height="75.915" fill="#C8CCCC" transform="matrix(-1 0 0 1 75.915 0)"/>
            <path fill="#B0B6B7" d="M58,55.5 L58,57.1666667 C58,57.6296296 57.6296296,58 57.1666667,58 L18.8333333,58 C18.3703704,58 18,57.6296296 18,57.1666667 L18,55.5 C18,47.1666667 33,48.8333333 33,42.1666667 C33,42.1666667 28,37.1666667 28,28 C28,22.4907407 32.4907407,18 38,18 C43.5092593,18 48,22.4907407 48,28 C48,37.1666667 43,42.1666667 43,42.1666667 C43,48.8333333 58,47.1666667 58,55.5 Z"/>
          </g>
          <g transform="translate(86)">
            <rect width="75.915" height="75.915" fill="#C8CCCC" transform="matrix(-1 0 0 1 75.915 0)"/>
            <path fill="#B0B6B7" d="M58,55.5 L58,57.1666667 C58,57.6296296 57.6296296,58 57.1666667,58 L18.8333333,58 C18.3703704,58 18,57.6296296 18,57.1666667 L18,55.5 C18,47.1666667 33,48.8333333 33,42.1666667 C33,42.1666667 28,37.1666667 28,28 C28,22.4907407 32.4907407,18 38,18 C43.5092593,18 48,22.4907407 48,28 C48,37.1666667 43,42.1666667 43,42.1666667 C43,48.8333333 58,47.1666667 58,55.5 Z"/>
          </g>
          <rect width="75.915" height="75.915" fill="#C8CCCC" transform="matrix(-1 0 0 1 75.915 0)"/>
          <path fill="#B0B6B7" d="M58,55.5 L58,57.1666667 C58,57.6296296 57.6296296,58 57.1666667,58 L18.8333333,58 C18.3703704,58 18,57.6296296 18,57.1666667 L18,55.5 C18,47.1666667 33,48.8333333 33,42.1666667 C33,42.1666667 28,37.1666667 28,28 C28,22.4907407 32.4907407,18 38,18 C43.5092593,18 48,22.4907407 48,28 C48,37.1666667 43,42.1666667 43,42.1666667 C43,48.8333333 58,47.1666667 58,55.5 Z"/>
        </g>
        <g transform="translate(256.212)">
          <g transform="translate(129 .106)">
            <rect width="118.617" height="118.617" fill="#C8CCCC"/>
            <path fill="#B0B6B7" d="M95.5000367,91.0000367 L95.5000367,94.0000367 C95.5000367,94.83337 94.83337,95.5000367 94.0000367,95.5000367 L25.0000367,95.5000367 C24.1667034,95.5000367 23.5000367,94.83337 23.5000367,94.0000367 L23.5000367,91.0000367 C23.5000367,76.0000367 50.5000367,79.0000367 50.5000367,67.0000367 C50.5000367,67.0000367 41.5000367,58.0000367 41.5000367,41.5000367 C41.5000367,31.58337 49.58337,23.5000367 59.5000367,23.5000367 C69.4167034,23.5000367 77.5000367,31.58337 77.5000367,41.5000367 C77.5000367,58.0000367 68.5000367,67.0000367 68.5000367,67.0000367 C68.5000367,79.0000367 95.5000367,76.0000367 95.5000367,91.0000367 Z"/>
          </g>
          <g transform="translate(129 128.106)">
            <rect width="118.617" height="118.617" fill="#C8CCCC"/>
            <path fill="#B0B6B7" d="M95.5000367,91.0000367 L95.5000367,94.0000367 C95.5000367,94.83337 94.83337,95.5000367 94.0000367,95.5000367 L25.0000367,95.5000367 C24.1667034,95.5000367 23.5000367,94.83337 23.5000367,94.0000367 L23.5000367,91.0000367 C23.5000367,76.0000367 50.5000367,79.0000367 50.5000367,67.0000367 C50.5000367,67.0000367 41.5000367,58.0000367 41.5000367,41.5000367 C41.5000367,31.58337 49.58337,23.5000367 59.5000367,23.5000367 C69.4167034,23.5000367 77.5000367,31.58337 77.5000367,41.5000367 C77.5000367,58.0000367 68.5000367,67.0000367 68.5000367,67.0000367 C68.5000367,79.0000367 95.5000367,76.0000367 95.5000367,91.0000367 Z"/>
          </g>
          <g transform="translate(0 .106)">
            <rect width="118.617" height="118.617" fill="#C8CCCC"/>
            <path fill="#B0B6B7" d="M95.5000367,91.0000367 L95.5000367,94.0000367 C95.5000367,94.83337 94.83337,95.5000367 94.0000367,95.5000367 L25.0000367,95.5000367 C24.1667034,95.5000367 23.5000367,94.83337 23.5000367,94.0000367 L23.5000367,91.0000367 C23.5000367,76.0000367 50.5000367,79.0000367 50.5000367,67.0000367 C50.5000367,67.0000367 41.5000367,58.0000367 41.5000367,41.5000367 C41.5000367,31.58337 49.58337,23.5000367 59.5000367,23.5000367 C69.4167034,23.5000367 77.5000367,31.58337 77.5000367,41.5000367 C77.5000367,58.0000367 68.5000367,67.0000367 68.5000367,67.0000367 C68.5000367,79.0000367 95.5000367,76.0000367 95.5000367,91.0000367 Z"/>
          </g>
          <g transform="translate(0 128.106)">
            <rect width="118.617" height="118.617" fill="#C8CCCC"/>
            <path fill="#B0B6B7" d="M95.5000367,91.0000367 L95.5000367,94.0000367 C95.5000367,94.83337 94.83337,95.5000367 94.0000367,95.5000367 L25.0000367,95.5000367 C24.1667034,95.5000367 23.5000367,94.83337 23.5000367,94.0000367 L23.5000367,91.0000367 C23.5000367,76.0000367 50.5000367,79.0000367 50.5000367,67.0000367 C50.5000367,67.0000367 41.5000367,58.0000367 41.5000367,41.5000367 C41.5000367,31.58337 49.58337,23.5000367 59.5000367,23.5000367 C69.4167034,23.5000367 77.5000367,31.58337 77.5000367,41.5000367 C77.5000367,58.0000367 68.5000367,67.0000367 68.5000367,67.0000367 C68.5000367,79.0000367 95.5000367,76.0000367 95.5000367,91.0000367 Z"/>
          </g>
        </g>
        <rect width="246.723" height="246.723" fill="#C8CCCC"/>
        <path fill="#B0B6B7" d="M201.000073,191.312569 L201.000073,197.770905 C201.000073,199.564888 199.564888,201.000073 197.770905,201.000073 L49.2291682,201.000073 C47.4351859,201.000073 46,199.564888 46,197.770905 L46,191.312569 C46,159.020887 104.125028,165.479223 104.125028,139.645878 C104.125028,139.645878 84.7500184,120.270869 84.7500184,84.7500184 C84.7500184,63.4016286 102.151647,46 123.500037,46 C144.848426,46 162.250055,63.4016286 162.250055,84.7500184 C162.250055,120.270869 142.875046,139.645878 142.875046,139.645878 C142.875046,165.479223 201.000073,159.020887 201.000073,191.312569 Z"/>
      </g>
      <g stroke="#6E797A" stroke-linecap="round" stroke-linejoin="round" stroke-width="2" transform="translate(346 139)">
        <path d="M10.2 68.4184777L39.3278 68.4184777C55.1633 68.4184777 68 55.5033497 68 39.5703967L68 0 28.6716333 0C12.8367 0 0 12.9162683 0 28.8486511L0 82.838242C0 84.7779058 2.34656667 85.7323436 3.68616667 84.337747L18.9805 68.4184777M0 69L68 0"/>
        <polyline points="29 0 29.021 39.98 68 40"/>
      </g>
      <text fill="#323232" font-family="ProximaNova-Semibold, Proxima Nova" font-size="18" font-weight="500">
        <tspan x="0" y="18">Influencers</tspan>
      </text>
    </g>
  </g>
</svg>
