<?xml version="1.0" encoding="UTF-8"?>
<svg width="900px" height="1020px" viewBox="0 0 900 1020" version="1.1" xmlns="http://www.w3.org/2000/svg" xmlns:xlink="http://www.w3.org/1999/xlink" style="background: #F3F4F4;">
    <!-- Generator: Sketch 49 (51002) - http://www.bohemiancoding.com/sketch -->
    <title>Chart Loading</title>
    <desc>Created with Sketch.</desc>
    <defs>
        <rect id="path-1" x="0" y="0" width="760" height="220" rx="3"></rect>
        <rect id="path-2" x="0" y="0" width="760" height="220" rx="3"></rect>
    </defs>
    <g id="Chart-Loading" stroke="none" stroke-width="1" fill="none" fill-rule="evenodd">
        <g id="Gathering-Data" transform="translate(30.000000, 30.000000)">
            <rect id="content-area" fill="#FFFFFF" x="0" y="0" width="840" height="960"></rect>
            <g id="table---summary" transform="translate(40.000000, 690.000000)">
                <g id="Rectangle-78">
                    <use fill="#FFFFFF" fill-rule="evenodd" xlink:href="#path-1"></use>
                    <rect stroke="#C8CCCC" stroke-width="1" x="0.5" y="0.5" width="759" height="219" rx="3"></rect>
                </g>
                <g id="metric-callout---gathering" transform="translate(521.000000, 52.000000)">
                    <text id="Since-Last-Month" font-family="ProximaNova-Regular, Proxima Nova" font-size="13" font-weight="normal" line-spacing="21" fill="#08C4B2">
                        <tspan x="53.185" y="104">Since Last Month</tspan>
                    </text>
                    <g id="circle-loader" transform="translate(92.000000, 57.000000)" stroke="#6E797A" stroke-linecap="round" stroke-linejoin="round" stroke-width="2">
                        <path d="M1.12835821,14 C0.407462687,12.6770123 0,11.1722138 0,9.57650998 C0,4.28741781 4.47701493,0 10,0" id="Stroke-1"></path>
                        <path d="M15,19 C13.5469377,19.6357426 11.8565928,20 10.0528926,20 C8.60805299,20 7.23604268,19.7661966 6,19.3464081" id="Stroke-3"></path>
                        <path d="M20,8 C20.223,8.67278476 20.3405,9.36901365 20.3405,10.0825172 C20.3405,10.7377188 20.241,11.3787306 20.052,12" id="Stroke-5"></path>
                    </g>
                    <text id="The-number-of-messag" font-family="ProximaNova-Regular, Proxima Nova" font-size="13" font-weight="normal" line-spacing="21" fill="#515E5F">
                        <tspan x="29.707" y="12">The number of messages </tspan>
                        <tspan x="39.4765" y="33">you sent increased by</tspan>
                    </text>
                </g>
                <g id="metric-summary-table" transform="translate(20.000000, 27.000000)">
                    <g id="circle-loader" transform="translate(435.000000, 149.000000)" stroke="#6E797A" stroke-linecap="round" stroke-linejoin="round" stroke-width="2">
                        <path d="M1.12835821,14 C0.407462687,12.6770123 0,11.1722138 0,9.57650998 C0,4.28741781 4.47701493,0 10,0" id="Stroke-1"></path>
                        <path d="M15,19 C13.5469377,19.6357426 11.8565928,20 10.0528926,20 C8.60805299,20 7.23604268,19.7661966 6,19.3464081" id="Stroke-3"></path>
                        <path d="M20,8 C20.223,8.67278476 20.3405,9.36901365 20.3405,10.0825172 C20.3405,10.7377188 20.241,11.3787306 20.052,12" id="Stroke-5"></path>
                    </g>
                    <text id="Total-Received" font-family="ProximaNova-Semibold, Proxima Nova" font-size="16" font-weight="500" fill="#364141">
                        <tspan x="1" y="163">Total Received</tspan>
                    </text>
                    <rect id="Rectangle-3" fill="#B0B6B7" x="0" y="133" width="460" height="2"></rect>
                    <g id="circle-loader" transform="translate(435.000000, 99.000000)" stroke="#6E797A" stroke-linecap="round" stroke-linejoin="round" stroke-width="2">
                        <path d="M1.12835821,14 C0.407462687,12.6770123 0,11.1722138 0,9.57650998 C0,4.28741781 4.47701493,0 10,0" id="Stroke-1"></path>
                        <path d="M15,19 C13.5469377,19.6357426 11.8565928,20 10.0528926,20 C8.60805299,20 7.23604268,19.7661966 6,19.3464081" id="Stroke-3"></path>
                        <path d="M20,8 C20.223,8.67278476 20.3405,9.36901365 20.3405,10.0825172 C20.3405,10.7377188 20.241,11.3787306 20.052,12" id="Stroke-5"></path>
                    </g>
                    <text id="Direct-Messages-Rece" font-family="ProximaNova-Regular, Proxima Nova" font-size="16" font-weight="normal" fill="#515E5F">
                        <tspan x="1" y="113">Direct Messages Received</tspan>
                    </text>
                    <rect id="Rectangle-3" fill="#C8CCCC" x="0" y="83" width="460" height="1"></rect>
                    <g id="circle-loader" transform="translate(435.000000, 48.000000)" stroke="#6E797A" stroke-linecap="round" stroke-linejoin="round" stroke-width="2">
                        <path d="M1.12835821,14 C0.407462687,12.6770123 0,11.1722138 0,9.57650998 C0,4.28741781 4.47701493,0 10,0" id="Stroke-1"></path>
                        <path d="M15,19 C13.5469377,19.6357426 11.8565928,20 10.0528926,20 C8.60805299,20 7.23604268,19.7661966 6,19.3464081" id="Stroke-3"></path>
                        <path d="M20,8 C20.223,8.67278476 20.3405,9.36901365 20.3405,10.0825172 C20.3405,10.7377188 20.241,11.3787306 20.052,12" id="Stroke-5"></path>
                    </g>
                    <text id="Mentions-Received" font-family="ProximaNova-Regular, Proxima Nova" font-size="16" font-weight="normal" fill="#515E5F">
                        <tspan x="1" y="63">Mentions Received</tspan>
                    </text>
                    <rect id="Rectangle-3" fill="#C8CCCC" x="0" y="33" width="460" height="1"></rect>
                    <text id="Totals" font-family="ProximaNova-Semibold, Proxima Nova" font-size="13" font-weight="500" fill="#929A9B">
                        <tspan x="426.64" y="13">Totals</tspan>
                    </text>
                    <text id="Received-Metrics" font-family="ProximaNova-Semibold, Proxima Nova" font-size="13" font-weight="500" fill="#929A9B">
                        <tspan x="0" y="13">Received Metrics</tspan>
                    </text>
                </g>
            </g>
            <g id="table---summary" transform="translate(40.000000, 450.000000)">
                <g id="Rectangle-78">
                    <use fill="#FFFFFF" fill-rule="evenodd" xlink:href="#path-2"></use>
                    <rect stroke="#C8CCCC" stroke-width="1" x="0.5" y="0.5" width="759" height="219" rx="3"></rect>
                </g>
                <g id="metric-callout---gathering" transform="translate(521.000000, 50.000000)">
                    <text id="Since-Last-Month" font-family="ProximaNova-Regular, Proxima Nova" font-size="13" font-weight="normal" line-spacing="21" fill="#08C4B2">
                        <tspan x="53.185" y="104">Since Last Month</tspan>
                    </text>
                    <g id="circle-loader" transform="translate(92.000000, 59.000000)" stroke="#6E797A" stroke-linecap="round" stroke-linejoin="round" stroke-width="2">
                        <path d="M1.12835821,14 C0.407462687,12.6770123 0,11.1722138 0,9.57650998 C0,4.28741781 4.47701493,0 10,0" id="Stroke-1"></path>
                        <path d="M15,19 C13.5469377,19.6357426 11.8565928,20 10.0528926,20 C8.60805299,20 7.23604268,19.7661966 6,19.3464081" id="Stroke-3"></path>
                        <path d="M20,8 C20.223,8.67278476 20.3405,9.36901365 20.3405,10.0825172 C20.3405,10.7377188 20.241,11.3787306 20.052,12" id="Stroke-5"></path>
                    </g>
                    <text id="The-number-of-messag" font-family="ProximaNova-Regular, Proxima Nova" font-size="13" font-weight="normal" line-spacing="21" fill="#515E5F">
                        <tspan x="29.707" y="12">The number of messages </tspan>
                        <tspan x="39.4765" y="33">you sent increased by</tspan>
                    </text>
                </g>
                <g id="metric-summary-table" transform="translate(20.000000, 27.000000)">
                    <g id="circle-loader" transform="translate(435.000000, 148.000000)" stroke="#6E797A" stroke-linecap="round" stroke-linejoin="round" stroke-width="2">
                        <path d="M1.12835821,14 C0.407462687,12.6770123 0,11.1722138 0,9.57650998 C0,4.28741781 4.47701493,0 10,0" id="Stroke-1"></path>
                        <path d="M15,19 C13.5469377,19.6357426 11.8565928,20 10.0528926,20 C8.60805299,20 7.23604268,19.7661966 6,19.3464081" id="Stroke-3"></path>
                        <path d="M20,8 C20.223,8.67278476 20.3405,9.36901365 20.3405,10.0825172 C20.3405,10.7377188 20.241,11.3787306 20.052,12" id="Stroke-5"></path>
                    </g>
                    <text id="Total-Sent" font-family="ProximaNova-Semibold, Proxima Nova" font-size="16" font-weight="500" fill="#364141">
                        <tspan x="1" y="163">Total Sent</tspan>
                    </text>
                    <rect id="Rectangle-3" fill="#B0B6B7" x="0" y="133" width="460" height="2"></rect>
                    <g id="circle-loader" transform="translate(435.000000, 98.000000)" stroke="#6E797A" stroke-linecap="round" stroke-linejoin="round" stroke-width="2">
                        <path d="M1.12835821,14 C0.407462687,12.6770123 0,11.1722138 0,9.57650998 C0,4.28741781 4.47701493,0 10,0" id="Stroke-1"></path>
                        <path d="M15,19 C13.5469377,19.6357426 11.8565928,20 10.0528926,20 C8.60805299,20 7.23604268,19.7661966 6,19.3464081" id="Stroke-3"></path>
                        <path d="M20,8 C20.223,8.67278476 20.3405,9.36901365 20.3405,10.0825172 C20.3405,10.7377188 20.241,11.3787306 20.052,12" id="Stroke-5"></path>
                    </g>
                    <text id="Direct-Messages-Sent" font-family="ProximaNova-Regular, Proxima Nova" font-size="16" font-weight="normal" fill="#515E5F">
                        <tspan x="1" y="113">Direct Messages Sent</tspan>
                    </text>
                    <rect id="Rectangle-3" fill="#C8CCCC" x="0" y="83" width="460" height="1"></rect>
                    <g id="circle-loader" transform="translate(435.000000, 48.000000)" stroke="#6E797A" stroke-linecap="round" stroke-linejoin="round" stroke-width="2">
                        <path d="M1.12835821,14 C0.407462687,12.6770123 0,11.1722138 0,9.57650998 C0,4.28741781 4.47701493,0 10,0" id="Stroke-1"></path>
                        <path d="M15,19 C13.5469377,19.6357426 11.8565928,20 10.0528926,20 C8.60805299,20 7.23604268,19.7661966 6,19.3464081" id="Stroke-3"></path>
                        <path d="M20,8 C20.223,8.67278476 20.3405,9.36901365 20.3405,10.0825172 C20.3405,10.7377188 20.241,11.3787306 20.052,12" id="Stroke-5"></path>
                    </g>
                    <text id="Tweets-Sent" font-family="ProximaNova-Regular, Proxima Nova" font-size="16" font-weight="normal" fill="#515E5F">
                        <tspan x="1" y="63">Tweets Sent</tspan>
                    </text>
                    <rect id="Rectangle-3" fill="#C8CCCC" x="0" y="33" width="460" height="1"></rect>
                    <text id="Totals" font-family="ProximaNova-Semibold, Proxima Nova" font-size="13" font-weight="500" fill="#929A9B">
                        <tspan x="426.64" y="13">Totals</tspan>
                    </text>
                    <text id="Sent-Metrics" font-family="ProximaNova-Semibold, Proxima Nova" font-size="13" font-weight="500" fill="#929A9B">
                        <tspan x="0" y="13">Sent Metrics</tspan>
                    </text>
                </g>
            </g>
            <g id="chart---line" transform="translate(40.000000, 130.000000)">
                <g id="graph-key" transform="translate(302.000000, 274.000000)">
                    <text id="Sent" font-family="ProximaNova-Semibold, Proxima Nova" font-size="13" font-weight="500" fill="#929A9B">
                        <tspan x="130" y="13">Sent</tspan>
                    </text>
                    <rect id="Rectangle-132" fill="#5E4EBA" x="110" y="3" width="12" height="12" rx="3"></rect>
                    <text id="Received" font-family="ProximaNova-Semibold, Proxima Nova" font-size="13" font-weight="500" fill="#929A9B">
                        <tspan x="20" y="13">Received</tspan>
                    </text>
                    <rect id="Rectangle-132" fill="#08C4B2" x="0" y="3" width="12" height="12" rx="3"></rect>
                </g>
                <g id="x---axis" transform="translate(18.000000, 220.000000)" fill="#929A9B" font-family="ProximaNova-Semibold, Proxima Nova" font-size="11" font-weight="500" letter-spacing="0.925833464">
                    <text id="APR">
                        <tspan x="0.600749804" y="32">APR</tspan>
                    </text>
                    <text id="1">
                        <tspan x="10" y="11">1</tspan>
                    </text>
                    <text id="2">
                        <tspan x="29" y="11">2</tspan>
                    </text>
                    <text id="3">
                        <tspan x="50" y="11">3</tspan>
                    </text>
                    <text id="4">
                        <tspan x="72" y="11">4</tspan>
                    </text>
                    <text id="5">
                        <tspan x="93" y="11">5</tspan>
                    </text>
                    <text id="6">
                        <tspan x="114" y="11">6</tspan>
                    </text>
                    <text id="7">
                        <tspan x="136" y="11">7</tspan>
                    </text>
                    <text id="8">
                        <tspan x="156" y="11">8</tspan>
                    </text>
                    <text id="9">
                        <tspan x="177" y="11">9</tspan>
                    </text>
                    <text id="10">
                        <tspan x="199" y="11">10</tspan>
                    </text>
                    <text id="11">
                        <tspan x="224" y="11">11</tspan>
                    </text>
                    <text id="12">
                        <tspan x="247" y="11">12</tspan>
                    </text>
                    <text id="13">
                        <tspan x="272" y="11">13</tspan>
                    </text>
                    <text id="14">
                        <tspan x="297" y="11">14</tspan>
                    </text>
                    <text id="15">
                        <tspan x="323" y="11">15</tspan>
                    </text>
                    <text id="16">
                        <tspan x="348" y="11">16</tspan>
                    </text>
                    <text id="17">
                        <tspan x="373" y="11">17</tspan>
                    </text>
                    <text id="18">
                        <tspan x="397" y="11">18</tspan>
                    </text>
                    <text id="19">
                        <tspan x="422" y="11">19</tspan>
                    </text>
                    <text id="20">
                        <tspan x="449" y="11">20</tspan>
                    </text>
                    <text id="21">
                        <tspan x="477" y="11">21</tspan>
                    </text>
                    <text id="22">
                        <tspan x="502" y="11">22</tspan>
                    </text>
                    <text id="23">
                        <tspan x="530" y="11">23</tspan>
                    </text>
                    <text id="24">
                        <tspan x="558" y="11">24</tspan>
                    </text>
                    <text id="25">
                        <tspan x="586" y="11">25</tspan>
                    </text>
                    <text id="26">
                        <tspan x="614" y="11">26</tspan>
                    </text>
                    <text id="27">
                        <tspan x="643" y="11">27</tspan>
                    </text>
                    <text id="28">
                        <tspan x="670" y="11">28</tspan>
                    </text>
                    <text id="29">
                        <tspan x="698" y="11">29</tspan>
                    </text>
                    <text id="30">
                        <tspan x="727" y="11">30</tspan>
                    </text>
                </g>
                <rect id="Rectangle-3" fill="#B0B6B7" x="30" y="206" width="730" height="2"></rect>
                <rect id="Rectangle-3" fill="#C8CCCC" x="30" y="156" width="730" height="1"></rect>
                <rect id="Rectangle-3" fill="#C8CCCC" x="30" y="106" width="730" height="1"></rect>
                <rect id="Rectangle-3" fill="#C8CCCC" x="30" y="56" width="730" height="1"></rect>
                <rect id="Rectangle-3" fill="#C8CCCC" x="30" y="6" width="730" height="1"></rect>
                <g id="y---axis" fill="#929A9B" font-family="ProximaNova-Semibold, Proxima Nova" font-size="11" font-weight="500" letter-spacing="0.925833464">
                    <text id="0">
                        <tspan x="0" y="211">0</tspan>
                    </text>
                    <text id="50">
                        <tspan x="0" y="161">50</tspan>
                    </text>
                    <text id="100">
                        <tspan x="0" y="111">100</tspan>
                    </text>
                    <text id="150">
                        <tspan x="0" y="61">150</tspan>
                    </text>
                    <text id="200">
                        <tspan x="0" y="11">200</tspan>
                    </text>
                </g>
            </g>
            <rect id="Rectangle-20" fill-opacity="0.8" fill="#FFFFFF" x="40" y="130" width="760" height="300" rx="3"></rect>
            <g id="leaf-loader" transform="translate(386.000000, 193.000000)" stroke="#6E797A" stroke-linecap="round" stroke-linejoin="round" stroke-width="2">
                <path d="M10.2,68.4184777 L39.3278,68.4184777 C55.1633,68.4184777 68,55.5033497 68,39.5703967 L68,0 L28.6716333,0 C12.8367,0 0,12.9162683 0,28.8486511 L0,82.838242 C0,84.7779058 2.34656667,85.7323436 3.68616667,84.337747 L18.9805,68.4184777" id="Stroke-1"></path>
                <path d="M0,69 L68,0" id="Stroke-3"></path>
                <polyline id="Stroke-5" points="29 0 29.0207484 39.9798277 68 40"></polyline>
            </g>
            <text id="Messages-Per-Day" font-family="ProximaNova-Semibold, Proxima Nova" font-size="13" font-weight="500" fill="#929A9B">
                <tspan x="40" y="105">Messages Per Day</tspan>
            </text>
            <text id="Posts-&amp;-Conversation" font-family="ProximaNova-Semibold, Proxima Nova" font-size="18" font-weight="500" fill="#323232">
                <tspan x="40" y="58">Posts &amp; Conversations</tspan>
            </text>
        </g>
    </g>
</svg>