<svg xmlns="http://www.w3.org/2000/svg" xmlns:xlink="http://www.w3.org/1999/xlink" width="900" height="370" style="background:#f3f4f4" viewBox="0 0 900 370">
  <defs>
    <rect id="chart-horizontal-bar-data-error-a" width="100" height="30" rx="3"/>
  </defs>
  <g fill="none" fill-rule="evenodd" transform="translate(30 30)">
    <rect width="840" height="310" fill="#FFF"/>
    <g opacity=".2" transform="translate(41 70)">
      <rect width="310" height="20" x="49" fill="#C8CCCC"/>
      <rect width="310" height="20" x="49" y="30" fill="#C8CCCC"/>
      <rect width="310" height="20" x="49" y="60" fill="#C8CCCC"/>
      <rect width="310" height="20" x="49" y="90" fill="#C8CCCC"/>
      <rect width="310" height="20" x="49" y="120" fill="#C8CCCC"/>
      <rect width="310" height="20" x="49" y="150" fill="#C8CCCC"/>
      <rect width="310" height="20" x="49" y="180" fill="#C8CCCC"/>
      <rect width="310" height="20" x="49" y="60" fill="#C8CCCC"/>
      <text fill="#929A9B" font-family="ProximaNova-Semibold, Proxima Nova" font-size="11" font-weight="500" letter-spacing=".926">
        <tspan x="0" y="14">18 - 20</tspan>
      </text>
      <text fill="#929A9B" font-family="ProximaNova-Semibold, Proxima Nova" font-size="11" font-weight="500" letter-spacing=".926">
        <tspan x="0" y="44">21 - 24</tspan>
      </text>
      <text fill="#929A9B" font-family="ProximaNova-Semibold, Proxima Nova" font-size="11" font-weight="500" letter-spacing=".926">
        <tspan x="0" y="74">25 - 34</tspan>
      </text>
      <text fill="#929A9B" font-family="ProximaNova-Semibold, Proxima Nova" font-size="11" font-weight="500" letter-spacing=".926">
        <tspan x="0" y="104">35 - 44</tspan>
      </text>
      <text fill="#929A9B" font-family="ProximaNova-Semibold, Proxima Nova" font-size="11" font-weight="500" letter-spacing=".926">
        <tspan x="0" y="134">45 - 54</tspan>
      </text>
      <text fill="#929A9B" font-family="ProximaNova-Semibold, Proxima Nova" font-size="11" font-weight="500" letter-spacing=".926">
        <tspan x="0" y="164">55 - 64</tspan>
      </text>
      <text fill="#929A9B" font-family="ProximaNova-Semibold, Proxima Nova" font-size="11" font-weight="500" letter-spacing=".926">
        <tspan x="0" y="194">65+</tspan>
      </text>
    </g>
    <g transform="translate(171 219)">
      <use fill="#FFF" xlink:href="#chart-horizontal-bar-data-error-a"/>
      <rect width="99" height="29" x=".5" y=".5" stroke="#364141" rx="3"/>
      <text fill="#364141" font-family="ProximaNova-Semibold, Proxima Nova" font-size="13" font-weight="500">
        <tspan x="17.845" y="19">Contact Us</tspan>
      </text>
    </g>
    <text font-family="ProximaNova-Bold, Proxima Nova" font-size="18" font-weight="bold">
      <tspan x="148.154" y="154.303" fill="#364141">Data Unavailable</tspan> <tspan x="113.304" y="175.665" fill="#515E5F" font-family="ProximaNova-Regular, Proxima Nova" font-size="16" font-weight="normal">We are unable to retrieve all of </tspan> <tspan x="146" y="196.995" fill="#515E5F" font-family="ProximaNova-Regular, Proxima Nova" font-size="16" font-weight="normal">your data at this time.</tspan>
    </text>
    <g transform="translate(201 84)">
      <path fill="#ED4C42" d="M38.8514902,32.9896565 L24.68288,8.45066567 C24.164805,7.55306379 23.2074025,7.00005577 22.1706605,7.00005577 C21.1339185,7.00005577 20.1765159,7.55306379 19.6578489,8.45066567 L5.38858411,33.1666901 C4.87050914,34.064292 4.87050914,35.1697159 5.38858411,36.0679099 C5.90665907,36.9655118 6.8646537,37.5179277 7.90139572,37.5179277 L36.4405174,37.5179277 L36.4488065,37.5179277 C38.0515825,37.5179277 39.3500264,36.2194838 39.3500264,34.6167079 C39.3500264,34.0139647 39.1658877,33.4532596 38.8514902,32.9896565"/>
      <path fill="#172121" fill-rule="nonzero" d="M34.3546865,31.0124981 C34.3546865,33.0744559 32.6839521,34.7451904 30.6219942,34.7451904 L3.73285962,34.7451904 C2.39893809,34.7451904 1.16647469,34.0341376 0.499780347,32.879042 C-0.166580045,31.7237635 -0.166580045,30.3015864 0.499979886,29.1467238 L13.940555,5.86608626 C14.6078281,4.71130766 15.8396979,4.00005577 17.1732442,4.00005577 C18.5069781,4.00005577 19.7389779,4.71150411 20.4055426,5.866375 L33.7344433,28.9510509 C34.136208,29.5569759 34.3546865,30.2701552 34.3546865,31.0124981 Z M18.6734422,6.86628923 C18.3640178,6.33018937 17.7923326,6.00005577 17.1732442,6.00005577 C16.5541223,6.00005577 15.9822303,6.3302524 15.6724317,6.86638777 L2.23210392,30.1465969 C1.92264543,30.6827559 1.92264543,31.3430019 2.23210392,31.8795146 C2.54128079,32.4151856 3.11327602,32.7451904 3.73285962,32.7451904 L30.6219942,32.7451904 C31.5793826,32.7451904 32.3546865,31.9698864 32.3546865,31.0124981 C32.3546865,30.6603297 32.2501602,30.3253559 32.057476,30.0412284 L18.6734422,6.86628923 Z"/>
      <path fill="#FFF" d="M19.7755571,29.3656 C19.7755571,29.5314571 19.6409857,29.6656 19.4751286,29.6656 L17.3001286,29.6656 C17.1342714,29.6656 17.0001286,29.5314571 17.0001286,29.3656 L17.0001286,27.4156 C17.0001286,27.2497429 17.1342714,27.1156 17.3001286,27.1156 L19.4751286,27.1156 C19.6409857,27.1156 19.7755571,27.2497429 19.7755571,27.4156 L19.7755571,29.3656 Z M19.7755571,24.9785714 C19.7755571,25.1444286 19.6409857,25.2781429 19.4751286,25.2781429 L17.3001286,25.2781429 C17.1342714,25.2781429 17.0001286,25.144 17.0001286,24.9785714 L17.0001286,16.7285714 C17.0001286,16.5631429 17.1342714,16.4285714 17.3001286,16.4285714 L19.4751286,16.4285714 C19.6409857,16.4285714 19.7755571,16.5627143 19.7755571,16.7285714 L19.7755571,24.9785714 Z"/>
      <path stroke="#ED4C42" stroke-linecap="round" stroke-linejoin="round" stroke-width="2" d="M53.0430108,14 L53.0430108,22 M49,17.9569892 L57,17.9569892"/>
      <circle cx="42.5" cy="2.5" r="2.5" fill="#ED4C42" fill-rule="nonzero"/>
    </g>
    <text fill="#929A9B" font-family="ProximaNova-Semibold, Proxima Nova" font-size="13" font-weight="500">
      <tspan x="40" y="48">Followers by Age</tspan>
    </text>
  </g>
</svg>
