<svg xmlns="http://www.w3.org/2000/svg" xmlns:xlink="http://www.w3.org/1999/xlink" width="900" height="250" style="background:#f3f4f4" viewBox="0 0 900 250">
  <defs>
    <rect id="overview-loading-a" width="760" height="110" rx="3"/>
  </defs>
  <g fill="none" fill-rule="evenodd" transform="translate(30 30)">
    <rect width="840" height="190" fill="#FFF"/>
    <g transform="translate(40 40)">
      <use fill="#FFF" xlink:href="#overview-loading-a"/>
      <rect width="759" height="109" x=".5" y=".5" stroke="#C8CCCC" rx="3"/>
      <text fill="#515E5F" font-family="ProximaNova-Regular, Proxima Nova" font-size="13">
        <tspan x="568" y="75">Link Clicks</tspan>
      </text>
      <g stroke="#6E797A" stroke-linecap="round" stroke-linejoin="round" stroke-width="2" transform="translate(569 32)">
        <path d="M1.12835821 14C.407462687 12.6770123 0 11.1722138 0 9.57650998 0 4.28741781 4.47701493 0 10 0M15 19C13.5469377 19.6357426 11.8565928 20 10.0528926 20 8.60805299 20 7.23604268 19.7661966 6 19.3464081M20 8C20.223 8.67278476 20.3405 9.36901365 20.3405 10.0825172 20.3405 10.7377188 20.241 11.3787306 20.052 12"/>
      </g>
      <path fill="#DB61DB" d="M550.657648,42.993236 L536,32 L536,50.3169705 C536,50.562537 536.311729,50.6655986 536.458051,50.4696543 L540.86298,44.5518834 L544.45614,51.7280236 C544.613913,52.0422978 544.995622,52.1695343 545.309897,52.011761 L546.447391,51.4417414 C546.761665,51.2852405 546.888902,50.9022585 546.731129,50.5879843 L543.157055,43.4512875 L550.504964,43.4512875 C550.749258,43.4512875 550.853592,43.139558 550.657648,42.993236"/>
      <rect width="1" height="110" x="506" fill="#C8CCCC"/>
      <text fill="#515E5F" font-family="ProximaNova-Regular, Proxima Nova" font-size="13">
        <tspan x="314" y="75">Total Engagements</tspan>
      </text>
      <g stroke="#6E797A" stroke-linecap="round" stroke-linejoin="round" stroke-width="2" transform="translate(315 32)">
        <path d="M1.12835821 14C.407462687 12.6770123 0 11.1722138 0 9.57650998 0 4.28741781 4.47701493 0 10 0M15 19C13.5469377 19.6357426 11.8565928 20 10.0528926 20 8.60805299 20 7.23604268 19.7661966 6 19.3464081M20 8C20.223 8.67278476 20.3405 9.36901365 20.3405 10.0825172 20.3405 10.7377188 20.241 11.3787306 20.052 12"/>
      </g>
      <path fill="#5E4EBA" d="M284.283267,40.5597276 C284.283267,42.1332908 285.563963,43.4129701 287.138778,43.4129701 L294.288978,43.4129701 L294.288978,47.699967 C294.288978,48.4874619 293.649343,49.1265882 292.861222,49.1265882 L283.141062,49.1265882 L280.44546,51.9256192 C280.288407,52.0825475 280,51.9769775 280,51.741585 L280,40.5668607 C280,39.7793657 280.639634,39.1402394 281.427756,39.1402394 L284.283267,39.1402394 L284.283267,40.5597276 Z M298.572244,32 C299.360366,32 300,32.6376997 300,33.4266213 L300,44.6013456 C300,44.8367381 299.711593,44.9423081 299.55454,44.7839531 L296.858938,41.9863488 L287.138778,41.9863488 C286.350657,41.9863488 285.711022,41.3472225 285.711022,40.5597276 L285.711022,33.4266213 C285.711022,32.6376997 286.350657,32 287.138778,32 L298.572244,32 Z"/>
      <rect width="1" height="110" x="253" fill="#C8CCCC"/>
      <text fill="#515E5F" font-family="ProximaNova-Regular, Proxima Nova" font-size="13">
        <tspan x="60" y="75">Organic Impressions</tspan>
      </text>
      <g stroke="#6E797A" stroke-linecap="round" stroke-linejoin="round" stroke-width="2" transform="translate(61 32)">
        <path d="M1.12835821 14C.407462687 12.6770123 0 11.1722138 0 9.57650998 0 4.28741781 4.47701493 0 10 0M15 19C13.5469377 19.6357426 11.8565928 20 10.0528926 20 8.60805299 20 7.23604268 19.7661966 6 19.3464081M20 8C20.223 8.67278476 20.3405 9.36901365 20.3405 10.0825172 20.3405 10.7377188 20.241 11.3787306 20.052 12"/>
      </g>
      <path fill="#08C4B2" d="M35,35 C41.07475,35 46,41.875 46,41.875 C46,41.875 41.07475,48.75 35,48.75 C28.92525,48.75 24,41.875 24,41.875 C24,41.875 28.92525,35 35,35 Z M35,46 C37.278375,46 39.125,44.153375 39.125,41.875 C39.125,39.596625 37.278375,37.75 35,37.75 C32.721625,37.75 30.875,39.596625 30.875,41.875 C30.875,44.153375 32.721625,46 35,46 Z M35,39.125 C36.519375,39.125 37.75,40.355625 37.75,41.875 C37.75,43.394375 36.519375,44.625 35,44.625 C33.480625,44.625 32.25,43.394375 32.25,41.875 C32.25,40.355625 33.480625,39.125 35,39.125 Z"/>
    </g>
  </g>
</svg>
