<svg xmlns="http://www.w3.org/2000/svg" width="900" height="530" style="background:#f3f4f4" viewBox="0 0 900 530">
  <g fill="none" fill-rule="evenodd">
    <g transform="translate(30 30)">
      <rect width="840" height="470" fill="#FFF"/>
      <g transform="translate(40 35)">
        <g transform="translate(5 315)">
          <g transform="translate(190 45)">
            <rect width="180" height="35" fill="#C8CCCC" rx="4"/>
            <text fill="#FFF" font-family="ProximaNova-Semibold, Proxima Nova" font-size="12" font-weight="500">
              <tspan x="38" y="20.002">darkmattercoffee</tspan>
            </text>
            <path fill="#FFF" d="M20.0000139,10 C18.0989141,10 17.8605334,10.0080581 17.113909,10.0421244 C16.3688406,10.0761073 15.8599856,10.1944502 15.414734,10.3675048 C14.9544221,10.5463668 14.564049,10.7857201 14.1748706,11.1748706 C13.7857201,11.564049 13.5463668,11.9544221 13.3675048,12.414734 C13.1944502,12.8599856 13.0761073,13.3688406 13.0421244,14.113909 C13.0080581,14.8605334 13,15.0989141 13,17.0000139 C13,18.9010859 13.0080581,19.1394666 13.0421244,19.886091 C13.0761073,20.6311594 13.1944502,21.1400144 13.3675048,21.585266 C13.5463668,22.0455779 13.7857201,22.435951 14.1748706,22.8251294 C14.564049,23.2142799 14.9544221,23.4536332 15.414734,23.632523 C15.8599856,23.8055498 16.3688406,23.9238927 17.113909,23.9578756 C17.8605334,23.9919419 18.0989141,24 20.0000139,24 C21.9010859,24 22.1394666,23.9919419 22.886091,23.9578756 C23.6311594,23.9238927 24.1400144,23.8055498 24.585266,23.632523 C25.0455779,23.4536332 25.435951,23.2142799 25.8251294,22.8251294 C26.2142799,22.435951 26.4536332,22.0455779 26.632523,21.585266 C26.8055498,21.1400144 26.9238927,20.6311594 26.9578756,19.886091 C26.9919419,19.1394666 27,18.9010859 27,17.0000139 C27,15.0989141 26.9919419,14.8605334 26.9578756,14.113909 C26.9238927,13.3688406 26.8055498,12.8599856 26.632523,12.414734 C26.4536332,11.9544221 26.2142799,11.564049 25.8251294,11.1748706 C25.435951,10.7857201 25.0455779,10.5463668 24.585266,10.3675048 C24.1400144,10.1944502 23.6311594,10.0761073 22.886091,10.0421244 C22.1394666,10.0080581 21.9010859,10 20.0000139,10 L20.0000139,10 Z M20.0000139,11.261259 C21.8690758,11.261259 22.0904789,11.2684002 22.8286007,11.3020774 C23.5110938,11.3331984 23.8817385,11.4472343 24.1283996,11.5430979 C24.4551416,11.6700824 24.6883263,11.8217692 24.9332647,12.0667353 C25.1782308,12.3116737 25.3299176,12.5448584 25.4569021,12.8716004 C25.5527657,13.1182615 25.6668016,13.4889062 25.6979226,14.1713993 C25.7315998,14.9095211 25.738741,15.1309242 25.738741,17.0000139 C25.738741,18.8690758 25.7315998,19.0904789 25.6979226,19.8286007 C25.6668016,20.5110938 25.5527657,20.8817385 25.4569021,21.1283996 C25.3299176,21.4551416 25.1782308,21.6883263 24.9332647,21.9332647 C24.6883263,22.1782308 24.4551416,22.3299176 24.1283996,22.4569021 C23.8817385,22.5527657 23.5110938,22.6668016 22.8286007,22.6979226 C22.0905901,22.7315998 21.8692147,22.738741 20.0000139,22.738741 C18.1307853,22.738741 17.9094377,22.7315998 17.1713993,22.6979226 C16.4889062,22.6668016 16.1182615,22.5527657 15.8716004,22.4569021 C15.5448584,22.3299176 15.3116737,22.1782308 15.0667353,21.9332647 C14.821797,21.6883263 14.6700824,21.4551416 14.5430979,21.1283996 C14.4472343,20.8817385 14.3331984,20.5110938 14.3020774,19.8286007 C14.2684002,19.0904789 14.261259,18.8690758 14.261259,17.0000139 C14.261259,15.1309242 14.2684002,14.9095211 14.3020774,14.1713993 C14.3331984,13.4889062 14.4472343,13.1182615 14.5430979,12.8716004 C14.6700824,12.5448584 14.8217692,12.3116737 15.0667353,12.0667353 C15.3116737,11.8217692 15.5448584,11.6700824 15.8716004,11.5430979 C16.1182615,11.4472343 16.4889062,11.3331984 17.1713993,11.3020774 C17.9095211,11.2684002 18.1309242,11.261259 20.0000139,11.261259 Z M20.0000139,19.3333333 C18.7113296,19.3333333 17.6666667,18.2886704 17.6666667,17.0000139 C17.6666667,15.7113296 18.7113296,14.6666667 20.0000139,14.6666667 C21.2886704,14.6666667 22.3333333,15.7113296 22.3333333,17.0000139 C22.3333333,18.2886704 21.2886704,19.3333333 20.0000139,19.3333333 Z M20.0000139,13.4054077 C18.0147487,13.4054077 16.4054077,15.0147487 16.4054077,17.0000139 C16.4054077,18.9852513 18.0147487,20.5945923 20.0000139,20.5945923 C21.9852513,20.5945923 23.5945923,18.9852513 23.5945923,17.0000139 C23.5945923,15.0147487 21.9852513,13.4054077 20.0000139,13.4054077 Z M24.5766244,13.2633906 C24.5766244,12.7994665 24.2005335,12.4233756 23.7366094,12.4233756 C23.272713,12.4233756 22.8966221,12.7994665 22.8966221,13.2633906 C22.8966221,13.7273148 23.272713,14.1033779 23.7366094,14.1033779 C24.2005335,14.1033779 24.5766244,13.7273148 24.5766244,13.2633906 Z"/>
          </g>
          <g transform="translate(0 45)">
            <rect width="180" height="35" fill="#C8CCCC" rx="4"/>
            <text fill="#FFF" font-family="ProximaNova-Semibold, Proxima Nova" font-size="12" font-weight="500">
              <tspan x="38" y="20.002">intelligentsia</tspan>
            </text>
            <path fill="#FFF" d="M20.0000139,10 C18.0989141,10 17.8605334,10.0080581 17.113909,10.0421244 C16.3688406,10.0761073 15.8599856,10.1944502 15.414734,10.3675048 C14.9544221,10.5463668 14.564049,10.7857201 14.1748706,11.1748706 C13.7857201,11.564049 13.5463668,11.9544221 13.3675048,12.414734 C13.1944502,12.8599856 13.0761073,13.3688406 13.0421244,14.113909 C13.0080581,14.8605334 13,15.0989141 13,17.0000139 C13,18.9010859 13.0080581,19.1394666 13.0421244,19.886091 C13.0761073,20.6311594 13.1944502,21.1400144 13.3675048,21.585266 C13.5463668,22.0455779 13.7857201,22.435951 14.1748706,22.8251294 C14.564049,23.2142799 14.9544221,23.4536332 15.414734,23.632523 C15.8599856,23.8055498 16.3688406,23.9238927 17.113909,23.9578756 C17.8605334,23.9919419 18.0989141,24 20.0000139,24 C21.9010859,24 22.1394666,23.9919419 22.886091,23.9578756 C23.6311594,23.9238927 24.1400144,23.8055498 24.585266,23.632523 C25.0455779,23.4536332 25.435951,23.2142799 25.8251294,22.8251294 C26.2142799,22.435951 26.4536332,22.0455779 26.632523,21.585266 C26.8055498,21.1400144 26.9238927,20.6311594 26.9578756,19.886091 C26.9919419,19.1394666 27,18.9010859 27,17.0000139 C27,15.0989141 26.9919419,14.8605334 26.9578756,14.113909 C26.9238927,13.3688406 26.8055498,12.8599856 26.632523,12.414734 C26.4536332,11.9544221 26.2142799,11.564049 25.8251294,11.1748706 C25.435951,10.7857201 25.0455779,10.5463668 24.585266,10.3675048 C24.1400144,10.1944502 23.6311594,10.0761073 22.886091,10.0421244 C22.1394666,10.0080581 21.9010859,10 20.0000139,10 L20.0000139,10 Z M20.0000139,11.261259 C21.8690758,11.261259 22.0904789,11.2684002 22.8286007,11.3020774 C23.5110938,11.3331984 23.8817385,11.4472343 24.1283996,11.5430979 C24.4551416,11.6700824 24.6883263,11.8217692 24.9332647,12.0667353 C25.1782308,12.3116737 25.3299176,12.5448584 25.4569021,12.8716004 C25.5527657,13.1182615 25.6668016,13.4889062 25.6979226,14.1713993 C25.7315998,14.9095211 25.738741,15.1309242 25.738741,17.0000139 C25.738741,18.8690758 25.7315998,19.0904789 25.6979226,19.8286007 C25.6668016,20.5110938 25.5527657,20.8817385 25.4569021,21.1283996 C25.3299176,21.4551416 25.1782308,21.6883263 24.9332647,21.9332647 C24.6883263,22.1782308 24.4551416,22.3299176 24.1283996,22.4569021 C23.8817385,22.5527657 23.5110938,22.6668016 22.8286007,22.6979226 C22.0905901,22.7315998 21.8692147,22.738741 20.0000139,22.738741 C18.1307853,22.738741 17.9094377,22.7315998 17.1713993,22.6979226 C16.4889062,22.6668016 16.1182615,22.5527657 15.8716004,22.4569021 C15.5448584,22.3299176 15.3116737,22.1782308 15.0667353,21.9332647 C14.821797,21.6883263 14.6700824,21.4551416 14.5430979,21.1283996 C14.4472343,20.8817385 14.3331984,20.5110938 14.3020774,19.8286007 C14.2684002,19.0904789 14.261259,18.8690758 14.261259,17.0000139 C14.261259,15.1309242 14.2684002,14.9095211 14.3020774,14.1713993 C14.3331984,13.4889062 14.4472343,13.1182615 14.5430979,12.8716004 C14.6700824,12.5448584 14.8217692,12.3116737 15.0667353,12.0667353 C15.3116737,11.8217692 15.5448584,11.6700824 15.8716004,11.5430979 C16.1182615,11.4472343 16.4889062,11.3331984 17.1713993,11.3020774 C17.9095211,11.2684002 18.1309242,11.261259 20.0000139,11.261259 Z M20.0000139,19.3333333 C18.7113296,19.3333333 17.6666667,18.2886704 17.6666667,17.0000139 C17.6666667,15.7113296 18.7113296,14.6666667 20.0000139,14.6666667 C21.2886704,14.6666667 22.3333333,15.7113296 22.3333333,17.0000139 C22.3333333,18.2886704 21.2886704,19.3333333 20.0000139,19.3333333 Z M20.0000139,13.4054077 C18.0147487,13.4054077 16.4054077,15.0147487 16.4054077,17.0000139 C16.4054077,18.9852513 18.0147487,20.5945923 20.0000139,20.5945923 C21.9852513,20.5945923 23.5945923,18.9852513 23.5945923,17.0000139 C23.5945923,15.0147487 21.9852513,13.4054077 20.0000139,13.4054077 Z M24.5766244,13.2633906 C24.5766244,12.7994665 24.2005335,12.4233756 23.7366094,12.4233756 C23.272713,12.4233756 22.8966221,12.7994665 22.8966221,13.2633906 C22.8966221,13.7273148 23.272713,14.1033779 23.7366094,14.1033779 C24.2005335,14.1033779 24.5766244,13.7273148 24.5766244,13.2633906 Z"/>
          </g>
          <g transform="translate(570)">
            <rect width="180" height="35" fill="#C8CCCC" rx="4"/>
            <text fill="#FFF" font-family="ProximaNova-Semibold, Proxima Nova" font-size="12" font-weight="500">
              <tspan x="38" y="20.002">ctxchicago</tspan>
            </text>
            <path fill="#FFF" d="M20.0000139,10 C18.0989141,10 17.8605334,10.0080581 17.113909,10.0421244 C16.3688406,10.0761073 15.8599856,10.1944502 15.414734,10.3675048 C14.9544221,10.5463668 14.564049,10.7857201 14.1748706,11.1748706 C13.7857201,11.564049 13.5463668,11.9544221 13.3675048,12.414734 C13.1944502,12.8599856 13.0761073,13.3688406 13.0421244,14.113909 C13.0080581,14.8605334 13,15.0989141 13,17.0000139 C13,18.9010859 13.0080581,19.1394666 13.0421244,19.886091 C13.0761073,20.6311594 13.1944502,21.1400144 13.3675048,21.585266 C13.5463668,22.0455779 13.7857201,22.435951 14.1748706,22.8251294 C14.564049,23.2142799 14.9544221,23.4536332 15.414734,23.632523 C15.8599856,23.8055498 16.3688406,23.9238927 17.113909,23.9578756 C17.8605334,23.9919419 18.0989141,24 20.0000139,24 C21.9010859,24 22.1394666,23.9919419 22.886091,23.9578756 C23.6311594,23.9238927 24.1400144,23.8055498 24.585266,23.632523 C25.0455779,23.4536332 25.435951,23.2142799 25.8251294,22.8251294 C26.2142799,22.435951 26.4536332,22.0455779 26.632523,21.585266 C26.8055498,21.1400144 26.9238927,20.6311594 26.9578756,19.886091 C26.9919419,19.1394666 27,18.9010859 27,17.0000139 C27,15.0989141 26.9919419,14.8605334 26.9578756,14.113909 C26.9238927,13.3688406 26.8055498,12.8599856 26.632523,12.414734 C26.4536332,11.9544221 26.2142799,11.564049 25.8251294,11.1748706 C25.435951,10.7857201 25.0455779,10.5463668 24.585266,10.3675048 C24.1400144,10.1944502 23.6311594,10.0761073 22.886091,10.0421244 C22.1394666,10.0080581 21.9010859,10 20.0000139,10 L20.0000139,10 Z M20.0000139,11.261259 C21.8690758,11.261259 22.0904789,11.2684002 22.8286007,11.3020774 C23.5110938,11.3331984 23.8817385,11.4472343 24.1283996,11.5430979 C24.4551416,11.6700824 24.6883263,11.8217692 24.9332647,12.0667353 C25.1782308,12.3116737 25.3299176,12.5448584 25.4569021,12.8716004 C25.5527657,13.1182615 25.6668016,13.4889062 25.6979226,14.1713993 C25.7315998,14.9095211 25.738741,15.1309242 25.738741,17.0000139 C25.738741,18.8690758 25.7315998,19.0904789 25.6979226,19.8286007 C25.6668016,20.5110938 25.5527657,20.8817385 25.4569021,21.1283996 C25.3299176,21.4551416 25.1782308,21.6883263 24.9332647,21.9332647 C24.6883263,22.1782308 24.4551416,22.3299176 24.1283996,22.4569021 C23.8817385,22.5527657 23.5110938,22.6668016 22.8286007,22.6979226 C22.0905901,22.7315998 21.8692147,22.738741 20.0000139,22.738741 C18.1307853,22.738741 17.9094377,22.7315998 17.1713993,22.6979226 C16.4889062,22.6668016 16.1182615,22.5527657 15.8716004,22.4569021 C15.5448584,22.3299176 15.3116737,22.1782308 15.0667353,21.9332647 C14.821797,21.6883263 14.6700824,21.4551416 14.5430979,21.1283996 C14.4472343,20.8817385 14.3331984,20.5110938 14.3020774,19.8286007 C14.2684002,19.0904789 14.261259,18.8690758 14.261259,17.0000139 C14.261259,15.1309242 14.2684002,14.9095211 14.3020774,14.1713993 C14.3331984,13.4889062 14.4472343,13.1182615 14.5430979,12.8716004 C14.6700824,12.5448584 14.8217692,12.3116737 15.0667353,12.0667353 C15.3116737,11.8217692 15.5448584,11.6700824 15.8716004,11.5430979 C16.1182615,11.4472343 16.4889062,11.3331984 17.1713993,11.3020774 C17.9095211,11.2684002 18.1309242,11.261259 20.0000139,11.261259 Z M20.0000139,19.3333333 C18.7113296,19.3333333 17.6666667,18.2886704 17.6666667,17.0000139 C17.6666667,15.7113296 18.7113296,14.6666667 20.0000139,14.6666667 C21.2886704,14.6666667 22.3333333,15.7113296 22.3333333,17.0000139 C22.3333333,18.2886704 21.2886704,19.3333333 20.0000139,19.3333333 Z M20.0000139,13.4054077 C18.0147487,13.4054077 16.4054077,15.0147487 16.4054077,17.0000139 C16.4054077,18.9852513 18.0147487,20.5945923 20.0000139,20.5945923 C21.9852513,20.5945923 23.5945923,18.9852513 23.5945923,17.0000139 C23.5945923,15.0147487 21.9852513,13.4054077 20.0000139,13.4054077 Z M24.5766244,13.2633906 C24.5766244,12.7994665 24.2005335,12.4233756 23.7366094,12.4233756 C23.272713,12.4233756 22.8966221,12.7994665 22.8966221,13.2633906 C22.8966221,13.7273148 23.272713,14.1033779 23.7366094,14.1033779 C24.2005335,14.1033779 24.5766244,13.7273148 24.5766244,13.2633906 Z"/>
          </g>
          <g transform="translate(380)">
            <rect width="180" height="35" fill="#C8CCCC" rx="4"/>
            <text fill="#FFF" font-family="ProximaNova-Semibold, Proxima Nova" font-size="12" font-weight="500">
              <tspan x="38" y="20.002">starbucks</tspan>
            </text>
            <path fill="#FFF" d="M20.0000139,10 C18.0989141,10 17.8605334,10.0080581 17.113909,10.0421244 C16.3688406,10.0761073 15.8599856,10.1944502 15.414734,10.3675048 C14.9544221,10.5463668 14.564049,10.7857201 14.1748706,11.1748706 C13.7857201,11.564049 13.5463668,11.9544221 13.3675048,12.414734 C13.1944502,12.8599856 13.0761073,13.3688406 13.0421244,14.113909 C13.0080581,14.8605334 13,15.0989141 13,17.0000139 C13,18.9010859 13.0080581,19.1394666 13.0421244,19.886091 C13.0761073,20.6311594 13.1944502,21.1400144 13.3675048,21.585266 C13.5463668,22.0455779 13.7857201,22.435951 14.1748706,22.8251294 C14.564049,23.2142799 14.9544221,23.4536332 15.414734,23.632523 C15.8599856,23.8055498 16.3688406,23.9238927 17.113909,23.9578756 C17.8605334,23.9919419 18.0989141,24 20.0000139,24 C21.9010859,24 22.1394666,23.9919419 22.886091,23.9578756 C23.6311594,23.9238927 24.1400144,23.8055498 24.585266,23.632523 C25.0455779,23.4536332 25.435951,23.2142799 25.8251294,22.8251294 C26.2142799,22.435951 26.4536332,22.0455779 26.632523,21.585266 C26.8055498,21.1400144 26.9238927,20.6311594 26.9578756,19.886091 C26.9919419,19.1394666 27,18.9010859 27,17.0000139 C27,15.0989141 26.9919419,14.8605334 26.9578756,14.113909 C26.9238927,13.3688406 26.8055498,12.8599856 26.632523,12.414734 C26.4536332,11.9544221 26.2142799,11.564049 25.8251294,11.1748706 C25.435951,10.7857201 25.0455779,10.5463668 24.585266,10.3675048 C24.1400144,10.1944502 23.6311594,10.0761073 22.886091,10.0421244 C22.1394666,10.0080581 21.9010859,10 20.0000139,10 L20.0000139,10 Z M20.0000139,11.261259 C21.8690758,11.261259 22.0904789,11.2684002 22.8286007,11.3020774 C23.5110938,11.3331984 23.8817385,11.4472343 24.1283996,11.5430979 C24.4551416,11.6700824 24.6883263,11.8217692 24.9332647,12.0667353 C25.1782308,12.3116737 25.3299176,12.5448584 25.4569021,12.8716004 C25.5527657,13.1182615 25.6668016,13.4889062 25.6979226,14.1713993 C25.7315998,14.9095211 25.738741,15.1309242 25.738741,17.0000139 C25.738741,18.8690758 25.7315998,19.0904789 25.6979226,19.8286007 C25.6668016,20.5110938 25.5527657,20.8817385 25.4569021,21.1283996 C25.3299176,21.4551416 25.1782308,21.6883263 24.9332647,21.9332647 C24.6883263,22.1782308 24.4551416,22.3299176 24.1283996,22.4569021 C23.8817385,22.5527657 23.5110938,22.6668016 22.8286007,22.6979226 C22.0905901,22.7315998 21.8692147,22.738741 20.0000139,22.738741 C18.1307853,22.738741 17.9094377,22.7315998 17.1713993,22.6979226 C16.4889062,22.6668016 16.1182615,22.5527657 15.8716004,22.4569021 C15.5448584,22.3299176 15.3116737,22.1782308 15.0667353,21.9332647 C14.821797,21.6883263 14.6700824,21.4551416 14.5430979,21.1283996 C14.4472343,20.8817385 14.3331984,20.5110938 14.3020774,19.8286007 C14.2684002,19.0904789 14.261259,18.8690758 14.261259,17.0000139 C14.261259,15.1309242 14.2684002,14.9095211 14.3020774,14.1713993 C14.3331984,13.4889062 14.4472343,13.1182615 14.5430979,12.8716004 C14.6700824,12.5448584 14.8217692,12.3116737 15.0667353,12.0667353 C15.3116737,11.8217692 15.5448584,11.6700824 15.8716004,11.5430979 C16.1182615,11.4472343 16.4889062,11.3331984 17.1713993,11.3020774 C17.9095211,11.2684002 18.1309242,11.261259 20.0000139,11.261259 Z M20.0000139,19.3333333 C18.7113296,19.3333333 17.6666667,18.2886704 17.6666667,17.0000139 C17.6666667,15.7113296 18.7113296,14.6666667 20.0000139,14.6666667 C21.2886704,14.6666667 22.3333333,15.7113296 22.3333333,17.0000139 C22.3333333,18.2886704 21.2886704,19.3333333 20.0000139,19.3333333 Z M20.0000139,13.4054077 C18.0147487,13.4054077 16.4054077,15.0147487 16.4054077,17.0000139 C16.4054077,18.9852513 18.0147487,20.5945923 20.0000139,20.5945923 C21.9852513,20.5945923 23.5945923,18.9852513 23.5945923,17.0000139 C23.5945923,15.0147487 21.9852513,13.4054077 20.0000139,13.4054077 Z M24.5766244,13.2633906 C24.5766244,12.7994665 24.2005335,12.4233756 23.7366094,12.4233756 C23.272713,12.4233756 22.8966221,12.7994665 22.8966221,13.2633906 C22.8966221,13.7273148 23.272713,14.1033779 23.7366094,14.1033779 C24.2005335,14.1033779 24.5766244,13.7273148 24.5766244,13.2633906 Z"/>
          </g>
          <g transform="translate(190)">
            <rect width="180" height="35" fill="#C8CCCC" rx="4"/>
            <text fill="#FFF" font-family="ProximaNova-Semibold, Proxima Nova" font-size="12" font-weight="500">
              <tspan x="38" y="20.002">chisproutcoffee (You)</tspan>
            </text>
            <path fill="#FFF" d="M20.0000139,10 C18.0989141,10 17.8605334,10.0080581 17.113909,10.0421244 C16.3688406,10.0761073 15.8599856,10.1944502 15.414734,10.3675048 C14.9544221,10.5463668 14.564049,10.7857201 14.1748706,11.1748706 C13.7857201,11.564049 13.5463668,11.9544221 13.3675048,12.414734 C13.1944502,12.8599856 13.0761073,13.3688406 13.0421244,14.113909 C13.0080581,14.8605334 13,15.0989141 13,17.0000139 C13,18.9010859 13.0080581,19.1394666 13.0421244,19.886091 C13.0761073,20.6311594 13.1944502,21.1400144 13.3675048,21.585266 C13.5463668,22.0455779 13.7857201,22.435951 14.1748706,22.8251294 C14.564049,23.2142799 14.9544221,23.4536332 15.414734,23.632523 C15.8599856,23.8055498 16.3688406,23.9238927 17.113909,23.9578756 C17.8605334,23.9919419 18.0989141,24 20.0000139,24 C21.9010859,24 22.1394666,23.9919419 22.886091,23.9578756 C23.6311594,23.9238927 24.1400144,23.8055498 24.585266,23.632523 C25.0455779,23.4536332 25.435951,23.2142799 25.8251294,22.8251294 C26.2142799,22.435951 26.4536332,22.0455779 26.632523,21.585266 C26.8055498,21.1400144 26.9238927,20.6311594 26.9578756,19.886091 C26.9919419,19.1394666 27,18.9010859 27,17.0000139 C27,15.0989141 26.9919419,14.8605334 26.9578756,14.113909 C26.9238927,13.3688406 26.8055498,12.8599856 26.632523,12.414734 C26.4536332,11.9544221 26.2142799,11.564049 25.8251294,11.1748706 C25.435951,10.7857201 25.0455779,10.5463668 24.585266,10.3675048 C24.1400144,10.1944502 23.6311594,10.0761073 22.886091,10.0421244 C22.1394666,10.0080581 21.9010859,10 20.0000139,10 L20.0000139,10 Z M20.0000139,11.261259 C21.8690758,11.261259 22.0904789,11.2684002 22.8286007,11.3020774 C23.5110938,11.3331984 23.8817385,11.4472343 24.1283996,11.5430979 C24.4551416,11.6700824 24.6883263,11.8217692 24.9332647,12.0667353 C25.1782308,12.3116737 25.3299176,12.5448584 25.4569021,12.8716004 C25.5527657,13.1182615 25.6668016,13.4889062 25.6979226,14.1713993 C25.7315998,14.9095211 25.738741,15.1309242 25.738741,17.0000139 C25.738741,18.8690758 25.7315998,19.0904789 25.6979226,19.8286007 C25.6668016,20.5110938 25.5527657,20.8817385 25.4569021,21.1283996 C25.3299176,21.4551416 25.1782308,21.6883263 24.9332647,21.9332647 C24.6883263,22.1782308 24.4551416,22.3299176 24.1283996,22.4569021 C23.8817385,22.5527657 23.5110938,22.6668016 22.8286007,22.6979226 C22.0905901,22.7315998 21.8692147,22.738741 20.0000139,22.738741 C18.1307853,22.738741 17.9094377,22.7315998 17.1713993,22.6979226 C16.4889062,22.6668016 16.1182615,22.5527657 15.8716004,22.4569021 C15.5448584,22.3299176 15.3116737,22.1782308 15.0667353,21.9332647 C14.821797,21.6883263 14.6700824,21.4551416 14.5430979,21.1283996 C14.4472343,20.8817385 14.3331984,20.5110938 14.3020774,19.8286007 C14.2684002,19.0904789 14.261259,18.8690758 14.261259,17.0000139 C14.261259,15.1309242 14.2684002,14.9095211 14.3020774,14.1713993 C14.3331984,13.4889062 14.4472343,13.1182615 14.5430979,12.8716004 C14.6700824,12.5448584 14.8217692,12.3116737 15.0667353,12.0667353 C15.3116737,11.8217692 15.5448584,11.6700824 15.8716004,11.5430979 C16.1182615,11.4472343 16.4889062,11.3331984 17.1713993,11.3020774 C17.9095211,11.2684002 18.1309242,11.261259 20.0000139,11.261259 Z M20.0000139,19.3333333 C18.7113296,19.3333333 17.6666667,18.2886704 17.6666667,17.0000139 C17.6666667,15.7113296 18.7113296,14.6666667 20.0000139,14.6666667 C21.2886704,14.6666667 22.3333333,15.7113296 22.3333333,17.0000139 C22.3333333,18.2886704 21.2886704,19.3333333 20.0000139,19.3333333 Z M20.0000139,13.4054077 C18.0147487,13.4054077 16.4054077,15.0147487 16.4054077,17.0000139 C16.4054077,18.9852513 18.0147487,20.5945923 20.0000139,20.5945923 C21.9852513,20.5945923 23.5945923,18.9852513 23.5945923,17.0000139 C23.5945923,15.0147487 21.9852513,13.4054077 20.0000139,13.4054077 Z M24.5766244,13.2633906 C24.5766244,12.7994665 24.2005335,12.4233756 23.7366094,12.4233756 C23.272713,12.4233756 22.8966221,12.7994665 22.8966221,13.2633906 C22.8966221,13.7273148 23.272713,14.1033779 23.7366094,14.1033779 C24.2005335,14.1033779 24.5766244,13.7273148 24.5766244,13.2633906 Z"/>
          </g>
          <rect width="180" height="35" fill="#C8CCCC" rx="4"/>
          <text fill="#FFF" font-family="ProximaNova-Semibold, Proxima Nova" font-size="12" font-weight="500">
            <tspan x="38" y="20.002">Competitor Average</tspan>
          </text>
          <path fill="#FFF" d="M20.0000139,10 C18.0989141,10 17.8605334,10.0080581 17.113909,10.0421244 C16.3688406,10.0761073 15.8599856,10.1944502 15.414734,10.3675048 C14.9544221,10.5463668 14.564049,10.7857201 14.1748706,11.1748706 C13.7857201,11.564049 13.5463668,11.9544221 13.3675048,12.414734 C13.1944502,12.8599856 13.0761073,13.3688406 13.0421244,14.113909 C13.0080581,14.8605334 13,15.0989141 13,17.0000139 C13,18.9010859 13.0080581,19.1394666 13.0421244,19.886091 C13.0761073,20.6311594 13.1944502,21.1400144 13.3675048,21.585266 C13.5463668,22.0455779 13.7857201,22.435951 14.1748706,22.8251294 C14.564049,23.2142799 14.9544221,23.4536332 15.414734,23.632523 C15.8599856,23.8055498 16.3688406,23.9238927 17.113909,23.9578756 C17.8605334,23.9919419 18.0989141,24 20.0000139,24 C21.9010859,24 22.1394666,23.9919419 22.886091,23.9578756 C23.6311594,23.9238927 24.1400144,23.8055498 24.585266,23.632523 C25.0455779,23.4536332 25.435951,23.2142799 25.8251294,22.8251294 C26.2142799,22.435951 26.4536332,22.0455779 26.632523,21.585266 C26.8055498,21.1400144 26.9238927,20.6311594 26.9578756,19.886091 C26.9919419,19.1394666 27,18.9010859 27,17.0000139 C27,15.0989141 26.9919419,14.8605334 26.9578756,14.113909 C26.9238927,13.3688406 26.8055498,12.8599856 26.632523,12.414734 C26.4536332,11.9544221 26.2142799,11.564049 25.8251294,11.1748706 C25.435951,10.7857201 25.0455779,10.5463668 24.585266,10.3675048 C24.1400144,10.1944502 23.6311594,10.0761073 22.886091,10.0421244 C22.1394666,10.0080581 21.9010859,10 20.0000139,10 L20.0000139,10 Z M20.0000139,11.261259 C21.8690758,11.261259 22.0904789,11.2684002 22.8286007,11.3020774 C23.5110938,11.3331984 23.8817385,11.4472343 24.1283996,11.5430979 C24.4551416,11.6700824 24.6883263,11.8217692 24.9332647,12.0667353 C25.1782308,12.3116737 25.3299176,12.5448584 25.4569021,12.8716004 C25.5527657,13.1182615 25.6668016,13.4889062 25.6979226,14.1713993 C25.7315998,14.9095211 25.738741,15.1309242 25.738741,17.0000139 C25.738741,18.8690758 25.7315998,19.0904789 25.6979226,19.8286007 C25.6668016,20.5110938 25.5527657,20.8817385 25.4569021,21.1283996 C25.3299176,21.4551416 25.1782308,21.6883263 24.9332647,21.9332647 C24.6883263,22.1782308 24.4551416,22.3299176 24.1283996,22.4569021 C23.8817385,22.5527657 23.5110938,22.6668016 22.8286007,22.6979226 C22.0905901,22.7315998 21.8692147,22.738741 20.0000139,22.738741 C18.1307853,22.738741 17.9094377,22.7315998 17.1713993,22.6979226 C16.4889062,22.6668016 16.1182615,22.5527657 15.8716004,22.4569021 C15.5448584,22.3299176 15.3116737,22.1782308 15.0667353,21.9332647 C14.821797,21.6883263 14.6700824,21.4551416 14.5430979,21.1283996 C14.4472343,20.8817385 14.3331984,20.5110938 14.3020774,19.8286007 C14.2684002,19.0904789 14.261259,18.8690758 14.261259,17.0000139 C14.261259,15.1309242 14.2684002,14.9095211 14.3020774,14.1713993 C14.3331984,13.4889062 14.4472343,13.1182615 14.5430979,12.8716004 C14.6700824,12.5448584 14.8217692,12.3116737 15.0667353,12.0667353 C15.3116737,11.8217692 15.5448584,11.6700824 15.8716004,11.5430979 C16.1182615,11.4472343 16.4889062,11.3331984 17.1713993,11.3020774 C17.9095211,11.2684002 18.1309242,11.261259 20.0000139,11.261259 Z M20.0000139,19.3333333 C18.7113296,19.3333333 17.6666667,18.2886704 17.6666667,17.0000139 C17.6666667,15.7113296 18.7113296,14.6666667 20.0000139,14.6666667 C21.2886704,14.6666667 22.3333333,15.7113296 22.3333333,17.0000139 C22.3333333,18.2886704 21.2886704,19.3333333 20.0000139,19.3333333 Z M20.0000139,13.4054077 C18.0147487,13.4054077 16.4054077,15.0147487 16.4054077,17.0000139 C16.4054077,18.9852513 18.0147487,20.5945923 20.0000139,20.5945923 C21.9852513,20.5945923 23.5945923,18.9852513 23.5945923,17.0000139 C23.5945923,15.0147487 21.9852513,13.4054077 20.0000139,13.4054077 Z M24.5766244,13.2633906 C24.5766244,12.7994665 24.2005335,12.4233756 23.7366094,12.4233756 C23.272713,12.4233756 22.8966221,12.7994665 22.8966221,13.2633906 C22.8966221,13.7273148 23.272713,14.1033779 23.7366094,14.1033779 C24.2005335,14.1033779 24.5766244,13.7273148 24.5766244,13.2633906 Z"/>
        </g>
        <g fill="#929A9B" font-family="ProximaNova-Semibold, Proxima Nova" font-size="11" font-weight="500" letter-spacing=".926" transform="translate(19 258)">
          <text>
            <tspan x=".601" y="32">APR</tspan>
          </text>
          <text>
            <tspan x="10" y="11">1</tspan>
          </text>
          <text>
            <tspan x="29" y="11">2</tspan>
          </text>
          <text>
            <tspan x="50" y="11">3</tspan>
          </text>
          <text>
            <tspan x="72" y="11">4</tspan>
          </text>
          <text>
            <tspan x="93" y="11">5</tspan>
          </text>
          <text>
            <tspan x="114" y="11">6</tspan>
          </text>
          <text>
            <tspan x="135" y="11">7</tspan>
          </text>
          <text>
            <tspan x="156" y="11">8</tspan>
          </text>
          <text>
            <tspan x="177" y="11">9</tspan>
          </text>
          <text>
            <tspan x="198" y="11">10</tspan>
          </text>
          <text>
            <tspan x="223" y="11">11</tspan>
          </text>
          <text>
            <tspan x="247" y="11">12</tspan>
          </text>
          <text>
            <tspan x="272" y="11">13</tspan>
          </text>
          <text>
            <tspan x="297" y="11">14</tspan>
          </text>
          <text>
            <tspan x="322" y="11">15</tspan>
          </text>
          <text>
            <tspan x="347" y="11">16</tspan>
          </text>
          <text>
            <tspan x="372" y="11">17</tspan>
          </text>
          <text>
            <tspan x="396" y="11">18</tspan>
          </text>
          <text>
            <tspan x="422" y="11">19</tspan>
          </text>
          <text>
            <tspan x="448" y="11">20</tspan>
          </text>
          <text>
            <tspan x="476" y="11">21</tspan>
          </text>
          <text>
            <tspan x="501" y="11">22</tspan>
          </text>
          <text>
            <tspan x="529" y="11">23</tspan>
          </text>
          <text>
            <tspan x="557" y="11">24</tspan>
          </text>
          <text>
            <tspan x="585" y="11">25</tspan>
          </text>
          <text>
            <tspan x="613" y="11">26</tspan>
          </text>
          <text>
            <tspan x="642" y="11">27</tspan>
          </text>
          <text>
            <tspan x="669" y="11">28</tspan>
          </text>
          <text>
            <tspan x="697" y="11">29</tspan>
          </text>
          <text>
            <tspan x="726" y="11">30</tspan>
          </text>
        </g>
        <rect width="730" height="2" x="30" y="244" fill="#B0B6B7"/>
        <rect width="730" height="1" x="30" y="194" fill="#C8CCCC"/>
        <rect width="730" height="1" x="30" y="144" fill="#C8CCCC"/>
        <rect width="730" height="1" x="30" y="94" fill="#C8CCCC"/>
        <rect width="730" height="1" x="30" y="44" fill="#C8CCCC"/>
        <g fill="#929A9B" font-family="ProximaNova-Semibold, Proxima Nova" font-size="11" font-weight="500" letter-spacing=".926" transform="translate(0 38)">
          <text>
            <tspan x="0" y="211">0</tspan>
          </text>
          <text>
            <tspan x="0" y="161">20</tspan>
          </text>
          <text>
            <tspan x="0" y="111">40</tspan>
          </text>
          <text>
            <tspan x="0" y="61">60</tspan>
          </text>
          <text>
            <tspan x="0" y="11">80</tspan>
          </text>
        </g>
        <text fill="#929A9B" font-family="ProximaNova-Semibold, Proxima Nova" font-size="13" font-weight="500">
          <tspan x="0" y="13">Audience Growth, by Day</tspan>
        </text>
      </g>
    </g>
    <rect width="760" height="270" x="70" y="104" fill="#FFF" fill-opacity=".8" rx="3"/>
    <text font-family="ProximaNova-Bold, Proxima Nova" font-size="18" font-weight="bold">
      <tspan x="391.743" y="201" fill="#364141">Select Profiles</tspan> <tspan x="295.752" y="225" fill="#515E5F" font-family="ProximaNova-Regular, Proxima Nova" font-size="16" font-weight="normal">You have no profiles selected, please select </tspan> <tspan x="345.72" y="249" fill="#515E5F" font-family="ProximaNova-Regular, Proxima Nova" font-size="16" font-weight="normal">profiles below to display data.</tspan>
    </text>
    <g transform="translate(428 132)">
      <path fill="#816FEA" d="M11.9143439,25.9577348 L11.9143439,10.8164469 C11.9143439,9.26116053 13.2082859,8 14.8044225,8 C16.4390202,8 17.7573439,9.300645 17.7357095,10.8930735 C17.6948446,13.9276887 17.6948446,18.2616105 17.6948446,18.2616105 L25.562548,20.0089654 C28.1586738,20.5851708 30,22.8347814 30,25.4290445 L30,35.6638859 C30,36.40171 29.3863391,37 28.6291357,37 L15.3027001,37 C14.8737899,37 14.4716651,36.80492 14.2113658,36.4723136 C13.5259336,35.5959592 11.9256762,33.7237934 9.281474,31.5906285 C7.48479013,30.1407456 5.68776285,28.9990423 4.32342321,28.2126992 C3.04047004,27.473202 2.61980152,25.8596928 3.37460105,24.6075669 C4.09162626,23.4176792 5.62801075,22.9662847 6.90066183,23.5719363 L11.9143439,25.9577348 Z"/>
      <path stroke="#172121" stroke-width="2" d="M8.91434388,22.9577348 L8.91434388,7.81644686 C8.91434388,6.26116053 10.2082859,5 11.8044225,5 C13.4390202,5 14.7573439,6.300645 14.7357095,7.89307349 C14.6948446,10.9276887 14.6948446,15.2616105 14.6948446,15.2616105 L22.562548,17.0089654 C25.1586738,17.5851708 27,19.8347814 27,22.4290445 L27,32.6638859 C27,33.40171 26.3863391,34 25.6291357,34 L12.3027001,34 C11.8737899,34 11.4716651,33.80492 11.2113658,33.4723136 C10.5259336,32.5959592 8.92567618,30.7237934 6.281474,28.5906285 C4.48479013,27.1407456 2.68776285,25.9990423 1.32342321,25.2126992 C0.0404700442,24.473202 -0.380198485,22.8596928 0.374601047,21.6075669 C1.09162626,20.4176792 2.62801075,19.9662847 3.90066183,20.5719363 L8.91434388,22.9577348 Z"/>
      <path stroke="#816FEA" stroke-linecap="round" stroke-linejoin="round" stroke-width="2" d="M47.0430108,14 L47.0430108,22 M43,17.9569892 L51,17.9569892"/>
      <circle cx="36.5" cy="2.5" r="2.5" fill="#816FEA" fill-rule="nonzero"/>
    </g>
  </g>
</svg>
