<?xml version="1.0" encoding="UTF-8"?>
<svg width="900px" height="450px" viewBox="0 0 900 450" version="1.1" xmlns="http://www.w3.org/2000/svg" xmlns:xlink="http://www.w3.org/1999/xlink" style="background: #F3F4F4;">
    <!-- Generator: Sketch 49 (51002) - http://www.bohemiancoding.com/sketch -->
    <title>Word Cloud Loading</title>
    <desc>Created with Sketch.</desc>
    <defs></defs>
    <g id="Word-Cloud-Loading" stroke="none" stroke-width="1" fill="none" fill-rule="evenodd">
        <g id="Table---Data-States" transform="translate(30.000000, 30.000000)">
            <rect id="content-area" fill="#FFFFFF" x="0" y="0" width="840" height="390"></rect>
            <g id="word-cloud" opacity="0.3" transform="translate(440.000000, 290.000000)">
                <rect id="Rectangle" stroke="#C8CCCC" x="0.5" y="0.5" width="359" height="59" rx="3"></rect>
                <rect id="Rectangle-5" fill="#C8CCCC" x="280" y="40" width="60" height="5" rx="2.5"></rect>
                <g id="gathering" transform="translate(249.000000, 9.000000)" fill="#C8CCCC">
                    <rect id="Rectangle" x="50" y="10" width="40" height="10" rx="5"></rect>
                </g>
                <text id="Related-Topic-Relate" font-family="ProximaNova-Regular, Proxima Nova" font-size="13" font-weight="normal" fill="#6E797A">
                    <tspan x="20" y="44">Related Topic  Related Topic</tspan>
                </text>
                <text id="#hashtagfour" font-family="ProximaNova-Semibold, Proxima Nova" font-size="13" font-weight="500" line-spacing="20" fill="#364141">
                    <tspan x="20" y="25">#hashtagfour</tspan>
                </text>
            </g>
            <g id="word-cloud" opacity="0.3" transform="translate(440.000000, 220.000000)">
                <rect id="Rectangle" stroke="#C8CCCC" x="0.5" y="0.5" width="359" height="59" rx="3"></rect>
                <rect id="Rectangle-5" fill="#C8CCCC" x="280" y="40" width="60" height="5" rx="2.5"></rect>
                <g id="gathering" transform="translate(249.000000, 9.000000)" fill="#C8CCCC">
                    <rect id="Rectangle" x="50" y="10" width="40" height="10" rx="5"></rect>
                </g>
                <text id="Related-Topic-Relate" font-family="ProximaNova-Regular, Proxima Nova" font-size="13" font-weight="normal" fill="#6E797A">
                    <tspan x="20" y="44">Related Topic  Related Topic</tspan>
                </text>
                <text id="#hashtagthree" font-family="ProximaNova-Semibold, Proxima Nova" font-size="13" font-weight="500" line-spacing="20" fill="#364141">
                    <tspan x="20" y="25">#hashtagthree</tspan>
                </text>
            </g>
            <g id="word-cloud" opacity="0.3" transform="translate(440.000000, 150.000000)">
                <rect id="Rectangle" stroke="#C8CCCC" x="0.5" y="0.5" width="359" height="59" rx="3"></rect>
                <rect id="Rectangle-5" fill="#C8CCCC" x="280" y="40" width="60" height="5" rx="2.5"></rect>
                <g id="gathering" transform="translate(249.000000, 9.000000)" fill="#C8CCCC">
                    <rect id="Rectangle" x="50" y="10" width="40" height="10" rx="5"></rect>
                </g>
                <text id="Related-Topic-Relate" font-family="ProximaNova-Regular, Proxima Nova" font-size="13" font-weight="normal" fill="#6E797A">
                    <tspan x="20" y="44">Related Topic  Related Topic</tspan>
                </text>
                <text id="#hashtagtwo" font-family="ProximaNova-Semibold, Proxima Nova" font-size="13" font-weight="500" line-spacing="20" fill="#364141">
                    <tspan x="20" y="25">#hashtagtwo</tspan>
                </text>
            </g>
            <g id="word-cloud" opacity="0.3" transform="translate(440.000000, 80.000000)">
                <rect id="Rectangle" stroke="#C8CCCC" x="0.5" y="0.5" width="359" height="59" rx="3"></rect>
                <rect id="Rectangle-5" fill="#C8CCCC" x="280" y="40" width="60" height="5" rx="2.5"></rect>
                <g id="gathering" transform="translate(249.000000, 9.000000)" fill="#C8CCCC">
                    <rect id="Rectangle" x="50" y="10" width="40" height="10" rx="5"></rect>
                </g>
                <text id="Related-Topic-Relate" font-family="ProximaNova-Regular, Proxima Nova" font-size="13" font-weight="normal" fill="#6E797A">
                    <tspan x="20" y="44">Related Topic  Related Topic</tspan>
                </text>
                <text id="#hashtagone" font-family="ProximaNova-Semibold, Proxima Nova" font-size="13" font-weight="500" line-spacing="20" fill="#364141">
                    <tspan x="20" y="25">#hashtagone</tspan>
                </text>
            </g>
            <g id="leaf-loader" transform="translate(586.000000, 169.000000)" stroke="#6E797A" stroke-linecap="round" stroke-linejoin="round" stroke-width="2">
                <path d="M10.2,68.4184777 L39.3278,68.4184777 C55.1633,68.4184777 68,55.5033497 68,39.5703967 L68,0 L28.6716333,0 C12.8367,0 0,12.9162683 0,28.8486511 L0,82.838242 C0,84.7779058 2.34656667,85.7323436 3.68616667,84.337747 L18.9805,68.4184777" id="Stroke-1"></path>
                <path d="M0,69 L68,0" id="Stroke-3"></path>
                <polyline id="Stroke-5" points="29 0 29.0207484 39.9798277 68 40"></polyline>
            </g>
            <text id="Hashtags-Frequently" font-family="ProximaNova-Semibold, Proxima Nova" font-size="13" font-weight="500" fill="#929A9B">
                <tspan x="440" y="48">Hashtags Frequently Mentioned</tspan>
            </text>
            <g id="word-cloud" opacity="0.3" transform="translate(40.000000, 290.000000)">
                <rect id="Rectangle" stroke="#C8CCCC" x="0.5" y="0.5" width="359" height="59" rx="3"></rect>
                <rect id="Rectangle-5" fill="#C8CCCC" x="280" y="40" width="60" height="5" rx="2.5"></rect>
                <g id="gathering" transform="translate(249.000000, 9.000000)" fill="#C8CCCC">
                    <rect id="Rectangle" x="50" y="10" width="40" height="10" rx="5"></rect>
                </g>
                <text id="Related-Topic-Relate" font-family="ProximaNova-Regular, Proxima Nova" font-size="13" font-weight="normal" fill="#6E797A">
                    <tspan x="20" y="44">Related Topic  Related Topic</tspan>
                </text>
                <text id="Topic-Four" font-family="ProximaNova-Semibold, Proxima Nova" font-size="13" font-weight="500" line-spacing="20" fill="#364141">
                    <tspan x="20" y="25">Topic Four</tspan>
                </text>
            </g>
            <g id="word-cloud" opacity="0.3" transform="translate(40.000000, 220.000000)">
                <rect id="Rectangle" stroke="#C8CCCC" x="0.5" y="0.5" width="359" height="59" rx="3"></rect>
                <rect id="Rectangle-5" fill="#C8CCCC" x="280" y="40" width="60" height="5" rx="2.5"></rect>
                <g id="gathering" transform="translate(249.000000, 9.000000)" fill="#C8CCCC">
                    <rect id="Rectangle" x="50" y="11" width="40" height="10" rx="5"></rect>
                </g>
                <text id="Related-Topic-Relate" font-family="ProximaNova-Regular, Proxima Nova" font-size="13" font-weight="normal" fill="#6E797A">
                    <tspan x="20" y="44">Related Topic  Related Topic</tspan>
                </text>
                <text id="Topic-Three" font-family="ProximaNova-Semibold, Proxima Nova" font-size="13" font-weight="500" line-spacing="20" fill="#364141">
                    <tspan x="20" y="25">Topic Three</tspan>
                </text>
            </g>
            <g id="word-cloud" opacity="0.3" transform="translate(40.000000, 150.000000)">
                <rect id="Rectangle" stroke="#C8CCCC" x="0.5" y="0.5" width="359" height="59" rx="3"></rect>
                <rect id="Rectangle-5" fill="#C8CCCC" x="280" y="40" width="60" height="5" rx="2.5"></rect>
                <g id="gathering" transform="translate(249.000000, 9.000000)" fill="#C8CCCC">
                    <rect id="Rectangle" x="50" y="11" width="40" height="10" rx="5"></rect>
                </g>
                <text id="Related-Topic-Relate" font-family="ProximaNova-Regular, Proxima Nova" font-size="13" font-weight="normal" fill="#6E797A">
                    <tspan x="20" y="44">Related Topic  Related Topic</tspan>
                </text>
                <text id="Topic-Two" font-family="ProximaNova-Semibold, Proxima Nova" font-size="13" font-weight="500" line-spacing="20" fill="#364141">
                    <tspan x="20" y="25">Topic Two</tspan>
                </text>
            </g>
            <g id="word-cloud" opacity="0.3" transform="translate(40.000000, 80.000000)">
                <rect id="Rectangle" stroke="#C8CCCC" x="0.5" y="0.5" width="359" height="59" rx="3"></rect>
                <rect id="Rectangle-5" fill="#C8CCCC" x="280" y="40" width="60" height="5" rx="2.5"></rect>
                <g id="gathering" transform="translate(249.000000, 9.000000)" fill="#C8CCCC">
                    <rect id="Rectangle" x="50" y="10" width="40" height="10" rx="5"></rect>
                </g>
                <text id="Related-Topic-Relate" font-family="ProximaNova-Regular, Proxima Nova" font-size="13" font-weight="normal" fill="#6E797A">
                    <tspan x="20" y="44">Related Topic  Related Topic</tspan>
                </text>
                <text id="Topic-One" font-family="ProximaNova-Semibold, Proxima Nova" font-size="13" font-weight="500" line-spacing="20" fill="#364141">
                    <tspan x="20" y="25">Topic One</tspan>
                </text>
            </g>
            <g id="leaf-loader" transform="translate(186.000000, 169.000000)" stroke="#6E797A" stroke-linecap="round" stroke-linejoin="round" stroke-width="2">
                <path d="M10.2,68.4184777 L39.3278,68.4184777 C55.1633,68.4184777 68,55.5033497 68,39.5703967 L68,0 L28.6716333,0 C12.8367,0 0,12.9162683 0,28.8486511 L0,82.838242 C0,84.7779058 2.34656667,85.7323436 3.68616667,84.337747 L18.9805,68.4184777" id="Stroke-1"></path>
                <path d="M0,69 L68,0" id="Stroke-3"></path>
                <polyline id="Stroke-5" points="29 0 29.0207484 39.9798277 68 40"></polyline>
            </g>
            <text id="Topics-Frequently-Me" font-family="ProximaNova-Semibold, Proxima Nova" font-size="13" font-weight="500" fill="#929A9B">
                <tspan x="40" y="48">Topics Frequently Mentioned</tspan>
            </text>
        </g>
    </g>
</svg>