<svg xmlns="http://www.w3.org/2000/svg" xmlns:xlink="http://www.w3.org/1999/xlink" width="900" height="480" style="background:#f3f4f4" viewBox="0 0 900 480">
  <defs>
    <path id="donut-chart-partial-missing-data-a" d="M15.6517887,16.5718735 C25.6388077,6.34724437 39.5781647,0 55,0 C55.0319074,0 55.0638084,2.71703857e-05 55.0957031,8.14892825e-05 L55.0957031,24.6501371 C55.0638136,24.6500493 55.0319126,24.65 55,24.65 C46.4608019,24.65 38.7452759,28.17656 33.2303886,33.8527134 L15.6517887,16.5718735 Z"/>
    <rect id="donut-chart-partial-missing-data-b" width="100" height="30" rx="3"/>
  </defs>
  <g fill="none" fill-rule="evenodd" transform="translate(30 30)">
    <rect width="840" height="420" fill="#FFF"/>
    <g transform="translate(40 40)">
      <g transform="translate(540 237)">
        <path fill="#6E797A" fill-rule="nonzero" d="M10.981028,12.8081123 L8.9761859,12.8081123 L8.9761859,5.81903276 L10.981028,5.81903276 L10.981028,12.8081123 Z M10.981028,15.8034321 L8.9761859,15.8034321 L8.9761859,13.8065523 L10.981028,13.8065523 L10.981028,15.8034321 Z M18.9001541,16.5023401 L10.8807859,2.52418097 C10.4798175,1.82527301 9.57763852,1.82527301 9.17667011,2.52418097 L1.15730185,16.5023401 C0.756333438,17.201248 1.15730185,18 1.95923868,18 L17.9979752,18 C18.799912,18 19.2008804,17.201248 18.9001541,16.5023401 Z" transform="translate(0 60)"/>
        <text fill="#364141" font-family="ProximaNova-Regular, Proxima Nova" font-size="13">
          <tspan x="0" y="94">Existing Contacts</tspan>
        </text>
        <path fill="#6E797A" fill-rule="nonzero" d="M10.981028,12.8081123 L8.9761859,12.8081123 L8.9761859,5.81903276 L10.981028,5.81903276 L10.981028,12.8081123 Z M10.981028,15.8034321 L8.9761859,15.8034321 L8.9761859,13.8065523 L10.981028,13.8065523 L10.981028,15.8034321 Z M18.9001541,16.5023401 L10.8807859,2.52418097 C10.4798175,1.82527301 9.57763852,1.82527301 9.17667011,2.52418097 L1.15730185,16.5023401 C0.756333438,17.201248 1.15730185,18 1.95923868,18 L17.9979752,18 C18.799912,18 19.2008804,17.201248 18.9001541,16.5023401 Z"/>
        <text fill="#364141" font-family="ProximaNova-Regular, Proxima Nova" font-size="13">
          <tspan x="0" y="34">New Contacts</tspan>
        </text>
      </g>
      <path fill="#C8CCCC" d="M55,110 C24.6243388,110 0,85.3756612 0,55 C0,24.6243388 24.6243388,0 55,0 C85.3756612,0 110,24.6243388 110,55 C110,85.3756612 85.3756612,110 55,110 Z M55,85.35 C71.7618422,85.35 85.35,71.7618422 85.35,55 C85.35,38.2381578 71.7618422,24.65 55,24.65 C38.2381578,24.65 24.65,38.2381578 24.65,55 C24.65,71.7618422 38.2381578,85.35 55,85.35 Z" opacity=".2" transform="translate(400 230)"/>
      <text fill="#364141" font-family="ProximaNova-Bold, Proxima Nova" font-size="16" font-weight="bold">
        <tspan x="438.364" y="277.67">Data </tspan> <tspan x="412.684" y="299">Unavailable</tspan>
      </text>
      <g transform="translate(540 85)">
        <text fill="#067C7C" font-family="ProximaNova-Semibold, Proxima Nova" font-size="28" font-weight="500">
          <tspan x="0" y="88">11%</tspan>
        </text>
        <text fill="#515E5F" font-family="ProximaNova-Regular, Proxima Nova" font-size="13">
          <tspan x="0" y="106">Updates</tspan>
        </text>
        <text fill="#08C4B2" font-family="ProximaNova-Semibold, Proxima Nova" font-size="28" font-weight="500">
          <tspan x="0" y="28">89%</tspan>
        </text>
        <text fill="#515E5F" font-family="ProximaNova-Regular, Proxima Nova" font-size="13">
          <tspan x="0" y="46">Conversation</tspan>
        </text>
      </g>
      <g transform="translate(400 90)">
        <path fill="#08C4B2" d="M55,110 C24.6243388,110 0,85.3756612 0,55 C0,24.6243388 24.6243388,0 55,0 C85.3756612,0 110,24.6243388 110,55 C110,85.3756612 85.3756612,110 55,110 Z M55,85.35 C71.7618422,85.35 85.35,71.7618422 85.35,55 C85.35,38.2381578 71.7618422,24.65 55,24.65 C38.2381578,24.65 24.65,38.2381578 24.65,55 C24.65,71.7618422 38.2381578,85.35 55,85.35 Z"/>
        <use fill="#067C7C" xlink:href="#donut-chart-partial-missing-data-a"/>
        <path stroke="#FFF" d="M15.2941036,16.2225006 C25.6706256,5.59910147 39.8512014,-0.5 55,-0.5 C55.0482837,-0.499986294 55.0482837,-0.499986294 55.0965547,-0.499917786 L55.5957031,-0.4990677 L55.5957031,25.1515166 L55.0943255,25.1501352 C55.047119,25.1500242 55.047119,25.1500242 55,25.15 C46.8238787,25.15 39.1743789,28.4524291 33.5889996,34.2011358 L33.2385267,34.5618572 L14.9458519,16.5790379 L15.2941036,16.2225006 Z"/>
      </g>
      <text fill="#929A9B" font-family="ProximaNova-Semibold, Proxima Nova" font-size="13" font-weight="500">
        <tspan x="400" y="68">Your Tweeting Behavior</tspan>
      </text>
      <g transform="translate(280 97)">
        <path fill="#6E797A" fill-rule="nonzero" d="M10.981028,12.8081123 L8.9761859,12.8081123 L8.9761859,5.81903276 L10.981028,5.81903276 L10.981028,12.8081123 Z M10.981028,15.8034321 L8.9761859,15.8034321 L8.9761859,13.8065523 L10.981028,13.8065523 L10.981028,15.8034321 Z M18.9001541,16.5023401 L10.8807859,2.52418097 C10.4798175,1.82527301 9.57763852,1.82527301 9.17667011,2.52418097 L1.15730185,16.5023401 C0.756333438,17.201248 1.15730185,18 1.95923868,18 L17.9979752,18 C18.799912,18 19.2008804,17.201248 18.9001541,16.5023401 Z" transform="translate(0 120)"/>
        <text fill="#364141" font-family="ProximaNova-Regular, Proxima Nova" font-size="13">
          <tspan x="0" y="154">Photo Links</tspan>
        </text>
        <path fill="#6E797A" fill-rule="nonzero" d="M10.981028,12.8081123 L8.9761859,12.8081123 L8.9761859,5.81903276 L10.981028,5.81903276 L10.981028,12.8081123 Z M10.981028,15.8034321 L8.9761859,15.8034321 L8.9761859,13.8065523 L10.981028,13.8065523 L10.981028,15.8034321 Z M18.9001541,16.5023401 L10.8807859,2.52418097 C10.4798175,1.82527301 9.57763852,1.82527301 9.17667011,2.52418097 L1.15730185,16.5023401 C0.756333438,17.201248 1.15730185,18 1.95923868,18 L17.9979752,18 C18.799912,18 19.2008804,17.201248 18.9001541,16.5023401 Z" transform="translate(0 60)"/>
        <text fill="#364141" font-family="ProximaNova-Regular, Proxima Nova" font-size="13">
          <tspan x="0" y="94">Page Links</tspan>
        </text>
        <path fill="#6E797A" fill-rule="nonzero" d="M10.981028,12.8081123 L8.9761859,12.8081123 L8.9761859,5.81903276 L10.981028,5.81903276 L10.981028,12.8081123 Z M10.981028,15.8034321 L8.9761859,15.8034321 L8.9761859,13.8065523 L10.981028,13.8065523 L10.981028,15.8034321 Z M18.9001541,16.5023401 L10.8807859,2.52418097 C10.4798175,1.82527301 9.57763852,1.82527301 9.17667011,2.52418097 L1.15730185,16.5023401 C0.756333438,17.201248 1.15730185,18 1.95923868,18 L17.9979752,18 C18.799912,18 19.2008804,17.201248 18.9001541,16.5023401 Z"/>
        <text fill="#364141" font-family="ProximaNova-Regular, Proxima Nova" font-size="13">
          <tspan x="0" y="34">Plain Text</tspan>
        </text>
      </g>
      <path fill="#C8CCCC" d="M125,250 C55.9644063,250 0,194.035594 0,125 C0,55.9644063 55.9644063,0 125,0 C194.035594,0 250,55.9644063 250,125 C250,194.035594 194.035594,250 125,250 Z M125,210 C171.944204,210 210,171.944204 210,125 C210,78.0557963 171.944204,40 125,40 C78.0557963,40 40,78.0557963 40,125 C40,171.944204 78.0557963,210 125,210 Z" opacity=".2" transform="matrix(-1 0 0 1 250 90)"/>
      <g transform="translate(75 272)">
        <use fill="#FFF" xlink:href="#donut-chart-partial-missing-data-b"/>
        <rect width="99" height="29" x=".5" y=".5" stroke="#364141" rx="3"/>
        <text fill="#364141" font-family="ProximaNova-Semibold, Proxima Nova" font-size="13" font-weight="500">
          <tspan x="17.845" y="19">Contact Us</tspan>
        </text>
      </g>
      <text font-family="ProximaNova-Bold, Proxima Nova" font-size="18" font-weight="bold">
        <tspan x="52.154" y="207.638" fill="#364141">Data Unavailable</tspan> <tspan x="26.208" y="229" fill="#515E5F" font-family="ProximaNova-Regular, Proxima Nova" font-size="16" font-weight="normal">We are unable to retrieve all </tspan> <tspan x="41.096" y="250.33" fill="#515E5F" font-family="ProximaNova-Regular, Proxima Nova" font-size="16" font-weight="normal">of your data at this time.</tspan>
      </text>
      <g transform="translate(105 137)">
        <path fill="#ED4C42" d="M38.8514902,32.9896565 L24.68288,8.45066567 C24.164805,7.55306379 23.2074025,7.00005577 22.1706605,7.00005577 C21.1339185,7.00005577 20.1765159,7.55306379 19.6578489,8.45066567 L5.38858411,33.1666901 C4.87050914,34.064292 4.87050914,35.1697159 5.38858411,36.0679099 C5.90665907,36.9655118 6.8646537,37.5179277 7.90139572,37.5179277 L36.4405174,37.5179277 L36.4488065,37.5179277 C38.0515825,37.5179277 39.3500264,36.2194838 39.3500264,34.6167079 C39.3500264,34.0139647 39.1658877,33.4532596 38.8514902,32.9896565"/>
        <path fill="#172121" fill-rule="nonzero" d="M34.3546865,31.0124981 C34.3546865,33.0744559 32.6839521,34.7451904 30.6219942,34.7451904 L3.73285962,34.7451904 C2.39893809,34.7451904 1.16647469,34.0341376 0.499780347,32.879042 C-0.166580045,31.7237635 -0.166580045,30.3015864 0.499979886,29.1467238 L13.940555,5.86608626 C14.6078281,4.71130766 15.8396979,4.00005577 17.1732442,4.00005577 C18.5069781,4.00005577 19.7389779,4.71150411 20.4055426,5.866375 L33.7344433,28.9510509 C34.136208,29.5569759 34.3546865,30.2701552 34.3546865,31.0124981 Z M18.6734422,6.86628923 C18.3640178,6.33018937 17.7923326,6.00005577 17.1732442,6.00005577 C16.5541223,6.00005577 15.9822303,6.3302524 15.6724317,6.86638777 L2.23210392,30.1465969 C1.92264543,30.6827559 1.92264543,31.3430019 2.23210392,31.8795146 C2.54128079,32.4151856 3.11327602,32.7451904 3.73285962,32.7451904 L30.6219942,32.7451904 C31.5793826,32.7451904 32.3546865,31.9698864 32.3546865,31.0124981 C32.3546865,30.6603297 32.2501602,30.3253559 32.057476,30.0412284 L18.6734422,6.86628923 Z"/>
        <path fill="#FFF" d="M19.7755571,29.3656 C19.7755571,29.5314571 19.6409857,29.6656 19.4751286,29.6656 L17.3001286,29.6656 C17.1342714,29.6656 17.0001286,29.5314571 17.0001286,29.3656 L17.0001286,27.4156 C17.0001286,27.2497429 17.1342714,27.1156 17.3001286,27.1156 L19.4751286,27.1156 C19.6409857,27.1156 19.7755571,27.2497429 19.7755571,27.4156 L19.7755571,29.3656 Z M19.7755571,24.9785714 C19.7755571,25.1444286 19.6409857,25.2781429 19.4751286,25.2781429 L17.3001286,25.2781429 C17.1342714,25.2781429 17.0001286,25.144 17.0001286,24.9785714 L17.0001286,16.7285714 C17.0001286,16.5631429 17.1342714,16.4285714 17.3001286,16.4285714 L19.4751286,16.4285714 C19.6409857,16.4285714 19.7755571,16.5627143 19.7755571,16.7285714 L19.7755571,24.9785714 Z"/>
        <path stroke="#ED4C42" stroke-linecap="round" stroke-linejoin="round" stroke-width="2" d="M53.0430108,14 L53.0430108,22 M49,17.9569892 L57,17.9569892"/>
        <circle cx="42.5" cy="2.5" r="2.5" fill="#ED4C42" fill-rule="nonzero"/>
      </g>
      <text fill="#929A9B" font-family="ProximaNova-Semibold, Proxima Nova" font-size="13" font-weight="500">
        <tspan x="0" y="68">Sent Message Content</tspan>
      </text>
      <text fill="#364141" font-family="ProximaNova-Semibold, Proxima Nova" font-size="18" font-weight="500">
        <tspan x="1" y="18">Content &amp; Engagement Habits</tspan>
      </text>
    </g>
  </g>
</svg>
