<?xml version="1.0" encoding="UTF-8"?>
<svg width="490px" height="80px" viewBox="0 0 490 80" version="1.1" xmlns="http://www.w3.org/2000/svg" xmlns:xlink="http://www.w3.org/1999/xlink">
    <!-- Generator: Sketch 48.2 (47327) - http://www.bohemiancoding.com/sketch -->
    <title>SEEDS-buttons-focus</title>
    <desc>Created with Sketch.</desc>
    <defs>
        <rect id="path-1" x="0" y="0" width="171" height="40" rx="5"></rect>
    </defs>
    <g id="Page-1" stroke="none" stroke-width="1" fill="none" fill-rule="evenodd">
        <rect id="Rectangle-path" fill="#FFFFFF" fill-rule="nonzero" x="0" y="0" width="490" height="80" rx="5"></rect>
        <g id="SEEDS-buttons-title-case" transform="translate(159.000000, 20.000000)">
            <g id="Rectangle-path" fill-rule="nonzero">
                <use fill="#5ACC5A" fill-rule="evenodd" xlink:href="#path-1"></use>
                <rect stroke="#008B56" stroke-width="2" x="1" y="1" width="169" height="38" rx="5"></rect>
            </g>
            <path d="M32.4145,25.156 C30.8155,25.156 29.6585,24.584 28.8785,23.778 L29.7365,22.595 C30.3215,23.232 31.2705,23.804 32.4795,23.804 C33.7275,23.804 34.2085,23.193 34.2085,22.608 C34.2085,20.788 29.1645,21.919 29.1645,18.734 C29.1645,17.291 30.4125,16.186 32.3235,16.186 C33.6625,16.186 34.7675,16.628 35.5605,17.408 L34.7025,18.539 C34.0135,17.85 33.0905,17.538 32.1805,17.538 C31.2965,17.538 30.7245,17.98 30.7245,18.617 C30.7245,20.242 35.7685,19.241 35.7685,22.465 C35.7685,23.908 34.7415,25.156 32.4145,25.156 Z M38.8235,25.156 C37.7575,25.156 37.2115,24.584 37.2115,23.531 L37.2115,19.904 L36.1715,19.904 L36.1715,18.721 L37.2115,18.721 L37.2115,17.005 L38.5765,17.005 L38.5765,18.721 L39.8505,18.721 L39.8505,19.904 L38.5765,19.904 L38.5765,23.193 C38.5765,23.622 38.7845,23.947 39.1745,23.947 C39.4345,23.947 39.6685,23.83 39.7725,23.713 L40.0975,24.753 C39.8505,24.974 39.4475,25.156 38.8235,25.156 Z M46.2855,25 L44.9205,25 L44.9205,24.311 C44.4525,24.857 43.7115,25.156 42.8795,25.156 C41.8655,25.156 40.7085,24.454 40.7085,23.076 C40.7085,21.62 41.8525,21.022 42.8795,21.022 C43.7375,21.022 44.4525,21.295 44.9205,21.828 L44.9205,20.892 C44.9205,20.164 44.3095,19.722 43.4515,19.722 C42.7495,19.722 42.1255,19.982 41.5925,20.528 L41.0205,19.579 C41.7485,18.877 42.6585,18.565 43.6595,18.565 C45.0635,18.565 46.2855,19.15 46.2855,20.827 L46.2855,25 Z M43.4255,24.22 C44.0105,24.22 44.5955,23.999 44.9205,23.57 L44.9205,22.608 C44.5955,22.179 44.0105,21.958 43.4255,21.958 C42.6585,21.958 42.0735,22.413 42.0735,23.089 C42.0735,23.778 42.6585,24.22 43.4255,24.22 Z M49.4185,25 L48.0535,25 L48.0535,18.721 L49.4185,18.721 L49.4185,19.631 C49.8995,19.033 50.6535,18.565 51.4595,18.565 L51.4595,19.917 C51.3425,19.891 51.2125,19.878 51.0435,19.878 C50.4585,19.878 49.6915,20.268 49.4185,20.723 L49.4185,25 Z M54.4625,25.156 C53.3965,25.156 52.8505,24.584 52.8505,23.531 L52.8505,19.904 L51.8105,19.904 L51.8105,18.721 L52.8505,18.721 L52.8505,17.005 L54.2155,17.005 L54.2155,18.721 L55.4895,18.721 L55.4895,19.904 L54.2155,19.904 L54.2155,23.193 C54.2155,23.622 54.4235,23.947 54.8135,23.947 C55.0735,23.947 55.3075,23.83 55.4115,23.713 L55.7365,24.753 C55.4895,24.974 55.0865,25.156 54.4625,25.156 Z M64.0955,25 L62.5745,25 L62.5745,21.399 L59.2075,16.329 L60.9495,16.329 L63.3285,20.034 L65.7075,16.329 L67.4495,16.329 L64.0955,21.399 L64.0955,25 Z M69.5685,25.156 C67.5665,25.156 66.3445,23.648 66.3445,21.854 C66.3445,20.047 67.5665,18.565 69.5685,18.565 C71.5705,18.565 72.7925,20.047 72.7925,21.854 C72.7925,23.648 71.5705,25.156 69.5685,25.156 Z M69.5685,23.947 C70.7385,23.947 71.3755,22.972 71.3755,21.854 C71.3755,20.749 70.7385,19.774 69.5685,19.774 C68.4115,19.774 67.7615,20.749 67.7615,21.854 C67.7615,22.972 68.4115,23.947 69.5685,23.947 Z M79.7865,25 L78.4215,25 L78.4215,24.168 C77.9795,24.662 77.1995,25.156 76.2115,25.156 C74.8595,25.156 74.1835,24.441 74.1835,23.167 L74.1835,18.721 L75.5485,18.721 L75.5485,22.66 C75.5485,23.635 76.0425,23.947 76.8225,23.947 C77.5115,23.947 78.1095,23.544 78.4215,23.128 L78.4215,18.721 L79.7865,18.721 L79.7865,25 Z M82.9195,25 L81.5545,25 L81.5545,18.721 L82.9195,18.721 L82.9195,19.631 C83.4005,19.033 84.1545,18.565 84.9605,18.565 L84.9605,19.917 C84.8435,19.891 84.7135,19.878 84.5445,19.878 C83.9595,19.878 83.1925,20.268 82.9195,20.723 L82.9195,25 Z M90.9795,25 L89.4585,25 L89.4585,16.329 L95.3995,16.329 L95.3995,17.668 L90.9795,17.668 L90.9795,19.904 L95.3085,19.904 L95.3085,21.243 L90.9795,21.243 L90.9795,25 Z M98.1035,25 L96.7385,25 L96.7385,18.721 L98.1035,18.721 L98.1035,19.631 C98.5845,19.033 99.3385,18.565 100.1445,18.565 L100.1445,19.917 C100.0275,19.891 99.8975,19.878 99.7285,19.878 C99.1435,19.878 98.3765,20.268 98.1035,20.723 L98.1035,25 Z M104.1615,25.156 C102.2635,25.156 100.8725,23.843 100.8725,21.854 C100.8725,20.034 102.1985,18.565 104.0575,18.565 C105.9425,18.565 107.1385,19.995 107.1385,21.971 L107.1385,22.309 L102.3025,22.309 C102.4065,23.245 103.1085,24.038 104.2915,24.038 C104.9155,24.038 105.6305,23.791 106.0855,23.336 L106.7095,24.233 C106.0725,24.831 105.1495,25.156 104.1615,25.156 Z M105.8255,21.334 C105.7865,20.593 105.2795,19.683 104.0445,19.683 C102.8875,19.683 102.3415,20.58 102.2895,21.334 L105.8255,21.334 Z M111.4025,25.156 C109.5045,25.156 108.1135,23.843 108.1135,21.854 C108.1135,20.034 109.4395,18.565 111.2985,18.565 C113.1835,18.565 114.3795,19.995 114.3795,21.971 L114.3795,22.309 L109.5435,22.309 C109.6475,23.245 110.3495,24.038 111.5325,24.038 C112.1565,24.038 112.8715,23.791 113.3265,23.336 L113.9505,24.233 C113.3135,24.831 112.3905,25.156 111.4025,25.156 Z M113.0665,21.334 C113.0275,20.593 112.5205,19.683 111.2855,19.683 C110.1285,19.683 109.5825,20.58 109.5305,21.334 L113.0665,21.334 Z M122.7125,25 L121.1915,25 L121.1915,17.668 L118.5655,17.668 L118.5655,16.329 L125.3385,16.329 L125.3385,17.668 L122.7125,17.668 L122.7125,25 Z M126.9765,25 L125.6115,25 L125.6115,18.721 L126.9765,18.721 L126.9765,19.631 C127.4575,19.033 128.2115,18.565 129.0175,18.565 L129.0175,19.917 C128.9005,19.891 128.7705,19.878 128.6015,19.878 C128.0165,19.878 127.2495,20.268 126.9765,20.723 L126.9765,25 Z M130.8115,17.954 C130.3435,17.954 129.9665,17.577 129.9665,17.109 C129.9665,16.641 130.3435,16.264 130.8115,16.264 C131.2795,16.264 131.6565,16.641 131.6565,17.109 C131.6565,17.577 131.2795,17.954 130.8115,17.954 Z M131.4875,25 L130.1225,25 L130.1225,18.721 L131.4875,18.721 L131.4875,25 Z M138.4685,25 L137.1035,25 L137.1035,24.311 C136.6355,24.857 135.8945,25.156 135.0625,25.156 C134.0485,25.156 132.8915,24.454 132.8915,23.076 C132.8915,21.62 134.0355,21.022 135.0625,21.022 C135.9205,21.022 136.6355,21.295 137.1035,21.828 L137.1035,20.892 C137.1035,20.164 136.4925,19.722 135.6345,19.722 C134.9325,19.722 134.3085,19.982 133.7755,20.528 L133.2035,19.579 C133.9315,18.877 134.8415,18.565 135.8425,18.565 C137.2465,18.565 138.4685,19.15 138.4685,20.827 L138.4685,25 Z M135.6085,24.22 C136.1935,24.22 136.7785,23.999 137.1035,23.57 L137.1035,22.608 C136.7785,22.179 136.1935,21.958 135.6085,21.958 C134.8415,21.958 134.2565,22.413 134.2565,23.089 C134.2565,23.778 134.8415,24.22 135.6085,24.22 Z M141.6015,25 L140.2365,25 L140.2365,16.329 L141.6015,16.329 L141.6015,25 Z" id="Start-Your-Free-Tria" fill="#FFFFFF"></path>
        </g>
        <path d="M217.5,73.5 L273,7" id="Line" stroke="#DB3E3E" stroke-width="4" stroke-linecap="square"></path>
    </g>
</svg>