<?xml version="1.0" encoding="UTF-8"?>
<svg width="490px" height="80px" viewBox="0 0 490 80" version="1.1" xmlns="http://www.w3.org/2000/svg" xmlns:xlink="http://www.w3.org/1999/xlink">
    <!-- Generator: Sketch 48.2 (47327) - http://www.bohemiancoding.com/sketch -->
    <title>SEEDS-buttons-network-color</title>
    <desc>Created with Sketch.</desc>
    <defs></defs>
    <g id="Page-1" stroke="none" stroke-width="1" fill="none" fill-rule="evenodd">
        <g id="SEEDS-buttons-network-color">
            <rect id="Rectangle-path" fill="#FFFFFF" fill-rule="nonzero" x="0" y="0" width="490" height="80" rx="5"></rect>
            <rect id="Rectangle-path" fill="#3B5998" fill-rule="nonzero" x="160" y="20" width="171" height="40" rx="5"></rect>
            <path d="M195.55,44.97 C192.989,44.97 191,43.15 191,40.485 C191,37.807 192.989,36 195.55,36 C197.292,36 198.384,36.897 199.021,37.937 L197.734,38.613 C197.318,37.885 196.473,37.352 195.55,37.352 C193.834,37.352 192.56,38.652 192.56,40.485 C192.56,42.292 193.834,43.618 195.55,43.618 C196.473,43.618 197.318,43.072 197.734,42.357 L199.034,43.007 C198.371,44.047 197.292,44.97 195.55,44.97 Z M203.051,44.97 C201.049,44.97 199.827,43.462 199.827,41.668 C199.827,39.861 201.049,38.379 203.051,38.379 C205.053,38.379 206.275,39.861 206.275,41.668 C206.275,43.462 205.053,44.97 203.051,44.97 Z M203.051,43.761 C204.221,43.761 204.858,42.786 204.858,41.668 C204.858,40.563 204.221,39.588 203.051,39.588 C201.894,39.588 201.244,40.563 201.244,41.668 C201.244,42.786 201.894,43.761 203.051,43.761 Z M213.282,44.814 L211.917,44.814 L211.917,40.888 C211.917,39.9 211.41,39.588 210.643,39.588 C209.954,39.588 209.356,40.004 209.031,40.42 L209.031,44.814 L207.666,44.814 L207.666,38.535 L209.031,38.535 L209.031,39.38 C209.447,38.886 210.266,38.379 211.254,38.379 C212.606,38.379 213.282,39.107 213.282,40.394 L213.282,44.814 Z M220.666,44.814 L219.301,44.814 L219.301,40.888 C219.301,39.9 218.794,39.588 218.027,39.588 C217.338,39.588 216.74,40.004 216.415,40.42 L216.415,44.814 L215.05,44.814 L215.05,38.535 L216.415,38.535 L216.415,39.38 C216.831,38.886 217.65,38.379 218.638,38.379 C219.99,38.379 220.666,39.107 220.666,40.394 L220.666,44.814 Z M225.346,44.97 C223.448,44.97 222.057,43.657 222.057,41.668 C222.057,39.848 223.383,38.379 225.242,38.379 C227.127,38.379 228.323,39.809 228.323,41.785 L228.323,42.123 L223.487,42.123 C223.591,43.059 224.293,43.852 225.476,43.852 C226.1,43.852 226.815,43.605 227.27,43.15 L227.894,44.047 C227.257,44.645 226.334,44.97 225.346,44.97 Z M227.01,41.148 C226.971,40.407 226.464,39.497 225.229,39.497 C224.072,39.497 223.526,40.394 223.474,41.148 L227.01,41.148 Z M232.535,44.97 C230.637,44.97 229.298,43.566 229.298,41.668 C229.298,39.77 230.637,38.379 232.535,38.379 C233.77,38.379 234.498,38.899 234.94,39.497 L234.043,40.316 C233.692,39.822 233.211,39.588 232.6,39.588 C231.469,39.588 230.702,40.446 230.702,41.668 C230.702,42.89 231.469,43.761 232.6,43.761 C233.211,43.761 233.692,43.501 234.043,43.007 L234.94,43.852 C234.498,44.437 233.77,44.97 232.535,44.97 Z M238.047,44.97 C236.981,44.97 236.435,44.398 236.435,43.345 L236.435,39.718 L235.395,39.718 L235.395,38.535 L236.435,38.535 L236.435,36.819 L237.8,36.819 L237.8,38.535 L239.074,38.535 L239.074,39.718 L237.8,39.718 L237.8,43.007 C237.8,43.436 238.008,43.761 238.398,43.761 C238.658,43.761 238.892,43.644 238.996,43.527 L239.321,44.567 C239.074,44.788 238.671,44.97 238.047,44.97 Z M245.21,44.814 L243.689,44.814 L243.689,36.143 L249.63,36.143 L249.63,37.482 L245.21,37.482 L245.21,39.718 L249.539,39.718 L249.539,41.057 L245.21,41.057 L245.21,44.814 Z M256.182,44.814 L254.817,44.814 L254.817,44.125 C254.349,44.671 253.608,44.97 252.776,44.97 C251.762,44.97 250.605,44.268 250.605,42.89 C250.605,41.434 251.749,40.836 252.776,40.836 C253.634,40.836 254.349,41.109 254.817,41.642 L254.817,40.706 C254.817,39.978 254.206,39.536 253.348,39.536 C252.646,39.536 252.022,39.796 251.489,40.342 L250.917,39.393 C251.645,38.691 252.555,38.379 253.556,38.379 C254.96,38.379 256.182,38.964 256.182,40.641 L256.182,44.814 Z M253.322,44.034 C253.907,44.034 254.492,43.813 254.817,43.384 L254.817,42.422 C254.492,41.993 253.907,41.772 253.322,41.772 C252.555,41.772 251.97,42.227 251.97,42.903 C251.97,43.592 252.555,44.034 253.322,44.034 Z M260.81,44.97 C258.912,44.97 257.573,43.566 257.573,41.668 C257.573,39.77 258.912,38.379 260.81,38.379 C262.045,38.379 262.773,38.899 263.215,39.497 L262.318,40.316 C261.967,39.822 261.486,39.588 260.875,39.588 C259.744,39.588 258.977,40.446 258.977,41.668 C258.977,42.89 259.744,43.761 260.875,43.761 C261.486,43.761 261.967,43.501 262.318,43.007 L263.215,43.852 C262.773,44.437 262.045,44.97 260.81,44.97 Z M267.336,44.97 C265.438,44.97 264.047,43.657 264.047,41.668 C264.047,39.848 265.373,38.379 267.232,38.379 C269.117,38.379 270.313,39.809 270.313,41.785 L270.313,42.123 L265.477,42.123 C265.581,43.059 266.283,43.852 267.466,43.852 C268.09,43.852 268.805,43.605 269.26,43.15 L269.884,44.047 C269.247,44.645 268.324,44.97 267.336,44.97 Z M269,41.148 C268.961,40.407 268.454,39.497 267.219,39.497 C266.062,39.497 265.516,40.394 265.464,41.148 L269,41.148 Z M273.03,42.929 C273.342,43.397 274.005,43.761 274.655,43.761 C275.734,43.761 276.423,42.89 276.423,41.668 C276.423,40.459 275.734,39.588 274.655,39.588 C274.005,39.588 273.342,39.965 273.03,40.433 L273.03,42.929 Z M273.03,44.814 L271.665,44.814 L271.665,36.143 L273.03,36.143 L273.03,39.406 C273.537,38.73 274.265,38.379 275.045,38.379 C276.67,38.379 277.84,39.64 277.84,41.668 C277.84,43.748 276.657,44.97 275.045,44.97 C274.239,44.97 273.511,44.58 273.03,43.956 L273.03,44.814 Z M282.065,44.97 C280.063,44.97 278.841,43.462 278.841,41.668 C278.841,39.861 280.063,38.379 282.065,38.379 C284.067,38.379 285.289,39.861 285.289,41.668 C285.289,43.462 284.067,44.97 282.065,44.97 Z M282.065,43.761 C283.235,43.761 283.872,42.786 283.872,41.668 C283.872,40.563 283.235,39.588 282.065,39.588 C280.908,39.588 280.258,40.563 280.258,41.668 C280.258,42.786 280.908,43.761 282.065,43.761 Z M289.527,44.97 C287.525,44.97 286.303,43.462 286.303,41.668 C286.303,39.861 287.525,38.379 289.527,38.379 C291.529,38.379 292.751,39.861 292.751,41.668 C292.751,43.462 291.529,44.97 289.527,44.97 Z M289.527,43.761 C290.697,43.761 291.334,42.786 291.334,41.668 C291.334,40.563 290.697,39.588 289.527,39.588 C288.37,39.588 287.72,40.563 287.72,41.668 C287.72,42.786 288.37,43.761 289.527,43.761 Z M300.018,44.814 L298.302,44.814 L296.391,42.214 L295.507,43.124 L295.507,44.814 L294.142,44.814 L294.142,36.143 L295.507,36.143 L295.507,41.564 L298.276,38.535 L299.966,38.535 L297.366,41.382 L300.018,44.814 Z" id="Connect-Facebook" fill="#FFFFFF"></path>
        </g>
        <path d="M217.5,73.5 L273,7" id="Line" stroke="#DB3E3E" stroke-width="4" stroke-linecap="square"></path>
    </g>
</svg>