<svg id="Layer_1" data-name="Layer 1" xmlns="http://www.w3.org/2000/svg" viewBox="0 0 490 118.79"><defs><style>.cls-1{fill:#273333;}.cls-2{fill:#fff;}.cls-3{fill:#dee1e1;}</style></defs><title>Artboard 1 copy 11</title><rect class="cls-1" width="490" height="118.88" rx="7.5" ry="7.5"/><rect class="cls-2" x="40" y="30.79" width="213.33" height="17.37" rx="2.39" ry="2.39"/><rect class="cls-3" x="40" y="67.42" width="94.66" height="4.78" rx="2.39" ry="2.39"/><rect class="cls-3" x="140.44" y="67.42" width="55.19" height="4.78" rx="2.39" ry="2.39"/><rect class="cls-3" x="292.54" y="67.42" width="94.66" height="4.78" rx="2.39" ry="2.39"/><rect class="cls-3" x="394.14" y="67.42" width="55.19" height="4.78" rx="2.39" ry="2.39"/><rect class="cls-3" x="201.98" y="67.42" width="84.37" height="4.78" rx="2.39" ry="2.39"/><rect class="cls-3" x="293.71" y="82.68" width="55.19" height="4.78" rx="2.39" ry="2.39" transform="translate(642.6 170.13) rotate(-180)"/><rect class="cls-3" x="102.13" y="82.68" width="94.66" height="4.78" rx="2.39" ry="2.39" transform="translate(298.92 170.13) rotate(-180)"/><rect class="cls-3" x="40" y="82.68" width="55.19" height="4.78" rx="2.39" ry="2.39" transform="translate(135.19 170.13) rotate(-180)"/><rect class="cls-3" x="202.98" y="82.68" width="84.37" height="4.78" rx="2.39" ry="2.39" transform="translate(490.34 170.13) rotate(-180)"/></svg>