<svg xmlns="http://www.w3.org/2000/svg" viewBox="0 0 490 150.74"><defs><style>.cls-1{fill:#fff;}.cls-2{font-size:16px;fill:#172121;font-family:ProximaNova-Regular, Proxima Nova;}.cls-3{letter-spacing:-0.02em;}.cls-4{letter-spacing:0em;}.cls-5{letter-spacing:0em;}.cls-6{letter-spacing:0em;}.cls-7{letter-spacing:-0.01em;}.cls-8{letter-spacing:0em;}.cls-9{letter-spacing:-0.01em;}.cls-10{letter-spacing:0em;}.cls-11{letter-spacing:-0.01em;}.cls-12{letter-spacing:0em;}.cls-13{letter-spacing:-0.01em;}.cls-14{letter-spacing:0em;}.cls-15{letter-spacing:-0.01em;}.cls-16{letter-spacing:0em;}.cls-17{letter-spacing:0em;}.cls-18{letter-spacing:0.02em;}.cls-19{letter-spacing:-0.01em;}.cls-20{letter-spacing:0em;}.cls-21{letter-spacing:0em;}.cls-22{letter-spacing:0em;}.cls-23{letter-spacing:-0.01em;}.cls-24{letter-spacing:0em;}.cls-25{letter-spacing:0em;}.cls-26{letter-spacing:0em;}.cls-27{letter-spacing:0.01em;}.cls-28{letter-spacing:-0.01em;}.cls-29{letter-spacing:0em;}.cls-30{letter-spacing:0.01em;}.cls-31{letter-spacing:-0.01em;}.cls-32{letter-spacing:-0.01em;}.cls-33{letter-spacing:0.01em;}.cls-34{letter-spacing:0em;}.cls-35{letter-spacing:0em;}.cls-36{letter-spacing:0.01em;}.cls-37{letter-spacing:0em;}.cls-38{letter-spacing:-0.03em;}.cls-39{letter-spacing:0em;}.cls-40{letter-spacing:0em;}.cls-41{letter-spacing:0em;}.cls-42{letter-spacing:0.01em;}.cls-43{letter-spacing:-0.01em;}.cls-44{letter-spacing:-0.01em;}.cls-45{letter-spacing:0em;}.cls-46{letter-spacing:0em;}.cls-47{letter-spacing:-0.03em;}.cls-48{letter-spacing:0em;}.cls-49{letter-spacing:0em;}.cls-50{letter-spacing:-0.01em;}.cls-51{letter-spacing:-0.01em;}.cls-52{letter-spacing:-0.01em;}.cls-53{letter-spacing:0.01em;}.cls-54{letter-spacing:0em;}.cls-55{letter-spacing:-0.01em;}.cls-56{letter-spacing:0.03em;}.cls-57{letter-spacing:0em;}.cls-58{letter-spacing:0em;}.cls-59{letter-spacing:0em;}.cls-60{letter-spacing:0em;}</style></defs><title>Artboard 1 copy 13</title><g id="Layer_5" data-name="Layer 5"><rect class="cls-1" width="490" height="150" rx="5" ry="5"/><text class="cls-2" transform="translate(35 54.01)"><tspan class="cls-3">R</tspan><tspan class="cls-4" x="9.47" y="0">e</tspan><tspan class="cls-5" x="18.4" y="0">a</tspan><tspan class="cls-6" x="26.78" y="0">c</tspan><tspan x="34.63" y="0">h </tspan><tspan class="cls-7" x="47.59" y="0">y</tspan><tspan class="cls-5" x="55.22" y="0">o</tspan><tspan class="cls-8" x="64.32" y="0">u</tspan><tspan x="73.09" y="0">r </tspan><tspan class="cls-9" x="82.5" y="0">a</tspan><tspan x="90.85" y="0">u</tspan><tspan class="cls-10" x="99.66" y="0">d</tspan><tspan class="cls-11" x="108.82" y="0">i</tspan><tspan class="cls-12" x="112.33" y="0">e</tspan><tspan class="cls-5" x="121.3" y="0">n</tspan><tspan class="cls-13" x="130.06" y="0">c</tspan><tspan x="137.75" y="0">e </tspan><tspan class="cls-5" x="150.88" y="0">a</tspan><tspan class="cls-14" x="159.26" y="0">c</tspan><tspan class="cls-15" x="167.11" y="0">r</tspan><tspan class="cls-16" x="172.21" y="0">o</tspan><tspan x="181.29" y="0">ss </tspan><tspan class="cls-5" x="200.3" y="0">n</tspan><tspan class="cls-17" x="209.06" y="0">e</tspan><tspan class="cls-18" x="218" y="0">t</tspan><tspan class="cls-19" x="223.08" y="0">w</tspan><tspan class="cls-20" x="234.7" y="0">or</tspan><tspan class="cls-21" x="249.08" y="0">k</tspan><tspan x="257.36" y="0">s </tspan><tspan class="cls-5" x="268.93" y="0">a</tspan><tspan class="cls-20" x="277.31" y="0">n</tspan><tspan x="286.09" y="0">d </tspan><tspan class="cls-22" x="299.42" y="0">p</tspan><tspan class="cls-23" x="308.6" y="0">r</tspan><tspan class="cls-24" x="313.7" y="0">o</tspan><tspan class="cls-25" x="322.83" y="0">m</tspan><tspan x="335.72" y="0">p</tspan><tspan class="cls-26" x="344.87" y="0">t</tspan><tspan class="cls-27" x="349.64" y="0">l</tspan><tspan x="353.33" y="0">y </tspan><tspan class="cls-28" x="365.3" y="0">r</tspan><tspan class="cls-12" x="370.39" y="0">e</tspan><tspan class="cls-29" x="379.35" y="0">p</tspan><tspan class="cls-30" x="388.54" y="0">l</tspan><tspan x="392.23" y="0">y </tspan><tspan class="cls-31" x="0" y="24">t</tspan><tspan x="4.49" y="24">o </tspan><tspan class="cls-7" x="17.77" y="24">y</tspan><tspan class="cls-5" x="25.4" y="24">o</tspan><tspan class="cls-8" x="34.5" y="24">u</tspan><tspan x="43.27" y="24">r </tspan><tspan class="cls-32" x="52.68" y="24">c</tspan><tspan x="60.49" y="24">u</tspan><tspan class="cls-33" x="69.3" y="24">s</tspan><tspan class="cls-31" x="76.91" y="24">t</tspan><tspan class="cls-20" x="81.4" y="24">o</tspan><tspan class="cls-34" x="90.52" y="24">m</tspan><tspan class="cls-35" x="103.42" y="24">e</tspan><tspan class="cls-36" x="112.38" y="24">r</tspan><tspan x="117.8" y="24">s. S</tspan><tspan class="cls-22" x="142.43" y="24">p</tspan><tspan class="cls-15" x="151.6" y="24">r</tspan><tspan class="cls-5" x="156.71" y="24">o</tspan><tspan class="cls-37" x="165.81" y="24">u</tspan><tspan x="174.67" y="24">t </tspan><tspan class="cls-12" x="183.5" y="24">m</tspan><tspan class="cls-5" x="196.39" y="24">a</tspan><tspan class="cls-38" x="204.77" y="24">k</tspan><tspan class="cls-39" x="212.56" y="24">e</tspan><tspan x="221.5" y="24">s </tspan><tspan class="cls-40" x="233.07" y="24">i</tspan><tspan x="236.71" y="24">t </tspan><tspan class="cls-4" x="245.54" y="24">e</tspan><tspan class="cls-41" x="254.47" y="24">a</tspan><tspan class="cls-42" x="262.87" y="24">s</tspan><tspan x="270.4" y="24">y </tspan><tspan class="cls-43" x="282.36" y="24">f</tspan><tspan class="cls-20" x="286.75" y="24">o</tspan><tspan x="295.87" y="24">r </tspan><tspan class="cls-44" x="305.28" y="24">t</tspan><tspan class="cls-4" x="309.76" y="24">e</tspan><tspan class="cls-45" x="318.69" y="24">a</tspan><tspan class="cls-46" x="327.07" y="24">m</tspan><tspan x="340.02" y="24">s </tspan><tspan class="cls-31" x="351.59" y="24">t</tspan><tspan x="356.08" y="24">o </tspan><tspan class="cls-47" x="369.36" y="24">k</tspan><tspan class="cls-48" x="377.15" y="24">e</tspan><tspan class="cls-12" x="386.14" y="24">e</tspan><tspan x="395.11" y="24">p </tspan><tspan class="cls-49" x="0" y="48">t</tspan><tspan class="cls-5" x="4.75" y="48">a</tspan><tspan class="cls-20" x="13.13" y="48">b</tspan><tspan x="22.3" y="48">s </tspan><tspan class="cls-20" x="33.87" y="48">o</tspan><tspan x="42.99" y="48">n </tspan><tspan class="cls-50" x="55.93" y="48">c</tspan><tspan class="cls-20" x="63.63" y="48">o</tspan><tspan class="cls-51" x="72.75" y="48">n</tspan><tspan class="cls-52" x="81.41" y="48">v</tspan><tspan class="cls-12" x="89.02" y="48">e</tspan><tspan class="cls-53" x="97.99" y="48">r</tspan><tspan class="cls-54" x="103.41" y="48">sa</tspan><tspan class="cls-26" x="119.21" y="48">t</tspan><tspan class="cls-11" x="123.98" y="48">i</tspan><tspan class="cls-20" x="127.49" y="48">on</tspan><tspan x="145.4" y="48">s </tspan><tspan class="cls-5" x="156.97" y="48">a</tspan><tspan class="cls-20" x="165.35" y="48">n</tspan><tspan x="174.14" y="48">d </tspan><tspan class="cls-55" x="187.47" y="48">e</tspan><tspan class="cls-19" x="196.39" y="48">ff</tspan><tspan class="cls-48" x="205.34" y="48">e</tspan><tspan class="cls-56" x="214.33" y="48">c</tspan><tspan class="cls-57" x="222.67" y="48">t</tspan><tspan class="cls-30" x="227.44" y="48">i</tspan><tspan class="cls-44" x="231.13" y="48">v</tspan><tspan class="cls-20" x="238.75" y="48">e</tspan><tspan class="cls-30" x="247.73" y="48">l</tspan><tspan x="251.42" y="48">y </tspan><tspan class="cls-12" x="263.39" y="48">e</tspan><tspan class="cls-20" x="272.35" y="48">n</tspan><tspan class="cls-58" x="281.14" y="48">g</tspan><tspan class="cls-20" x="290.29" y="48">ag</tspan><tspan x="307.85" y="48">e </tspan><tspan class="cls-34" x="320.98" y="48">a</tspan><tspan x="329.38" y="48">t </tspan><tspan class="cls-45" x="338.21" y="48">a</tspan><tspan class="cls-59" x="346.59" y="48">l</tspan><tspan x="350.12" y="48">l </tspan><tspan class="cls-57" x="357.85" y="48">t</tspan><tspan class="cls-60" x="362.62" y="48">i</tspan><tspan class="cls-34" x="366.16" y="48">m</tspan><tspan class="cls-39" x="379.05" y="48">e</tspan><tspan x="388" y="48">s.</tspan></text></g></svg>