<svg xmlns="http://www.w3.org/2000/svg" viewBox="0 0 490 190.69"><defs><style>.cls-1{fill:#fff;}.cls-2{fill:#172121;}.cls-3{fill:#db3e3e;}</style></defs><title>Artboard 1 copy 15</title><g id="Layer_5" data-name="Layer 5"><rect class="cls-1" width="490" height="190" rx="5" ry="5"/><path class="cls-2" d="M36,45.67V37h1.08v7.71h4v1Z"/><path class="cls-2" d="M42,42.53a3.11,3.11,0,1,1,3.11,3.3A3.08,3.08,0,0,1,42,42.53Zm5.19,0a2.11,2.11,0,1,0-4.17,0,2.11,2.11,0,1,0,4.17,0Z"/><path class="cls-2" d="M49.82,45.67V39.39h1v1a2.67,2.67,0,0,1,2.09-1.14v1a1.69,1.69,0,0,0-.39,0,2.3,2.3,0,0,0-1.7,1v4.45Z"/><path class="cls-2" d="M53.6,42.53a3.14,3.14,0,0,1,3.09-3.29c1.9,0,3,1.48,3,3.37v.25H54.63A2.21,2.21,0,0,0,56.89,45a2.75,2.75,0,0,0,1.94-.79l.47.64a3.42,3.42,0,0,1-2.5,1A3.11,3.11,0,0,1,53.6,42.53ZM56.68,40a2.1,2.1,0,0,0-2.05,2.09h4.12A2,2,0,0,0,56.68,40Z"/><path class="cls-2" d="M68.84,45.67V41.41c0-.79-.35-1.3-1.16-1.3a2.19,2.19,0,0,0-1.66,1v4.6H65V41.41c0-.79-.34-1.3-1.16-1.3a2.19,2.19,0,0,0-1.65,1v4.59h-1V39.39h1v.91a2.71,2.71,0,0,1,2-1.07A1.61,1.61,0,0,1,66,40.41a2.64,2.64,0,0,1,2.11-1.17c1.14,0,1.75.64,1.75,1.9v4.54Z"/><path class="cls-2" d="M75,37.85a.66.66,0,1,1,1.31,0,.66.66,0,0,1-1.31,0Zm.17,7.83V39.39h1v6.28Z"/><path class="cls-2" d="M79,44.72v3.34H78V39.39h1v.94a2.62,2.62,0,0,1,2.12-1.09c1.65,0,2.79,1.25,2.79,3.29s-1.14,3.3-2.79,3.3A2.57,2.57,0,0,1,79,44.72Zm3.89-2.2c0-1.39-.75-2.42-2-2.42a2.32,2.32,0,0,0-1.87,1v2.83a2.33,2.33,0,0,0,1.87,1C82.12,45,82.88,43.92,82.88,42.53Z"/><path class="cls-2" d="M84.91,44.84l.51-.7a2.85,2.85,0,0,0,2.07.9c1,0,1.48-.45,1.48-1.08,0-1.52-3.89-.59-3.89-2.91,0-1,.84-1.81,2.34-1.81a3.18,3.18,0,0,1,2.33.91l-.46.68A2.45,2.45,0,0,0,87.42,40c-.86,0-1.39.43-1.39,1,0,1.38,3.89.47,3.89,2.91,0,1.05-.84,1.9-2.47,1.9A3.34,3.34,0,0,1,84.91,44.84Z"/><path class="cls-2" d="M95.68,45.67v-.88a3.07,3.07,0,0,1-2.24,1,1.77,1.77,0,0,1-2-2V39.39h1v4.13c0,1.11.56,1.43,1.4,1.43A2.4,2.4,0,0,0,95.68,44V39.39h1v6.28Z"/><path class="cls-2" d="M106.16,45.67V41.41c0-.79-.35-1.3-1.16-1.3a2.19,2.19,0,0,0-1.66,1v4.6h-1V41.41c0-.79-.34-1.3-1.16-1.3a2.19,2.19,0,0,0-1.65,1v4.59h-1V39.39h1v.91a2.71,2.71,0,0,1,2-1.07,1.61,1.61,0,0,1,1.69,1.17,2.64,2.64,0,0,1,2.11-1.17c1.14,0,1.75.64,1.75,1.9v4.54Z"/><path class="cls-2" d="M117,45.67v-.94a2.64,2.64,0,0,1-2.12,1.09c-1.64,0-2.8-1.25-2.8-3.29s1.14-3.3,2.8-3.3a2.63,2.63,0,0,1,2.12,1.1V37h1v8.67Zm0-1.7V41.12a2.36,2.36,0,0,0-1.89-1c-1.26,0-2,1-2,2.43s.75,2.42,2,2.42A2.34,2.34,0,0,0,117,44Z"/><path class="cls-2" d="M119.54,42.53a3.11,3.11,0,1,1,3.11,3.3A3.08,3.08,0,0,1,119.54,42.53Zm5.19,0a2.11,2.11,0,1,0-4.17,0,2.11,2.11,0,1,0,4.17,0Z"/><path class="cls-2" d="M127.35,45.67V37h1v8.67Z"/><path class="cls-2" d="M129.9,42.53a3.11,3.11,0,1,1,3.11,3.3A3.08,3.08,0,0,1,129.9,42.53Zm5.19,0a2.11,2.11,0,1,0-4.17,0,2.11,2.11,0,1,0,4.17,0Z"/><path class="cls-2" d="M137.69,45.67V39.39h1v1a2.67,2.67,0,0,1,2.09-1.14v1a1.69,1.69,0,0,0-.39,0,2.3,2.3,0,0,0-1.7,1v4.45Z"/><path class="cls-2" d="M144.79,44.84l.51-.7a2.85,2.85,0,0,0,2.07.9c1,0,1.48-.45,1.48-1.08,0-1.52-3.89-.59-3.89-2.91,0-1,.84-1.81,2.34-1.81a3.18,3.18,0,0,1,2.33.91l-.46.68A2.45,2.45,0,0,0,147.3,40c-.86,0-1.39.43-1.39,1,0,1.38,3.89.47,3.89,2.91,0,1.05-.84,1.9-2.47,1.9A3.34,3.34,0,0,1,144.79,44.84Z"/><path class="cls-2" d="M151.16,37.85a.66.66,0,1,1,1.31,0,.66.66,0,0,1-1.31,0Zm.17,7.83V39.39h1v6.28Z"/><path class="cls-2" d="M154.49,44.36V40.25h-1v-.86h1V37.68h1v1.72h1.27v.86h-1.27v3.9c0,.47.21.81.64.81a.94.94,0,0,0,.66-.26l.29.73a1.59,1.59,0,0,1-1.17.4A1.29,1.29,0,0,1,154.49,44.36Z"/><path class="cls-2" d="M165.4,45.67V45a2.72,2.72,0,0,1-2.08.87,2.09,2.09,0,0,1-2.2-2.08,2.06,2.06,0,0,1,2.2-2.07,2.63,2.63,0,0,1,2.08.86V41.41c0-.84-.68-1.33-1.59-1.33a2.5,2.5,0,0,0-1.92.87l-.46-.68a3.29,3.29,0,0,1,2.51-1c1.33,0,2.43.6,2.43,2.12v4.32Zm0-1.33V43.16a2.1,2.1,0,0,0-1.73-.78,1.38,1.38,0,1,0,0,2.74A2.1,2.1,0,0,0,165.4,44.35Z"/><path class="cls-2" d="M175.87,45.67V41.41c0-.79-.35-1.3-1.16-1.3a2.19,2.19,0,0,0-1.66,1v4.6h-1V41.41c0-.79-.34-1.3-1.16-1.3a2.19,2.19,0,0,0-1.65,1v4.59h-1V39.39h1v.91a2.71,2.71,0,0,1,2-1.07A1.61,1.61,0,0,1,173,40.41a2.64,2.64,0,0,1,2.11-1.17c1.14,0,1.75.64,1.75,1.9v4.54Z"/><path class="cls-2" d="M178.42,42.53a3.14,3.14,0,0,1,3.09-3.29c1.9,0,3,1.48,3,3.37v.25h-5.08A2.21,2.21,0,0,0,181.71,45a2.75,2.75,0,0,0,1.94-.79l.47.64a3.41,3.41,0,0,1-2.5,1A3.11,3.11,0,0,1,178.42,42.53ZM181.5,40a2.1,2.1,0,0,0-2.05,2.09h4.12A2,2,0,0,0,181.5,40Z"/><path class="cls-2" d="M186.25,44.36V40.25h-1v-.86h1V37.68h1v1.72h1.27v.86h-1.27v3.9c0,.47.21.81.64.81a.94.94,0,0,0,.66-.26l.29.73a1.59,1.59,0,0,1-1.17.4A1.29,1.29,0,0,1,186.25,44.36Z"/><path class="cls-2" d="M190.33,47.32l-.48-.4a1.94,1.94,0,0,0,.84-1.21l-.18,0a.62.62,0,0,1-.62-.66.7.7,0,0,1,.69-.7.88.88,0,0,1,.82,1A2.51,2.51,0,0,1,190.33,47.32Z"/><path class="cls-3" d="M196.06,42.53a3.1,3.1,0,0,1,3.13-3.29,2.69,2.69,0,0,1,2.3,1.09l-.65.6a1.86,1.86,0,0,0-1.6-.82,2.19,2.19,0,0,0-2.17,2.42A2.2,2.2,0,0,0,199.25,45a1.89,1.89,0,0,0,1.6-.82l.65.6a2.69,2.69,0,0,1-2.3,1.09A3.11,3.11,0,0,1,196.06,42.53Z"/><path class="cls-3" d="M202.33,42.53a3.11,3.11,0,1,1,3.11,3.3A3.08,3.08,0,0,1,202.33,42.53Zm5.19,0a2.11,2.11,0,1,0-4.17,0,2.11,2.11,0,1,0,4.17,0Z"/><path class="cls-3" d="M214.36,45.67V41.56c0-1.11-.56-1.46-1.4-1.46a2.42,2.42,0,0,0-1.86,1v4.59h-1V39.39h1v.91a3.11,3.11,0,0,1,2.24-1.07,1.78,1.78,0,0,1,2,2v4.41Z"/><path class="cls-3" d="M216.93,43V42.1H220V43Z"/><path class="cls-3" d="M35.43,66.17l.51-.7a2.85,2.85,0,0,0,2.07.9c1,0,1.48-.45,1.48-1.08,0-1.52-3.89-.59-3.89-2.91,0-1,.84-1.81,2.34-1.81a3.18,3.18,0,0,1,2.33.91l-.46.68a2.45,2.45,0,0,0-1.87-.79c-.86,0-1.39.43-1.39,1,0,1.38,3.89.47,3.89,2.91,0,1.05-.84,1.9-2.47,1.9A3.34,3.34,0,0,1,35.43,66.17Z"/><path class="cls-3" d="M41.59,63.86a3.14,3.14,0,0,1,3.09-3.29c1.9,0,3,1.48,3,3.37v.25H42.62a2.21,2.21,0,0,0,2.26,2.17,2.75,2.75,0,0,0,1.94-.79l.47.64a3.42,3.42,0,0,1-2.5,1A3.11,3.11,0,0,1,41.59,63.86Zm3.08-2.48a2.1,2.1,0,0,0-2.05,2.09h4.12A2,2,0,0,0,44.67,61.37Z"/><path class="cls-3" d="M48.91,63.86A3.1,3.1,0,0,1,52,60.57a2.69,2.69,0,0,1,2.3,1.09l-.65.6a1.86,1.86,0,0,0-1.6-.82,2.44,2.44,0,0,0,0,4.85,1.89,1.89,0,0,0,1.6-.82l.65.6A2.69,2.69,0,0,1,52,67.16,3.11,3.11,0,0,1,48.91,63.86Z"/><path class="cls-3" d="M56.25,65.69V61.58h-1v-.86h1V59h1v1.72H58.5v.86H57.23v3.9c0,.47.21.81.64.81a.94.94,0,0,0,.66-.26l.29.73a1.59,1.59,0,0,1-1.17.4A1.29,1.29,0,0,1,56.25,65.69Z"/><path class="cls-3" d="M59.35,63.86a3.14,3.14,0,0,1,3.09-3.29c1.9,0,3,1.48,3,3.37v.25H60.38a2.21,2.21,0,0,0,2.26,2.17,2.75,2.75,0,0,0,1.94-.79l.47.64a3.41,3.41,0,0,1-2.5,1A3.11,3.11,0,0,1,59.35,63.86Zm3.08-2.48a2.1,2.1,0,0,0-2.05,2.09H64.5A2,2,0,0,0,62.43,61.37Z"/><path class="cls-3" d="M67.18,65.69V61.58h-1v-.86h1V59h1v1.72h1.27v.86H68.16v3.9c0,.47.21.81.64.81a.94.94,0,0,0,.66-.26l.29.73a1.59,1.59,0,0,1-1.17.4A1.29,1.29,0,0,1,67.18,65.69Z"/><path class="cls-3" d="M75,67v-.88a3.07,3.07,0,0,1-2.24,1,1.77,1.77,0,0,1-2-2V60.72h1v4.13c0,1.11.56,1.43,1.4,1.43A2.4,2.4,0,0,0,75,65.34V60.72h1V67Z"/><path class="cls-3" d="M77.86,67V60.72h1v1a2.67,2.67,0,0,1,2.09-1.14v1a1.69,1.69,0,0,0-.39,0,2.3,2.3,0,0,0-1.7,1V67Z"/><path class="cls-2" d="M89.43,67v-.71a2.72,2.72,0,0,1-2.08.87,2.09,2.09,0,0,1-2.2-2.08A2.06,2.06,0,0,1,87.35,63a2.63,2.63,0,0,1,2.08.86V62.74c0-.84-.68-1.33-1.59-1.33a2.5,2.5,0,0,0-1.92.87l-.46-.68a3.29,3.29,0,0,1,2.51-1c1.33,0,2.43.6,2.43,2.12V67Zm0-1.33V64.49a2.1,2.1,0,0,0-1.73-.78,1.38,1.38,0,1,0,0,2.74A2.1,2.1,0,0,0,89.43,65.68Z"/><path class="cls-2" d="M96.9,67v-.94a2.64,2.64,0,0,1-2.12,1.09c-1.64,0-2.8-1.25-2.8-3.29s1.14-3.3,2.8-3.3a2.63,2.63,0,0,1,2.12,1.1V58.33h1V67Zm0-1.7V62.45a2.36,2.36,0,0,0-1.89-1c-1.26,0-2,1-2,2.43s.75,2.42,2,2.42A2.34,2.34,0,0,0,96.9,65.3Z"/><path class="cls-2" d="M99.63,59.18a.66.66,0,1,1,1.31,0,.66.66,0,0,1-1.31,0ZM99.8,67V60.72h1V67Z"/><path class="cls-2" d="M103.67,66.05v3.34h-1V60.72h1v.94a2.62,2.62,0,0,1,2.12-1.09c1.65,0,2.79,1.25,2.79,3.29s-1.14,3.3-2.79,3.3A2.57,2.57,0,0,1,103.67,66.05Zm3.89-2.2c0-1.39-.75-2.42-2-2.42a2.32,2.32,0,0,0-1.87,1v2.83a2.33,2.33,0,0,0,1.87,1C106.8,66.29,107.56,65.25,107.56,63.86Z"/><path class="cls-2" d="M110,59.18a.66.66,0,1,1,1.31,0,.66.66,0,0,1-1.31,0Zm.17,7.83V60.72h1V67Z"/><path class="cls-2" d="M112.52,66.17l.51-.7a2.85,2.85,0,0,0,2.07.9c1,0,1.48-.45,1.48-1.08,0-1.52-3.89-.59-3.89-2.91,0-1,.84-1.81,2.34-1.81a3.18,3.18,0,0,1,2.33.91l-.46.68a2.45,2.45,0,0,0-1.87-.79c-.86,0-1.39.43-1.39,1,0,1.38,3.89.47,3.89,2.91,0,1.05-.84,1.9-2.47,1.9A3.34,3.34,0,0,1,112.52,66.17Z"/><path class="cls-2" d="M118.68,63.86a3.1,3.1,0,0,1,3.13-3.29,2.69,2.69,0,0,1,2.3,1.09l-.65.6a1.86,1.86,0,0,0-1.6-.82,2.44,2.44,0,0,0,0,4.85,1.89,1.89,0,0,0,1.6-.82l.65.6a2.69,2.69,0,0,1-2.3,1.09A3.11,3.11,0,0,1,118.68,63.86Z"/><path class="cls-2" d="M125.24,59.18a.66.66,0,1,1,1.31,0,.66.66,0,0,1-1.31,0Zm.17,7.83V60.72h1V67Z"/><path class="cls-2" d="M132.54,67V62.89c0-1.11-.56-1.46-1.4-1.46a2.42,2.42,0,0,0-1.86,1V67h-1V60.72h1v.91a3.11,3.11,0,0,1,2.24-1.07,1.78,1.78,0,0,1,2,2V67Z"/><path class="cls-2" d="M135.44,68.61l.49-.73a2.4,2.4,0,0,0,2,.86,1.8,1.8,0,0,0,2-1.89V66a2.62,2.62,0,0,1-2.11,1.12c-1.64,0-2.8-1.22-2.8-3.25s1.14-3.26,2.8-3.26a2.6,2.6,0,0,1,2.11,1.1v-.95h1v6.1c0,2.08-1.46,2.73-3,2.73A3.21,3.21,0,0,1,135.44,68.61ZM140,65.19V62.45a2.31,2.31,0,0,0-1.87-1c-1.26,0-2,1-2,2.39s.75,2.39,2,2.39A2.32,2.32,0,0,0,140,65.19Z"/><path class="cls-2" d="M145.9,63.86A3.14,3.14,0,0,1,149,60.57c1.9,0,3,1.48,3,3.37v.25h-5.08a2.21,2.21,0,0,0,2.26,2.17,2.75,2.75,0,0,0,1.94-.79l.47.64a3.41,3.41,0,0,1-2.5,1A3.11,3.11,0,0,1,145.9,63.86ZM149,61.37a2.1,2.1,0,0,0-2.05,2.09h4.12A2,2,0,0,0,149,61.37Z"/><path class="cls-2" d="M153.58,67V58.33h1V67Z"/><path class="cls-2" d="M156.31,59.18a.66.66,0,1,1,1.31,0,.66.66,0,0,1-1.31,0Zm.17,7.83V60.72h1V67Z"/><path class="cls-2" d="M159.64,65.69V61.58h-1v-.86h1V59h1v1.72h1.27v.86h-1.27v3.9c0,.47.21.81.64.81a.94.94,0,0,0,.66-.26l.29.73a1.59,1.59,0,0,1-1.17.4A1.29,1.29,0,0,1,159.64,65.69Z"/><path class="cls-2" d="M163.29,66.42a.71.71,0,1,1,.71.71A.72.72,0,0,1,163.29,66.42Z"/><path class="cls-2" d="M169.87,63.63v-5.3h1.08v5.28a2.46,2.46,0,1,0,4.91,0V58.33h1.08v5.29a3.54,3.54,0,0,1-7.07,0Z"/><path class="cls-2" d="M178.94,67V58.33h1V67Z"/><path class="cls-2" d="M182.1,65.69V61.58h-1v-.86h1V59h1v1.72h1.27v.86h-1.27v3.9c0,.47.21.81.64.81a.94.94,0,0,0,.66-.26l.29.73a1.59,1.59,0,0,1-1.17.4A1.29,1.29,0,0,1,182.1,65.69Z"/><path class="cls-2" d="M185.79,67V60.72h1v1a2.67,2.67,0,0,1,2.09-1.14v1a1.69,1.69,0,0,0-.39,0,2.3,2.3,0,0,0-1.7,1V67Z"/><path class="cls-2" d="M189.91,59.18a.66.66,0,1,1,1.31,0,.66.66,0,0,1-1.31,0Zm.17,7.83V60.72h1V67Z"/><path class="cls-2" d="M192.58,63.86a3.1,3.1,0,0,1,3.13-3.29,2.69,2.69,0,0,1,2.3,1.09l-.65.6a1.86,1.86,0,0,0-1.6-.82,2.44,2.44,0,0,0,0,4.85,1.89,1.89,0,0,0,1.6-.82l.65.6a2.69,2.69,0,0,1-2.3,1.09A3.11,3.11,0,0,1,192.58,63.86Z"/><path class="cls-2" d="M199.13,59.18a.66.66,0,1,1,1.31,0,.66.66,0,0,1-1.31,0ZM199.3,67V60.72h1V67Z"/><path class="cls-2" d="M201.81,63.86a3.14,3.14,0,0,1,3.09-3.29c1.9,0,3,1.48,3,3.37v.25h-5.08a2.21,2.21,0,0,0,2.26,2.17,2.75,2.75,0,0,0,1.94-.79l.47.64a3.42,3.42,0,0,1-2.5,1A3.11,3.11,0,0,1,201.81,63.86Zm3.08-2.48a2.1,2.1,0,0,0-2.05,2.09H207A2,2,0,0,0,204.89,61.37Z"/><path class="cls-2" d="M208.9,66.17l.51-.7a2.85,2.85,0,0,0,2.07.9c1,0,1.48-.45,1.48-1.08,0-1.52-3.89-.59-3.89-2.91,0-1,.84-1.81,2.34-1.81a3.18,3.18,0,0,1,2.33.91l-.46.68a2.45,2.45,0,0,0-1.87-.79c-.86,0-1.39.43-1.39,1,0,1.38,3.89.47,3.89,2.91,0,1.05-.84,1.9-2.47,1.9A3.34,3.34,0,0,1,208.9,66.17Z"/><path class="cls-2" d="M35.61,85.19a3.14,3.14,0,0,1,3.09-3.29c1.9,0,3,1.48,3,3.37v.25H36.64a2.21,2.21,0,0,0,2.26,2.17,2.75,2.75,0,0,0,1.94-.79l.47.64a3.42,3.42,0,0,1-2.5,1A3.11,3.11,0,0,1,35.61,85.19Zm3.08-2.48a2.1,2.1,0,0,0-2.05,2.09h4.12A2,2,0,0,0,38.69,82.7Z"/><path class="cls-2" d="M43.29,88.33V79.66h1v8.67Z"/><path class="cls-2" d="M46,80.51a.66.66,0,1,1,1.31,0,.66.66,0,0,1-1.31,0Zm.17,7.83V82.05h1v6.28Z"/><path class="cls-2" d="M49.35,87V82.91h-1v-.86h1V80.34h1v1.72H51.6v.86H50.32v3.9c0,.47.21.81.64.81a.94.94,0,0,0,.66-.26l.29.73a1.59,1.59,0,0,1-1.17.4A1.29,1.29,0,0,1,49.35,87Z"/><path class="cls-2" d="M60.25,88.33v-.71a2.72,2.72,0,0,1-2.08.87A2.09,2.09,0,0,1,56,86.41a2.06,2.06,0,0,1,2.2-2.07,2.63,2.63,0,0,1,2.08.86V84.07c0-.84-.68-1.33-1.59-1.33a2.5,2.5,0,0,0-1.92.87l-.46-.68a3.29,3.29,0,0,1,2.51-1c1.33,0,2.43.6,2.43,2.12v4.32Zm0-1.33V85.82A2.1,2.1,0,0,0,58.53,85a1.38,1.38,0,1,0,0,2.74A2.1,2.1,0,0,0,60.25,87Z"/><path class="cls-2" d="M63.36,87V82.91h-1v-.86h1V80.34h1v1.72h1.27v.86H64.33v3.9c0,.47.21.81.64.81a.94.94,0,0,0,.66-.26l.29.73a1.59,1.59,0,0,1-1.17.4A1.29,1.29,0,0,1,63.36,87Z"/><path class="cls-2" d="M71.31,87.38v3.34h-1V82.05h1V83a2.62,2.62,0,0,1,2.12-1.09c1.65,0,2.79,1.25,2.79,3.29s-1.14,3.3-2.79,3.3A2.57,2.57,0,0,1,71.31,87.38Zm3.89-2.2c0-1.39-.75-2.42-2-2.42a2.32,2.32,0,0,0-1.87,1V86.6a2.33,2.33,0,0,0,1.87,1C74.45,87.62,75.2,86.58,75.2,85.19Z"/><path class="cls-2" d="M77.46,85.19a3.14,3.14,0,0,1,3.09-3.29c1.9,0,3,1.48,3,3.37v.25H78.48a2.21,2.21,0,0,0,2.26,2.17,2.75,2.75,0,0,0,1.94-.79l.47.64a3.42,3.42,0,0,1-2.5,1A3.11,3.11,0,0,1,77.46,85.19Zm3.08-2.48a2.1,2.1,0,0,0-2.05,2.09H82.6A2,2,0,0,0,80.54,82.7Z"/><path class="cls-2" d="M85.13,88.33V79.66h1v8.67Z"/><path class="cls-2" d="M88,88.33V79.66h1v8.67Z"/><path class="cls-2" d="M90.57,85.19a3.14,3.14,0,0,1,3.09-3.29c1.9,0,3,1.48,3,3.37v.25H91.59a2.21,2.21,0,0,0,2.26,2.17,2.75,2.75,0,0,0,1.94-.79l.47.64a3.42,3.42,0,0,1-2.5,1A3.11,3.11,0,0,1,90.57,85.19Zm3.08-2.48a2.1,2.1,0,0,0-2.05,2.09h4.12A2,2,0,0,0,93.65,82.7Z"/><path class="cls-2" d="M102.46,88.33V84.22c0-1.11-.56-1.46-1.4-1.46a2.42,2.42,0,0,0-1.86,1v4.59h-1V82.05h1V83a3.11,3.11,0,0,1,2.24-1.07,1.78,1.78,0,0,1,2,2v4.41Z"/><path class="cls-2" d="M105.59,87V82.91h-1v-.86h1V80.34h1v1.72h1.27v.86h-1.27v3.9c0,.47.21.81.64.81a.94.94,0,0,0,.66-.26l.29.73a1.59,1.59,0,0,1-1.17.4A1.29,1.29,0,0,1,105.59,87Z"/><path class="cls-2" d="M108.69,85.19a3.14,3.14,0,0,1,3.09-3.29c1.9,0,3,1.48,3,3.37v.25h-5.08A2.21,2.21,0,0,0,112,87.68a2.75,2.75,0,0,0,1.94-.79l.47.64a3.41,3.41,0,0,1-2.5,1A3.11,3.11,0,0,1,108.69,85.19Zm3.08-2.48a2.1,2.1,0,0,0-2.05,2.09h4.12A2,2,0,0,0,111.77,82.7Z"/><path class="cls-2" d="M115.79,87.5l.51-.7a2.85,2.85,0,0,0,2.07.9c1,0,1.48-.45,1.48-1.08,0-1.52-3.89-.59-3.89-2.91,0-1,.84-1.81,2.34-1.81a3.18,3.18,0,0,1,2.33.91l-.46.68a2.45,2.45,0,0,0-1.87-.79c-.86,0-1.39.43-1.39,1,0,1.38,3.89.47,3.89,2.91,0,1.05-.84,1.9-2.47,1.9A3.34,3.34,0,0,1,115.79,87.5Z"/><path class="cls-2" d="M121.94,85.19c0-2,1.14-3.29,2.79-3.29A2.58,2.58,0,0,1,126.84,83v-.94h1v8.67h-1V87.38a2.57,2.57,0,0,1-2.11,1.11C123.08,88.49,121.94,87.21,121.94,85.19Zm4.9,1.42V83.77a2.28,2.28,0,0,0-1.87-1c-1.26,0-2,1-2,2.42s.74,2.43,2,2.43A2.29,2.29,0,0,0,126.84,86.6Z"/><path class="cls-2" d="M134,88.33v-.88a3.07,3.07,0,0,1-2.24,1,1.77,1.77,0,0,1-2-2V82.05h1v4.13c0,1.11.56,1.43,1.4,1.43a2.4,2.4,0,0,0,1.86-.95V82.05h1v6.28Z"/><path class="cls-2" d="M136.53,85.19a3.14,3.14,0,0,1,3.09-3.29c1.9,0,3,1.48,3,3.37v.25h-5.08a2.21,2.21,0,0,0,2.26,2.17,2.75,2.75,0,0,0,1.94-.79l.47.64a3.42,3.42,0,0,1-2.5,1A3.11,3.11,0,0,1,136.53,85.19Zm3.08-2.48a2.1,2.1,0,0,0-2.05,2.09h4.12A2,2,0,0,0,139.61,82.7Z"/><path class="cls-2" d="M147,87.5l.51-.7a2.85,2.85,0,0,0,2.07.9c1,0,1.48-.45,1.48-1.08,0-1.52-3.89-.59-3.89-2.91,0-1,.84-1.81,2.34-1.81a3.18,3.18,0,0,1,2.33.91l-.46.68a2.45,2.45,0,0,0-1.87-.79c-.86,0-1.39.43-1.39,1,0,1.38,3.89.47,3.89,2.91,0,1.05-.84,1.9-2.47,1.9A3.34,3.34,0,0,1,147,87.5Z"/><path class="cls-2" d="M153.19,85.19a3.1,3.1,0,0,1,3.13-3.29,2.69,2.69,0,0,1,2.3,1.09l-.65.6a1.86,1.86,0,0,0-1.6-.82,2.44,2.44,0,0,0,0,4.85,1.89,1.89,0,0,0,1.6-.82l.65.6a2.69,2.69,0,0,1-2.3,1.09A3.11,3.11,0,0,1,153.19,85.19Z"/><path class="cls-2" d="M159.45,85.19a3.14,3.14,0,0,1,3.09-3.29c1.9,0,3,1.48,3,3.37v.25h-5.08a2.21,2.21,0,0,0,2.26,2.17,2.75,2.75,0,0,0,1.94-.79l.47.64a3.42,3.42,0,0,1-2.5,1A3.11,3.11,0,0,1,159.45,85.19Zm3.08-2.48a2.1,2.1,0,0,0-2.05,2.09h4.12A2,2,0,0,0,162.53,82.7Z"/><path class="cls-2" d="M167.12,88.33V79.66h1v8.67Z"/><path class="cls-2" d="M169.67,85.19a3.14,3.14,0,0,1,3.09-3.29c1.9,0,3,1.48,3,3.37v.25H170.7A2.21,2.21,0,0,0,173,87.68a2.75,2.75,0,0,0,1.94-.79l.47.64a3.41,3.41,0,0,1-2.5,1A3.11,3.11,0,0,1,169.67,85.19Zm3.08-2.48a2.1,2.1,0,0,0-2.05,2.09h4.12A2,2,0,0,0,172.75,82.7Z"/><path class="cls-2" d="M177.33,88.33V82.05h1v1a2.67,2.67,0,0,1,2.09-1.14v1a1.69,1.69,0,0,0-.39,0,2.3,2.3,0,0,0-1.7,1v4.45Z"/><path class="cls-2" d="M181.44,80.51a.66.66,0,1,1,1.31,0,.66.66,0,0,1-1.31,0Zm.17,7.83V82.05h1v6.28Z"/><path class="cls-2" d="M184,87.5l.51-.7a2.85,2.85,0,0,0,2.07.9c1,0,1.48-.45,1.48-1.08,0-1.52-3.89-.59-3.89-2.91,0-1,.84-1.81,2.34-1.81a3.18,3.18,0,0,1,2.33.91l-.46.68a2.45,2.45,0,0,0-1.87-.79c-.86,0-1.39.43-1.39,1,0,1.38,3.89.47,3.89,2.91,0,1.05-.84,1.9-2.47,1.9A3.34,3.34,0,0,1,184,87.5Z"/><path class="cls-2" d="M190.15,85.19c0-2,1.14-3.29,2.8-3.29A2.58,2.58,0,0,1,195.05,83v-.94h1v8.67h-1V87.38a2.57,2.57,0,0,1-2.11,1.11C191.29,88.49,190.15,87.21,190.15,85.19Zm4.9,1.42V83.77a2.28,2.28,0,0,0-1.87-1c-1.26,0-2,1-2,2.42s.74,2.43,2,2.43A2.29,2.29,0,0,0,195.05,86.6Z"/><path class="cls-2" d="M202.19,88.33v-.88a3.07,3.07,0,0,1-2.24,1,1.77,1.77,0,0,1-2-2V82.05h1v4.13c0,1.11.56,1.43,1.4,1.43a2.4,2.4,0,0,0,1.86-.95V82.05h1v6.28Z"/><path class="cls-2" d="M204.74,85.19a3.14,3.14,0,0,1,3.09-3.29c1.9,0,3,1.48,3,3.37v.25h-5.08A2.21,2.21,0,0,0,208,87.68a2.75,2.75,0,0,0,1.94-.79l.47.64a3.42,3.42,0,0,1-2.5,1A3.11,3.11,0,0,1,204.74,85.19Zm3.08-2.48a2.1,2.1,0,0,0-2.05,2.09h4.12A2,2,0,0,0,207.83,82.7Z"/><path class="cls-2" d="M212,87.75a.72.72,0,1,1,.72.71A.72.72,0,0,1,212,87.75Z"/><path class="cls-2" d="M36,109.66V101H39.5a2.61,2.61,0,1,1,0,5.23h-2.4v3.45Zm5.08-6.06A1.61,1.61,0,0,0,39.37,102H37.09v3.3h2.27A1.61,1.61,0,0,0,41.1,103.6Z"/><path class="cls-2" d="M47.79,109.66v-4.13c0-1.11-.57-1.43-1.42-1.43a2.47,2.47,0,0,0-1.86,1v4.59h-1V101h1v3.3a3.12,3.12,0,0,1,2.25-1.07,1.77,1.77,0,0,1,2,2v4.43Z"/><path class="cls-2" d="M54.61,109.66v-.71a2.72,2.72,0,0,1-2.08.87,2.09,2.09,0,0,1-2.2-2.08,2.06,2.06,0,0,1,2.2-2.07,2.63,2.63,0,0,1,2.08.86V105.4c0-.84-.68-1.33-1.59-1.33a2.5,2.5,0,0,0-1.92.87l-.46-.68a3.29,3.29,0,0,1,2.51-1c1.33,0,2.43.6,2.43,2.12v4.32Zm0-1.33v-1.18a2.1,2.1,0,0,0-1.73-.78,1.38,1.38,0,1,0,0,2.74A2.1,2.1,0,0,0,54.61,108.34Z"/><path class="cls-2" d="M57,108.83l.51-.7a2.85,2.85,0,0,0,2.07.9c1,0,1.48-.45,1.48-1.08,0-1.52-3.89-.59-3.89-2.91,0-1,.84-1.81,2.34-1.81a3.18,3.18,0,0,1,2.33.91l-.46.68a2.45,2.45,0,0,0-1.87-.79c-.86,0-1.39.43-1.39,1,0,1.38,3.89.47,3.89,2.91,0,1.05-.84,1.9-2.47,1.9A3.34,3.34,0,0,1,57,108.83Z"/><path class="cls-2" d="M63.14,106.52a3.14,3.14,0,0,1,3.09-3.29c1.9,0,3,1.48,3,3.37v.25H64.17A2.21,2.21,0,0,0,66.43,109a2.75,2.75,0,0,0,1.94-.79l.47.64a3.42,3.42,0,0,1-2.5,1A3.11,3.11,0,0,1,63.14,106.52ZM66.22,104a2.1,2.1,0,0,0-2.05,2.09h4.12A2,2,0,0,0,66.22,104Z"/><path class="cls-2" d="M70.81,109.66V101h1v8.67Z"/><path class="cls-2" d="M73.7,109.66V101h1v8.67Z"/><path class="cls-2" d="M80.82,109.66v-.88a3.07,3.07,0,0,1-2.24,1,1.77,1.77,0,0,1-2-2v-4.43h1v4.13c0,1.11.56,1.43,1.4,1.43a2.4,2.4,0,0,0,1.86-.95v-4.62h1v6.28Z"/><path class="cls-2" d="M83.21,108.83l.51-.7a2.85,2.85,0,0,0,2.07.9c1,0,1.48-.45,1.48-1.08,0-1.52-3.89-.59-3.89-2.91,0-1,.84-1.81,2.34-1.81a3.18,3.18,0,0,1,2.33.91l-.46.68a2.45,2.45,0,0,0-1.87-.79c-.86,0-1.39.43-1.39,1,0,1.38,3.89.47,3.89,2.91,0,1.05-.84,1.9-2.47,1.9A3.34,3.34,0,0,1,83.21,108.83Z"/><path class="cls-2" d="M92.61,108.83l.51-.7a2.85,2.85,0,0,0,2.07.9c1,0,1.48-.45,1.48-1.08,0-1.52-3.89-.59-3.89-2.91,0-1,.84-1.81,2.34-1.81a3.18,3.18,0,0,1,2.33.91l-.46.68a2.45,2.45,0,0,0-1.87-.79c-.86,0-1.39.43-1.39,1,0,1.38,3.89.47,3.89,2.91,0,1.05-.84,1.9-2.47,1.9A3.34,3.34,0,0,1,92.61,108.83Z"/><path class="cls-2" d="M98.78,106.52a3.14,3.14,0,0,1,3.09-3.29c1.9,0,3,1.48,3,3.37v.25H99.8a2.21,2.21,0,0,0,2.26,2.17,2.75,2.75,0,0,0,1.94-.79l.47.64a3.42,3.42,0,0,1-2.5,1A3.11,3.11,0,0,1,98.78,106.52Zm3.08-2.48a2.1,2.1,0,0,0-2.05,2.09h4.12A2,2,0,0,0,101.86,104Z"/><path class="cls-2" d="M111,109.66v-.94a2.64,2.64,0,0,1-2.12,1.09c-1.64,0-2.8-1.25-2.8-3.29s1.14-3.3,2.8-3.3a2.63,2.63,0,0,1,2.12,1.1V101h1v8.67Zm0-1.7v-2.85a2.36,2.36,0,0,0-1.89-1c-1.26,0-2,1-2,2.43s.75,2.42,2,2.42A2.34,2.34,0,0,0,111,108Z"/><path class="cls-2" d="M119,109.66l-2.61-6.28h1.05l2.09,5.15,2.08-5.15h1.07L120,109.66Z"/><path class="cls-2" d="M123.13,106.52a3.14,3.14,0,0,1,3.09-3.29c1.9,0,3,1.48,3,3.37v.25h-5.08a2.21,2.21,0,0,0,2.26,2.17,2.75,2.75,0,0,0,1.94-.79l.47.64a3.42,3.42,0,0,1-2.5,1A3.11,3.11,0,0,1,123.13,106.52Zm3.08-2.48a2.1,2.1,0,0,0-2.05,2.09h4.12A2,2,0,0,0,126.21,104Z"/><path class="cls-2" d="M130.8,109.66V101h1v8.67Z"/><path class="cls-2" d="M133.53,101.84a.66.66,0,1,1,1.31,0,.66.66,0,0,1-1.31,0Zm.17,7.83v-6.28h1v6.28Z"/><path class="cls-2" d="M136.86,108.35v-4.11h-1v-.86h1v-1.72h1v1.72h1.27v.86h-1.27v3.9c0,.47.21.81.64.81a.94.94,0,0,0,.66-.26l.29.73a1.59,1.59,0,0,1-1.17.4A1.29,1.29,0,0,1,136.86,108.35Z"/><path class="cls-2" d="M143.48,106.52a3.11,3.11,0,1,1,3.11,3.3A3.08,3.08,0,0,1,143.48,106.52Zm5.19,0a2.11,2.11,0,1,0-2.08,2.43A2.18,2.18,0,0,0,148.67,106.52Z"/><path class="cls-2" d="M151.27,109.66v-6.28h1v1a2.67,2.67,0,0,1,2.09-1.14v1a1.69,1.69,0,0,0-.39,0,2.3,2.3,0,0,0-1.7,1v4.45Z"/><path class="cls-2" d="M155.06,106.52a3.1,3.1,0,0,1,3.13-3.29,2.69,2.69,0,0,1,2.3,1.09l-.65.6a1.86,1.86,0,0,0-1.6-.82,2.44,2.44,0,0,0,0,4.85,1.89,1.89,0,0,0,1.6-.82l.65.6a2.69,2.69,0,0,1-2.3,1.09A3.11,3.11,0,0,1,155.06,106.52Z"/><path class="cls-2" d="M161.62,101.84a.66.66,0,1,1,1.31,0,.66.66,0,0,1-1.31,0Zm.17,7.83v-6.28h1v6.28Z"/><path class="cls-2" d="M164.5,109.08a.71.71,0,1,1,.71.71A.72.72,0,0,1,164.5,109.08Z"/><path class="cls-3" d="M171.08,109.66V101h3.48a2.61,2.61,0,1,1,0,5.23h-2.4v3.45Zm5.08-6.06a1.61,1.61,0,0,0-1.73-1.65h-2.27v3.3h2.27A1.61,1.61,0,0,0,176.16,103.6Z"/><path class="cls-3" d="M178.13,106.52a3.14,3.14,0,0,1,3.09-3.29c1.9,0,3,1.48,3,3.37v.25h-5.08a2.21,2.21,0,0,0,2.26,2.17,2.75,2.75,0,0,0,1.94-.79l.47.64a3.41,3.41,0,0,1-2.5,1A3.11,3.11,0,0,1,178.13,106.52Zm3.08-2.48a2.1,2.1,0,0,0-2.05,2.09h4.12A2,2,0,0,0,181.21,104Z"/><path class="cls-3" d="M185.81,109.66V101h1v8.67Z"/><path class="cls-3" d="M188.69,109.66V101h1v8.67Z"/><path class="cls-3" d="M191.24,106.52a3.14,3.14,0,0,1,3.09-3.29c1.9,0,3,1.48,3,3.37v.25h-5.08a2.21,2.21,0,0,0,2.26,2.17,2.75,2.75,0,0,0,1.94-.79l.47.64a3.41,3.41,0,0,1-2.5,1A3.11,3.11,0,0,1,191.24,106.52Zm3.08-2.48a2.1,2.1,0,0,0-2.05,2.09h4.12A2,2,0,0,0,194.33,104Z"/><path class="cls-3" d="M203.14,109.66v-4.11c0-1.11-.56-1.46-1.4-1.46a2.42,2.42,0,0,0-1.86,1v4.59h-1v-6.28h1v.91a3.11,3.11,0,0,1,2.24-1.07,1.78,1.78,0,0,1,2,2v4.41Z"/><path class="cls-3" d="M205.71,106.94v-.86h3.12v.86Z"/><path class="cls-3" d="M36.17,129.68v-4.11h-1v-.86h1V123h1v1.71h1.27v.86H37.15v3.9c0,.47.21.81.64.81a.94.94,0,0,0,.66-.26l.29.73a1.59,1.59,0,0,1-1.17.4A1.28,1.28,0,0,1,36.17,129.68Z"/><path class="cls-3" d="M39.27,127.85a3.14,3.14,0,0,1,3.09-3.29c1.9,0,3,1.48,3,3.37v.25H40.29a2.21,2.21,0,0,0,2.26,2.17,2.75,2.75,0,0,0,1.94-.79l.47.64a3.41,3.41,0,0,1-2.5,1A3.11,3.11,0,0,1,39.27,127.85Zm3.08-2.48a2.09,2.09,0,0,0-2.05,2.09h4.12A2,2,0,0,0,42.35,125.36Z"/><path class="cls-3" d="M46.36,130.16l.51-.7a2.85,2.85,0,0,0,2.07.9c1,0,1.48-.46,1.48-1.08,0-1.52-3.89-.58-3.89-2.91,0-1,.84-1.81,2.34-1.81a3.18,3.18,0,0,1,2.33.91l-.46.68a2.45,2.45,0,0,0-1.87-.79c-.86,0-1.39.43-1.39,1,0,1.38,3.89.47,3.89,2.91,0,1.05-.84,1.9-2.47,1.9A3.34,3.34,0,0,1,46.36,130.16Z"/><path class="cls-3" d="M52.51,127.85c0-2,1.14-3.29,2.79-3.29a2.58,2.58,0,0,1,2.11,1.09v-.94h1v8.67h-1V130a2.56,2.56,0,0,1-2.11,1.11C53.66,131.15,52.51,129.87,52.51,127.85Zm4.9,1.42v-2.83a2.28,2.28,0,0,0-1.87-1c-1.26,0-2,1-2,2.42s.74,2.43,2,2.43A2.29,2.29,0,0,0,57.42,129.26Z"/><path class="cls-3" d="M64.55,131v-.88a3.07,3.07,0,0,1-2.24,1,1.77,1.77,0,0,1-2-2v-4.43h1v4.13c0,1.11.56,1.43,1.4,1.43a2.4,2.4,0,0,0,1.86-.95v-4.62h1V131Z"/><path class="cls-3" d="M67.11,127.85a3.14,3.14,0,0,1,3.09-3.29c1.9,0,3,1.48,3,3.37v.25H68.13a2.21,2.21,0,0,0,2.26,2.17,2.75,2.75,0,0,0,1.94-.79l.47.64a3.41,3.41,0,0,1-2.5,1A3.11,3.11,0,0,1,67.11,127.85Zm3.08-2.48a2.09,2.09,0,0,0-2.05,2.09h4.12A2,2,0,0,0,70.19,125.36Z"/><path class="cls-2" d="M82.4,131v-4.13c0-1.1-.57-1.43-1.42-1.43a2.47,2.47,0,0,0-1.86,1V131h-1v-8.67h1v3.3a3.12,3.12,0,0,1,2.25-1.07,1.77,1.77,0,0,1,2,2V131Z"/><path class="cls-2" d="M89.21,131v-.71a2.72,2.72,0,0,1-2.08.87,2.09,2.09,0,0,1-2.2-2.08,2.06,2.06,0,0,1,2.2-2.07,2.63,2.63,0,0,1,2.08.86v-1.13c0-.85-.68-1.33-1.59-1.33a2.5,2.5,0,0,0-1.92.87l-.46-.68a3.29,3.29,0,0,1,2.51-1c1.33,0,2.43.6,2.43,2.12V131Zm0-1.33v-1.18a2.1,2.1,0,0,0-1.73-.78,1.38,1.38,0,1,0,0,2.74A2.1,2.1,0,0,0,89.21,129.66Z"/><path class="cls-2" d="M92.1,131v-8.67h1v3.34a2.61,2.61,0,0,1,2.12-1.1c1.64,0,2.79,1.3,2.79,3.3s-1.16,3.29-2.79,3.29a2.64,2.64,0,0,1-2.12-1.09V131Zm2.85-.71c1.27,0,2-1,2-2.42s-.75-2.43-2-2.43a2.33,2.33,0,0,0-1.87,1v2.85A2.31,2.31,0,0,0,95,130.28Z"/><path class="cls-2" d="M99.39,123.16a.66.66,0,1,1,1.31,0,.66.66,0,0,1-1.31,0Zm.17,7.83v-6.28h1V131Z"/><path class="cls-2" d="M102.72,129.68v-4.11h-1v-.86h1V123h1v1.71H105v.86H103.7v3.9c0,.47.21.81.64.81A.94.94,0,0,0,105,130l.29.73a1.59,1.59,0,0,1-1.17.4A1.28,1.28,0,0,1,102.72,129.68Z"/><path class="cls-2" d="M110.32,131v-.71a2.72,2.72,0,0,1-2.08.87,2.09,2.09,0,0,1-2.2-2.08,2.06,2.06,0,0,1,2.2-2.07,2.63,2.63,0,0,1,2.08.86v-1.13c0-.85-.68-1.33-1.59-1.33a2.5,2.5,0,0,0-1.92.87l-.46-.68a3.29,3.29,0,0,1,2.51-1c1.33,0,2.43.6,2.43,2.12V131Zm0-1.33v-1.18a2.1,2.1,0,0,0-1.73-.78,1.38,1.38,0,1,0,0,2.74A2.1,2.1,0,0,0,110.32,129.66Z"/><path class="cls-2" d="M117.46,131v-4.11c0-1.11-.56-1.46-1.4-1.46a2.42,2.42,0,0,0-1.86,1V131h-1v-6.28h1v.91a3.12,3.12,0,0,1,2.24-1.07,1.78,1.78,0,0,1,2,2V131Z"/><path class="cls-2" d="M120.58,129.68v-4.11h-1v-.86h1V123h1v1.71h1.27v.86h-1.27v3.9c0,.47.21.81.64.81a.94.94,0,0,0,.66-.26l.29.73a1.6,1.6,0,0,1-1.17.4A1.28,1.28,0,0,1,120.58,129.68Z"/><path class="cls-2" d="M135.14,131v-4.26c0-.79-.35-1.3-1.16-1.3a2.19,2.19,0,0,0-1.66,1V131h-1v-4.26c0-.79-.34-1.3-1.16-1.3a2.19,2.19,0,0,0-1.65,1V131h-1v-6.28h1v.91a2.72,2.72,0,0,1,2-1.07,1.61,1.61,0,0,1,1.69,1.17,2.64,2.64,0,0,1,2.11-1.17c1.14,0,1.75.64,1.75,1.9V131Z"/><path class="cls-2" d="M137.69,127.85a3.11,3.11,0,1,1,3.11,3.3A3.08,3.08,0,0,1,137.69,127.85Zm5.19,0a2.11,2.11,0,1,0-2.08,2.43A2.18,2.18,0,0,0,142.88,127.85Z"/><path class="cls-2" d="M145.48,131v-6.28h1v1a2.67,2.67,0,0,1,2.09-1.14v1a1.75,1.75,0,0,0-.39,0,2.3,2.3,0,0,0-1.7,1V131Z"/><path class="cls-2" d="M149.76,131v-8.67h1v3.34a2.61,2.61,0,0,1,2.12-1.1c1.64,0,2.79,1.3,2.79,3.3s-1.16,3.29-2.79,3.29a2.64,2.64,0,0,1-2.12-1.09V131Zm2.85-.71c1.27,0,2-1,2-2.42s-.75-2.43-2-2.43a2.33,2.33,0,0,0-1.87,1v2.85A2.31,2.31,0,0,0,152.61,130.28Z"/><path class="cls-2" d="M157.05,123.16a.66.66,0,1,1,1.31,0,.66.66,0,0,1-1.31,0Zm.17,7.83v-6.28h1V131Z"/><path class="cls-2" d="M163.69,129.68v-4.11h-1v-.86h1V123h1v1.71h1.27v.86h-1.27v3.9c0,.47.21.81.64.81A.94.94,0,0,0,166,130l.29.73a1.6,1.6,0,0,1-1.17.4A1.28,1.28,0,0,1,163.69,129.68Z"/><path class="cls-2" d="M167.39,131v-6.28h1v1a2.67,2.67,0,0,1,2.09-1.14v1a1.75,1.75,0,0,0-.39,0,2.29,2.29,0,0,0-1.7,1V131Z"/><path class="cls-2" d="M171.5,123.16a.66.66,0,1,1,1.31,0,.66.66,0,0,1-1.31,0Zm.17,7.83v-6.28h1V131Z"/><path class="cls-2" d="M174.05,130.16l.51-.7a2.85,2.85,0,0,0,2.07.9c1,0,1.48-.46,1.48-1.08,0-1.52-3.89-.58-3.89-2.91,0-1,.84-1.81,2.34-1.81a3.18,3.18,0,0,1,2.33.91l-.46.68a2.45,2.45,0,0,0-1.87-.79c-.86,0-1.39.43-1.39,1,0,1.38,3.89.47,3.89,2.91,0,1.05-.84,1.9-2.47,1.9A3.34,3.34,0,0,1,174.05,130.16Z"/><path class="cls-2" d="M181,129.68v-4.11h-1v-.86h1V123h1v1.71h1.27v.86H182v3.9c0,.47.21.81.64.81a.94.94,0,0,0,.66-.26l.29.73a1.6,1.6,0,0,1-1.17.4A1.28,1.28,0,0,1,181,129.68Z"/><path class="cls-2" d="M184.51,123.16a.66.66,0,1,1,1.31,0,.66.66,0,0,1-1.31,0Zm.17,7.83v-6.28h1V131Z"/><path class="cls-2" d="M187.19,127.85c0-2,1.14-3.29,2.8-3.29a2.58,2.58,0,0,1,2.11,1.09v-.94h1v8.67h-1V130a2.56,2.56,0,0,1-2.11,1.11C188.34,131.15,187.19,129.87,187.19,127.85Zm4.9,1.42v-2.83a2.28,2.28,0,0,0-1.87-1c-1.26,0-2,1-2,2.42s.74,2.43,2,2.43A2.29,2.29,0,0,0,192.09,129.26Z"/><path class="cls-2" d="M199.23,131v-.88a3.07,3.07,0,0,1-2.24,1,1.77,1.77,0,0,1-2-2v-4.43h1v4.13c0,1.11.56,1.43,1.4,1.43a2.4,2.4,0,0,0,1.86-.95v-4.62h1V131Z"/><path class="cls-2" d="M201.78,127.85a3.14,3.14,0,0,1,3.09-3.29c1.9,0,3,1.48,3,3.37v.25h-5.08a2.21,2.21,0,0,0,2.26,2.17,2.75,2.75,0,0,0,1.94-.79l.47.64a3.41,3.41,0,0,1-2.5,1A3.11,3.11,0,0,1,201.78,127.85Zm3.08-2.48a2.09,2.09,0,0,0-2.05,2.09h4.12A2,2,0,0,0,204.87,125.36Z"/><path class="cls-2" d="M35.43,151.49l.51-.7a2.85,2.85,0,0,0,2.07.9c1,0,1.48-.46,1.48-1.08,0-1.52-3.89-.58-3.89-2.91,0-1,.84-1.81,2.34-1.81a3.18,3.18,0,0,1,2.33.91l-.46.68a2.45,2.45,0,0,0-1.87-.79c-.86,0-1.39.43-1.39,1,0,1.38,3.89.47,3.89,2.91,0,1.05-.84,1.9-2.47,1.9A3.34,3.34,0,0,1,35.43,151.49Z"/><path class="cls-2" d="M41.59,149.18a3.14,3.14,0,0,1,3.09-3.29c1.9,0,3,1.48,3,3.37v.25H42.62a2.21,2.21,0,0,0,2.26,2.17,2.75,2.75,0,0,0,1.94-.79l.47.64a3.41,3.41,0,0,1-2.5,1A3.11,3.11,0,0,1,41.59,149.18Zm3.08-2.48a2.09,2.09,0,0,0-2.05,2.09h4.12A2,2,0,0,0,44.67,146.69Z"/><path class="cls-2" d="M53.49,152.32v-4.11c0-1.11-.56-1.46-1.4-1.46a2.42,2.42,0,0,0-1.86,1v4.59h-1V146h1V147a3.12,3.12,0,0,1,2.24-1.07,1.78,1.78,0,0,1,2,2v4.41Z"/><path class="cls-2" d="M56,149.18a3.14,3.14,0,0,1,3.09-3.29c1.9,0,3,1.48,3,3.37v.25H57a2.21,2.21,0,0,0,2.26,2.17,2.75,2.75,0,0,0,1.94-.79l.47.64a3.41,3.41,0,0,1-2.5,1A3.11,3.11,0,0,1,56,149.18Zm3.08-2.48A2.09,2.09,0,0,0,57,148.79h4.12A2,2,0,0,0,59.1,146.69Z"/><path class="cls-2" d="M63.34,149.18a3.1,3.1,0,0,1,3.13-3.29,2.69,2.69,0,0,1,2.3,1.09l-.65.6a1.86,1.86,0,0,0-1.6-.82,2.44,2.44,0,0,0,0,4.85,1.89,1.89,0,0,0,1.6-.82l.65.6a2.69,2.69,0,0,1-2.3,1.09A3.11,3.11,0,0,1,63.34,149.18Z"/><path class="cls-2" d="M70.68,151V146.9h-1V146h1v-1.71h1V146h1.27v.86H71.66v3.9c0,.47.21.81.64.81a.94.94,0,0,0,.66-.26l.29.73a1.6,1.6,0,0,1-1.17.4A1.28,1.28,0,0,1,70.68,151Z"/><path class="cls-2" d="M78.46,152.32v-.88a3.07,3.07,0,0,1-2.24,1,1.77,1.77,0,0,1-2-2V146h1v4.13c0,1.11.56,1.43,1.4,1.43a2.4,2.4,0,0,0,1.86-.95V146h1v6.28Z"/><path class="cls-2" d="M80.85,151.49l.51-.7a2.85,2.85,0,0,0,2.07.9c1,0,1.48-.46,1.48-1.08,0-1.52-3.89-.58-3.89-2.91,0-1,.84-1.81,2.34-1.81a3.18,3.18,0,0,1,2.33.91l-.46.68a2.45,2.45,0,0,0-1.87-.79c-.86,0-1.39.43-1.39,1,0,1.38,3.89.47,3.89,2.91,0,1.05-.84,1.9-2.47,1.9A3.34,3.34,0,0,1,80.85,151.49Z"/><path class="cls-2" d="M90.43,149.18a3.14,3.14,0,0,1,3.09-3.29c1.9,0,3,1.48,3,3.37v.25H91.46a2.21,2.21,0,0,0,2.26,2.17,2.75,2.75,0,0,0,1.94-.79l.47.64a3.41,3.41,0,0,1-2.5,1A3.11,3.11,0,0,1,90.43,149.18Zm3.08-2.48a2.09,2.09,0,0,0-2.05,2.09h4.12A2,2,0,0,0,93.51,146.69Z"/><path class="cls-2" d="M98.27,151V146.9h-1V146h1v-1.71h1V146h1.27v.86H99.24v3.9c0,.47.21.81.64.81a.94.94,0,0,0,.66-.26l.29.73a1.59,1.59,0,0,1-1.17.4A1.28,1.28,0,0,1,98.27,151Z"/><path class="cls-2" d="M109.49,152.32v-4.11c0-1.11-.56-1.46-1.4-1.46a2.42,2.42,0,0,0-1.86,1v4.59h-1V146h1V147a3.12,3.12,0,0,1,2.24-1.07,1.79,1.79,0,0,1,2,2v4.41Z"/><path class="cls-2" d="M112,149.18a3.14,3.14,0,0,1,3.09-3.29c1.9,0,3,1.48,3,3.37v.25H113a2.21,2.21,0,0,0,2.26,2.17,2.75,2.75,0,0,0,1.94-.79l.47.64a3.41,3.41,0,0,1-2.5,1A3.11,3.11,0,0,1,112,149.18Zm3.08-2.48a2.09,2.09,0,0,0-2.05,2.09h4.12A2,2,0,0,0,115.1,146.69Z"/><path class="cls-2" d="M119.85,151V146.9h-1V146h1v-1.71h1V146h1.27v.86h-1.27v3.9c0,.47.21.81.64.81a.94.94,0,0,0,.66-.26l.29.73a1.59,1.59,0,0,1-1.17.4A1.28,1.28,0,0,1,119.85,151Z"/><path class="cls-2" d="M127.63,152.32v-.88a3.07,3.07,0,0,1-2.24,1,1.77,1.77,0,0,1-2-2V146h1v4.13c0,1.11.56,1.43,1.4,1.43a2.4,2.4,0,0,0,1.86-.95V146h1v6.28Z"/><path class="cls-2" d="M130,151.49l.51-.7a2.85,2.85,0,0,0,2.07.9c1,0,1.48-.46,1.48-1.08,0-1.52-3.89-.58-3.89-2.91,0-1,.84-1.81,2.34-1.81a3.18,3.18,0,0,1,2.33.91l-.46.68a2.45,2.45,0,0,0-1.87-.79c-.86,0-1.39.43-1.39,1,0,1.38,3.89.47,3.89,2.91,0,1.05-.84,1.9-2.47,1.9A3.34,3.34,0,0,1,130,151.49Z"/><path class="cls-2" d="M139.6,149.18a3.14,3.14,0,0,1,3.09-3.29c1.9,0,3,1.48,3,3.37v.25h-5.08a2.21,2.21,0,0,0,2.26,2.17,2.75,2.75,0,0,0,1.94-.79l.47.64a3.41,3.41,0,0,1-2.5,1A3.11,3.11,0,0,1,139.6,149.18Zm3.08-2.48a2.09,2.09,0,0,0-2.05,2.09h4.12A2,2,0,0,0,142.68,146.69Z"/><path class="cls-2" d="M147.44,151V146.9h-1V146h1v-1.71h1V146h1.27v.86h-1.27v3.9c0,.47.21.81.64.81a.94.94,0,0,0,.66-.26l.29.73a1.59,1.59,0,0,1-1.17.4A1.28,1.28,0,0,1,147.44,151Z"/><path class="cls-2" d="M162,152.32v-4.26c0-.79-.35-1.3-1.16-1.3a2.19,2.19,0,0,0-1.66,1v4.6h-1v-4.26c0-.79-.34-1.3-1.16-1.3a2.19,2.19,0,0,0-1.65,1v4.59h-1V146h1V147a2.72,2.72,0,0,1,2-1.07,1.61,1.61,0,0,1,1.69,1.17,2.64,2.64,0,0,1,2.11-1.17c1.14,0,1.75.64,1.75,1.9v4.54Z"/><path class="cls-2" d="M168.83,152.32v-.71a2.72,2.72,0,0,1-2.08.87,2.09,2.09,0,0,1-2.2-2.08,2.06,2.06,0,0,1,2.2-2.07,2.63,2.63,0,0,1,2.08.86v-1.13c0-.85-.68-1.33-1.59-1.33a2.5,2.5,0,0,0-1.92.87l-.46-.68a3.29,3.29,0,0,1,2.51-1c1.33,0,2.43.6,2.43,2.12v4.32Zm0-1.33v-1.18a2.1,2.1,0,0,0-1.73-.78,1.38,1.38,0,1,0,0,2.74A2.1,2.1,0,0,0,168.83,151Z"/><path class="cls-2" d="M171.72,152.32v-8.67h1v8.67Z"/><path class="cls-2" d="M174.27,149.18a3.14,3.14,0,0,1,3.09-3.29c1.9,0,3,1.48,3,3.37v.25H175.3a2.21,2.21,0,0,0,2.26,2.17,2.75,2.75,0,0,0,1.94-.79l.47.64a3.41,3.41,0,0,1-2.5,1A3.11,3.11,0,0,1,174.27,149.18Zm3.08-2.48a2.09,2.09,0,0,0-2.05,2.09h4.12A2,2,0,0,0,177.35,146.69Z"/><path class="cls-2" d="M181.37,151.49l.51-.7a2.85,2.85,0,0,0,2.07.9c1,0,1.48-.46,1.48-1.08,0-1.52-3.89-.58-3.89-2.91,0-1,.84-1.81,2.34-1.81a3.18,3.18,0,0,1,2.33.91l-.46.68a2.45,2.45,0,0,0-1.87-.79c-.86,0-1.39.43-1.39,1,0,1.38,3.89.47,3.89,2.91,0,1.05-.84,1.9-2.47,1.9A3.34,3.34,0,0,1,181.37,151.49Z"/><path class="cls-2" d="M192.14,152.32v-.88a3.07,3.07,0,0,1-2.24,1,1.77,1.77,0,0,1-2-2V146h1v4.13c0,1.11.56,1.43,1.4,1.43a2.4,2.4,0,0,0,1.86-.95V146h1v6.28Z"/><path class="cls-2" d="M199,152.32v-.71a2.72,2.72,0,0,1-2.08.87,2.09,2.09,0,0,1-2.2-2.08,2.06,2.06,0,0,1,2.2-2.07,2.63,2.63,0,0,1,2.08.86v-1.13c0-.85-.68-1.33-1.59-1.33a2.5,2.5,0,0,0-1.92.87l-.46-.68a3.29,3.29,0,0,1,2.51-1c1.33,0,2.43.6,2.43,2.12v4.32Zm0-1.33v-1.18a2.1,2.1,0,0,0-1.73-.78,1.38,1.38,0,1,0,0,2.74A2.1,2.1,0,0,0,199,151Z"/><path class="cls-2" d="M206.44,152.32v-.94a2.65,2.65,0,0,1-2.12,1.09c-1.64,0-2.8-1.25-2.8-3.29s1.14-3.3,2.8-3.3a2.63,2.63,0,0,1,2.12,1.1v-3.34h1v8.67Zm0-1.7v-2.85a2.36,2.36,0,0,0-1.89-1c-1.26,0-2,1-2,2.43s.75,2.42,2,2.42A2.33,2.33,0,0,0,206.44,150.62Z"/><path class="cls-2" d="M213.28,152.32v-.71a2.72,2.72,0,0,1-2.08.87,2.09,2.09,0,0,1-2.2-2.08,2.06,2.06,0,0,1,2.2-2.07,2.63,2.63,0,0,1,2.08.86v-1.13c0-.85-.68-1.33-1.59-1.33a2.5,2.5,0,0,0-1.92.87l-.46-.68a3.29,3.29,0,0,1,2.51-1c1.33,0,2.43.6,2.43,2.12v4.32Zm0-1.33v-1.18a2.1,2.1,0,0,0-1.73-.78,1.38,1.38,0,1,0,0,2.74A2.1,2.1,0,0,0,213.28,151Z"/><path class="cls-3" d="M257.25,45.67V40.25h-1v-.86h1v-.48a1.79,1.79,0,0,1,1.82-2,1.83,1.83,0,0,1,1.33.48L260,38a1.14,1.14,0,0,0-.78-.31c-.64,0-1,.44-1,1.23v.48h1.27v.86h-1.27v5.42Z"/><path class="cls-3" d="M264.62,45.67V45a2.72,2.72,0,0,1-2.08.87,2.09,2.09,0,0,1-2.2-2.08,2.06,2.06,0,0,1,2.2-2.07,2.63,2.63,0,0,1,2.08.86V41.41c0-.84-.68-1.33-1.59-1.33a2.49,2.49,0,0,0-1.92.87l-.46-.68a3.29,3.29,0,0,1,2.51-1c1.33,0,2.43.6,2.43,2.12v4.32Zm0-1.33V43.16a2.1,2.1,0,0,0-1.73-.78,1.38,1.38,0,1,0,0,2.74A2.1,2.1,0,0,0,264.62,44.35Z"/><path class="cls-3" d="M275.09,45.67V41.41c0-.79-.35-1.3-1.16-1.3a2.19,2.19,0,0,0-1.66,1v4.6h-1V41.41c0-.79-.34-1.3-1.16-1.3a2.19,2.19,0,0,0-1.65,1v4.59h-1V39.39h1v.91a2.71,2.71,0,0,1,2-1.07,1.61,1.61,0,0,1,1.69,1.17,2.64,2.64,0,0,1,2.11-1.17c1.14,0,1.75.64,1.75,1.9v4.54Z"/><path class="cls-3" d="M277.63,42.53a3.14,3.14,0,0,1,3.09-3.29c1.9,0,3,1.48,3,3.37v.25h-5.08A2.21,2.21,0,0,0,280.92,45a2.75,2.75,0,0,0,1.94-.79l.47.64a3.42,3.42,0,0,1-2.5,1A3.11,3.11,0,0,1,277.63,42.53ZM280.71,40a2.1,2.1,0,0,0-2.05,2.09h4.12A2,2,0,0,0,280.71,40Z"/><path class="cls-3" d="M284.73,44.84l.51-.7a2.85,2.85,0,0,0,2.07.9c1,0,1.48-.45,1.48-1.08,0-1.52-3.89-.59-3.89-2.91,0-1,.84-1.81,2.34-1.81a3.17,3.17,0,0,1,2.33.91l-.46.68a2.44,2.44,0,0,0-1.87-.79c-.86,0-1.39.43-1.39,1,0,1.38,3.89.47,3.89,2.91,0,1.05-.85,1.9-2.47,1.9A3.34,3.34,0,0,1,284.73,44.84Z"/><path class="cls-2" d="M291.11,45.09a.71.71,0,1,1,.71.71A.72.72,0,0,1,291.11,45.09Z"/><path class="cls-2" d="M263.15,88l-5.06-6.92V88H257V79.33h1.11l5,6.77V79.33h1.08V88Z"/><path class="cls-2" d="M270.16,88v-.71a2.72,2.72,0,0,1-2.08.87,2.09,2.09,0,0,1-2.2-2.08,2.06,2.06,0,0,1,2.2-2.07,2.63,2.63,0,0,1,2.08.86V83.74c0-.84-.68-1.33-1.59-1.33a2.49,2.49,0,0,0-1.92.87l-.46-.68a3.29,3.29,0,0,1,2.51-1c1.33,0,2.43.6,2.43,2.12V88Zm0-1.33V85.49a2.1,2.1,0,0,0-1.73-.78,1.38,1.38,0,1,0,0,2.74A2.1,2.1,0,0,0,270.16,86.68Z"/><path class="cls-2" d="M280.64,88V83.74c0-.79-.35-1.3-1.16-1.3a2.19,2.19,0,0,0-1.66,1V88h-1V83.74c0-.79-.34-1.3-1.16-1.3a2.19,2.19,0,0,0-1.65,1V88h-1V81.72h1v.91a2.71,2.71,0,0,1,2-1.07,1.61,1.61,0,0,1,1.69,1.17,2.64,2.64,0,0,1,2.11-1.17c1.14,0,1.75.64,1.75,1.9V88Z"/><path class="cls-2" d="M286.75,80.18a.66.66,0,1,1,1.31,0,.66.66,0,0,1-1.31,0Zm.17,7.83V81.72h1V88Z"/><path class="cls-2" d="M293.7,88v-.71a2.72,2.72,0,0,1-2.08.87,2.09,2.09,0,0,1-2.2-2.08,2.06,2.06,0,0,1,2.2-2.07,2.63,2.63,0,0,1,2.08.86V83.74c0-.84-.68-1.33-1.59-1.33a2.5,2.5,0,0,0-1.92.87l-.46-.68a3.29,3.29,0,0,1,2.51-1c1.33,0,2.43.6,2.43,2.12V88Zm0-1.33V85.49a2.1,2.1,0,0,0-1.73-.78,1.38,1.38,0,1,0,0,2.74A2.1,2.1,0,0,0,293.7,86.68Z"/><path class="cls-2" d="M296.23,84.86a3.1,3.1,0,0,1,3.13-3.29,2.69,2.69,0,0,1,2.3,1.09l-.65.6a1.86,1.86,0,0,0-1.6-.82,2.44,2.44,0,0,0,0,4.85,1.89,1.89,0,0,0,1.6-.82l.65.6a2.69,2.69,0,0,1-2.3,1.09A3.11,3.11,0,0,1,296.23,84.86Z"/><path class="cls-2" d="M307.2,88v-.88a3.07,3.07,0,0,1-2.24,1,1.77,1.77,0,0,1-2-2V81.72h1v4.13c0,1.11.56,1.43,1.4,1.43a2.4,2.4,0,0,0,1.86-.95V81.72h1V88Z"/><path class="cls-2" d="M310.09,88V79.33h1V88Z"/><path class="cls-2" d="M312.82,80.18a.66.66,0,1,1,1.31,0,.66.66,0,0,1-1.31,0ZM313,88V81.72h1V88Z"/><path class="cls-2" d="M315.38,87.17l.51-.7a2.85,2.85,0,0,0,2.07.9c1,0,1.48-.45,1.48-1.08,0-1.52-3.89-.59-3.89-2.91,0-1,.84-1.81,2.34-1.81a3.18,3.18,0,0,1,2.33.91l-.46.68a2.45,2.45,0,0,0-1.87-.79c-.86,0-1.39.43-1.39,1,0,1.38,3.89.47,3.89,2.91,0,1.05-.84,1.9-2.47,1.9A3.34,3.34,0,0,1,315.38,87.17Z"/><path class="cls-2" d="M329.87,88v-.94a2.64,2.64,0,0,1-2.12,1.09c-1.64,0-2.8-1.25-2.8-3.29s1.14-3.3,2.8-3.3a2.63,2.63,0,0,1,2.12,1.1V79.33h1V88Zm0-1.7V83.45a2.36,2.36,0,0,0-1.89-1c-1.26,0-2,1-2,2.43s.75,2.42,2,2.42A2.34,2.34,0,0,0,329.87,86.3Z"/><path class="cls-2" d="M332.61,80.18a.66.66,0,1,1,1.31,0,.66.66,0,0,1-1.31,0Zm.17,7.83V81.72h1V88Z"/><path class="cls-2" d="M339.57,88v-.71a2.72,2.72,0,0,1-2.08.87,2.09,2.09,0,0,1-2.2-2.08,2.06,2.06,0,0,1,2.2-2.07,2.63,2.63,0,0,1,2.08.86V83.74c0-.84-.68-1.33-1.59-1.33a2.49,2.49,0,0,0-1.92.87l-.46-.68a3.29,3.29,0,0,1,2.51-1c1.33,0,2.43.6,2.43,2.12V88Zm0-1.33V85.49a2.1,2.1,0,0,0-1.73-.78,1.38,1.38,0,1,0,0,2.74A2.1,2.1,0,0,0,339.57,86.68Z"/><path class="cls-2" d="M350,88V83.74c0-.79-.35-1.3-1.16-1.3a2.19,2.19,0,0,0-1.66,1V88h-1V83.74c0-.79-.34-1.3-1.16-1.3a2.19,2.19,0,0,0-1.65,1V88h-1V81.72h1v.91a2.71,2.71,0,0,1,2-1.07,1.61,1.61,0,0,1,1.69,1.17,2.64,2.64,0,0,1,2.11-1.17c1.14,0,1.75.64,1.75,1.9V88Z"/><path class="cls-2" d="M358,88l-2.61-6.28h1.05l2.09,5.15,2.08-5.15h1.07L359.06,88Z"/><path class="cls-2" d="M362.62,80.18a.66.66,0,1,1,1.31,0,.66.66,0,0,1-1.31,0Zm.17,7.83V81.72h1V88Z"/><path class="cls-2" d="M365.95,86.69V82.58h-1v-.86h1V80h1v1.72h1.27v.86h-1.27v3.9c0,.47.21.81.64.81a.94.94,0,0,0,.66-.26l.29.73a1.59,1.59,0,0,1-1.17.4A1.29,1.29,0,0,1,365.95,86.69Z"/><path class="cls-2" d="M373.55,88v-.71a2.72,2.72,0,0,1-2.08.87,2.09,2.09,0,0,1-2.2-2.08,2.06,2.06,0,0,1,2.2-2.07,2.63,2.63,0,0,1,2.08.86V83.74c0-.84-.68-1.33-1.59-1.33a2.49,2.49,0,0,0-1.92.87l-.46-.68a3.29,3.29,0,0,1,2.51-1c1.33,0,2.43.6,2.43,2.12V88Zm0-1.33V85.49a2.1,2.1,0,0,0-1.73-.78,1.38,1.38,0,1,0,0,2.74A2.1,2.1,0,0,0,373.55,86.68Z"/><path class="cls-2" d="M376.08,84.86a3.14,3.14,0,0,1,3.09-3.29c1.9,0,3,1.48,3,3.37v.25h-5.08a2.21,2.21,0,0,0,2.26,2.17,2.75,2.75,0,0,0,1.94-.79l.47.64a3.41,3.41,0,0,1-2.5,1A3.11,3.11,0,0,1,376.08,84.86Zm3.08-2.48a2.09,2.09,0,0,0-2.05,2.09h4.12A2,2,0,0,0,379.16,82.37Z"/><path class="cls-2" d="M391,88v-.71a2.72,2.72,0,0,1-2.08.87,2.09,2.09,0,0,1-2.2-2.08A2.06,2.06,0,0,1,389,84a2.63,2.63,0,0,1,2.08.86V83.74c0-.84-.68-1.33-1.59-1.33a2.49,2.49,0,0,0-1.92.87l-.46-.68a3.29,3.29,0,0,1,2.51-1c1.33,0,2.43.6,2.43,2.12V88Zm0-1.33V85.49a2.1,2.1,0,0,0-1.73-.78,1.38,1.38,0,1,0,0,2.74A2.1,2.1,0,0,0,391,86.68Z"/><path class="cls-2" d="M398.15,88v-.88a3.07,3.07,0,0,1-2.24,1,1.77,1.77,0,0,1-2-2V81.72h1v4.13c0,1.11.56,1.43,1.4,1.43a2.4,2.4,0,0,0,1.86-.95V81.72h1V88Z"/><path class="cls-2" d="M401.07,89.61l.49-.73a2.4,2.4,0,0,0,2,.86,1.8,1.8,0,0,0,2-1.89V87a2.63,2.63,0,0,1-2.11,1.12c-1.64,0-2.8-1.22-2.8-3.25s1.14-3.26,2.8-3.26a2.6,2.6,0,0,1,2.11,1.1v-.95h1v6.1c0,2.08-1.46,2.73-3,2.73A3.21,3.21,0,0,1,401.07,89.61Zm4.55-3.42V83.45a2.31,2.31,0,0,0-1.87-1c-1.26,0-2,1-2,2.39s.75,2.39,2,2.39A2.32,2.32,0,0,0,405.63,86.19Z"/><path class="cls-2" d="M412.76,88v-.88a3.07,3.07,0,0,1-2.24,1,1.77,1.77,0,0,1-2-2V81.72h1v4.13c0,1.11.56,1.43,1.4,1.43a2.4,2.4,0,0,0,1.86-.95V81.72h1V88Z"/><path class="cls-2" d="M415.31,84.86a3.14,3.14,0,0,1,3.09-3.29c1.9,0,3,1.48,3,3.37v.25h-5.08a2.21,2.21,0,0,0,2.26,2.17,2.75,2.75,0,0,0,1.94-.79l.47.64a3.42,3.42,0,0,1-2.5,1A3.11,3.11,0,0,1,415.31,84.86Zm3.08-2.48a2.1,2.1,0,0,0-2.05,2.09h4.12A2,2,0,0,0,418.39,82.37Z"/><path class="cls-2" d="M256.81,101.51a.66.66,0,1,1,1.31,0,.66.66,0,0,1-1.31,0Zm.17,7.83v-6.28h1v6.28Z"/><path class="cls-2" d="M263.76,109.33v-.71a2.72,2.72,0,0,1-2.08.87,2.09,2.09,0,0,1-2.2-2.08,2.06,2.06,0,0,1,2.2-2.07,2.63,2.63,0,0,1,2.08.86v-1.13c0-.84-.68-1.33-1.59-1.33a2.5,2.5,0,0,0-1.92.87l-.46-.68a3.29,3.29,0,0,1,2.51-1c1.33,0,2.43.6,2.43,2.12v4.32Zm0-1.33v-1.18A2.1,2.1,0,0,0,262,106a1.38,1.38,0,1,0,0,2.74A2.1,2.1,0,0,0,263.76,108Z"/><path class="cls-2" d="M266.29,106.19a3.1,3.1,0,0,1,3.13-3.29,2.69,2.69,0,0,1,2.3,1.09l-.65.6a1.86,1.86,0,0,0-1.6-.82,2.44,2.44,0,0,0,0,4.85,1.89,1.89,0,0,0,1.6-.82l.65.6a2.69,2.69,0,0,1-2.3,1.09A3.11,3.11,0,0,1,266.29,106.19Z"/><path class="cls-2" d="M277.26,109.33v-.88a3.07,3.07,0,0,1-2.24,1,1.77,1.77,0,0,1-2-2v-4.43h1v4.13c0,1.11.56,1.43,1.4,1.43a2.41,2.41,0,0,0,1.86-.95v-4.62h1v6.28Z"/><path class="cls-2" d="M280.15,109.33v-8.67h1v8.67Z"/><path class="cls-2" d="M282.88,101.51a.66.66,0,1,1,1.31,0,.66.66,0,0,1-1.31,0Zm.17,7.83v-6.28h1v6.28Z"/><path class="cls-2" d="M285.44,108.5l.51-.7a2.85,2.85,0,0,0,2.07.9c1,0,1.48-.45,1.48-1.08,0-1.52-3.89-.59-3.89-2.91,0-1,.84-1.81,2.34-1.81a3.18,3.18,0,0,1,2.33.91l-.46.68a2.44,2.44,0,0,0-1.87-.79c-.86,0-1.39.43-1.39,1,0,1.38,3.89.47,3.89,2.91,0,1.05-.84,1.9-2.47,1.9A3.34,3.34,0,0,1,285.44,108.5Z"/><path class="cls-2" d="M292.31,111l-.48-.4a1.94,1.94,0,0,0,.85-1.21l-.18,0a.62.62,0,0,1-.62-.66.7.7,0,0,1,.69-.7.88.88,0,0,1,.82,1A2.51,2.51,0,0,1,292.31,111Z"/><path class="cls-2" d="M299.38,108.38v3.34h-1v-8.67h1V104a2.62,2.62,0,0,1,2.12-1.09c1.65,0,2.79,1.25,2.79,3.29s-1.14,3.3-2.79,3.3A2.58,2.58,0,0,1,299.38,108.38Zm3.89-2.2c0-1.39-.75-2.42-2-2.42a2.32,2.32,0,0,0-1.87,1v2.83a2.33,2.33,0,0,0,1.87,1C302.51,108.62,303.27,107.58,303.27,106.19Z"/><path class="cls-2" d="M305.52,106.19a3.11,3.11,0,1,1,3.11,3.3A3.08,3.08,0,0,1,305.52,106.19Zm5.19,0a2.11,2.11,0,1,0-2.08,2.43A2.18,2.18,0,0,0,310.71,106.19Z"/><path class="cls-2" d="M313.31,109.33v-6.28h1v1a2.67,2.67,0,0,1,2.09-1.14v1a1.69,1.69,0,0,0-.39,0,2.3,2.3,0,0,0-1.7,1v4.45Z"/><path class="cls-2" d="M318.21,108v-4.11h-1v-.86h1v-1.72h1v1.72h1.27v.86h-1.27v3.9c0,.47.21.81.64.81a.94.94,0,0,0,.66-.26l.29.73a1.59,1.59,0,0,1-1.17.4A1.29,1.29,0,0,1,318.21,108Z"/><path class="cls-2" d="M325.81,109.33v-.71a2.72,2.72,0,0,1-2.08.87,2.09,2.09,0,0,1-2.2-2.08,2.06,2.06,0,0,1,2.2-2.07,2.63,2.63,0,0,1,2.08.86v-1.13c0-.84-.68-1.33-1.59-1.33a2.5,2.5,0,0,0-1.92.87l-.46-.68a3.29,3.29,0,0,1,2.51-1c1.33,0,2.43.6,2.43,2.12v4.32Zm0-1.33v-1.18a2.1,2.1,0,0,0-1.73-.78,1.38,1.38,0,1,0,0,2.74A2.1,2.1,0,0,0,325.81,108Z"/><path class="cls-2" d="M333.07,108.38v3.34h-1v-8.67h1V104a2.62,2.62,0,0,1,2.12-1.09c1.65,0,2.79,1.25,2.79,3.29s-1.14,3.3-2.79,3.3A2.57,2.57,0,0,1,333.07,108.38Zm3.89-2.2c0-1.39-.75-2.42-2-2.42a2.32,2.32,0,0,0-1.87,1v2.83a2.33,2.33,0,0,0,1.87,1C336.2,108.62,337,107.58,337,106.19Z"/><path class="cls-2" d="M339.21,106.19a3.11,3.11,0,1,1,3.11,3.3A3.08,3.08,0,0,1,339.21,106.19Zm5.19,0a2.11,2.11,0,1,0-2.08,2.43A2.18,2.18,0,0,0,344.4,106.19Z"/><path class="cls-2" d="M347,109.33v-6.28h1v1a2.66,2.66,0,0,1,2.09-1.14v1a1.69,1.69,0,0,0-.39,0,2.3,2.3,0,0,0-1.7,1v4.45Z"/><path class="cls-2" d="M351.9,108v-4.11h-1v-.86h1v-1.72h1v1.72h1.27v.86h-1.27v3.9c0,.47.21.81.64.81a.94.94,0,0,0,.66-.26l.29.73a1.59,1.59,0,0,1-1.17.4A1.28,1.28,0,0,1,351.9,108Z"/><path class="cls-2" d="M356,108v-4.11h-1v-.86h1v-1.72h1v1.72h1.27v.86H357v3.9c0,.47.21.81.64.81a.94.94,0,0,0,.66-.26l.29.73a1.59,1.59,0,0,1-1.17.4A1.29,1.29,0,0,1,356,108Z"/><path class="cls-2" d="M359.57,101.51a.66.66,0,1,1,1.31,0,.66.66,0,0,1-1.31,0Zm.17,7.83v-6.28h1v6.28Z"/><path class="cls-2" d="M362.9,108v-4.11h-1v-.86h1v-1.72h1v1.72h1.27v.86h-1.27v3.9c0,.47.21.81.64.81a.94.94,0,0,0,.66-.26l.29.73a1.59,1.59,0,0,1-1.17.4A1.29,1.29,0,0,1,362.9,108Z"/><path class="cls-2" d="M366,106.19a3.11,3.11,0,1,1,3.11,3.3A3.08,3.08,0,0,1,366,106.19Zm5.19,0a2.11,2.11,0,1,0-2.08,2.43A2.18,2.18,0,0,0,371.19,106.19Z"/><path class="cls-2" d="M373.8,109.33v-6.28h1v1a2.67,2.67,0,0,1,2.09-1.14v1a1.69,1.69,0,0,0-.39,0,2.3,2.3,0,0,0-1.7,1v4.45Z"/><path class="cls-2" d="M385.68,109.33v-4.11c0-1.11-.56-1.46-1.4-1.46a2.42,2.42,0,0,0-1.86,1v4.59h-1v-6.28h1V104a3.11,3.11,0,0,1,2.24-1.07,1.78,1.78,0,0,1,2,2v4.41Z"/><path class="cls-2" d="M388.39,101.51a.66.66,0,1,1,1.31,0,.66.66,0,0,1-1.31,0Zm.17,7.83v-6.28h1v6.28Z"/><path class="cls-2" d="M390.94,108.5l.51-.7a2.85,2.85,0,0,0,2.07.9c1,0,1.48-.45,1.48-1.08,0-1.52-3.89-.59-3.89-2.91,0-1,.84-1.81,2.34-1.81a3.17,3.17,0,0,1,2.33.91l-.46.68a2.44,2.44,0,0,0-1.87-.79c-.86,0-1.39.43-1.39,1,0,1.38,3.89.47,3.89,2.91,0,1.05-.85,1.9-2.47,1.9A3.34,3.34,0,0,1,390.94,108.5Z"/><path class="cls-2" d="M397.51,109.33v-8.67h1v8.67Z"/><path class="cls-3" d="M403.42,106.19a3.1,3.1,0,0,1,3.13-3.29,2.69,2.69,0,0,1,2.3,1.09l-.65.6a1.86,1.86,0,0,0-1.6-.82,2.44,2.44,0,0,0,0,4.85,1.9,1.9,0,0,0,1.6-.82l.65.6a2.69,2.69,0,0,1-2.3,1.09A3.11,3.11,0,0,1,403.42,106.19Z"/><path class="cls-3" d="M409.69,106.19a3.11,3.11,0,1,1,3.11,3.3A3.08,3.08,0,0,1,409.69,106.19Zm5.19,0a2.11,2.11,0,1,0-2.08,2.43A2.18,2.18,0,0,0,414.87,106.19Z"/><path class="cls-3" d="M421.72,109.33v-4.11c0-1.11-.56-1.46-1.4-1.46a2.42,2.42,0,0,0-1.86,1v4.59h-1v-6.28h1V104a3.11,3.11,0,0,1,2.24-1.07,1.78,1.78,0,0,1,2,2v4.41Z"/><path class="cls-3" d="M424.09,108.5l.51-.7a2.85,2.85,0,0,0,2.07.9c1,0,1.48-.45,1.48-1.08,0-1.52-3.89-.59-3.89-2.91,0-1,.84-1.81,2.34-1.81a3.17,3.17,0,0,1,2.33.91l-.46.68a2.44,2.44,0,0,0-1.87-.79c-.86,0-1.39.43-1.39,1,0,1.38,3.89.47,3.89,2.91,0,1.05-.85,1.9-2.47,1.9A3.34,3.34,0,0,1,424.09,108.5Z"/><path class="cls-3" d="M430.25,106.19a3.14,3.14,0,0,1,3.09-3.29c1.9,0,3,1.48,3,3.37v.25h-5.08a2.21,2.21,0,0,0,2.26,2.17,2.75,2.75,0,0,0,1.94-.79l.47.64a3.41,3.41,0,0,1-2.5,1A3.11,3.11,0,0,1,430.25,106.19Zm3.08-2.48a2.1,2.1,0,0,0-2.05,2.09h4.12A2,2,0,0,0,433.33,103.7Z"/><path class="cls-3" d="M437.57,106.19a3.1,3.1,0,0,1,3.13-3.29A2.68,2.68,0,0,1,443,104l-.65.6a1.86,1.86,0,0,0-1.6-.82,2.44,2.44,0,0,0,0,4.85,1.89,1.89,0,0,0,1.6-.82l.65.6a2.68,2.68,0,0,1-2.3,1.09A3.11,3.11,0,0,1,437.57,106.19Z"/><path class="cls-3" d="M443.65,106.61v-.86h3.12v.86Z"/><path class="cls-3" d="M257.17,129.35v-4.11h-1v-.86h1v-1.72h1v1.72h1.27v.86h-1.27v3.9c0,.47.21.81.64.81a.94.94,0,0,0,.66-.26l.29.73a1.59,1.59,0,0,1-1.17.4A1.29,1.29,0,0,1,257.17,129.35Z"/><path class="cls-3" d="M260.27,127.52a3.14,3.14,0,0,1,3.09-3.29c1.9,0,3,1.48,3,3.37v.25h-5.08a2.21,2.21,0,0,0,2.26,2.17,2.75,2.75,0,0,0,1.94-.79l.47.64a3.41,3.41,0,0,1-2.5,1A3.11,3.11,0,0,1,260.27,127.52Zm3.08-2.48a2.09,2.09,0,0,0-2.05,2.09h4.12A2,2,0,0,0,263.35,125Z"/><path class="cls-3" d="M268.1,129.35v-4.11h-1v-.86h1v-1.72h1v1.72h1.27v.86h-1.27v3.9c0,.47.21.81.64.81a.94.94,0,0,0,.66-.26l.29.73a1.59,1.59,0,0,1-1.17.4A1.29,1.29,0,0,1,268.1,129.35Z"/><path class="cls-3" d="M275.88,130.66v-.88a3.07,3.07,0,0,1-2.24,1,1.77,1.77,0,0,1-2-2v-4.43h1v4.13c0,1.11.56,1.43,1.4,1.43a2.4,2.4,0,0,0,1.86-.95v-4.62h1v6.28Z"/><path class="cls-3" d="M278.78,130.66v-6.28h1v1a2.67,2.67,0,0,1,2.09-1.14v1a1.69,1.69,0,0,0-.39,0,2.3,2.3,0,0,0-1.7,1v4.45Z"/><path class="cls-2" d="M282.06,130.08a.71.71,0,1,1,.71.71A.72.72,0,0,1,282.06,130.08Z"/><path class="cls-2" d="M288.64,127.29V122h1.08v5.28a2.46,2.46,0,1,0,4.91,0V122h1.08v5.29a3.54,3.54,0,0,1-7.07,0Z"/><path class="cls-2" d="M298,129.35v-4.11h-1v-.86h1v-1.72h1v1.72h1.27v.86h-1.27v3.9c0,.47.21.81.64.81a.94.94,0,0,0,.66-.26l.29.73a1.59,1.59,0,0,1-1.17.4A1.28,1.28,0,0,1,298,129.35Z"/><path class="cls-2" d="M304.94,130.66V122h1v8.67Z"/><path class="cls-2" d="M311.76,130.66v-.71a2.72,2.72,0,0,1-2.08.87,2.09,2.09,0,0,1-2.2-2.08,2.06,2.06,0,0,1,2.2-2.07,2.63,2.63,0,0,1,2.08.86V126.4c0-.84-.68-1.33-1.59-1.33a2.5,2.5,0,0,0-1.92.87l-.46-.68a3.29,3.29,0,0,1,2.51-1c1.33,0,2.43.6,2.43,2.12v4.32Zm0-1.33v-1.18a2.1,2.1,0,0,0-1.73-.78,1.38,1.38,0,1,0,0,2.74A2.1,2.1,0,0,0,311.76,129.34Z"/><path class="cls-2" d="M314.29,127.52a3.1,3.1,0,0,1,3.13-3.29,2.69,2.69,0,0,1,2.3,1.09l-.65.6a1.86,1.86,0,0,0-1.6-.82,2.44,2.44,0,0,0,0,4.85,1.9,1.9,0,0,0,1.6-.82l.65.6a2.69,2.69,0,0,1-2.3,1.09A3.11,3.11,0,0,1,314.29,127.52Z"/><path class="cls-2" d="M320.84,122.84a.66.66,0,1,1,1.31,0,.66.66,0,0,1-1.31,0Zm.17,7.83v-6.28h1v6.28Z"/><path class="cls-2" d="M328.14,130.66v-4.11c0-1.11-.56-1.46-1.4-1.46a2.42,2.42,0,0,0-1.86,1v4.59h-1v-6.28h1v.91a3.11,3.11,0,0,1,2.24-1.07,1.78,1.78,0,0,1,2,2v4.41Z"/><path class="cls-2" d="M330.85,122.84a.66.66,0,1,1,1.31,0,.66.66,0,0,1-1.31,0Zm.17,7.83v-6.28h1v6.28Z"/><path class="cls-2" d="M337.81,130.66v-.71a2.72,2.72,0,0,1-2.08.87,2.09,2.09,0,0,1-2.2-2.08,2.06,2.06,0,0,1,2.2-2.07,2.63,2.63,0,0,1,2.08.86V126.4c0-.84-.68-1.33-1.59-1.33a2.5,2.5,0,0,0-1.92.87l-.46-.68a3.29,3.29,0,0,1,2.51-1c1.33,0,2.43.6,2.43,2.12v4.32Zm0-1.33v-1.18a2.1,2.1,0,0,0-1.73-.78,1.38,1.38,0,1,0,0,2.74A2.1,2.1,0,0,0,337.81,129.34Z"/><path class="cls-2" d="M344.28,129.35v-4.11h-1v-.86h1v-1.72h1v1.72h1.27v.86h-1.27v3.9c0,.47.21.81.64.81a.94.94,0,0,0,.66-.26l.29.73a1.59,1.59,0,0,1-1.17.4A1.29,1.29,0,0,1,344.28,129.35Z"/><path class="cls-2" d="M347.37,127.52a3.14,3.14,0,0,1,3.09-3.29c1.9,0,3,1.48,3,3.37v.25H348.4a2.21,2.21,0,0,0,2.26,2.17,2.75,2.75,0,0,0,1.94-.79l.47.64a3.41,3.41,0,0,1-2.5,1A3.11,3.11,0,0,1,347.37,127.52Zm3.08-2.48a2.1,2.1,0,0,0-2.05,2.09h4.12A2,2,0,0,0,350.46,125Z"/><path class="cls-2" d="M362.61,130.66V126.4c0-.79-.35-1.3-1.16-1.3a2.2,2.2,0,0,0-1.66,1v4.6h-1V126.4c0-.79-.34-1.3-1.16-1.3a2.19,2.19,0,0,0-1.65,1v4.59h-1v-6.28h1v.91a2.71,2.71,0,0,1,2-1.07,1.61,1.61,0,0,1,1.69,1.17,2.64,2.64,0,0,1,2.11-1.17c1.14,0,1.75.64,1.75,1.9v4.54Z"/><path class="cls-2" d="M366.5,129.71v3.34h-1v-8.67h1v.94a2.62,2.62,0,0,1,2.12-1.09c1.65,0,2.79,1.25,2.79,3.29s-1.14,3.3-2.79,3.3A2.58,2.58,0,0,1,366.5,129.71Zm3.89-2.2c0-1.39-.75-2.42-2-2.42a2.32,2.32,0,0,0-1.87,1v2.83a2.33,2.33,0,0,0,1.87,1C369.63,129.95,370.39,128.91,370.39,127.52Z"/><path class="cls-2" d="M372.64,127.52a3.11,3.11,0,1,1,3.11,3.3A3.08,3.08,0,0,1,372.64,127.52Zm5.19,0a2.11,2.11,0,1,0-2.08,2.43A2.18,2.18,0,0,0,377.83,127.52Z"/><path class="cls-2" d="M380.43,130.66v-6.28h1v1a2.67,2.67,0,0,1,2.09-1.14v1a1.69,1.69,0,0,0-.39,0,2.3,2.3,0,0,0-1.7,1v4.45Z"/><path class="cls-2" d="M385.81,132.74l.35-.74a1.24,1.24,0,0,0,.9.4c.59,0,1-.34,1-1.13v-6.89h1v6.89a1.72,1.72,0,0,1-1.86,1.94A2,2,0,0,1,385.81,132.74Zm2.09-9.91a.66.66,0,1,1,1.31,0,.66.66,0,0,1-1.31,0Z"/><path class="cls-2" d="M395.18,130.66v-.88a3.07,3.07,0,0,1-2.24,1,1.77,1.77,0,0,1-2-2v-4.43h1v4.13c0,1.11.56,1.43,1.4,1.43a2.4,2.4,0,0,0,1.86-.95v-4.62h1v6.28Z"/><path class="cls-2" d="M397.57,129.83l.51-.7a2.85,2.85,0,0,0,2.07.9c1,0,1.48-.45,1.48-1.08,0-1.52-3.89-.59-3.89-2.91,0-1,.85-1.81,2.34-1.81a3.18,3.18,0,0,1,2.33.91l-.46.68a2.45,2.45,0,0,0-1.87-.79c-.86,0-1.39.43-1.39,1,0,1.38,3.89.47,3.89,2.91,0,1.05-.84,1.9-2.47,1.9A3.34,3.34,0,0,1,397.57,129.83Z"/><path class="cls-2" d="M404.5,129.35v-4.11h-1v-.86h1v-1.72h1v1.72h1.27v.86h-1.27v3.9c0,.47.21.81.64.81a.94.94,0,0,0,.66-.26l.29.73a1.59,1.59,0,0,1-1.17.4A1.28,1.28,0,0,1,404.5,129.35Z"/><path class="cls-2" d="M407.6,127.52a3.11,3.11,0,1,1,3.11,3.3A3.08,3.08,0,0,1,407.6,127.52Zm5.19,0a2.11,2.11,0,1,0-2.08,2.43A2.18,2.18,0,0,0,412.79,127.52Z"/><path class="cls-3" d="M418.21,129.83l.51-.7a2.85,2.85,0,0,0,2.07.9c1,0,1.48-.45,1.48-1.08,0-1.52-3.89-.59-3.89-2.91,0-1,.85-1.81,2.34-1.81a3.18,3.18,0,0,1,2.33.91l-.46.68a2.45,2.45,0,0,0-1.87-.79c-.86,0-1.39.43-1.39,1,0,1.38,3.89.47,3.89,2.91,0,1.05-.84,1.9-2.47,1.9A3.34,3.34,0,0,1,418.21,129.83Z"/><path class="cls-3" d="M428.71,130.66v-.71a2.72,2.72,0,0,1-2.08.87,2.09,2.09,0,0,1-2.2-2.08,2.06,2.06,0,0,1,2.2-2.07,2.63,2.63,0,0,1,2.08.86V126.4c0-.84-.68-1.33-1.59-1.33a2.5,2.5,0,0,0-1.92.87l-.46-.68a3.29,3.29,0,0,1,2.51-1c1.33,0,2.43.6,2.43,2.12v4.32Zm0-1.33v-1.18a2.1,2.1,0,0,0-1.73-.78,1.38,1.38,0,1,0,0,2.74A2.1,2.1,0,0,0,428.71,129.34Z"/><path class="cls-3" d="M431.62,132.27l.49-.73a2.4,2.4,0,0,0,2,.86,1.8,1.8,0,0,0,2-1.89v-.9a2.62,2.62,0,0,1-2.11,1.12c-1.64,0-2.79-1.22-2.79-3.25s1.14-3.26,2.79-3.26a2.6,2.6,0,0,1,2.11,1.1v-.95h1v6.1c0,2.08-1.46,2.73-3,2.73A3.21,3.21,0,0,1,431.62,132.27Zm4.55-3.42v-2.74a2.31,2.31,0,0,0-1.87-1c-1.26,0-2,1-2,2.39s.75,2.39,2,2.39A2.32,2.32,0,0,0,436.17,128.85Z"/><path class="cls-3" d="M438.9,122.84a.66.66,0,1,1,1.31,0,.66.66,0,0,1-1.31,0Zm.17,7.83v-6.28h1v6.28Z"/><path class="cls-3" d="M442.23,129.35v-4.11h-1v-.86h1v-1.72h1v1.72h1.27v.86h-1.27v3.9c0,.47.21.81.64.81a.94.94,0,0,0,.66-.26l.29.73a1.59,1.59,0,0,1-1.17.4A1.28,1.28,0,0,1,442.23,129.35Z"/><path class="cls-3" d="M445.1,127.94v-.86h3.12v.86Z"/><path class="cls-3" d="M257.17,150.68v-4.11h-1v-.86h1V144h1v1.71h1.27v.86h-1.27v3.9c0,.47.21.81.64.81a1,1,0,0,0,.66-.26l.29.73a1.59,1.59,0,0,1-1.17.4A1.28,1.28,0,0,1,257.17,150.68Z"/><path class="cls-3" d="M260.7,144.16a.66.66,0,1,1,1.31,0,.66.66,0,0,1-1.31,0Zm.17,7.83v-6.28h1V152Z"/><path class="cls-3" d="M263.25,151.16l.51-.7a2.85,2.85,0,0,0,2.07.9c1,0,1.48-.46,1.48-1.08,0-1.52-3.89-.58-3.89-2.91,0-1,.84-1.81,2.34-1.81a3.18,3.18,0,0,1,2.33.91l-.46.68a2.45,2.45,0,0,0-1.87-.79c-.86,0-1.39.43-1.39,1,0,1.38,3.89.47,3.89,2.91,0,1.05-.84,1.9-2.47,1.9A3.34,3.34,0,0,1,263.25,151.16Z"/><path class="cls-2" d="M269.63,151.41a.72.72,0,1,1,.72.71A.72.72,0,0,1,269.63,151.41Z"/></g></svg>