<svg xmlns="http://www.w3.org/2000/svg" viewBox="0 0 490 219.72"><defs><style>.cls-1{fill:#fff;}.cls-2{font-size:43px;fill:#172121;font-family:ProximaNova-Semibold, Proxima Nova;font-weight:700;}.cls-3{letter-spacing:0em;}.cls-4{letter-spacing:-0.02em;}.cls-5{letter-spacing:-0.01em;}.cls-6{letter-spacing:-0.01em;}.cls-7{letter-spacing:-0.01em;}.cls-8{letter-spacing:-0.02em;}.cls-9{letter-spacing:-0.01em;}.cls-10{letter-spacing:-0.02em;}.cls-11{letter-spacing:-0.03em;}.cls-12{letter-spacing:0em;}.cls-13{letter-spacing:-0.01em;}.cls-14{letter-spacing:0.01em;}.cls-15{letter-spacing:0.02em;}.cls-16{letter-spacing:-0.04em;}.cls-17{letter-spacing:-0.02em;}.cls-18{letter-spacing:-0.01em;}.cls-19{letter-spacing:-0.01em;}.cls-20{letter-spacing:-0.01em;}.cls-21{letter-spacing:-0.01em;}.cls-22{letter-spacing:-0.01em;}.cls-23{letter-spacing:-0.01em;}</style></defs><title>Artboard 1 copy 14</title><g id="Layer_5" data-name="Layer 5"><rect class="cls-1" width="490" height="220" rx="5" ry="5"/><text class="cls-2" transform="translate(37 73.04)"><tspan class="cls-3">N</tspan><tspan class="cls-4" x="30.81" y="0">e</tspan><tspan x="54.09" y="0">w </tspan><tspan class="cls-5" x="97.65" y="0">F</tspan><tspan class="cls-6" x="121.39" y="0">e</tspan><tspan class="cls-7" x="144.91" y="0">a</tspan><tspan class="cls-8" x="167.46" y="0">t</tspan><tspan class="cls-9" x="180.5" y="0">u</tspan><tspan class="cls-10" x="204.38" y="0">r</tspan><tspan class="cls-11" x="218.58" y="0">e</tspan><tspan x="241.35" y="0">: </tspan><tspan class="cls-12" x="0" y="50.67">A</tspan><tspan class="cls-13" x="28.81" y="50.67">l</tspan><tspan class="cls-14" x="38.62" y="50.67">l</tspan><tspan class="cls-15" x="49.25" y="50.67">-</tspan><tspan class="cls-3" x="62.95" y="50.67">N</tspan><tspan class="cls-4" x="93.76" y="50.67">e</tspan><tspan class="cls-16" x="117.04" y="50.67">w</tspan><tspan x="147.75" y="50.67">, </tspan><tspan class="cls-17" x="169.37" y="50.67">R</tspan><tspan class="cls-18" x="195.49" y="50.67">e</tspan><tspan class="cls-19" x="219.12" y="50.67">d</tspan><tspan class="cls-9" x="243.68" y="50.67">e</tspan><tspan class="cls-20" x="267.13" y="50.67">s</tspan><tspan class="cls-9" x="286.9" y="50.67">ign</tspan><tspan class="cls-18" x="345.18" y="50.67">e</tspan><tspan x="368.81" y="50.67">d </tspan><tspan class="cls-21" x="0" y="101.33">i</tspan><tspan class="cls-22" x="10.02" y="101.33">O</tspan><tspan x="42.29" y="101.33">S </tspan><tspan class="cls-12" x="78.93" y="101.33">A</tspan><tspan class="cls-23" x="107.74" y="101.33">p</tspan><tspan x="132.4" y="101.33">p</tspan></text></g></svg>