<svg xmlns="http://www.w3.org/2000/svg" viewBox="0 0 490 190.45"><defs><style>.cls-1{fill:#fff;}.cls-2{font-size:13px;fill:#929a9b;font-family:ProximaNova-Semibold, Proxima Nova;}.cls-3{font-weight:700;letter-spacing:0.1em;}.cls-4{letter-spacing:0.1em;}.cls-5{letter-spacing:0.11em;}.cls-6{letter-spacing:-0.01em;}.cls-7{letter-spacing:0.13em;}.cls-8{letter-spacing:0.09em;}.cls-9{letter-spacing:0.1em;}.cls-10{letter-spacing:0.11em;}.cls-11{letter-spacing:0.1em;}.cls-12{font-size:32px;fill:#172121;font-family:ProximaNova-Regular, Proxima Nova;}.cls-13{letter-spacing:-0.01em;}.cls-14{letter-spacing:0em;}.cls-15{letter-spacing:-0.04em;}.cls-16{letter-spacing:-0.08em;}.cls-17{letter-spacing:-0.09em;}.cls-18{letter-spacing:-0.04em;}.cls-19{letter-spacing:0em;}.cls-20{letter-spacing:0em;}.cls-21{letter-spacing:0em;}.cls-22{letter-spacing:0em;}.cls-23{letter-spacing:0.01em;}.cls-24{letter-spacing:-0.01em;}.cls-25{letter-spacing:0em;}.cls-26{letter-spacing:0em;}.cls-27{letter-spacing:-0.01em;}.cls-28{letter-spacing:0em;}.cls-29{letter-spacing:0em;}.cls-30{letter-spacing:0em;}.cls-31{letter-spacing:0em;}.cls-32{letter-spacing:0em;}</style></defs><title>Artboard 1 copy 12</title><g id="Layer_5" data-name="Layer 5"><rect class="cls-1" x="0.25" y="0.17" width="490" height="190" rx="5" ry="5"/><text class="cls-2" transform="translate(35.25 57.84)"><tspan class="cls-3">A<tspan class="cls-4" x="10.11" y="0">N</tspan><tspan class="cls-5" x="20.82" y="0">A</tspan><tspan class="cls-6" x="30.98" y="0">L</tspan><tspan class="cls-7" x="37.47" y="0">Y</tspan><tspan class="cls-8" x="47.39" y="0">T</tspan><tspan class="cls-9" x="56.07" y="0">I</tspan><tspan class="cls-10" x="60.78" y="0">C</tspan><tspan class="cls-11" x="71.04" y="0">S</tspan></tspan><tspan class="cls-12"><tspan class="cls-13" x="0" y="40">U</tspan><tspan class="cls-14" x="22.04" y="40">S</tspan><tspan x="40.74" y="40">E </tspan><tspan class="cls-15" x="67.2" y="40">D</tspan><tspan class="cls-16" x="88.46" y="40">A</tspan><tspan class="cls-17" x="106.81" y="40">T</tspan><tspan x="122.3" y="40">A </tspan><tspan class="cls-18" x="151.61" y="40">T</tspan><tspan x="168.46" y="40">O </tspan><tspan class="cls-19" x="201.2" y="40">M</tspan><tspan class="cls-20" x="227.14" y="40">A</tspan><tspan class="cls-21" x="248.22" y="40">K</tspan><tspan x="267.36" y="40">E </tspan><tspan class="cls-22" x="293.82" y="40">B</tspan><tspan class="cls-20" x="314.02" y="40">E</tspan><tspan class="cls-23" x="332.26" y="40">T</tspan><tspan class="cls-24" x="350.9" y="40">T</tspan><tspan class="cls-25" x="368.77" y="40">E</tspan><tspan x="386.86" y="40">R </tspan><tspan class="cls-26" x="0" y="80">D</tspan><tspan class="cls-27" x="22.27" y="80">E</tspan><tspan class="cls-28" x="40.08" y="80">C</tspan><tspan class="cls-29" x="61.58" y="80">I</tspan><tspan x="69.13" y="80">S</tspan><tspan class="cls-30" x="87.88" y="80">I</tspan><tspan class="cls-31" x="95.46" y="80">O</tspan><tspan class="cls-32" x="119.89" y="80">N</tspan><tspan x="142.43" y="80">S</tspan></tspan></text></g></svg>