<svg id="Layer_1" data-name="Layer 1" xmlns="http://www.w3.org/2000/svg" viewBox="0 0 490 490"><defs><style>.cls-1{fill:#baf6f7;}.cls-2{fill:#60e1e9;}.cls-3{fill:#17b8ce;}.cls-4{fill:#0797ae;}.cls-5{fill:none;stroke:#0b8599;stroke-miterlimit:10;stroke-dasharray:6 9;}</style></defs><title>Artboard 1 copy 6</title><rect class="cls-1" x="-7.15" y="-7.15" width="504.3" height="504.3"/><rect class="cls-2" x="80" y="80" width="330" height="330"/><path class="cls-3" d="M184.47,150.3a30.07,30.07,0,1,1-30.07,30.07,30.1,30.1,0,0,1,30.07-30.07m0-21.61a51.68,51.68,0,1,0,51.68,51.68,51.68,51.68,0,0,0-51.68-51.68Z"/><path class="cls-3" d="M184.47,281.85a30.07,30.07,0,1,1-30.07,30.07,30.1,30.1,0,0,1,30.07-30.07m0-21.61a51.68,51.68,0,1,0,51.68,51.68,51.68,51.68,0,0,0-51.68-51.68Z"/><path class="cls-4" d="M214.54,180.37A30.05,30.05,0,0,1,160,197.84L142.43,210.4a51.68,51.68,0,1,0,42-81.71V150.3A30.1,30.1,0,0,1,214.54,180.37Z"/><path class="cls-4" d="M214.54,311.92a30.07,30.07,0,1,1-53.33-19L144.48,279.2a51.68,51.68,0,1,0,40-19v21.61A30.1,30.1,0,0,1,214.54,311.92Z"/><rect class="cls-3" x="259.47" y="135.77" width="51.73" height="18.2"/><rect class="cls-3" x="259.47" y="162.59" width="99.53" height="11.68"/><rect class="cls-3" x="259.47" y="215.28" width="99.53" height="11.68"/><rect class="cls-3" x="259.47" y="189.42" width="51.73" height="18.2"/><rect class="cls-3" x="259.47" y="268.93" width="51.73" height="18.2"/><rect class="cls-3" x="259.47" y="295.76" width="99.53" height="11.68"/><rect class="cls-3" x="259.47" y="348.45" width="99.53" height="11.68"/><rect class="cls-3" x="259.47" y="322.58" width="51.73" height="18.2"/><line class="cls-5" x1="79" y1="-0.33" x2="79" y2="490.67"/><line class="cls-5" x1="411" y1="-0.33" x2="411" y2="490.67"/><line class="cls-5" x1="490.5" y1="79.17" x2="-0.5" y2="79.17"/><line class="cls-5" x1="490.5" y1="411.17" x2="-0.5" y2="411.17"/></svg>