<svg id="Layer_1" data-name="Layer 1" xmlns="http://www.w3.org/2000/svg" viewBox="0 0 490 360"><defs><style>.cls-1{fill:#baf6f7;}.cls-2{fill:#60e1e9;}.cls-3{fill:#17b8ce;}.cls-4{fill:#0797ae;}.cls-5{fill:none;stroke:#0b8599;stroke-miterlimit:10;stroke-dasharray:6 9;}</style></defs><title>Artboard 1 copy 8</title><rect class="cls-1" x="-7.15" y="-72.15" width="504.3" height="504.3"/><rect class="cls-2" x="80" y="-68.51" width="416.06" height="500.32"/><path class="cls-3" d="M226.47,85.3a30.07,30.07,0,1,1-30.07,30.07A30.1,30.1,0,0,1,226.47,85.3m0-21.61a51.68,51.68,0,1,0,51.68,51.68,51.68,51.68,0,0,0-51.68-51.68Z"/><path class="cls-3" d="M226.47,216.85a30.07,30.07,0,1,1-30.07,30.07,30.1,30.1,0,0,1,30.07-30.07m0-21.61a51.68,51.68,0,1,0,51.68,51.68,51.68,51.68,0,0,0-51.68-51.68Z"/><path class="cls-4" d="M256.54,115.37A30.05,30.05,0,0,1,202,132.84L184.42,145.4a51.68,51.68,0,1,0,42-81.71V85.3A30.1,30.1,0,0,1,256.54,115.37Z"/><path class="cls-4" d="M256.54,246.92a30.07,30.07,0,1,1-53.33-19L186.47,214.2a51.68,51.68,0,1,0,40-19v21.61A30.1,30.1,0,0,1,256.54,246.92Z"/><rect class="cls-3" x="301.47" y="70.77" width="51.73" height="18.2"/><rect class="cls-3" x="301.47" y="97.59" width="99.53" height="11.68"/><rect class="cls-3" x="301.47" y="150.28" width="99.53" height="11.68"/><rect class="cls-3" x="301.47" y="124.42" width="51.73" height="18.2"/><rect class="cls-3" x="301.47" y="203.93" width="51.73" height="18.2"/><rect class="cls-3" x="301.47" y="230.76" width="99.53" height="11.68"/><rect class="cls-3" x="301.47" y="283.45" width="99.53" height="11.68"/><rect class="cls-3" x="301.47" y="257.58" width="51.73" height="18.2"/><line class="cls-5" x1="79" y1="-65.33" x2="79" y2="425.67"/></svg>